<svg width="234" height="80" viewBox="0 0 234 80" fill="none" xmlns="http://www.w3.org/2000/svg">
<path d="M97.9391 27.2894H93.556V26.7309H95.0814V18.026H92.0306V19.2393H91.2969V16.832H92.0306V17.2557H99.4645V16.832H100.198V19.2393H99.4645V18.026H96.4137V26.7309H97.9391V27.2894Z" fill="#141414"/>
<path d="M111.803 27.2893H108.173V26.7308H109.312V22.5517H103.596V26.7308H104.736V27.2893H101.106V26.7308H102.245V17.8334H101.106V17.2749H104.736V17.8334H103.596V21.8777H109.312V17.8334H108.173V17.2749H111.803V17.8334H110.644V26.7501H111.803V27.2893Z" fill="#141414"/>
<path d="M120.01 27.2887H113.078V26.7302H114.217V17.8328H113.078V17.2743H119.16V16.8506H119.855V19.2579H119.16V17.9676H115.549V21.8578H118.426V20.7216L119.121 20.7023V23.6874L118.426 23.7066V22.5319H115.549V26.6147H119.295V25.2858H119.99V27.2887H120.01Z" fill="#141414"/>
<path d="M135.069 17.8334H133.93V23.6302C133.93 25.2479 133.351 26.3072 132.076 27.0005C131.439 27.3279 130.706 27.5205 129.952 27.5205C127.751 27.5205 126.11 26.0568 126.11 24.0732V17.8334H124.971V17.2749H128.601V17.8334H127.462V23.5917C127.462 25.4405 128.543 26.6346 130.242 26.6346C131.98 26.6346 133.158 25.402 133.158 23.5725V17.8334H132.018V17.2749H135.089V17.8334H135.069Z" fill="#141414"/>
<path d="M144.473 27.4627H143.99L138.14 19.4319V26.7308H139.298V27.2893H136.209V26.7308H137.367V18.4112L136.962 17.8334H135.919V17.2749H138.14L143.72 24.9013V17.8334H142.561V17.2749H145.631V17.8334H144.492V27.4627H144.473Z" fill="#141414"/>
<path d="M150.362 27.2893H146.732V26.7308H147.871V17.8334H146.732V17.2749H150.362V17.8334H149.223V26.7501H150.362V27.2893Z" fill="#141414"/>
<path d="M156.521 27.559H156L152.158 17.8334H151.25V17.2749H155.035V17.8334H153.606L156.56 25.3057L159.495 17.8334H158.491V17.2749H161.098V17.8334H160.344L156.521 27.559Z" fill="#141414"/>
<path d="M168.956 27.2887H162.024V26.7302H163.164V17.8328H162.024V17.2743H168.107V16.8506H168.802V19.2579H168.107V17.9676H164.496V21.8578H167.373V20.7216L168.068 20.7023V23.6874L167.373 23.7066V22.5319H164.496V26.6147H168.242V25.2858H168.937V27.2887H168.956Z" fill="#141414"/>
<path d="M179.228 27.2893H177.935C177.027 27.2893 176.873 27.1931 176.371 26.3842L174.092 22.7828H172.895V26.7308H174.034V27.2893H170.404V26.7308H171.544V17.8334H170.404V17.2749H174.652C176.139 17.2749 176.969 17.6793 177.433 18.623C177.626 19.0274 177.742 19.4896 177.742 19.9711C177.742 21.454 176.911 22.3977 175.463 22.6095L177.664 25.9798C178.031 26.5383 178.282 26.7308 178.649 26.7308H179.248V27.2893H179.228ZM172.895 22.0895H174.363C175.521 22.0895 176.332 21.2422 176.332 19.9904C176.332 18.6808 175.618 17.949 174.343 17.949H172.915V22.0895H172.895Z" fill="#141414"/>
<path d="M181.178 27.4432H180.464V24.7085H181.178V25.9025C182.105 26.5188 182.511 26.6729 183.187 26.6729C184.403 26.6729 185.233 26.0373 185.233 25.0744C185.233 24.2078 184.635 23.5722 182.993 22.7249C181.063 21.7234 180.425 20.9531 180.425 19.7205C180.425 18.2184 181.7 17.0821 183.438 17.0821C184.191 17.0821 184.77 17.2169 185.253 17.5058V16.9473H185.948V19.5472H185.253V18.4687C184.48 17.9488 184.094 17.7947 183.476 17.7947C182.433 17.7947 181.777 18.411 181.777 19.3546C181.777 20.125 182.221 20.5679 184.133 21.6657C186.044 22.7634 186.585 23.4374 186.585 24.67C186.585 26.2492 185.272 27.4625 183.553 27.4625C182.588 27.4625 181.97 27.2699 181.198 26.7692V27.4432H181.178Z" fill="#141414"/>
<path d="M191.587 27.2893H187.957V26.7308H189.096V17.8334H187.957V17.2749H191.587V17.8334H190.448V26.7501H191.587V27.2893Z" fill="#141414"/>
<path d="M199.213 27.2894H194.83V26.7309H196.355V18.026H193.305V19.2393H192.571V16.832H193.305V17.2557H200.738V16.832H201.472V19.2393H200.738V18.026H197.688V26.7309H199.213V27.2894Z" fill="#141414"/>
<path d="M208.848 27.2891H205.218V26.7306H206.357V22.6671L203.21 17.8139H202.322V17.2554H206.087V17.8139H204.697L207.323 21.8004L209.756 17.8139H208.366V17.2554H211.416V17.8139H210.625L207.69 22.5708V26.7306H208.848V27.2891Z" fill="#141414"/>
<path d="M215.336 22.3015C215.336 19.4513 217.556 17.0825 220.259 17.0825C222.905 17.0825 225.144 19.4513 225.144 22.2823C225.144 25.1133 222.924 27.5014 220.259 27.5014C217.595 27.5014 215.336 25.1325 215.336 22.3015ZM216.861 22.2823C216.861 24.8437 218.29 26.7117 220.279 26.7117C222.229 26.7117 223.658 24.8437 223.658 22.2823C223.658 19.7209 222.248 17.8721 220.298 17.8721C218.29 17.8721 216.861 19.7016 216.861 22.2823Z" fill="#141414"/>
<path d="M229.721 27.2887H226.091V26.7302H227.23V17.8328H226.091V17.2743H232.173V16.8506H232.868V19.2579H232.173V17.9676H228.562V21.8578H231.439V20.7216L232.135 20.7023V23.6874L231.439 23.7066V22.5319H228.562V26.7302H229.702V27.2887H229.721Z" fill="#141414"/>
<path d="M93.1893 59.7788H91.2971V52.5761H93.1893V55.7345C95.6416 57.3908 96.7228 57.7759 98.4992 57.7759C101.723 57.7759 103.886 56.1004 103.886 53.5776C103.886 51.2858 102.322 49.6103 97.9779 47.3571C92.919 44.7186 91.1812 42.6965 91.1812 39.4033C91.1812 35.436 94.5603 32.4702 99.0978 32.4702C101.105 32.4702 102.592 32.8361 103.886 33.5872V32.1621H105.74V39.0181H103.886V36.1678C101.839 34.8005 100.835 34.3961 99.233 34.3961C96.4911 34.3961 94.734 36.033 94.734 38.5174C94.734 40.5588 95.8926 41.7336 100.912 44.6223C105.933 47.5111 107.381 49.2637 107.381 52.5569C107.381 56.7167 103.924 59.9329 99.3874 59.9329C96.858 59.9329 95.2168 59.4129 93.2087 58.1226V59.7788H93.1893Z" fill="#141414"/>
<path d="M125.299 59.4317H115.742V57.9488H118.754V47.2411L110.432 34.4341H108.095V32.9512H118.02V34.4341H114.371L121.283 44.9493L127.674 34.4341H124.025V32.9512H132.057V34.4341H129.972L122.249 46.9907V57.9295H125.299V59.4317Z" fill="#141414"/>
<path d="M134.046 59.4317V57.9488H137.058V34.4341H134.046V32.9512H145.902C153.142 32.9512 159.031 38.8828 159.031 46.1626C159.031 53.5771 153.239 59.4317 145.844 59.4317H134.046ZM140.592 57.4288H145.419C150.922 57.4288 155.112 52.5757 155.054 46.2011C155.054 39.9998 150.787 34.9926 145.496 34.9926H140.592V57.4288Z" fill="#141414"/>
<path d="M182.221 59.8747H180.986L165.558 38.6903V57.9488H168.609V59.4317H160.499V57.9488H163.55V35.9555L162.469 34.4341H159.688V32.9512H165.5L180.213 53.0957V34.4341H177.162V32.9512H185.234V34.4341H182.221V59.8747Z" fill="#141414"/>
<path d="M206.243 59.432H187.957V57.9491H190.989V34.4344H187.976V32.9515H204.003V31.8345H205.856V38.2091H204.041V34.8003H194.522V45.0844H202.11V42.08L203.964 42.0415V49.9375L202.11 49.976V46.8947H194.522V57.6409H204.408V54.1166H206.262V59.432H206.243Z" fill="#141414"/>
<path d="M226.13 59.4317H216.572V57.9488H219.584V47.2411L211.262 34.4341H208.945V32.9512H218.87V34.4341H215.22L222.133 44.9493L228.524 34.4341H224.875V32.9512H232.907V34.4341H230.822L223.098 46.9907V57.9295H226.149V59.4317H226.13Z" fill="#141414"/>
<path d="M40.9012 51.9981H46.8289V51.0929H40.9012V51.9981ZM40.9012 54.4439H46.8289V53.558H40.9012V54.4439ZM40.9012 49.5522H46.8289V48.6471H40.9012V49.5522ZM36.6339 51.0929H30.7061V51.9981H36.6339V51.0929ZM36.6339 53.558H30.7061V54.4439H36.6339V53.558ZM36.6339 48.6471H30.7061V49.5522H36.6339V48.6471ZM46.0566 32.9514C43.643 32.8358 41.1908 32.7588 38.7772 32.7588C36.3636 32.7588 33.9114 32.8358 31.4978 32.9514V44.8917H8.57835C9.52448 50.6307 11.8801 55.9846 15.2399 60.4526C15.684 59.817 16.437 59.3934 17.2866 59.3934H31.4978V71.8344C33.8149 72.4699 36.2478 72.8166 38.7579 72.8166V72.9129H38.7772V72.8166C41.2873 72.8166 43.7202 72.4699 46.0566 71.8151V59.3934H60.2871C61.1174 59.3934 61.8704 59.7978 62.3145 60.4333C65.6743 55.9653 68.0106 50.5922 68.9761 44.8724H46.0566V32.9514ZM34.5679 36.6683L37.6573 38.1319L38.7579 34.9157L39.9164 38.1319L42.9672 36.649L41.4997 39.7304L44.7243 40.8281L41.4997 41.9836L42.9865 45.0265L39.8778 43.5628L38.7772 46.7598L37.6187 43.5436L34.5679 45.0265L36.0354 41.9259L32.8108 40.8281L36.0547 39.6726L34.5679 36.6683ZM23.7357 56.4083L20.6849 54.9254L19.5264 58.1416L18.4258 54.9446L15.3171 56.4083L16.8232 53.3654L13.5793 52.2099L16.8039 51.1122L15.3364 48.0116L18.3679 49.4945L19.5264 46.2783L20.627 49.4752L23.7357 48.0116L22.2489 51.0544L25.4735 52.2099L22.2489 53.3077L23.7357 56.4083ZM28.6401 56.1772H27.2885V55.195H28.6401V56.1772ZM28.6401 53.5388H27.2885V52.5566H28.6401V53.5388ZM28.6401 50.9003H27.2885V49.9182H28.6401V50.9003ZM28.6401 48.2812H27.2885V47.299H28.6401V48.2812ZM29.3738 56.1772V46.6827H35.3596C35.4754 46.6635 35.6106 46.6827 35.7264 46.6827C37.0973 46.6827 38.1593 47.7419 38.1593 49.0708V57.0246C37.7152 56.5046 37.0394 56.1579 36.2864 56.1579C36.1898 56.1772 31.2468 56.1772 29.3738 56.1772ZM42.9865 68.5604L39.8778 67.0968L38.7772 70.313L37.6187 67.0775L34.5679 68.5604L36.0354 65.4598L32.8108 64.3621L36.0354 63.2066L34.5486 60.1637L37.6573 61.6273L38.7579 58.4304L39.9164 61.6466L42.9672 60.1637L41.4997 63.2643L44.7243 64.3621L41.4997 65.5176L42.9865 68.5604ZM53.7994 48.0116L56.9081 49.4752L58.0087 46.2783L59.1672 49.4945L62.218 48.0116L60.7505 51.1122L63.9751 52.2099L60.7312 53.3654L62.218 56.4083L59.1093 54.9446L58.0087 58.1416L56.8502 54.9254L53.7994 56.4083L55.2669 53.3077L52.0423 52.2099L55.2669 51.0544L53.7994 48.0116ZM48.895 47.2797H50.2466V48.2619H48.895V47.2797ZM48.895 49.9182H50.2466V50.9003H48.895V49.9182ZM48.895 52.5566H50.2466V53.5388H48.895V52.5566ZM48.895 55.195H50.2466V56.1772H48.895V55.195ZM48.1805 46.6827V56.1772C46.3076 56.1772 41.3453 56.1772 41.2487 56.1772C40.4957 56.1772 39.8392 56.5046 39.3758 57.0438V49.09C39.3758 47.7419 40.4377 46.702 41.8087 46.702C41.9245 46.702 42.0597 46.6827 42.1755 46.702H48.1805V46.6827ZM59.9975 6.18199C54.089 4.93019 46.2883 3.69764 38.7772 3.69764C27.5009 3.69764 15.5874 6.49013 10.3547 7.896C9.31208 8.16562 8.53973 8.39673 8.07632 8.53154V34.1069C11.4746 33.5676 25.4735 31.4492 38.7579 31.4299C52.0423 31.4299 66.0411 33.5484 69.4395 34.1069V8.53154C68.9761 8.39673 68.2037 8.18488 67.161 7.896C65.4426 7.4338 62.9517 6.81753 59.9975 6.18199ZM27.945 8.87819C28.4084 8.76264 27.4044 8.01156 28.0608 8.05007C28.4856 8.06933 29.8952 8.06933 30.9572 8.58931C31.1502 8.66635 31.2854 8.30043 31.6909 8.03081C31.7295 8.01156 31.8261 7.97304 31.884 8.03081C32.3088 8.28118 32.4439 8.66635 32.6563 8.57005C33.7183 8.06933 35.1085 8.06933 35.514 8.03081C36.1898 7.9923 35.1665 8.76264 35.6299 8.85893C38.0242 9.43669 39.8006 11.4588 39.8006 13.8662C39.8006 14.5595 39.6268 15.2143 39.3951 15.8305C39.2599 16.1579 38.9317 15.2335 38.7965 15.7727C38.5648 16.7549 38.3138 17.4868 37.7925 18.4689C37.2904 19.3934 36.4795 17.4675 36.2284 18.0067C35.765 18.9697 34.6837 19.3163 33.9307 19.4319C33.8342 19.4319 33.7569 19.4319 33.8728 19.3356C33.9114 19.2971 34.1045 19.1237 34.1431 18.7771C34.1431 18.7386 34.1238 18.6808 34.201 18.6423C34.7803 18.3727 35.2051 17.8334 35.3209 17.1979C35.4947 16.6009 35.7457 15.7535 36.0354 15.2335C36.6919 14.078 35.9002 12.6914 36.0933 12.3832C36.5374 12.0944 36.827 11.5936 36.827 11.0159C36.827 10.1107 36.0933 9.37891 35.1858 9.37891C34.7031 9.37891 34.259 9.59076 33.9693 9.93741L33.9307 9.97593C33.7762 10.13 33.6411 10.3033 33.5059 10.4767C33.3514 10.6692 33.3901 11.0159 33.6411 11.0737C34.761 11.3625 35.4754 13.8662 35.0313 14.675C34.8382 15.0409 34.2203 16.389 34.2203 16.7742C34.2203 17.2749 33.8149 17.6793 33.3128 17.6793C32.9267 17.6793 32.5984 17.4482 32.4632 17.0823L32.4826 17.0438C32.7915 16.8512 33.4673 16.4468 33.4673 16.0231L33.3321 14.6558C33.8921 14.598 34.1431 14.2898 34.2203 13.7699C34.2783 13.7313 34.3169 13.6928 34.3555 13.6543C34.5486 13.481 34.6644 13.0188 34.259 13.0958C33.699 13.1921 33.0618 13.1728 32.4246 13.3462C32.3474 13.3654 32.2895 13.4425 32.2702 13.5195C32.2508 13.6351 32.5984 15.2913 32.6949 15.6572C32.6949 15.6957 32.6756 15.715 32.6563 15.715C32.4053 15.6957 31.9612 15.6765 31.8454 15.6765C31.7295 15.6765 31.3047 15.6957 31.0344 15.715C31.0151 15.715 30.9765 15.6765 30.9765 15.6572C31.0537 15.272 31.4206 13.6158 31.4206 13.6158C31.4206 13.5388 31.4206 13.481 31.382 13.4232C31.2661 13.2691 29.6442 13.1343 29.4318 13.0958C29.3352 13.0766 29.2387 13.1151 29.1808 13.1921C29.0263 13.4232 29.2966 13.6736 29.4897 13.7699C29.5669 14.2706 29.8179 14.5787 30.3586 14.6365L30.3779 14.6558C30.3586 14.752 30.2234 16.0231 30.2234 16.0231C30.2234 16.4661 30.8992 16.832 31.2275 17.0246C31.2468 17.0438 31.2661 17.0823 31.2661 17.1016C31.1116 17.4097 30.7834 17.6408 30.4358 17.6408C29.9338 17.6408 29.5283 17.2364 29.5283 16.7357C29.5283 16.4083 28.9297 15.0024 28.698 14.6172C28.2153 13.7891 28.9297 11.324 30.0883 11.0351C30.3393 10.9774 30.4744 10.6115 30.2814 10.4189C29.7986 9.93741 29.2387 9.34039 28.505 9.34039C27.5974 9.34039 26.883 10.0722 26.883 10.9774C26.883 12.0173 27.6747 12.1714 27.6167 12.4603C27.2885 13.4232 27.2885 14.4632 27.7133 15.195C28.0029 15.6957 28.2346 16.5238 28.4277 17.1016C28.5436 17.6986 28.8911 18.2186 29.4125 18.5075C29.6635 18.6615 29.5476 18.8541 29.6442 19.066C29.7021 19.1623 29.7793 19.2393 29.8373 19.2971C29.9531 19.3741 29.8566 19.3934 29.7793 19.3934C29.0263 19.2971 27.8485 18.9697 27.3657 17.949C27.1147 17.4097 26.2844 19.3356 25.8017 18.4112C25.2804 17.429 25.0487 16.6972 24.7977 15.715C24.6625 15.1757 24.3343 16.1001 24.1991 15.7727C23.9674 15.1565 23.7936 14.5209 23.7936 13.8084C23.7936 11.4588 25.57 9.43669 27.945 8.87819ZM34.761 10.5537C34.7417 10.5344 34.7417 10.4381 34.7803 10.4189C34.8961 10.3226 35.0506 10.2841 35.2051 10.2841C35.6106 10.2841 35.9388 10.6115 35.9388 11.0159C35.9388 11.247 35.8423 11.4396 35.6685 11.5744C35.6299 11.6129 35.5526 11.5744 35.5333 11.5359C35.3209 11.1507 35.0699 10.8233 34.761 10.5537ZM33.1197 18.7578C32.946 19.22 32.2895 19.066 31.9419 19.3548C31.9033 19.3934 31.8067 19.3934 31.7681 19.3548C31.4206 19.066 30.7834 19.2008 30.571 18.7C30.5517 18.6615 30.5517 18.5845 30.6482 18.5652C31.1116 18.5075 31.5171 18.2956 31.8067 17.9682C31.8261 17.9297 31.9033 17.9104 31.9805 17.9875C32.2508 18.2764 32.6177 18.5075 33.0425 18.5652C33.0811 18.5845 33.1584 18.623 33.1197 18.7578ZM28.196 11.5551C28.1767 11.5744 28.0995 11.6129 28.0415 11.5551C27.8871 11.4203 27.7712 11.2085 27.7712 10.9774C27.7712 10.5729 28.0995 10.2455 28.505 10.2455C28.698 10.2455 28.8718 10.3226 29.007 10.4381C29.0649 10.4766 29.0263 10.5729 29.007 10.5922C28.698 10.9003 28.4277 11.2085 28.196 11.5551ZM21.7469 20.934C21.2449 20.934 21.0518 21.0881 20.6849 21.3192C20.4532 21.4733 20.3953 21.0303 20.6656 20.1252C20.878 19.4126 19.4685 19.0274 19.1402 19.3548C18.6575 19.7208 17.4604 20.4526 16.2632 19.2008C16.0315 18.9504 16.8039 19.0274 16.8425 18.8156C16.9197 18.4882 17.2093 18.2956 17.3252 18.1801C17.4024 18.0838 17.4024 17.9297 17.2673 17.8719C16.9004 17.6793 16.3984 17.2557 16.5335 16.4853C16.5528 16.3698 15.9157 16.3312 16.1281 16.1387C17.248 15.118 18.4644 15.7535 18.9471 16.0809C19.0244 16.1194 19.1981 16.1194 19.2175 15.9653C19.2561 15.6379 19.0823 15.4068 19.7581 14.8676C19.8933 14.752 19.3719 14.3091 19.7388 14.3284C22.0365 14.9061 20.9939 17.2942 21.4766 17.7179C22.3648 18.5075 24.4887 19.1237 26.4775 19.5474C26.6513 19.5859 27.2692 19.7978 27.4044 19.8748C29.0263 20.7029 30.011 20.6259 30.8799 20.2793C31.1502 20.1637 31.1502 20.5296 31.0537 20.6066C27.8485 23.6688 25.3962 22.8792 24.5467 22.3399C23.9481 21.9547 22.7123 21.9355 22.1524 22.7251C22.0558 22.8214 21.8821 22.8792 21.8048 22.6288C21.631 22.051 21.8241 21.6659 21.9979 21.2422C22.1138 20.9918 21.8434 20.934 21.7469 20.934ZM52.3319 23.765C51.9071 24.131 51.1348 24.5546 49.9183 24.4969C49.397 24.4776 49.146 24.6317 49.0301 24.7665C48.9529 24.8628 48.9143 24.9976 48.895 25.0169C48.8177 25.2672 48.9143 25.5368 49.0494 25.7487C49.1846 25.9413 49.1267 26.0568 48.9336 26.0953C48.7405 26.1531 48.4702 26.1531 47.9488 25.9027C47.7171 25.7872 47.6592 25.9413 47.6206 26.0376C47.5241 26.2879 47.6978 26.5961 48.0454 26.8272C48.2192 26.9812 48.1806 27.1353 47.9102 27.2316C47.4468 27.3857 47.0413 27.1738 46.3655 26.8079C45.9794 26.5961 45.6704 26.5575 45.4001 26.8657C45.2456 27.039 45.2649 27.1931 45.3422 27.2894C45.6125 27.5397 45.767 28.0597 45.1105 28.8878C44.8981 29.1574 44.6664 28.4064 44.454 28.5026C43.5658 28.9263 42.832 28.3678 42.5424 28.0019C42.4845 27.9249 42.3493 27.9056 42.1948 28.0019C41.7507 28.3101 40.7853 28.7915 40.4184 27.9249C40.3605 27.7901 39.8392 28.1175 39.8392 27.8671C39.8585 26.442 41.0942 26.1724 41.6349 26.1338C41.7894 26.1146 41.828 26.0376 41.7507 25.9027C41.5383 25.5946 41.2873 25.2287 41.4225 24.805C41.519 24.4969 40.7081 24.4198 41.0363 24.2465C42.6776 23.4377 43.5851 24.9976 43.8747 25.1517C44.3574 25.4213 46.4814 24.728 46.7517 23.5725C46.8096 23.3414 46.2497 23.2451 45.709 23.1103C45.6125 23.091 45.5546 22.9562 45.7283 22.8214C47.022 21.8584 48.0647 20.6066 50.4011 20.3755C50.6907 20.337 50.8065 20.5874 50.8065 20.7029C50.8452 21.0688 50.9417 21.4155 51.0962 21.7429C51.4437 22.4555 51.8492 22.8984 52.2547 23.2258C52.4864 23.4569 52.4478 23.6688 52.3319 23.765ZM62.1408 23.0332C62.3532 23.1488 62.3532 23.2643 62.1987 23.3991C62.0442 23.5339 61.7932 23.6688 61.2333 23.6688C60.9822 23.6688 60.9822 23.8228 61.0015 23.9384C61.0402 24.208 61.3298 24.4006 61.7353 24.4584C61.9477 24.5161 62.0056 24.6702 61.7932 24.8628C61.4456 25.2094 61.0015 25.2094 60.2292 25.1902C59.4955 25.1709 58.9162 26.0376 59.341 26.4035C59.6306 26.6538 60.2099 27.1931 59.7079 28.6952C59.5534 29.1382 59.2638 28.2908 59.0321 28.4256C58.4335 28.7915 57.8928 28.3293 57.6225 28.0019C57.5067 27.8671 57.3908 27.8671 57.3136 28.0019C57.0626 28.4256 56.4254 29.1574 55.151 28.4641C54.8807 28.3101 54.3014 28.83 54.2628 28.6567C54.0504 27.6553 54.5717 27.0775 54.9965 26.7694C55.0352 26.7309 55.2089 26.4998 54.9193 26.519C54.4945 26.4998 53.9539 26.365 53.8959 25.8257C53.8959 25.7102 53.336 25.7487 53.3746 25.5946C53.5098 24.8628 55.1124 24.3235 56.2323 25.0746C57.1784 25.6909 58.3563 23.5725 57.5067 22.5903C56.8888 21.8777 53.2974 23.8806 52.0809 21.2807C51.5982 20.2407 52.1968 19.3548 51.7141 19.2778C51.212 19.2008 48.9529 18.7193 46.4428 20.7222C42.2142 24.1117 37.6187 22.2629 36.5374 21.5118C36.3636 21.454 36.2091 21.5888 36.2671 21.7622C36.4408 22.2051 36.3636 22.6095 36.1512 22.9177C35.7071 23.5917 34.1817 24.2658 33.9114 24.3428C32.135 24.8628 32.3088 26.2301 32.5019 26.8272C32.5598 27.0197 32.4826 27.116 32.2895 27.0968C31.7488 27.0005 30.6482 26.6538 30.2041 25.5946C30.1655 25.4791 30.0303 25.4598 29.8759 25.5754C29.2194 26.0376 29.4511 26.7309 29.6055 27.039C29.6635 27.1546 29.6249 27.2701 29.4704 27.2894C28.8718 27.3664 28.4277 26.6538 27.9064 26.7116C27.5588 26.7501 27.1726 27.0005 26.9409 27.1546C26.8444 27.2123 26.8251 27.3857 26.883 27.5975C27.5395 29.5619 26.4582 29.6389 26.381 29.6004C26.3038 29.5619 26.3424 29.2345 26.0334 29.1767C24.9521 29.2345 24.6625 28.5412 24.6046 28.0212C24.5853 27.8479 24.508 27.7901 24.4115 27.8671C24.006 28.156 23.002 28.6952 22.3648 27.8864C22.2682 27.7708 21.9786 27.8864 21.8048 27.9634C21.6697 28.0212 21.6697 27.8093 21.6697 27.7323C21.7469 26.6153 22.4999 26.0953 22.9247 25.9027C23.0792 25.8257 23.0985 25.7487 22.9633 25.6524C22.6158 25.402 22.0172 24.8628 22.2103 24.2658C22.2489 24.1502 21.7083 23.9384 21.8434 23.8421C23.0792 22.9562 24.6625 24.4198 24.8556 24.5932C25.068 24.7665 26.1879 24.805 29.0456 23.1873C30.8606 22.1666 31.8067 21.3192 32.3281 20.6837C32.386 20.6066 32.5212 20.4718 32.7143 20.4718C33.8728 20.4333 35.012 20.26 35.9002 19.4896C36.0547 19.3356 36.1898 19.4319 36.2671 19.4704C37.9083 20.6066 38.7386 18.103 39.0861 16.9475C39.1248 16.7164 39.1827 16.5238 39.4337 16.5046C45.458 16.7935 56.8695 16.7549 56.8695 16.7549C56.8695 16.7549 58.3756 16.8705 58.2983 15.9461C58.1825 14.4439 51.9458 14.4824 47.3117 15.118C45.6318 15.3491 43.1796 15.4839 41.7314 14.9254C41.1329 14.6943 40.6501 14.3284 40.3798 13.8469C40.0902 13.2306 40.1674 12.8647 40.2254 12.4795C40.3026 12.2099 40.4377 11.9018 40.6308 11.5936C41.828 9.76408 44.5698 9.61001 45.4387 9.61001C45.5932 9.61001 45.709 9.53298 45.7283 9.41743C45.8056 8.99374 46.1338 8.01156 47.2923 7.95378C47.6206 7.93452 47.9488 7.81897 48.1612 7.72268C48.2964 7.6649 48.3929 7.70342 48.3543 7.81897C48.3157 7.97304 48.2578 8.16562 48.084 8.31969C47.273 9.013 47.3889 9.3404 47.4854 9.41743C47.5434 9.45595 47.6206 9.43669 47.6785 9.37891C50.1307 7.24121 51.5596 8.66635 52.0037 9.12855C52.0809 9.20559 52.1002 9.34039 51.9458 9.37891C50.2852 9.74482 49.6287 11.2277 46.2304 10.9966C45.8249 10.9774 43.0251 10.8233 42.1369 12.0944C41.6349 12.8262 41.9824 13.5002 43.4885 13.8469C44.6277 14.0973 47.2923 13.7121 48.5474 13.6158C49.7832 13.5195 55.1317 12.8455 57.9508 13.6543C59.1286 14.001 60.8664 14.9446 60.5188 16.7357C60.2871 17.8719 59.2058 18.3149 59.2058 18.3149C59.2058 18.3149 56.1164 20.4718 61.658 20.5104C63.3765 20.5104 61.6774 21.9355 61.6001 22.3399C61.6001 22.6095 61.8704 22.8792 62.1408 23.0332ZM51.9844 11.0737C51.8106 11.1122 51.5789 11.17 51.3086 11.3433C50.8065 11.6707 48.7984 12.4988 48.1805 11.5166C48.1805 11.5166 49.5901 11.4781 50.4976 10.6692C50.4976 10.6692 51.4823 10.3418 52.0616 10.8618C52.1388 10.9003 52.1388 11.0351 51.9844 11.0737ZM38.7772 0C19.9319 0 1.18311 5.00722 1.18311 5.00722V30.0048C1.18311 52.5373 17.3638 75.9557 38.7772 80C60.9822 75.6668 76.3906 52.5181 76.3906 30.0048V5.00722C76.3713 5.00722 60.654 0 38.7772 0ZM70.7911 39.1334C70.7911 57.4868 56.8116 74.1261 38.7772 74.1454H38.7579C20.7235 74.1261 6.74402 57.4675 6.74402 39.1334C6.74402 17.5831 6.74402 7.54935 6.74402 7.54935L7.20743 7.41454C7.24605 7.41454 23.4461 2.38806 38.7579 2.38806C54.0697 2.38806 70.3084 7.41454 70.3084 7.41454L70.7718 7.54935C70.7911 7.54935 70.7911 17.5831 70.7911 39.1334Z" fill="#141414"/>
</svg>
