<svg width="100" height="100" viewBox="0 0 100 100" fill="none" xmlns="http://www.w3.org/2000/svg">
<g clip-path="url(#clip0_1973_572)">
<path d="M100 0H0V100H100V0Z" fill="white"/>
<path d="M34.6 42.5L34.602 49.577C34.367 54.664 31.4425 59.4035 26.649 61.324C25.647 61.7255 25.553 61.7255 24.5515 61.323C20.853 59.8375 18.118 56.5395 17.114 52.7105C16.2485 49.4095 16.723 45.884 16.6 42.4995H34.6V42.5Z" fill="#004067"/>
<path d="M47.95 34.6005L47.9975 34.7775C49.2345 36.0725 50.306 37.602 51.5245 38.9005C52.178 39.597 52.6515 39.9235 53.6625 39.787C54.369 39.6915 54.651 39.309 54.7025 38.627C54.91 35.8755 54.5485 32.86 54.694 30.0815C54.6365 29.4845 54.3695 29.1535 53.7625 29.063C53.579 29.0355 52.775 29.0985 52.8555 28.784C52.937 28.4665 53.8355 28.6485 54.073 28.6525C55.12 28.67 56.1805 28.6705 57.2275 28.6525C57.35 28.6505 58.6515 28.465 58.378 28.902C58.2775 29.0625 57.4695 29.049 57.2385 29.1135C56.699 29.2645 56.5835 29.718 56.548 30.223C56.3565 32.972 56.691 35.947 56.5565 38.719C56.6165 39.238 56.802 39.549 57.3115 39.714C57.571 39.798 58.166 39.803 58.317 39.896C58.4095 39.953 58.415 40.172 58.3375 40.238C58.277 40.2895 58.016 40.306 57.9245 40.304C57.45 40.294 56.902 40.2085 56.4275 40.198C54.577 40.1565 52.72 40.318 50.8745 40.304C50.448 40.3005 50.278 40.226 50.0015 39.9235C48.718 38.518 47.6235 36.6625 46.326 35.299C46.211 35.178 46.097 35.052 45.936 34.989C45.8205 34.9435 45.241 34.814 45.213 34.9725C45.288 35.624 45.1945 36.27 45.198 36.927C45.1985 37.045 45.2505 37.1545 45.252 37.273C45.26 37.8265 45.1285 39.0105 45.45 39.425C45.8185 39.8995 46.4745 39.681 46.816 39.8965C47.0545 40.047 46.86 40.28 46.577 40.3025C46.143 40.337 45.4835 40.2105 45.0265 40.198C44.0665 40.172 43.129 40.2815 42.1765 40.303C41.993 40.307 41.6945 40.325 41.6945 40.0755C41.6945 39.768 42.4405 39.7965 42.69 39.7155C43.105 39.581 43.299 39.2925 43.3435 38.869C43.1945 36.0245 43.563 32.94 43.352 30.123C43.313 29.6005 43.162 29.2465 42.622 29.103C42.392 29.042 41.724 29.093 41.6975 28.8225C41.681 28.6535 41.8355 28.615 41.974 28.599C42.549 28.533 43.3965 28.6585 44.027 28.652C46.288 28.6285 50.8265 27.848 51.052 31.223C51.1915 33.307 49.878 34.3265 47.9495 34.6005H47.95Z" fill="#004067"/>
<path d="M20.15 33.9501H26.3V29.8751C26.3 29.8251 26.1805 29.5456 26.142 29.4831C25.799 28.9341 24.917 29.1396 24.699 28.9261C24.389 28.6226 25.0575 28.5926 25.2275 28.5976C26.022 28.6226 26.8265 28.7101 27.6275 28.7016C28.1865 28.6956 28.9395 28.5576 29.4775 28.5976C29.649 28.6101 29.9735 28.6611 29.827 28.9006C29.6805 29.1401 28.6475 28.9131 28.3225 29.5461C28.2605 29.6666 28.2325 29.7981 28.206 29.9296C28.3565 32.8086 27.987 35.9246 28.1985 38.7761C28.2365 39.2871 28.3935 39.5761 28.9005 39.7241C29.116 39.7871 29.686 39.8091 29.802 39.9221C29.984 40.1001 29.7915 40.2741 29.5765 40.2996C29.094 40.3566 28.296 40.2091 27.778 40.1966C26.919 40.1761 26.081 40.2741 25.228 40.3006C25.0825 40.3051 24.7125 40.3311 24.658 40.1656C24.632 40.0876 24.637 39.9846 24.6995 39.9221C24.918 39.7051 25.841 39.9206 26.161 39.3341C26.2005 39.2616 26.3005 38.9851 26.3005 38.9236V34.5486H20.1505V38.8736C20.1505 39.2206 20.456 39.5781 20.773 39.7011C21.0285 39.8001 21.7485 39.7746 21.8 40.0251C21.8755 40.3906 21.444 40.3091 21.173 40.3011C20.3035 40.2751 19.449 40.1736 18.573 40.1971C18.0935 40.2101 17.3225 40.3531 16.874 40.3001C16.659 40.2746 16.467 40.1026 16.649 39.9226C16.761 39.8116 17.357 39.7951 17.561 39.7351C18.0185 39.6011 18.246 39.2476 18.2525 38.7766L18.246 29.8786C18.1515 29.4031 17.866 29.1666 17.4035 29.0711C17.2055 29.0301 16.4965 29.0736 16.606 28.7316C16.687 28.4791 17.3755 28.6466 17.5735 28.6511C18.0055 28.6611 18.4485 28.6976 18.873 28.7016C19.7875 28.7101 20.701 28.6081 21.615 28.6096C21.7115 28.6586 21.8545 28.7796 21.7785 28.9006C21.635 29.1286 20.5655 28.8971 20.2635 29.5866C20.241 29.6381 20.151 29.9426 20.151 29.9741V33.9491L20.15 33.9501Z" fill="#004067"/>
<path d="M41.9005 52C41.978 51.9925 41.9765 51.924 41.9965 51.872C42.1245 51.5445 42.23 51.1095 42.3355 50.761C43.078 48.309 43.7145 45.7255 44.5365 43.312C44.67 42.9195 44.8485 42.2115 45.35 42.725C46.3705 45.7165 47.2185 48.783 48.175 51.8005L49.925 46.2C50.0955 45.558 50.397 44.36 50.297 43.728C50.252 43.4445 50.035 43.246 49.7775 43.1475C49.5615 43.065 48.91 43.033 48.859 42.8645C48.715 42.386 49.5435 42.5975 49.773 42.6015C50.5985 42.6165 51.6985 42.5025 52.4775 42.597C52.6215 42.6145 52.6905 42.651 52.6425 42.815C52.57 43.064 51.46 43.134 51.379 43.6035C50.0585 46.822 49.3625 50.381 48.164 53.6385C47.9425 54.2405 47.5265 55.057 47.0615 54.0625L44.4745 45.399L41.9225 53.7975C41.7905 54.2115 41.5175 54.789 41.027 54.397C39.7085 50.897 38.747 47.2515 37.509 43.7155C37.3435 43.3815 37.2185 43.2305 36.8505 43.124C36.6255 43.059 36.04 43.086 36.051 42.7735C36.062 42.461 36.998 42.6475 37.2225 42.652C38.3815 42.676 39.5535 42.5345 40.672 42.5485C40.851 42.551 41.2235 42.6165 41.1445 42.867C41.0655 43.1175 39.808 42.946 39.622 43.5475C39.483 43.997 39.979 45.523 40.125 46.05C40.677 48.0445 41.368 50 41.9005 52Z" fill="#004067"/>
<path d="M65.14 28.365C69.482 28.025 72.805 31.4285 71.877 35.802C70.7735 40.999 63.6175 42.1605 60.4805 38.095C57.4855 34.213 60.415 28.735 65.1405 28.365H65.14Z" fill="#004067"/>
<path d="M34.5 33.95C35.647 33.891 36.801 33.815 37.164 32.539C37.214 32.3635 37.2895 31.3655 37.6765 31.749C37.8425 31.9135 37.6575 33.118 37.648 33.4225C37.621 34.2635 37.8225 35.3125 37.7525 36.0775C37.738 36.2385 37.7025 36.4655 37.483 36.3945C37.368 36.3575 37.147 35.417 36.992 35.1835C36.471 34.397 35.34 34.433 34.5005 34.4V38.175C34.5005 38.3385 34.6155 38.824 34.6915 38.984C34.9825 39.5985 35.7655 39.7105 36.376 39.7495C37.5545 39.8255 39.3115 39.7935 39.9275 38.602C40.039 38.3865 40.212 37.612 40.274 37.5485C40.448 37.3705 40.631 37.545 40.6535 37.772C40.725 38.4995 40.549 39.287 40.5975 40.022C40.5805 40.159 40.501 40.258 40.365 40.2895C38.9515 40.263 37.538 40.268 36.1235 40.2525C34.5755 40.235 33.175 40.256 31.6275 40.3025C31.4035 40.309 30.9575 40.3735 30.9575 40.076C30.9575 39.7785 31.521 39.831 31.7525 39.778C32.329 39.646 32.582 39.3645 32.644 38.7695C32.509 35.9805 32.8445 32.989 32.6525 30.2235C32.6175 29.718 32.5085 29.3105 31.9895 29.1365C31.7545 29.0575 31.0085 29.063 30.97 28.853C30.896 28.451 31.776 28.6485 31.9735 28.6525C33.811 28.689 35.6345 28.667 37.4775 28.6525C38.193 28.647 38.9945 28.4865 39.704 28.672C40.1785 28.796 39.9525 29.286 39.9485 29.623C39.9425 30.1255 40.002 30.617 39.994 31.1185C39.4695 31.483 39.5375 30.631 39.4245 30.302C39.2625 29.8305 38.8285 29.467 38.3625 29.314C37.704 29.098 36.0425 29.049 35.3265 29.101C35.0715 29.1195 34.501 29.1715 34.501 29.5255V33.9505L34.5 33.95Z" fill="#004067"/>
<path d="M62.5375 54.1879C62.4785 54.2444 62.2165 54.3024 62.125 54.3044C61.743 54.3129 61.2205 54.2084 60.8275 54.1979C60.009 54.1759 59.272 54.2754 58.4775 54.3019C58.282 54.3084 57.1915 54.3979 57.459 53.9574C57.5975 53.7299 58.771 53.9534 58.8515 53.2759C58.954 52.4099 58.035 50.9194 57.82 50.0464L53.4985 50.0724C53.254 50.7844 52.8285 51.5414 52.6375 52.2614C52.435 53.0244 52.442 53.4964 53.2375 53.7874C53.4125 53.8514 54.0175 53.8869 53.827 54.2004C53.6895 54.4269 52.6035 54.2094 52.328 54.1969C52.0245 54.1834 51.679 54.1889 51.3735 54.1969C51.106 54.2039 50.1525 54.3924 49.9965 54.1649C49.7605 53.8209 50.538 53.7694 50.7285 53.7019C51.472 53.4374 51.7475 52.7999 52.0595 52.1329C53.503 49.0494 54.63 45.7234 56.0415 42.6149C56.202 42.2134 56.4945 42.1814 56.711 42.5644C58.1225 45.7764 59.1775 49.2674 60.6275 52.4479C60.821 52.8719 61.065 53.4114 61.499 53.6264C61.699 53.7254 62.881 53.8574 62.538 54.1874L62.5375 54.1879Z" fill="#004067"/>
<path d="M80.6935 54.1935C80.5675 54.3905 79.388 54.204 79.1275 54.1975C78.3325 54.1775 77.467 54.1735 76.673 54.1975C76.41 54.2055 75.3075 54.404 75.173 54.202C74.89 53.7765 75.9285 53.7835 76.1515 53.7265C76.728 53.578 76.937 53.2395 76.994 52.669L76.9885 43.4365C76.9505 43.3415 76.9085 43.2135 76.82 43.155C76.529 42.9635 74.991 43.0505 74.5815 43.106C73.8395 43.207 73.2565 43.4255 73.0245 44.199C72.971 44.377 72.8935 45.117 72.803 45.1775C72.5895 45.32 72.517 45.0365 72.5005 44.875C72.452 44.399 72.454 43.4025 72.498 42.9225C72.5605 42.238 73.535 42.5385 74.0235 42.552C76.13 42.609 78.265 42.641 80.378 42.6025C81.1635 42.588 82.163 42.4285 82.928 42.4975C83.261 42.5275 83.323 42.6535 83.3525 42.973C83.3965 43.448 83.299 43.985 83.298 44.4775C83.298 44.6015 83.443 45.433 83.072 45.1535C82.9155 45.036 82.8515 44.174 82.6725 43.8535C82.1825 42.978 80.366 42.972 79.4765 43.051C79.0875 43.0855 78.923 43.1275 78.8635 43.538C78.9675 46.439 78.6805 49.4935 78.848 52.3775C78.8885 53.072 78.9515 53.5275 79.7 53.7255C79.953 53.7925 80.4215 53.776 80.598 53.8775C80.6925 53.932 80.746 54.112 80.6935 54.194V54.1935Z" fill="#004067"/>
<path d="M78.963 29.213C78.8975 29.2835 78.8565 29.5195 78.848 29.623C78.99 32.525 78.6665 35.595 78.848 38.4775C78.8875 39.103 78.9745 39.5465 79.6395 39.736C79.857 39.798 80.6315 39.7945 80.693 39.9835C80.786 40.268 80.4935 40.301 80.276 40.304C79.7985 40.311 79.2125 40.2095 78.728 40.198C77.7025 40.1735 76.698 40.2595 75.678 40.3025C75.492 40.3105 75.13 40.319 75.108 40.0665C75.086 39.814 75.9885 39.787 76.2005 39.7255C76.7785 39.558 76.9425 39.1835 76.994 38.619L76.9885 29.4875C76.922 29.1205 76.596 29.079 76.2745 29.0515C75.642 28.997 74.0765 29.0845 73.5525 29.428C73.325 29.577 73.1165 29.903 73.0355 30.161C72.9745 30.3555 72.904 31.1485 72.7685 31.194C72.727 31.208 72.619 31.215 72.58 31.2045C72.439 31.1655 72.507 29.036 72.523 28.749C72.604 28.556 72.73 28.5165 72.923 28.499C73.548 28.4425 74.38 28.5905 75.023 28.604C77.4935 28.6555 79.9605 28.571 82.4235 28.4995C82.886 28.486 83.332 28.3895 83.3455 28.982C83.3475 29.08 83.2985 29.1725 83.2985 29.2745C83.2985 29.8995 83.322 30.5345 83.2785 31.154C82.86 31.367 82.8905 30.449 82.7875 30.14C82.4535 29.1425 81.3385 29.086 80.428 29.0495C80.1445 29.038 79.1405 29.0235 78.964 29.2145L78.963 29.213Z" fill="#004067"/>
<path d="M60.8 42.725C60.8375 42.5515 61.024 42.5115 61.1725 42.4975C61.9535 42.425 62.9705 42.5875 63.7725 42.602C66.307 42.6475 68.835 42.5625 71.364 42.5105C71.505 42.543 71.5745 42.639 71.5965 42.778C71.669 43.2385 71.631 44.3745 71.602 44.877C71.572 45.405 71.2945 45.267 71.2115 44.863C71.104 44.339 71.136 43.889 70.6735 43.501C70.1175 43.035 68.4895 42.987 67.773 43.048C67.318 43.0865 67.1835 43.161 67.1475 43.6225C66.9205 46.5445 67.3165 49.765 67.156 52.718C67.2065 53.243 67.4185 53.5825 67.9475 53.7265C68.1605 53.7845 69.252 53.7675 68.9915 54.1915C68.865 54.3975 67.6965 54.204 67.4275 54.197C66.631 54.176 65.7695 54.1755 64.973 54.197C64.6145 54.207 64.121 54.3135 63.775 54.3035C63.569 54.2975 63.3315 54.198 63.433 53.961C63.5065 53.789 64.2385 53.783 64.4525 53.726C65.151 53.5395 65.26 53.082 65.3025 52.426C65.485 49.5955 65.16 46.5725 65.3025 43.722C65.2685 43.255 65.2175 43.099 64.725 43.0495C64.0005 42.977 62.303 43.042 61.7255 43.499C61.148 43.956 61.3555 44.83 61.103 45.126C60.986 45.263 60.8005 45.143 60.8005 45.074V42.724L60.8 42.725Z" fill="#004067"/>
<path d="M63.85 59.0506C63.8135 59.0841 64.0615 59.3756 64.101 59.4241C64.4065 59.7991 65.219 60.8351 65.553 61.0721C65.6505 61.1416 66.1825 61.3126 66.05 61.4501C65.8175 61.4881 65.597 61.4016 65.375 61.3961C65.1655 61.3906 65.0315 61.5371 64.8005 61.3746L63.1755 59.3501C63.0825 59.1846 62.7425 59.1016 62.7 59.3256C62.6575 59.5496 62.679 60.7256 62.7415 60.9341C62.8385 61.2601 63.0155 61.1956 63.2725 61.2531C63.3375 61.2676 63.4175 61.2916 63.3995 61.3751C63.263 61.5361 63.053 61.4046 62.877 61.3986C62.3505 61.3811 61.823 61.4191 61.298 61.4271C61.147 61.1921 61.549 61.2801 61.7185 61.1941C61.8255 61.1401 61.93 60.9931 61.947 60.8726C61.878 59.6916 62.049 58.3901 61.952 57.2236C61.93 56.9601 61.886 56.8331 61.6135 56.7621C61.4775 56.7266 61.244 56.8151 61.25 56.6011C61.7415 56.5941 62.235 56.6086 62.727 56.6031C63.2975 56.5966 63.659 56.4956 64.2605 56.6656C65.726 57.0801 65.2785 59.0401 63.8505 59.0516L63.85 59.0506Z" fill="#004067"/>
<path d="M47.15 56.5999C47.1655 56.7894 46.954 56.7309 46.8495 56.7744C46.677 56.8469 46.5345 56.9229 46.503 57.1279C46.422 58.4809 46.6005 59.9369 46.5025 61.2774C46.4955 61.3739 46.474 61.4584 46.4495 61.5499C46.3455 61.6204 46.0925 61.3244 46.0245 61.2509C45.0015 60.1449 44.0905 58.5594 43.041 57.5344C42.997 57.4914 43 57.4249 42.9005 57.4499V60.6249C42.9005 60.6794 42.986 60.9924 43.0265 61.0489C43.1445 61.2149 43.7725 61.2829 43.5525 61.4264C43.503 61.4589 42.7335 61.3954 42.574 61.3979C42.455 61.3999 42.079 61.5069 42.001 61.3994C41.899 61.2589 42.315 61.2299 42.38 61.2039C42.592 61.1194 42.669 60.9319 42.695 60.7189C42.8255 59.6519 42.607 58.3629 42.704 57.2714C42.712 57.0159 42.4965 56.8824 42.2875 56.7879C42.1625 56.7314 41.9395 56.7929 41.951 56.5999H43.176C44.2565 57.7979 45.176 59.1459 46.251 60.3499V57.1749C46.251 57.1179 46.115 56.8729 46.05 56.8259C45.9235 56.7349 45.62 56.7684 45.6015 56.6739C45.5625 56.4794 45.812 56.5999 45.826 56.5999H47.151H47.15Z" fill="#004067"/>
<path d="M60.2 56.6501V57.6501H60.05C60.0785 57.3271 59.869 56.9696 59.5615 56.8636C59.3715 56.7976 58.297 56.7521 58.1315 56.8071C58.0685 56.8281 57.9995 57.1156 57.9995 57.1751V58.8001C58.396 58.7941 58.904 58.7841 59.094 58.3696C59.175 58.1931 59.145 57.8691 59.3495 57.8501V59.5751C59.3495 59.6071 59.405 59.6331 59.364 59.7356C59.2595 59.9951 59.151 59.4316 59.0925 59.3326C58.8695 58.9546 58.3815 58.9941 57.9995 59.0001C58.024 59.5671 57.949 60.2081 58.0615 60.7636C58.1715 61.3071 59.0355 61.2396 59.4765 61.2021C59.7975 61.1746 60.154 61.0401 60.31 60.7356C60.4 60.5596 60.349 60.2581 60.5995 60.3006L60.543 61.3936L56.648 61.4271C56.498 61.2146 56.806 61.2711 56.9125 61.2386C57.0715 61.1896 57.229 61.1091 57.2465 60.9226C57.1695 59.7161 57.36 58.3621 57.252 57.1736C57.2305 56.9351 57.1885 56.8461 56.953 56.7726C56.8215 56.7316 56.591 56.8056 56.5995 56.6011H60.0745C60.091 56.6011 60.1505 56.6671 60.1995 56.6511L60.2 56.6501Z" fill="#004067"/>
<path d="M67.1 70.6C67.291 70.5695 67.489 70.49 67.5915 70.3165L68.996 67.0305L69.125 66.999L70.44 70.285C70.5755 70.513 70.6555 70.517 70.883 70.5945C70.9605 70.621 71.0255 70.5505 71 70.7H69.775C69.696 70.7 69.514 70.8465 69.4005 70.674L69.8005 70.5255C69.9555 70.3945 69.612 69.601 69.5005 69.4245C69.4295 69.3815 68.183 69.3735 68.1445 69.4295C68.0305 69.906 67.491 70.494 68.276 70.65L68.221 70.7475L63.95 70.75V70.6005C64.1465 70.6085 64.4335 70.5645 64.4455 70.3225C64.4065 69.442 64.513 68.496 64.4525 67.6235C64.425 67.2295 64.3975 67.316 64.0675 67.2055C63.9895 67.1795 63.9255 67.25 63.9505 67.1H65.5505C65.574 67.245 65.5185 67.182 65.4345 67.2065C65.2345 67.2645 65.095 67.213 65.054 67.4785C65.103 68.335 64.977 69.2825 65.0485 70.127C65.072 70.4025 65.1955 70.5055 65.48 70.5455C65.9455 70.6115 66.716 70.595 66.9035 70.0775C66.9665 69.9035 66.8885 69.751 67.1005 69.7995V70.5995L67.1 70.6Z" fill="#004067"/>
<path d="M38.2 56.6001C38.2315 56.7806 37.9535 56.7301 37.838 56.7636C37.6365 56.8221 37.534 56.9076 37.503 57.1286C37.4175 57.7406 37.435 59.6346 37.514 60.2611C37.6265 61.1521 38.2825 61.3101 39.077 61.2526C39.85 61.1961 40.2645 60.7296 40.3435 59.9691C40.407 59.3611 40.428 57.7141 40.3465 57.1286C40.317 56.9156 40.2115 56.8166 40.013 56.7621C39.8775 56.7246 39.6435 56.8161 39.6495 56.6001H41.2495C41.2585 56.8036 41.0285 56.7316 40.896 56.7716C40.6765 56.8381 40.614 56.9241 40.5715 57.1471C40.2325 58.9366 41.475 61.6996 38.422 61.5521C35.869 61.4291 36.998 58.8901 36.736 57.1881C36.6995 56.9506 36.6375 56.8421 36.4025 56.7716C36.27 56.7316 36.0405 56.8036 36.049 56.6001H38.199H38.2Z" fill="#004067"/>
<path d="M69.35 56.55V57.8C69.1085 57.846 69.1025 57.44 69.01 57.265C68.8525 56.966 68.512 56.6975 68.1705 56.6545C67.1765 56.5295 66.675 57.6015 67.565 58.1595C68.2095 58.5635 69.444 58.8075 69.6275 59.697C69.926 61.145 68.467 61.883 67.241 61.4335C67.072 61.3715 66.8065 61.1275 66.6495 61.225C66.6235 61.2415 66.5565 61.4075 66.475 61.398C66.337 61.3825 66.4495 61.0735 66.4525 60.9765C66.4635 60.635 66.44 60.2905 66.4505 59.9495C66.575 59.803 66.751 60.542 66.776 60.5985C67.3155 61.808 69.314 61.5355 68.966 60.1085C68.715 59.0785 66.648 59.337 66.5505 57.873C66.4725 56.705 67.667 56.2465 68.635 56.5895C68.7225 56.6205 68.9835 56.791 69.0265 56.7875C69.1215 56.7795 69.167 56.476 69.3505 56.549L69.35 56.55Z" fill="#004067"/>
<path d="M56.375 67.1001C56.5395 67.1466 57.41 69.4881 57.5755 69.8006L58.825 67.1001H59.85C59.875 67.2496 59.8105 67.1791 59.733 67.2056C59.4025 67.3181 59.3335 67.3451 59.298 67.7231C59.249 68.2491 59.226 69.7806 59.303 70.2721C59.3175 70.3636 59.356 70.4386 59.424 70.5011L59.8 70.6991C59.4115 70.7321 59.015 70.6841 58.623 70.6976C58.543 70.7006 58.275 70.7751 58.2505 70.7496C58.098 70.5906 58.5065 70.5856 58.5985 70.5231C58.6515 70.4871 58.75 70.3211 58.75 70.2751V67.7001L57.4245 70.7006L56.05 67.7001V70.2751C56.05 70.4701 56.367 70.6276 56.55 70.6006C56.546 70.8356 56.0435 70.6956 55.823 70.6986C55.7435 70.6996 55.3485 70.8191 55.3515 70.6756C55.353 70.5946 55.759 70.6211 55.8465 70.3216C55.97 69.9011 55.9375 68.2316 55.9025 67.7231C55.8705 67.2591 55.8315 67.3431 55.46 67.2131C55.3785 67.1846 55.327 67.2391 55.3505 67.1001C55.6205 67.1491 56.142 67.0336 56.3755 67.1001H56.375Z" fill="#004067"/>
<path d="M83.4 56.6C83.509 56.6865 83.0665 56.8075 83.0145 56.8395C82.5295 57.14 81.7955 58.9865 81.327 59.4935C81.433 59.91 81.2495 60.6285 81.372 61.0025C81.474 61.314 82.0395 61.1875 82 61.3735C81.9685 61.5215 81.634 61.4005 81.5275 61.397C81.1725 61.3855 80.778 61.386 80.423 61.397C80.234 61.403 80.031 61.5115 79.875 61.4C79.744 61.2205 80.292 61.268 80.448 61.122C80.6425 60.939 80.598 59.887 80.5895 59.586C80.2605 59.1225 79.359 56.9995 78.9645 56.811C78.8495 56.756 78.726 56.7435 78.6005 56.7495V56.6C79.1085 56.589 79.6195 56.613 80.128 56.602C80.297 56.5985 80.4185 56.492 80.5785 56.5975C80.8175 56.755 80.345 56.7465 80.287 56.761C80.067 56.8145 80.0755 56.9635 80.113 57.1635L81.1765 59.2505C81.2715 59.252 81.307 59.1415 81.352 59.076C81.582 58.7415 82.3255 57.5485 82.389 57.2135C82.488 56.6955 82.183 56.8655 81.95 56.726C81.867 56.6765 81.9555 56.6 81.976 56.6H83.401H83.4Z" fill="#004067"/>
<path d="M78.3 57.65C78.199 57.6625 78.218 57.66 78.1875 57.5875C78.0715 57.3105 78.1675 57.0415 77.8005 56.8745C77.4855 56.731 76.7715 56.713 76.424 56.75C76.174 56.7765 76.168 56.8345 76.148 57.073C76.0745 57.9475 76.0555 59.866 76.1555 60.7195C76.1945 61.051 76.2655 61.159 76.587 61.238C76.674 61.2595 76.9835 61.2135 76.95 61.374C76.805 61.53 76.5745 61.4035 76.3775 61.3975C75.9735 61.3855 75.527 61.385 75.123 61.3975C74.997 61.4015 74.8435 61.4775 74.733 61.444C74.6515 61.4195 74.6125 61.3265 74.6985 61.273C74.7845 61.2195 75.0065 61.2645 75.1635 61.188C75.232 61.1545 75.4 60.98 75.4 60.9245V56.8745C75.4 56.794 75.15 56.754 75.0775 56.747C74.736 56.7155 73.76 56.726 73.549 57.023C73.408 57.222 73.4915 57.6 73.25 57.649V56.624C73.25 56.511 74.047 56.543 74.177 56.547C75.2595 56.5785 76.291 56.5785 77.373 56.547C77.503 56.543 78.3 56.511 78.3 56.624V57.649V57.65Z" fill="#004067"/>
<path d="M52.9995 56.6005C52.9915 56.8385 52.6655 56.705 52.503 56.828C52.31 56.9735 52.489 57.3815 52.549 57.576C52.8555 58.571 53.32 59.5515 53.625 60.5505C53.7255 60.572 53.695 60.5105 53.725 60.4525C54.0495 59.826 54.3935 58.889 54.637 58.2125C54.7205 57.9805 55.0295 57.1805 54.9795 56.999C54.882 56.645 54.4515 56.875 54.4 56.6005C54.672 56.55 54.973 56.651 55.2225 56.652C55.349 56.6525 55.9255 56.536 55.9995 56.6005C55.982 56.8185 55.6845 56.725 55.5155 56.8665C55.4685 56.906 55.3625 57.0825 55.323 57.1485C54.706 58.1775 54.292 59.837 53.7585 60.984C53.7075 61.0935 53.5125 61.5315 53.419 61.5475L53.2125 61.3625C52.745 60.1985 52.351 59.0025 51.887 57.838C51.8015 57.6235 51.6225 57.0905 51.501 56.9375C51.354 56.7525 51.072 56.805 50.9 56.675C50.8765 56.5535 50.997 56.6045 51.074 56.601C51.365 56.5875 51.6075 56.654 51.8745 56.654C52.232 56.654 52.6255 56.55 52.999 56.601L52.9995 56.6005Z" fill="#004067"/>
<path d="M41.475 67.1001C41.632 67.1166 41.9455 67.2071 42.0855 67.2896C42.564 67.5726 42.585 68.3496 42.0655 68.5901L41.6505 68.7991C42.98 68.7921 43.3135 70.3916 41.9125 70.6871C41.3035 70.8156 40.6535 70.6761 40.023 70.6976C39.832 70.7041 39.595 70.8671 39.6495 70.6001C39.933 70.6166 40.124 70.5211 40.153 70.2281C40.238 69.3646 40.0865 68.3576 40.1465 67.4786C40.105 67.2131 39.966 67.2651 39.766 67.2066C39.682 67.1821 39.6265 67.2451 39.65 67.1001C40.2335 67.1451 40.902 67.0396 41.475 67.1001Z" fill="#004067"/>
<path d="M31.079 67.0525C32.0365 67.205 33.0485 66.818 33.9165 67.408C34.9045 68.08 34.918 70.0055 33.7995 70.5245C33.0895 70.854 31.987 70.678 31.189 70.715C31.152 70.7165 30.997 70.7775 31.001 70.675C31.006 70.5435 31.4955 70.7345 31.552 70.127C31.6045 69.5595 31.622 68.0725 31.5455 67.53C31.482 67.0835 31.2585 67.2875 31.0495 67.176C30.9675 67.132 31.0255 67.087 31.0795 67.053L31.079 67.0525Z" fill="#004067"/>
<path d="M22.6 67.1001C22.614 67.2746 22.351 67.1846 22.222 67.2976C22.19 67.3256 22.1 67.4976 22.1 67.5251V69.0501C22.1875 69.0721 22.2 69.0141 22.2505 68.9756C22.521 68.7681 23.312 67.8531 23.4225 67.5476C23.533 67.2421 23.374 67.2736 23.167 67.2061C23.0875 67.1801 23.0255 67.2486 23.05 67.1001H24.25C24.2685 67.2501 24.05 67.2176 23.9245 67.2996C23.7765 67.3961 23.0465 68.2716 22.9275 68.4531C22.894 68.5046 22.854 68.5501 22.8605 68.6171C22.8705 68.7216 24.0165 70.0896 24.1745 70.2506C24.2765 70.3541 24.3945 70.4846 24.522 70.5541C24.593 70.5926 24.8815 70.6131 24.75 70.7501C24.7255 70.7756 24.4575 70.7011 24.3775 70.6981C23.948 70.6831 23.525 70.7161 23.1 70.7501V70.6006C23.2135 70.6141 23.514 70.5986 23.5435 70.4701C23.5975 70.2351 22.6625 69.2996 22.5215 69.0466C22.441 69.0341 22.134 69.2541 22.1095 69.3346C22.0555 69.5106 22.0725 70.3731 22.2225 70.5031C22.311 70.5801 22.6475 70.5986 22.649 70.6756C22.651 70.7611 22.496 70.7406 22.4395 70.7376C22.114 70.7201 21.801 70.6926 21.4725 70.6986C21.387 70.7001 20.998 70.8051 21.001 70.6761C21.004 70.5471 21.504 70.7101 21.5525 70.1786C21.601 69.6471 21.628 68.0226 21.547 67.5291C21.5015 67.2516 21.36 67.2846 21.1595 67.2141C21.078 67.1856 21.027 67.2396 21.05 67.1011H22.6V67.1001Z" fill="#004067"/>
<path d="M72.7 56.6001C72.7045 56.8116 72.449 56.7336 72.296 56.7711C72.0185 56.8396 71.985 57.0256 71.956 57.2811C71.866 58.0821 71.878 59.8106 71.948 60.6266C72.0105 61.3591 72.2305 61.0991 72.688 61.2871C72.8775 61.3646 72.651 61.4516 72.5255 61.4506C71.9995 61.4471 71.4605 61.3796 70.9225 61.3976C70.7905 61.4021 70.5555 61.5131 70.474 61.4001C70.3455 61.2216 70.853 61.2556 70.9955 61.1711C71.0975 61.1106 71.1785 60.9891 71.1965 60.8721C71.119 59.6826 71.3095 58.3441 71.2015 57.1726C71.18 56.9381 71.1085 56.8181 70.863 56.7611C70.71 56.7256 70.448 56.8241 70.449 56.6001H72.699H72.7Z" fill="#004067"/>
<path d="M50.2 56.6001C50.2045 56.8116 49.949 56.7336 49.7965 56.7716C49.507 56.8426 49.4705 57.0586 49.4485 57.3236C49.383 58.1096 49.3535 60.0196 49.4545 60.7711C49.468 60.8701 49.5275 61.0581 49.6015 61.1241C49.7405 61.2481 50.181 61.2326 50.2 61.3261C50.2425 61.5351 49.787 61.4011 49.6775 61.3981C49.273 61.3866 48.827 61.3851 48.423 61.3981C48.3165 61.4016 47.982 61.5226 47.9505 61.3746C47.9155 61.2106 48.229 61.2636 48.314 61.2391C48.489 61.1881 48.672 61.0716 48.6975 60.8726C48.621 59.6991 48.809 58.3786 48.703 57.2231C48.684 57.0186 48.5855 56.8096 48.3655 56.7606C48.2125 56.7266 47.9495 56.8251 47.951 56.6001H50.201H50.2Z" fill="#004067"/>
<path d="M36.8 67.1001C36.825 67.2496 36.761 67.1791 36.683 67.2056C36.535 67.2551 36.3305 67.2476 36.3125 67.4351C36.3505 68.2096 36.219 69.1171 36.3 69.8756C36.396 70.7731 37.7795 70.8361 38.222 70.1971C38.5145 69.7746 38.5005 68.2211 38.444 67.6816C38.399 67.2526 38.37 67.3111 38.0165 67.2066C37.933 67.1821 37.8765 67.2456 37.9005 67.1001H39.1005C39.1255 67.2496 39.0615 67.1791 38.9835 67.2056C38.9055 67.2321 38.7145 67.2601 38.6625 67.3121C38.48 67.4946 38.7585 69.5996 38.411 70.2356C37.989 71.0076 36.197 71.0271 35.8305 70.2451C35.555 69.6576 35.8255 67.4991 35.6385 67.3116C35.5865 67.2596 35.3985 67.2321 35.3175 67.2051C35.2365 67.1781 35.1755 67.2496 35.2005 67.0996H36.8005L36.8 67.1001Z" fill="#004067"/>
<path d="M18.15 67.1001C18.1735 67.2451 18.118 67.1821 18.034 67.2066C17.7435 67.2911 17.654 67.2586 17.6045 67.6296C17.543 68.0886 17.5575 69.5261 17.663 69.9626C17.901 70.9481 19.6115 70.8186 19.745 69.7196C19.8305 69.0136 19.703 68.1566 19.7385 67.4351C19.7205 67.2476 19.516 67.2551 19.368 67.2056C19.29 67.1796 19.226 67.2501 19.251 67.1001H20.451C20.4745 67.2456 20.418 67.1821 20.335 67.2066C20.211 67.2431 20.006 67.2351 19.961 67.3851C19.9175 67.9791 19.986 68.5816 19.951 69.1751C19.9205 69.6896 19.871 70.3151 19.386 70.6101C18.863 70.9286 17.5515 70.9081 17.209 70.3181C16.8595 69.7166 17.203 67.5256 16.99 67.3121C16.938 67.2601 16.75 67.2326 16.669 67.2056C16.588 67.1786 16.527 67.2501 16.552 67.1001H18.152H18.15Z" fill="#004067"/>
<path d="M76.8 67.0499V67.9999C76.579 67.9424 76.585 67.6449 76.426 67.4489C75.718 66.5759 74.4575 67.7144 75.516 68.3089C76.073 68.6219 76.96 68.7949 77.0465 69.5794C77.15 70.5224 76.156 70.9889 75.3475 70.7774C75.196 70.7379 74.8845 70.5304 74.7825 70.5454C74.724 70.5539 74.732 70.7394 74.6005 70.6999V69.6749C74.6005 69.6509 74.6875 69.5649 74.726 69.6494C74.875 70.3414 75.251 70.7779 76.0135 70.6379C76.4685 70.5544 76.6605 69.9744 76.4435 69.5814C76.2265 69.1884 75.5605 69.0824 75.2155 68.8594C74.2245 68.2204 74.743 66.8854 75.92 67.0054C76.096 67.0234 76.537 67.2539 76.5705 67.2459C76.652 67.2269 76.6605 67.0169 76.8005 67.0499H76.8Z" fill="#004067"/>
<path d="M63.8505 70.6005C63.932 70.664 63.845 70.6915 63.776 70.7005C63.4845 70.7375 63.082 70.6945 62.773 70.698C62.597 70.7 62.446 70.7845 62.25 70.7C62.31 70.549 62.557 70.6055 62.6505 70.5265C62.8425 70.3645 62.4555 69.6305 62.3915 69.409C62.0085 69.4275 61.5445 69.355 61.172 69.398C61.085 69.408 61.06 69.402 61.004 69.48C60.879 69.655 60.6585 70.288 60.796 70.4795C60.842 70.5435 61.458 70.765 60.9395 70.7375C60.6105 70.72 60.282 70.6745 59.9505 70.7005C59.93 70.521 60.262 70.591 60.3475 70.473C60.954 69.374 61.37 68.1635 61.851 67.001L62.003 67.023L63.358 70.368C63.4665 70.5265 63.6645 70.608 63.8505 70.601V70.6005Z" fill="#004067"/>
<path d="M46.9505 70.6005L46.876 70.7005L45.484 70.742L45.4005 70.6005C46.1855 70.6275 45.602 69.8105 45.492 69.4085C45.109 69.427 44.645 69.3545 44.2725 69.3975C44.1855 69.4075 44.1605 69.401 44.1045 69.4795C44.0445 69.5635 43.8495 70.1125 43.846 70.2245C43.831 70.662 44.2445 70.567 44.2495 70.675C44.254 70.769 44.096 70.7285 44.05 70.726C43.7165 70.708 43.385 70.685 43.0505 70.6995C43.0305 70.5225 43.361 70.586 43.449 70.4735C44.05 69.377 44.4865 68.167 44.951 66.9995L45.103 67.0215L46.4395 70.335C46.5385 70.5155 46.753 70.606 46.9505 70.5995V70.6005Z" fill="#004067"/>
<path d="M79.5 70.7C79.475 70.5575 79.534 70.618 79.61 70.5875C79.705 70.549 79.812 70.539 79.899 70.474C80.223 70.233 81.0615 67.7465 81.3565 67.1815C81.506 66.8945 81.538 66.973 81.659 67.216C82.121 68.145 82.386 69.4005 82.8825 70.295C83.0055 70.5165 83.076 70.4955 83.29 70.5875C83.362 70.6185 83.4265 70.555 83.4005 70.6995H82.2255C82.1465 70.6995 81.9645 70.846 81.851 70.6735C81.8515 70.54 82.047 70.6215 82.1705 70.5445C82.469 70.3575 82.012 69.688 81.953 69.4225C81.74 69.408 80.663 69.344 80.5755 69.4495C80.4765 69.5685 80.211 70.314 80.347 70.4785C80.381 70.6 80.754 70.5605 80.7 70.674C80.624 70.8345 80.47 70.7 80.4255 70.7H79.5005H79.5Z" fill="#004067"/>
<path d="M72.15 67.1001C72.1675 67.2961 71.8685 67.1406 71.7745 67.2996C71.7355 67.3656 71.7415 67.4481 71.7515 67.5211C71.7635 67.6091 72.486 69.1001 72.575 69.0991C72.7795 68.7606 73.026 68.4346 73.2085 68.0836C73.3015 67.9046 73.559 67.4821 73.4275 67.2971C73.3605 67.2026 73.056 67.2851 73.0995 67.1001H74.1995C74.2305 67.2441 74.0615 67.2001 73.9515 67.2771C73.879 67.3281 73.784 67.4316 73.728 67.5036C73.615 67.6481 72.683 69.1846 72.66 69.2856C72.6195 69.4661 72.6285 70.2156 72.6955 70.3786C72.8075 70.6501 73.045 70.5036 73.199 70.6991C72.8005 70.7361 72.3815 70.6881 71.972 70.6976C71.846 70.7006 71.707 70.7836 71.599 70.7251C71.4215 70.6296 71.8415 70.5806 71.8865 70.5616C72.2605 70.4051 72.054 69.6296 72.0875 69.2866C71.858 69.0061 71.1345 67.3456 70.914 67.2601C70.8175 67.2226 70.6335 67.2881 70.6495 67.0996H72.1495L72.15 67.1001Z" fill="#004067"/>
<path d="M48.8 67.1001C48.825 67.2546 48.758 67.1781 48.6775 67.2006C48.5925 67.2241 48.3615 67.2546 48.312 67.3126C48.143 67.5096 48.31 69.8456 48.253 70.2726C48.297 70.5556 48.5525 70.6106 48.8005 70.6006C48.863 70.8751 48.534 70.7036 48.377 70.6986C48.0155 70.6866 47.6585 70.7161 47.299 70.7286C47.218 70.7316 47.1675 70.7826 47.1005 70.6751L47.5645 70.5036C47.622 70.4741 47.618 70.4151 47.635 70.3636C47.7655 69.9656 47.7365 68.3141 47.702 67.8236C47.6675 67.3331 47.6645 67.3226 47.2225 67.2011C47.142 67.1791 47.0755 67.2551 47.1 67.1006H48.8V67.1001Z" fill="#004067"/>
<path d="M79.3 67.1001C79.3235 67.2456 79.267 67.1821 79.184 67.2066C78.9455 67.2771 78.817 67.2271 78.762 67.5371C78.677 68.0156 78.7 69.6066 78.748 70.1271C78.759 70.2486 78.7755 70.4181 78.8725 70.5026C79.011 70.6231 79.254 70.5356 79.35 70.6996C78.911 70.7241 78.4655 70.6916 78.023 70.6981C77.8685 70.7001 77.613 70.8571 77.6005 70.6006C77.903 70.6151 78.1475 70.5576 78.1955 70.2206C78.271 69.6886 78.2535 68.2306 78.202 67.6736C78.162 67.2386 78.082 67.2916 77.7215 67.2016C77.637 67.1806 77.576 67.2516 77.6 67.1006H79.3V67.1001Z" fill="#004067"/>
<path d="M28.05 66.3001V71.6501C27.899 71.6651 27.789 71.6526 27.7975 71.4776C27.9425 69.9051 27.613 68.0056 27.7975 66.4726C27.8195 66.2886 27.866 66.2891 28.05 66.3001Z" fill="#004067"/>
<path d="M52.25 71.6501V66.3001C52.401 66.2851 52.511 66.2976 52.5025 66.4726C52.3575 68.0451 52.687 69.9446 52.5025 71.4776C52.4805 71.6616 52.434 71.6611 52.25 71.6501Z" fill="#004067"/>
<path d="M32.9 54.3C31.7145 57.4215 28.968 59.8725 25.85 61V58.8L27.5025 59.8225C27.706 59.8905 27.8155 59.869 27.7895 59.639C27.7335 59.1385 27.3895 58.5 27.3085 57.981L28.7745 56.9C28.8745 56.798 28.997 56.5905 28.7745 56.55C28.44 56.4895 27.0015 56.6296 26.8475 56.5271L26.1195 54.4035C26.079 54.3705 26.1675 54.3 26.1745 54.3H32.8995H32.9Z" fill="white"/>
<path d="M25.9 53.75C25.916 53.701 25.85 53.6415 25.85 53.625V52.35C25.8905 52.356 25.989 52.34 25.9995 52.35C26.0345 52.384 25.8115 52.9635 26.153 53.2715C26.517 53.6005 26.9695 53.342 27.3965 53.446C27.4515 52.9365 27.979 52.2969 27.3265 51.9484C27.206 51.8839 26.643 51.8165 26.8005 51.65C26.8335 51.615 27.209 51.7905 27.3255 51.8005C28.157 51.872 28.028 51.166 28.299 50.628C28.284 50.5595 28.0775 50.5265 28.002 50.473C27.7345 50.283 27.6655 50.0165 27.226 50.047C26.7575 50.0795 26.5795 50.699 26.5255 50.699C26.5165 50.699 26.4015 50.584 26.4015 50.575C26.4015 50.5625 26.538 50.4434 26.5715 50.3954C26.77 50.1134 26.9185 49.86 26.701 49.5245C26.468 49.1645 25.856 49.1595 25.8505 48.7H33.9755C34.1255 48.7 34.0035 49.099 34.001 49.1755C33.9605 50.346 33.837 51.4254 33.5365 52.5609C33.4315 52.9564 33.3055 53.389 33.1255 53.75H25.9005H25.9Z" fill="white"/>
<path d="M34.05 43.1001H25.85V48.1501H34.05V43.1001Z" fill="white"/>
<path d="M25.35 43.1001V44.8001C25.0635 44.7026 25.1865 44.5696 25.128 44.3466C25.0135 43.9106 24.5875 43.5826 24.154 43.8291C23.8945 43.9766 23.917 44.2771 23.897 44.2966C23.884 44.3091 23.7205 44.2971 23.6475 44.3221C23.3325 44.4291 23.294 44.9276 23.4 45.1996C23.3615 45.2321 22.9215 45.0651 22.9065 45.0436C22.846 44.9586 23.0055 44.6286 22.6865 44.4391C22.3675 44.2496 22.274 44.4896 22.062 44.5411C21.9595 44.5661 21.7375 44.4936 21.602 44.5486C21.5925 44.0796 20.982 44.0406 20.722 44.3471C20.517 44.5886 20.6235 44.9751 20.601 45.0001C20.586 45.0161 20.3005 45.0426 20.1865 45.1476C20.1055 45.2226 20.1115 45.3506 20.1005 45.3506H17.2255C17.22 45.3506 17.1505 45.2811 17.1505 45.2756V43.1756C17.1505 43.1701 17.22 43.1006 17.2255 43.1006H25.3505L25.35 43.1001Z" fill="white"/>
<path d="M20.175 54.3C20.255 54.3265 20.2325 54.6705 20.5355 54.7395C20.732 54.784 20.9895 54.7529 21.148 54.6229C21.3745 54.4369 21.1705 54.34 21.626 54.301C22.371 54.237 23.6245 54.2464 24.377 54.2979C24.486 54.3054 24.5895 54.3324 24.6945 54.3554C24.7495 54.4199 24.62 55.8145 24.578 56.003C24.536 56.1915 24.405 56.5765 24.178 56.603L19.5845 56.5905C19.3215 56.5095 18.4515 54.7174 18.3055 54.3724C18.3055 54.3539 18.418 54.2995 18.425 54.2995H20.175V54.3Z" fill="white"/>
<path d="M23.7 57.1499L23.004 57.5289C22.6815 57.7139 22.4265 58.0699 22.362 58.4369C22.269 58.9659 22.7785 58.4734 22.953 58.3779C23.3205 58.1764 23.579 58.3069 23.949 58.1994C23.733 58.6674 23.5125 59.2764 23.733 59.7874C23.9095 60.1964 24.2505 59.3304 24.3095 59.2339C24.5735 58.7999 24.8015 58.5649 25.35 58.5494V60.9994C23.4445 60.3209 21.665 59.1129 20.3245 57.5999C20.2175 57.4794 20.058 57.2984 20 57.1494H23.7V57.1499Z" fill="white"/>
<path d="M20 45.8999C19.9645 46.0959 19.9325 46.2714 19.951 46.4744C19.9615 46.5939 20.057 46.8109 20.052 46.8704C20.049 46.9084 19.6345 47.0589 19.648 47.4729C19.658 47.7754 19.902 47.9004 20 48.1494C19.574 48.2399 19.6475 48.0609 19.4165 47.9079C18.8875 47.5574 18.6245 48.1494 18.575 48.1494H17.225C17.17 48.1494 17.1535 48.0274 17.1475 47.9769C17.074 47.3519 17.1765 46.5339 17.2 45.8994H20V45.8999Z" fill="white"/>
<path d="M24.7 51.5751C24.623 51.8156 23.6055 51.6086 23.436 51.4526C23.3485 51.3721 23.3515 51.2011 23.215 51.1596C23.031 51.1041 22.56 51.2706 22.658 50.9351C22.6895 50.8276 22.9165 50.7401 22.797 50.5811C22.6975 50.4486 21.744 50.2061 22.0495 49.8741C22.159 49.7556 22.665 49.7091 22.5965 49.4811C22.5465 49.3146 21.9115 49.2961 21.898 48.8756C21.894 48.7471 22.067 48.8161 22.1875 48.7626C22.425 48.6576 22.143 48.4046 22.12 48.2016C22.082 47.8631 22.6015 47.6941 22.6505 48.0281C22.675 48.1941 22.466 48.5641 22.8645 48.4411C22.99 48.4026 23.0515 48.1396 23.21 48.4646C23.378 48.8091 23.2545 49.0661 23.2515 49.3821C23.247 49.8356 23.7335 49.3221 23.847 49.4016C23.9555 49.6776 23.7185 50.2021 23.9625 50.4366C24.2285 50.6926 24.3225 50.0211 24.5735 50.3511C24.5955 50.3801 24.6995 50.6096 24.6995 50.6246C24.6995 50.8191 24.7395 51.4501 24.6995 51.5746L24.7 51.5751Z" fill="white"/>
<path d="M25.35 58.25C24.957 58.245 24.615 58.3935 24.3305 58.6555L23.9505 59.2C23.8965 58.594 24.598 58.154 24.7275 57.7015C24.904 57.084 24.0415 57.8849 23.8535 57.9284C23.5555 57.9974 23.208 57.9075 22.9 58.0495C23.3565 57.5375 24.01 57.5439 24.4415 56.9664C24.889 56.3669 24.9665 55.7615 25.002 55.027C25.059 53.848 24.959 52.745 24 51.9505C24.1665 51.975 24.2985 52.012 24.474 52C25.347 51.9395 24.7165 51.2485 25.35 50.95V58.25Z" fill="white"/>
<path d="M23.7 52.1996C23.3875 52.2766 23.218 52.4306 23.0905 52.7156C23.033 52.8441 22.9135 53.3476 22.84 53.3891C22.6045 53.5231 22.388 53.1451 22.2015 53.2236C21.9375 53.3341 22.028 53.8841 21.851 53.9771C21.593 54.1126 21.4945 53.6661 21.299 53.7191C20.919 53.8221 21.1845 54.4541 20.724 54.4536C20.2635 54.4531 20.7455 54.0116 20.7745 53.9496C20.9695 53.5311 20.3365 53.7481 20.4705 53.2986C20.5625 52.9901 21.2035 52.9001 21.2415 52.7181C21.2985 52.4446 20.653 52.5551 20.8 52.1501C20.857 52.0911 21.7305 52.2796 21.9405 52.1411C22.2025 51.9686 21.4955 51.6476 22.013 51.4381C22.5305 51.2286 23.348 51.8561 23.7 52.1996Z" fill="white"/>
<path d="M25.187 49.263C25.5105 49.5765 25.288 50.4045 25.075 50.749C24.8985 50.2955 24.7805 49.7595 24.1505 50C24.1665 49.734 24.2875 49.5155 24.101 49.2745C23.9145 49.0335 23.62 49.1195 23.6 49.1005C23.5705 49.0725 23.6175 48.4365 23.5 48.3005C24.131 48.2455 23.4295 47.8675 23.2785 47.647C23.151 47.4605 23.0795 47.2255 23.1005 47C23.2495 46.9595 23.675 47.232 23.746 47.02C23.8315 46.765 23.339 46.7455 23.269 46.5015C23.2045 46.2765 23.6655 46.0875 23.9025 46.323C24.081 46.5005 23.8455 46.7855 24.032 46.8465C24.205 46.903 24.3845 46.6 24.477 46.7485C24.522 46.821 24.51 47.121 24.496 47.2205C24.4625 47.459 24.235 47.6455 24.308 47.867C24.3905 48.118 24.83 47.615 25.0235 47.9025C25.3015 48.3155 24.796 48.981 24.9995 49.177C25.0445 49.22 25.143 49.22 25.1875 49.263H25.187Z" fill="white"/>
<path d="M20.856 46.8936C21.0305 47.0021 21.628 46.4126 21.4965 47.2721C21.464 47.4846 21.2415 47.6126 21.3 47.8501L21.8995 47.7506C21.9115 47.9031 21.801 48.0276 21.797 48.1771C21.7945 48.2661 21.872 48.4636 21.8475 48.4966C21.8335 48.5156 21.6855 48.5156 21.627 48.6021C21.4195 48.9086 21.72 49.3661 21.999 49.5251C21.704 49.6846 21.643 49.9381 21.75 50.2496C21.3965 50.3311 20.959 50.2591 20.748 49.9271C20.5945 49.6851 20.776 49.7861 20.899 49.7246C21.159 49.5946 20.9675 49.0736 20.7695 48.9556C20.472 48.7786 20.251 48.9851 20.108 48.4661C20.074 48.3431 20.44 48.3281 20.5155 48.2891C20.862 48.1126 20.194 47.8646 20.074 47.7016C19.6795 47.1656 20.362 47.1856 20.3985 47.1476C20.506 47.0351 19.932 45.9341 20.524 45.9991C20.868 46.0366 20.7655 46.8366 20.8565 46.8931L20.856 46.8936Z" fill="white"/>
<path d="M28.25 56.85C28.052 57.127 27.043 57.6319 26.9705 57.8984C26.9205 58.0839 27.4335 59.239 27.3495 59.35L25.85 58.375V54.7L26.675 56.85H28.25Z" fill="white"/>
<path d="M19 51.4999C19.009 51.5059 19.052 51.6764 19.043 51.7144C19.025 51.7894 18.8635 51.8884 18.8075 51.9824C18.4095 52.6524 19.1225 53.1199 19.6495 52.6499C19.616 53.0259 20.1725 53.0244 20.2005 53.0499C20.218 53.0659 20.133 53.4034 20.147 53.5269C20.162 53.6569 20.245 53.6854 20.25 53.7994H18.05C17.877 53.1669 17.6495 52.5469 17.5245 51.8999C17.5105 51.8264 17.405 51.4994 17.5245 51.4994C17.729 51.4994 18.938 51.4589 18.9995 51.4994L19 51.4999Z" fill="white"/>
<path d="M18.65 48.7C18.638 48.8745 18.423 48.936 18.3725 49.097C18.2745 49.4115 18.417 49.7225 18.6745 49.9C18.7825 49.9745 18.94 49.9895 18.95 50C18.969 50.0205 18.8665 50.386 18.9125 50.5625C18.952 50.715 19.1305 50.8155 19.2 50.9495H17.35C17.2645 50.202 17.167 49.4545 17.2 48.6995H18.65V48.7Z" fill="white"/>
<path d="M25.85 49.3501C26.074 49.4161 26.4625 49.5781 26.491 49.8371C26.5295 50.1891 25.7235 50.5071 26.274 50.9006C26.862 51.3211 26.8735 50.3626 27.2735 50.3551C27.482 50.3511 27.6395 50.5691 27.7765 50.7006C27.811 50.7336 27.8895 50.7456 27.896 50.7551C27.9195 50.7871 27.752 51.4041 27.599 51.4741C27.2985 51.6111 26.704 51.0016 26.5215 51.5466C26.243 52.3801 27.423 51.9326 27.3405 52.5616C27.3355 52.5996 27.166 53.0761 27.144 53.0946C27.124 53.1116 26.6775 53.1556 26.625 53.1536C25.93 53.1276 26.7015 51.9506 25.849 52.0496C25.786 51.7736 25.989 51.8681 26.167 51.7431C26.5805 51.4521 26.1475 50.8991 26.0495 51.0006C26.186 51.2656 26.166 51.5061 25.849 51.6001V49.3501H25.85Z" fill="white"/>
<path d="M19.9 49.55C20.1085 49.754 20.305 48.967 20.597 49.228C20.912 49.5095 20.362 49.46 20.355 49.774C20.3465 50.166 20.896 50.445 21.19 50.5875C21.258 50.6205 21.3275 50.5555 21.2995 50.7C20.9055 50.665 20.292 50.4875 20.225 51.05C19.9875 50.875 19.054 50.713 19.205 50.282C19.2435 50.1725 19.7455 50.1355 19.5535 49.8815C19.494 49.8025 18.967 49.8305 18.75 49.5255C18.351 48.9645 19.1415 49.082 19.1985 48.9985C19.3085 48.8385 18.914 48.6445 18.87 48.502C18.789 48.2375 19.001 48.0535 19.25 48.1755C19.443 48.27 19.2775 48.641 19.397 48.7295C19.55 48.8055 19.747 48.5625 19.8755 48.699C20.094 48.9315 19.8305 49.483 19.9 49.551V49.55Z" fill="white"/>
<path d="M25.0375 45.288C24.9135 45.409 24.57 45.25 24.597 45.525C24.6215 45.777 25.118 45.5075 25.228 45.8475C25.268 45.971 25.268 46.287 25.2395 46.415C25.1825 46.6705 24.867 46.6475 24.947 46.92C24.962 46.9715 25.1055 46.9605 25.171 47.004C25.3445 47.1195 25.295 47.512 25.2995 47.7005C25.14 47.5805 24.957 47.4925 24.75 47.5C24.8795 47.221 24.895 46.556 24.552 46.4235C24.4765 46.394 24.368 46.4165 24.3 46.3755C24.242 46.3405 24.2105 46.1945 24.1505 46.125C23.923 45.861 23.558 45.938 23.505 45.8955C23.478 45.874 23.428 45.4755 23.45 45.4515C24.4015 45.6725 23.194 44.797 23.873 44.599C24.3455 45.191 24.156 44.41 24.209 44.236C24.3015 43.934 24.834 44.062 24.8045 44.477C24.795 44.6075 24.6685 44.682 24.7025 44.821C24.7435 44.941 24.9345 44.8635 25.0255 44.95C25.105 45.025 25.116 45.212 25.037 45.2895L25.0375 45.288Z" fill="white"/>
<path d="M22.4545 45.3951C22.602 45.6036 22.973 45.0806 23.135 45.6396C23.286 46.1606 23.022 46.0481 22.9595 46.3366C22.923 46.5051 23.0165 46.6341 23.0045 46.7181C22.998 46.7621 22.8765 46.7706 22.8275 46.8511C22.6385 47.1626 22.944 47.7446 23.1505 47.9996C22.87 48.0511 22.9885 47.9236 22.8945 47.7821C22.6585 47.4261 22.3585 47.6696 22.0245 47.3516C21.7305 47.0716 21.8825 46.8586 21.651 46.5751C22.93 46.3836 21.7015 46.1346 21.751 45.5006C22.5545 45.7851 21.8485 44.7646 22.4275 44.6986C22.844 44.6511 22.375 45.2821 22.455 45.3956L22.4545 45.3951Z" fill="white"/>
<path d="M22.3005 51.1C21.86 51.0535 21.378 51.3745 21.5005 51.85C21.477 51.8745 20.936 51.8325 20.823 51.8475C20.349 51.9105 20.548 52.6245 20.152 52.731C19.881 52.8035 19.972 52.2655 19.7655 52.207C19.5055 52.133 19.407 52.623 19.124 52.5065C18.6825 52.3245 19.415 51.917 19.445 51.8155C19.4885 51.6675 19.3255 51.594 19.351 51.451C19.6435 51.313 20.4575 51.6415 20.6155 51.286C20.681 51.139 20.3075 50.871 20.963 50.964C21.461 51.0345 21.775 51.5105 21.601 50.551C21.8935 50.583 22.3305 50.7585 22.301 51.1005L22.3005 51.1Z" fill="white"/>
<path d="M24.65 53.7499H22.3V53.5999C22.4755 53.7179 22.798 53.7549 22.9775 53.6524C23.3775 53.4249 23.2205 52.4074 23.9785 52.4534C24.3 52.4729 24.6615 53.4579 24.65 53.7499Z" fill="white"/>
<path d="M21.8495 44.8501C21.9315 45.2541 21.7265 45.1166 21.552 45.2776C21.413 45.4061 21.428 45.6806 21.473 45.8516C21.5155 46.0126 21.675 46.0941 21.6995 46.2496C21.5175 46.1876 21.4065 46.4386 21.364 46.4506C21.053 46.5366 21.1255 46.4006 21.064 46.2111C21.0025 46.0216 20.9155 45.7896 20.7025 45.7221C20.5265 45.6666 20.3575 45.7866 20.3575 45.5251C20.3575 45.0886 20.872 45.6361 20.9935 45.4441C21.057 45.3436 20.687 44.5711 21.084 44.4571C21.4335 44.3566 21.295 44.9051 21.396 44.9791C21.5575 45.0976 21.801 44.7946 21.849 44.8506L21.8495 44.8501Z" fill="white"/>
<path d="M45.25 34.4501V29.3251C45.25 29.0141 45.9485 28.9441 46.1765 28.9471C47.251 28.9601 48.387 29.3476 48.809 30.4161C49.1335 31.2381 49.1485 32.7496 48.6 33.4751C47.8495 34.4671 46.3805 34.4446 45.25 34.4501Z" fill="white"/>
<path d="M65.139 28.8141C71.807 28.0611 71.2345 41.4616 64.8185 40.0071C60.249 38.9711 60.4465 29.3441 65.139 28.8141Z" fill="white"/>
<path d="M57.6 49.4999H53.75L55.7005 44.6499L57.6 49.4999Z" fill="white"/>
<path d="M62.7 56.925C62.7825 56.538 63.654 56.7585 63.897 56.928C64.5 57.3495 64.4935 58.629 63.7345 58.909C63.571 58.969 62.7005 59.0945 62.7005 58.925V56.925H62.7Z" fill="white"/>
<path d="M69.45 69.2501H68.25C68.4235 68.8251 68.5755 68.2611 68.79 67.8651C68.808 67.8321 68.8675 67.7251 68.8995 67.7501L69.45 69.2501Z" fill="white"/>
<path d="M40.75 68.8999C41.198 68.7974 41.981 68.8884 42.116 69.4089C42.2675 69.9939 42.0285 70.5734 41.3725 70.6014C41.1955 70.6089 40.75 70.4809 40.75 70.2749V68.8999Z" fill="white"/>
<path d="M40.9375 67.2085C41.0495 67.19 41.44 67.2705 41.546 67.3295C41.955 67.556 41.9705 68.3705 41.546 68.6215C41.3805 68.7195 40.7955 68.875 40.7495 68.6255C40.7205 68.4685 40.7205 67.5315 40.7495 67.3755C40.7675 67.2795 40.8425 67.2245 40.937 67.209L40.9375 67.2085Z" fill="white"/>
<path d="M32.1595 67.2594C32.2095 67.2019 32.577 67.1944 32.6745 67.2009C33.0405 67.2244 33.426 67.3754 33.65 67.6749C34.071 68.2379 34.119 69.7369 33.651 70.2754C33.3735 70.5949 32.3815 70.7754 32.1965 70.3284C32.147 70.2089 32.109 69.9614 32.0985 69.8264C32.0515 69.2259 32.0535 68.2249 32.0985 67.6229C32.103 67.5599 32.14 67.2819 32.16 67.2594H32.1595Z" fill="white"/>
<path d="M62.3 69.2499H61.1L61.7005 67.7499C61.758 67.7069 61.962 68.2739 61.9875 68.3374C62.1035 68.6279 62.235 68.9444 62.3 69.2499Z" fill="white"/>
<path d="M45.4 69.25H44.2L44.8005 67.75C44.8405 67.7185 44.9075 67.8675 44.9245 67.9005C45.052 68.153 45.305 68.7829 45.3755 69.0494C45.3935 69.1169 45.411 69.1795 45.4 69.25Z" fill="white"/>
<path d="M80.7 69.25L81.2755 67.7495L81.9 69.25H80.7Z" fill="white"/>
<path d="M31.217 49.0831C31.587 49.3601 32.0745 49.4446 31.8775 50.1026C31.84 50.2271 31.4715 50.5711 31.5505 50.6501C31.676 50.7756 31.881 50.2696 32.0035 50.1786C32.5335 49.7846 32.741 50.2341 33.0825 50.4431C33.157 50.4886 33.394 50.5346 33.404 50.5806C33.434 50.7236 33.297 50.8126 33.262 50.9371C33.1485 51.3436 33.175 51.7911 32.576 51.8036C32.3655 51.8081 31.97 51.5756 31.9005 51.7261C31.856 51.8221 31.997 51.8071 32.051 51.8231C32.2895 51.8936 32.64 51.9636 32.7275 52.2476C32.876 52.7301 32.546 52.9791 32.5055 53.4211C32.4435 53.5116 32.223 53.3981 32.125 53.4001C31.825 53.4066 31.6735 53.5346 31.3525 53.3226C30.99 53.0831 31.119 52.7191 31.1 52.3496H30.9505C30.939 52.7306 31.05 53.1076 30.6755 53.3501C30.384 53.5386 30.201 53.4101 29.9255 53.3996C29.8145 53.3956 29.602 53.5226 29.5225 53.4026C29.495 52.9696 29.178 52.7186 29.323 52.2471C29.3685 52.0986 29.6065 51.9221 29.75 51.8736C29.817 51.8511 30.2085 51.8506 30.1505 51.7251C30.0705 51.5521 29.823 51.7521 29.704 51.7771C28.9875 51.9301 28.9185 51.4736 28.776 50.9491C28.75 50.8541 28.586 50.6516 28.655 50.5531C28.673 50.5271 28.883 50.5111 28.9495 50.4721C29.0795 50.3951 29.1595 50.1721 29.4145 50.0876C29.957 49.9081 30.064 50.2496 30.308 50.5671C30.42 50.7126 30.586 50.6526 30.5015 50.5241C30.2885 50.1996 30.0125 50.1531 30.1895 49.6126C30.301 49.2721 30.584 49.2906 30.7975 49.1206C30.8885 49.0481 30.924 48.8216 31.1025 48.9216C31.16 48.9536 31.177 49.0516 31.218 49.0821L31.217 49.0831Z" fill="#004067"/>
<path d="M32.655 43.7439C32.7205 43.8049 33.0955 43.5879 33.15 43.8749C33.094 44.3084 33.243 47.4579 33.1005 47.5759C32.909 47.7344 32.091 47.7174 31.8255 47.6994C31.511 47.6779 31.286 47.5679 30.925 47.6009C30.6395 47.6269 30.179 47.8629 29.9755 47.8544C29.761 47.8449 29.385 47.6279 29.0735 47.6014C28.438 47.5474 27.8105 47.8399 27.1465 47.6784C26.8845 47.6149 26.821 47.5409 26.797 47.2779C26.722 46.4484 26.7285 44.8579 26.797 44.0234C26.842 43.4789 27.1515 43.8449 27.2935 43.7449C27.3285 43.7204 27.312 43.5629 27.3815 43.5464C27.4775 43.5244 27.83 43.6129 28.023 43.5989C28.379 43.5739 28.7795 43.3619 29.1315 43.3539C29.427 43.3474 29.8515 43.5819 29.9735 43.5819C30.0335 43.5819 30.234 43.4509 30.3465 43.4229C31.036 43.2514 31.2455 43.5299 31.829 43.5944C32.037 43.6174 32.47 43.5194 32.5675 43.5549C32.665 43.5904 32.632 43.7234 32.654 43.7439H32.655Z" fill="#004067"/>
<path d="M32.2425 53.0921C32.2205 53.1056 31.7755 53.1536 31.73 53.1496C31.0175 53.0861 31.825 52.0441 31.025 52.0456C30.28 52.0466 30.9915 53.0881 30.3205 53.1501C30.2765 53.1541 29.83 53.1056 29.8075 53.0926C29.7875 53.0806 29.6195 52.7041 29.611 52.6641C29.4615 51.9636 30.343 52.3101 30.4395 51.8641C30.487 51.6436 30.3445 51.3451 30.114 51.3091C29.8515 51.2681 29.5515 51.6971 29.236 51.4031C29.1505 51.3231 29.03 50.8236 29.0735 50.7506C29.0835 50.7341 29.3275 50.4971 29.3525 50.4781C30.056 49.9566 30.003 51.4031 30.676 50.9016C31.3005 50.4366 30.0315 50.0466 30.6015 49.5776C30.637 49.5486 31.0005 49.3511 31.0245 49.3511C31.0485 49.3511 31.412 49.5486 31.4475 49.5776C32.022 50.0501 30.7355 50.4446 31.3735 50.9016C31.9695 51.3286 31.972 50.3456 32.4255 50.3566C32.5475 50.3596 32.9735 50.7051 32.9885 50.7811C33.0055 50.8671 32.8895 51.2686 32.827 51.3536C32.485 51.8191 32.0855 51.0091 31.6965 51.4731C31.583 51.6081 31.5695 51.6856 31.61 51.8651C31.7105 52.3116 32.5895 51.9541 32.4375 52.6646C32.429 52.7046 32.2615 53.0806 32.241 53.0931L32.2425 53.0921Z" fill="white"/>
<path d="M29.85 43.85V46.95C29.1135 46.5805 28.3725 46.883 27.6 46.9V43.9C28.3985 44.0155 29.08 43.4315 29.85 43.85Z" fill="white"/>
<path d="M32.35 43.9V46.9C31.602 46.904 30.863 46.5585 30.15 46.95V43.875C30.15 43.8215 30.426 43.722 30.487 43.712C31.1295 43.6035 31.705 43.9975 32.35 43.9Z" fill="white"/>
<path d="M32.85 44.05V47.35C31.936 47.557 31.0215 47.043 30.1505 47.5C30.1345 47.26 30.3965 47.159 30.5875 47.1125C31.08 46.993 31.497 47.171 31.9755 47.1995C32.0965 47.2065 32.65 47.2395 32.65 47.075V44.125C32.65 44.072 32.792 44.03 32.85 44.05Z" fill="white"/>
<path d="M27.3 44.0499V47.0249C27.3 47.1209 27.429 47.1914 27.522 47.2029C28.13 47.2774 29.223 46.8314 29.7015 47.2734C29.756 47.3239 29.8165 47.3649 29.8 47.4494C28.896 47.0804 28.0225 47.5479 27.1005 47.3494V44.0494C27.1005 44.0394 27.2645 44.0559 27.3005 44.0494L27.3 44.0499Z" fill="white"/>
<path d="M30.6005 51.5C31.007 51.7845 31.41 51.4225 31.15 51.0005C31.6845 51.152 31.44 51.9325 30.937 51.842C30.8465 51.8255 30.5335 51.566 30.6005 51.5Z" fill="#004067"/>
<path d="M28.939 44.3616C29.0915 44.3456 29.524 44.3956 29.6465 44.4781C29.756 44.5516 29.812 44.6961 29.6665 44.7431C29.5295 44.7871 29.0735 44.6661 28.828 44.7031C28.633 44.7326 27.9065 45.0811 27.806 44.7676C27.715 44.4831 28.14 44.5816 28.361 44.5356C28.546 44.4971 28.752 44.3806 28.939 44.3611V44.3616Z" fill="#004067"/>
<path d="M28.739 46.0139C28.9395 45.9969 29.866 45.9579 29.746 46.3199C29.6895 46.4909 29.1655 46.2939 28.9745 46.2964C28.7465 46.2994 27.894 46.5819 27.805 46.3194C27.698 46.0039 28.1845 46.1194 28.3695 46.0939C28.491 46.0769 28.6235 46.0234 28.7395 46.0139H28.739Z" fill="#004067"/>
<path d="M27.8 45.3501C28.3115 45.3996 28.7085 45.1586 29.2245 45.2011C29.3885 45.2146 29.7745 45.2526 29.7535 45.4746C29.7325 45.6966 29.1905 45.4876 28.974 45.4981C28.6345 45.5146 27.718 45.9526 27.8 45.3506V45.3501Z" fill="#004067"/>
<path d="M32.145 46.105C32.1625 46.136 32.162 46.3115 32.143 46.343C32.0205 46.5445 31.135 46.2515 30.9255 46.251C30.766 46.251 30.3515 46.418 30.2815 46.397C30.189 46.3695 30.1595 46.146 30.2305 46.0945C30.3015 46.043 30.7715 45.9525 30.8775 45.949C31.1725 45.9395 31.447 46.057 31.7325 46.0955C31.8205 46.1075 32.1145 46.05 32.145 46.1045V46.105Z" fill="#004067"/>
<path d="M30.6875 45.1629C31.1215 45.1124 31.398 45.2929 31.787 45.3384C31.908 45.3524 32.133 45.2054 32.1535 45.4254C32.1965 45.8959 31.108 45.4499 30.875 45.4504C30.704 45.4504 30.2225 45.6849 30.197 45.4244C30.1785 45.2354 30.527 45.1814 30.6875 45.1629Z" fill="#004067"/>
<path d="M32.145 44.7956C32 45.0131 31.1085 44.6506 30.8745 44.6461C30.625 44.6411 30.2785 44.8751 30.1975 44.5746C30.1965 44.4411 30.442 44.3911 30.5475 44.3726C31.0635 44.2826 31.276 44.4396 31.7375 44.5376C31.844 44.5601 32.0365 44.5261 32.103 44.5721C32.155 44.6081 32.173 44.7536 32.145 44.7956Z" fill="#004067"/>
</g>
<defs>
<clipPath id="clip0_1973_572">
<rect width="100" height="100" fill="white"/>
</clipPath>
</defs>
</svg>
