<svg width="177" height="80" viewBox="0 0 177 80" fill="none" xmlns="http://www.w3.org/2000/svg">
<path d="M79.7784 60.349H82.4142V67.7528C82.4142 72.0567 79.928 73.1642 77.1751 73.1642C74.4223 73.1642 71.944 72.0078 71.944 67.8096V60.349H74.582V67.8834C74.582 70.3483 75.8454 71.073 77.2123 71.073C78.7816 71.073 79.7795 70.2222 79.7795 67.8834L79.7784 60.349ZM118.166 67.5063H124.169V65.3208H118.166V62.5345H124.432V60.3501H115.608V72.9881H124.473L124.787 70.8027H118.166V67.5063ZM143.222 65.2833C141.188 64.8051 140.645 64.4439 140.645 63.542C140.645 62.6401 141.32 62.1483 142.447 62.1483C144.076 62.1483 144.52 62.9991 144.656 63.7987H147.311C147.133 61.9643 145.817 60.1661 142.518 60.1661C139.566 60.1661 137.951 61.6632 137.951 63.843C137.951 65.556 138.807 66.7895 142.181 67.5915C144.346 68.1015 144.95 68.5649 144.95 69.61C144.95 70.555 144.322 71.1536 142.843 71.1536C141.363 71.1536 140.46 70.5789 140.169 69.293H137.514C137.812 71.5728 139.462 73.163 142.638 73.163C145.814 73.163 147.642 71.5796 147.642 69.2885C147.642 67.5199 146.857 66.1523 143.222 65.2833ZM154.155 62.5333H157.973V72.987H160.61V62.5333H164.414V60.349H154.155V62.5333ZM171.172 66.2057C170.55 64.8517 169.257 62.2664 168.279 60.3479H165.299L169.62 68.106C169.703 68.2401 169.722 68.3696 169.722 68.5093V72.9858H172.36V68.4718C172.36 68.2185 172.409 68.1617 172.459 68.072L176.842 60.3479H174.085C173.122 62.1948 171.716 64.8971 171.172 66.2057ZM135.912 70.5721C135.912 71.4229 135.916 72.3975 136.092 72.987H133.592C133.37 72.4372 133.333 71.4887 133.333 70.1586V69.9655C133.333 68.5581 132.977 67.8948 130.944 67.8948H129.111V72.987H126.534V60.349H131.992C134.71 60.349 136.173 61.8609 136.173 63.8135C136.173 65.5037 135.257 66.4295 134.332 66.802C134.98 67.0349 135.912 67.6971 135.912 69.953V70.5721ZM133.511 64.1088C133.511 63.0627 132.833 62.4731 131.484 62.4731H129.112V65.7718H131.411C132.923 65.7718 133.511 65.1913 133.511 64.1088ZM149.823 72.987H152.459V60.349H149.823V72.987ZM97.9525 72.987H100.588V60.349H97.9525V72.987ZM109.467 66.2613C108.867 68.0549 108.362 69.627 108.107 70.797H108.069C107.781 69.5157 107.338 67.9913 106.768 66.2193L104.881 60.349H102.053L106.479 72.987H109.586L114.131 60.349H111.443L109.467 66.2613ZM92.7337 64.177C92.7337 66.25 92.7314 68.4309 92.8698 69.769H92.8372C92.2522 68.3946 89.2935 63.1956 87.714 60.349H84.438V72.987H86.8466V69.0613C86.8466 66.7952 86.8185 64.2315 86.7274 63.1024H86.76C87.3923 64.5598 90.6547 70.4994 92.0193 72.987H95.1232V60.349H92.7314V64.177H92.7337ZM71.9316 54.0675H83.7327V14.4634H71.9316V54.0675ZM165.047 14.4622V39.2645C165.047 43.3571 162.527 45.9015 158.474 45.9015C154.422 45.9015 151.901 43.3571 151.901 39.2645V14.4622H140.109V39.7393C140.109 49.307 147.145 55.25 158.474 55.25C169.804 55.25 176.841 49.307 176.841 39.7393V14.4622H165.047ZM98.1876 24.9897H98.7321L106.399 54.0675H116.793L123.946 24.9897H124.453L124.45 54.0675H135.19V14.4622H117.812L111.889 41.5056H111.608L105.05 14.4622H88.3957V54.0675H98.1933L98.1876 24.9897ZM24.7497 7.65821L26.8095 8.07168L26.5317 6.23039C26.3719 5.16265 26.6802 4.08127 27.3765 3.26229C28.065 2.45694 29.0606 1.9935 30.1069 1.9935C32.0925 1.9935 33.7091 3.63487 33.7091 5.65222C33.7091 5.84191 33.7001 6.0282 33.6674 6.2338L33.2006 9.35751L35.1389 9.74712L35.6159 6.54617C35.6665 6.24629 35.6834 5.95096 35.6834 5.65222C35.6834 2.53532 33.1814 0 30.1057 0C28.4824 0 26.9412 0.71675 25.8792 1.96396C24.8071 3.2214 24.3323 4.88662 24.5787 6.53027L24.7497 7.65821ZM27.3642 74.1672C12.052 72.7473 0 59.6902 0 43.7592C0 30.4545 8.40364 19.1364 20.0855 14.9245C20.4477 15.3505 20.9877 15.9048 21.6717 16.4841L21.6357 16.4648C20.5276 16.809 19.0303 17.4871 19.0303 17.4871C14.9837 19.2568 11.4197 21.9523 8.61514 25.3316C9.66925 25.8882 11.4355 26.7367 13.8193 27.5909C14.4898 25.8768 15.2683 24.2809 16.1312 22.8179C16.2178 22.9462 16.6892 23.6334 17.4947 24.3229L17.5082 24.3082C16.8275 25.519 16.202 26.8151 15.6564 28.2088C15.4202 28.8268 15.2019 29.4447 15.0051 30.0831C13.7406 33.8724 12.9902 38.1809 12.9115 42.7687C12.8923 43.1072 12.8923 43.4264 12.8923 43.7661C12.8923 44.1057 12.8923 44.4237 12.9115 44.7634C13.0105 49.6898 13.8598 54.3163 15.3212 58.326C15.5383 58.9643 15.7757 59.6027 16.0322 60.2002C18.6399 66.3499 22.6651 70.6822 27.3147 71.9522L27.3664 74.1683L27.3642 74.1672ZM2.02385 42.7687H10.9349C11.0136 37.9628 11.8236 33.4351 13.1466 29.4447C10.4489 28.4803 8.48464 27.5148 7.39903 26.9344C4.18495 31.4121 2.22522 36.861 2.02385 42.7687ZM7.95815 61.3418C9.81662 60.424 11.656 59.6095 13.4638 58.9632C11.9417 54.7547 11.0339 49.9078 10.9349 44.7622H2.02497C2.23985 51.0017 4.41444 56.7323 7.95815 61.3418ZM21.2375 70.8969C18.3924 68.5195 15.9624 65.0471 14.1748 60.8181C12.5616 61.3963 10.9202 62.121 9.27101 62.9195C12.4896 66.5385 16.5879 69.3192 21.2375 70.8969ZM43.6179 18.7968C43.1398 24.8091 35.6643 25.8825 34.0612 25.8189L33.9993 28.3202C33.3952 28.2361 32.7708 28.1952 32.1667 28.1952L32.2286 19.701C32.2286 19.701 33.1455 19.701 34.2277 19.4068C35.4989 19.0706 36.9558 18.3561 37.372 16.7783C34.7486 17.536 32.6235 18.0187 30.729 17.9335C22.484 17.6189 20.5265 12.5096 20.3184 11.543C19.3396 11.2067 17.903 10.9126 15.842 10.8285H15.6542C15.0298 10.8285 13.8216 10.9126 12.9688 11.1227C12.7405 11.1227 12.8023 10.9966 12.844 10.9126C13.8643 10.2401 14.9274 9.98793 15.5721 9.88229C17.1954 9.65171 18.7153 9.71418 20.1935 10.1129C20.2149 9.65057 20.3397 8.85204 20.4646 8.43175L35.9984 11.7951C36.0817 11.7951 44.0556 13.2457 43.6179 18.7968ZM29.0843 12.1529L25.7318 10.975L22.5245 11.1227L25.6688 12.3426L29.0843 12.1529ZM31.8112 29.9593L28.6253 29.8968C28.6253 29.8968 24.6484 29.9593 24.6484 27.9419C24.6484 26.7219 25.5642 26.2596 26.1683 26.0904L26.2302 27.7738C26.6678 27.8999 27.2719 28.026 28.0639 28.068L27.8974 19.6998L26.5845 19.7203C26.4192 19.7203 26.2302 19.7203 26.0018 19.7407C23.6708 20.0145 18.0481 21.7808 18.0481 27.9408V27.9612C18.0481 31.345 19.7356 33.4056 21.8798 34.6039C24.0443 35.8239 26.6689 36.1805 28.5218 36.1805L31.7077 36.2442C31.7077 36.2442 35.6857 36.1806 35.6857 38.199C35.6857 40.0074 33.7068 40.1551 33.6652 40.1551L33.7271 38.157C33.3536 38.0934 31.8753 38.0309 31.8753 38.0309L31.6458 48.5232C32.25 48.5436 32.8743 48.5857 33.4784 48.6697L33.5212 46.4411H33.7496C35.5203 46.4411 42.286 44.9701 42.286 38.2002C42.286 31.4302 35.5383 29.9593 31.8112 29.9593ZM32.9992 66.8179H33.1241C34.8937 66.8179 42.0148 65.3458 42.0148 58.5759C42.0148 51.8059 35.0388 50.335 31.5828 50.335H28.2304C28.2101 50.335 24.6496 50.4201 24.6496 48.3789C24.6496 46.5297 26.6689 46.4241 26.6903 46.4241L26.7319 48.5039L28.5848 48.5459L28.335 37.9719C27.7106 37.9514 27.1065 37.9298 26.5238 37.8674L26.5654 40.138C24.7947 40.138 17.6949 41.609 17.6949 48.3789C17.6949 55.1489 24.6709 56.621 28.1269 56.621H31.4782C31.4996 56.621 35.0602 56.4302 35.0602 58.5759C35.0602 60.1525 33.6033 60.4478 33.1657 60.5103L33.2276 58.6951C33.2276 58.6951 32.466 58.3612 31.3736 58.418L30.9371 77.6657C30.9371 77.6657 30.9169 77.8339 30.7909 77.9384C30.6446 78.1065 30.333 78.1485 30.1249 78.1485C29.5826 78.1485 29.3126 77.9588 29.2913 77.6237L28.8345 58.4123C28.8345 58.4123 27.4811 58.3919 27.0008 58.3498L27.0638 60.5944H20.5254C19.7131 60.5944 19.4015 61.6666 20.0877 62.1085L27.21 66.6918L27.3754 74.1558L27.4598 77.6453C27.4598 77.7305 27.4598 78.571 28.1055 79.2639C28.4385 79.6013 29.0415 80 30.1249 80C31.2082 80 31.7696 79.6002 32.1037 79.2639C32.7697 78.571 32.7697 77.7293 32.7697 77.6657L32.853 74.1763V74.1672L32.8946 71.8204L32.9992 66.8179ZM60.2115 43.7592C60.2115 59.6891 48.1618 72.7439 32.853 74.1672L32.8991 71.9783C37.5779 70.7061 41.6211 66.3113 44.2187 60.0809C44.4763 59.4823 44.7126 58.8633 44.9308 58.2249C46.3528 54.2561 47.2033 49.6489 47.3 44.7622C47.3191 44.4237 47.3191 44.1046 47.3191 43.7649C47.3191 43.4253 47.3191 43.1072 47.3 42.7676C47.2213 38.1411 46.4507 33.7929 45.1873 29.9831C44.9691 29.3447 44.7519 28.7257 44.4954 28.1077C43.9869 26.8117 43.4087 25.5963 42.7832 24.457C43.2737 24.0038 43.7214 23.4824 44.1084 22.8894C44.9342 24.3002 45.6834 25.828 46.3325 27.4694C48.0313 26.8492 49.7581 26.087 51.4985 25.2203C49.7165 23.0939 47.6263 21.2503 45.3122 19.7305C45.5597 18.5208 45.3785 17.4201 45.3785 17.4201C54.2401 22.7543 60.2137 32.5491 60.2137 43.7581M49.2755 42.7687H58.1876C57.9863 36.8189 55.9973 31.336 52.7427 26.8412C50.8167 27.8113 48.9054 28.6689 47.0435 29.3663C48.3868 33.3749 49.1967 37.9423 49.2755 42.7687ZM51.0541 62.7912C49.9179 62.2198 48.2428 61.4565 46.094 60.6989C44.2974 64.9789 41.8461 68.4957 38.9751 70.8958C43.6787 69.2999 47.8209 66.4715 51.0541 62.7912ZM58.1865 44.7622H49.2755C49.1765 49.8681 48.2866 54.6741 46.805 58.8428C49.289 59.7209 51.1621 60.6023 52.3456 61.2157C55.833 56.6278 57.9739 50.9461 58.1865 44.7622Z" fill="#26008B"/>
</svg>
