<svg width="100" height="100" viewBox="0 0 100 100" fill="none" xmlns="http://www.w3.org/2000/svg">
<g clip-path="url(#clip0_1991_4718)">
<path d="M100 0H0V100H100V0Z" fill="#026A8D"/>
<path d="M66.9564 47.7425V38.8702C66.9564 38.8702 64.7892 37.5835 62.8921 36.7471V37.6653C62.8921 37.6653 63.9375 38.1449 64.7833 38.5836V46.9003C62.757 46.1634 60.6132 45.4791 58.3519 44.8826V35.0159C58.3519 35.0159 55.474 34.0158 53.1011 33.5771V34.4954C53.1011 34.4954 54.7692 34.8404 55.9145 35.168V44.2743C53.4947 43.707 51.0748 43.2508 48.6902 42.9057V32.887C48.6902 32.887 46.2176 32.618 44.3674 32.6823L44.3146 33.6532H45.9474V42.549C29.59 40.7476 15.5468 44.2451 15.5468 52.5326C15.5468 53.9655 16.0284 55.4277 16.9094 56.8781C19.4232 48.1052 38.8347 45.251 57.841 49.4386C71.9605 52.5443 81.9746 58.814 84.3416 64.61C84.418 64.2357 84.4532 63.8438 84.4532 63.4403C84.4532 58.2292 77.7223 52.1056 66.9564 47.725" fill="white"/>
<path d="M57.5531 29.6819C66.187 32.5653 72.7241 37.291 74.3216 41.1745C74.3686 40.9405 74.3921 40.7066 74.3921 40.4493C74.3921 36.2441 67.1561 30.2902 57.142 26.7751C53.2949 25.4183 49.5477 24.5936 46.2645 24.3012C48.0559 18.9672 52.8133 16.3236 58.3695 17.3998C57.9995 17.2185 57.6295 17.0372 57.2419 16.8792C49.6241 13.7268 42.6818 16.8792 40.9902 24.3363C37.3899 24.7925 35.111 26.2722 35.111 28.7637C35.111 29.524 35.3401 30.3253 35.7571 31.1558C36.9787 26.6289 46.8754 26.1201 57.5473 29.6819" fill="white"/>
<path d="M58.7807 57.5274C58.7454 57.5274 58.7102 57.5216 58.675 57.5099C56.5018 57.1238 52.6665 56.5156 49.2247 56.3635V58.3521C49.2247 58.3521 52.8721 58.5626 55.3448 58.9018V84.3317H60.4311V57.8374C60.4311 57.8374 59.9084 57.7263 59.0567 57.5742C58.9686 57.5566 58.8805 57.5391 58.7807 57.5216" fill="white"/>
<path d="M69.5054 61.8608C69.5054 61.8608 71.5083 62.4983 73.1176 63.1124V84.3371H77.1702V62.9721C77.1702 62.9721 73.1352 61.1005 69.5054 59.9951V61.855V61.8608Z" fill="white"/>
<path d="M28.433 59.3872L32.5149 58.8433V84.3375H39.1225V56.2056C39.1225 56.2056 33.1904 56.3693 28.568 57.1355L28.433 59.3872Z" fill="white"/>
</g>
<defs>
<clipPath id="clip0_1991_4718">
<rect width="100" height="100" fill="white"/>
</clipPath>
</defs>
</svg>
