<svg width="100" height="100" viewBox="0 0 100 100" fill="none" xmlns="http://www.w3.org/2000/svg">
<g clip-path="url(#clip0_1973_183)">
<path d="M99.9617 0.0400391H0.0401611V99.9616H99.9617V0.0400391Z" fill="white"/>
<path d="M56.0049 62C56.5512 62 57 61.4785 57 60.8422V40.1474C57 39.5007 56.5512 39 56.0049 39C55.4585 39 55 39.5007 55 40.1474V60.8422C55 61.4785 55.4488 62 56.0049 62Z" fill="#E52629"/>
<path d="M49.9951 62C50.5512 62 51 61.4889 51 60.8422V40.1578C51 39.5215 50.5512 39 49.9951 39C49.439 39 49 39.5215 49 40.1578V60.8422C49 61.4889 49.439 62 49.9951 62Z" fill="#E52629"/>
<path d="M44.0049 62C44.561 62 45 61.4683 45 60.8323V40.1469C45 39.5005 44.561 39 44.0049 39C43.4488 39 43 39.5005 43 40.1469V60.8323C43 61.4683 43.4585 62 44.0049 62Z" fill="#E52629"/>
<path d="M51 19H18.0206L18 79L36.529 50.148V60.6635C36.529 61.3135 37.0028 61.8377 37.5899 61.8377C38.177 61.8377 38.6404 61.303 38.6404 60.6635V39.7374L51 19Z" fill="#E52629"/>
<path d="M63.8516 49.1421V39.5164C63.8516 38.8761 63.3627 38.3513 62.7907 38.3513C62.2187 38.3513 61.7195 38.8761 61.7195 39.5164V59.3555L49 81H82V21L63.8516 49.1421Z" fill="#E52629"/>
</g>
<defs>
<clipPath id="clip0_1973_183">
<rect width="100" height="100" fill="white"/>
</clipPath>
</defs>
</svg>
