<svg width="274" height="80" viewBox="0 0 274 80" fill="none" xmlns="http://www.w3.org/2000/svg">
<g clip-path="url(#clip0_1987_2942)">
<path d="M104.059 38.9941V58.5572C104.059 66.6044 100.729 70.3505 93.6527 70.3505C85.4668 70.3505 83.7325 63.9682 83.7325 58.5572V38.9941H81.3044V58.5572C81.3044 67.7837 85.4668 72.501 93.6527 72.501C102.116 72.501 106.417 67.8531 106.417 58.5572V38.9941H104.059Z" fill="black"/>
<path d="M121.957 47.4575C118.28 47.4575 115.089 49.3999 113.771 52.4523C113.771 51.3424 113.771 48.0125 113.771 48.0125H111.62V71.6685H113.771V58.904C113.771 53.1461 116.962 49.3999 121.957 49.3999C128.339 49.3999 128.339 54.9497 128.339 56.8228V71.7379H130.489V57.1697C130.42 54.4641 130.42 47.4575 121.957 47.4575Z" fill="black"/>
<path d="M135.692 48.0125V71.6685H137.774V48.0125H137.565H135.692Z" fill="black"/>
<path d="M135.692 40.7979V43.989H137.774V40.7979H137.565H135.692Z" fill="black"/>
<path d="M158.863 48.0125C158.863 48.0125 151.371 68.3386 151.093 69.0323C150.816 68.3386 142.768 48.0125 142.768 48.0125H140.34L149.844 71.6685H152.272L161.221 48.0125H160.944H158.863Z" fill="black"/>
<path d="M172.737 47.4575C169.963 47.4575 167.604 48.4287 165.8 50.2324C163.511 52.5217 162.262 56.1985 162.262 60.2221C162.193 63.9682 163.372 67.1593 165.523 69.3792C167.326 71.2523 169.893 72.2235 172.737 72.2235C178.426 72.2235 182.033 69.1711 183.005 63.6213L183.074 63.4132H180.923V63.5519C180.091 67.7837 177.108 70.2811 172.807 70.2811C170.587 70.2811 168.714 69.518 167.257 68.0611C165.453 66.2575 164.482 63.4132 164.482 60.2914C164.482 60.2914 164.482 60.2914 164.482 60.2221C164.898 60.2221 183.282 60.2221 183.282 60.2221V60.0139C183.282 59.7364 183.282 59.3896 183.282 59.1121C183.282 55.5047 182.172 52.383 180.23 50.3018C178.287 48.4287 175.79 47.4575 172.737 47.4575ZM172.737 49.3999C178.01 49.3999 180.854 53.9092 181.062 58.4184C180.646 58.4184 164.898 58.4184 164.482 58.4184C164.898 53.8398 167.812 49.3999 172.737 49.3999Z" fill="black"/>
<path d="M189.109 52.7298C189.109 51.6892 189.109 48.0125 189.109 48.0125H186.959V71.6685H189.109V58.7652C189.317 55.2272 190.08 53.9091 191.676 52.1748C194.173 49.7468 197.087 49.8855 197.92 49.9549H198.128V47.8737H197.92C194.104 47.735 190.358 49.8162 189.109 52.7298Z" fill="black"/>
<path d="M209.366 58.5571L208.672 58.4184C205.134 57.6553 201.804 56.9615 201.804 53.6317C201.804 50.5099 205.134 49.3306 208.325 49.3306C210.823 49.3306 214.985 50.0937 214.985 55.0885V55.2966H217.136V55.0885C217.136 50.163 214.014 47.4575 208.325 47.4575C206.314 47.4575 199.723 47.8738 199.723 53.6317C199.723 58.7652 204.441 59.7364 207.909 60.4302L208.534 60.5689C212.21 61.332 215.748 62.0257 215.748 65.5637C215.748 69.8648 210.754 70.2811 208.603 70.2811C204.302 70.2811 201.388 67.7143 201.111 63.6907V63.4826H199.03V63.6907C199.168 68.8936 202.845 72.1541 208.672 72.1541C210.823 72.1541 217.968 71.6685 217.968 65.4944C217.76 60.5689 213.945 59.459 209.366 58.5571Z" fill="black"/>
<path d="M222.131 48.0125V71.6685H224.281V48.0125H224.073H222.131Z" fill="black"/>
<path d="M257.302 48.0126C257.302 48.0126 249.81 67.9919 249.463 68.8937C249.116 67.9919 240.93 48.0126 240.93 48.0126C240.93 48.0126 233.716 48.0126 233.369 48.0126C233.369 47.6657 233.369 40.7979 233.369 40.7979H233.161H231.218C231.218 40.7979 231.218 47.6657 231.218 48.0126C230.871 48.0126 226.917 48.0126 226.917 48.0126V49.8856C226.917 49.8856 230.871 49.8856 231.218 49.8856C231.218 50.3019 231.218 65.9107 231.218 65.9107C231.218 66.0494 231.218 66.1882 231.218 66.3269C231.218 68.1306 231.635 69.4487 232.606 70.3505C233.993 71.738 236.352 71.738 238.225 71.6686H238.433V69.7955H238.225C236.283 69.8649 235.034 69.7262 234.271 68.9631C233.646 68.4081 233.369 67.4369 233.369 65.9107C233.369 65.9107 233.369 50.2325 233.369 49.8856C233.716 49.8856 239.057 49.8856 239.266 49.8856C239.335 50.1631 248.215 71.183 248.284 71.3217C247.243 74.3048 246.619 75.9697 245.925 76.6634C244.815 77.7734 243.705 78.1202 241.208 78.1202H241V79.9933H241.208C243.775 79.9933 245.44 79.9239 246.758 78.8833C247.729 78.1202 248.492 76.4553 249.533 74.0273L259.592 48.0126H257.302Z" fill="black"/>
<path d="M222.131 40.7979V43.989H224.281V40.7979H224.073H222.131Z" fill="black"/>
<path d="M135.068 33.93C125.634 33.7219 117.725 26.5072 117.933 16.4482C118.211 8.5397 124.524 -0.409353 136.039 -0.0624905C144.087 0.0762545 153.036 6.11166 152.828 17.2113C152.55 28.3802 143.185 34.2075 135.068 33.93ZM135.415 2.01868C128.2 2.01868 123.206 7.29099 123.206 16.24C123.206 26.9234 129.518 31.7101 135.484 31.7101C142.699 31.7101 147.486 26.1603 147.486 17.4194C147.555 8.05409 142.699 2.01868 135.415 2.01868Z" fill="black"/>
<path d="M273.674 0.908703V0.423096H264.24V0.908703C266.113 1.04745 266.598 1.39431 266.598 4.03046V15.5463H249.671V4.03046C249.671 1.39431 250.157 0.978075 252.03 0.908703V0.423096H242.595V0.908703C244.469 1.04745 244.954 1.39431 244.954 4.03046V29.837C244.954 32.4732 244.469 32.8894 242.595 32.9588V33.4444H252.03V32.9588C250.157 32.82 249.671 32.4732 249.671 29.837V17.5581H266.598V29.9064C266.598 32.5426 266.113 32.9588 264.24 33.0282V33.5138H273.674V33.0282C271.801 32.8894 271.316 32.5426 271.316 29.9064V4.09984C271.316 1.39431 271.801 1.04745 273.674 0.908703Z" fill="black"/>
<path d="M155.325 0.423096V0.908703C157.129 0.978075 157.684 1.18619 157.684 3.12862V29.9064C157.684 32.5426 157.198 32.9588 155.325 33.0282V33.5138H162.47V33.0282C160.597 32.8894 160.112 32.5426 160.112 29.9064V5.83415C160.112 6.25038 178.495 28.6577 182.519 33.5138H183.282V3.12862C183.282 1.18619 183.768 1.04745 185.641 0.908703V0.423096H178.634V0.908703C180.438 0.978075 180.993 1.18619 180.993 3.12862V24.1485L161.568 0.423096H155.325Z" fill="black"/>
<path d="M201.666 0.423096H201.041C199.376 4.37733 191.607 22.6917 188.971 29.0046C188.485 30.1145 187.722 31.8488 187.167 32.4732C186.751 32.9588 186.334 32.9588 185.918 33.0282V33.5138H192.231V33.0282C191.746 33.0282 190.636 33.0282 190.566 32.0569C190.566 31.7795 190.636 31.4326 190.774 31.0857C190.982 30.5308 192.231 27.2702 193.827 23.6629H206.383C207.632 26.7153 208.742 29.3514 209.297 30.5308C209.435 30.8776 209.782 31.7101 209.782 32.0569C209.782 32.9588 208.95 33.0282 208.048 33.0282V33.5138H216.858V33.0282C215.748 32.9588 215.402 32.6813 214.638 30.8776L201.666 0.423096ZM194.59 21.5817C196.74 16.3094 200.001 7.9847 200.001 7.9847C200.001 7.9847 202.984 15.4769 205.481 21.5817H194.59Z" fill="black"/>
<path d="M79.4314 0.423096V0.908703C80.472 0.978075 81.027 1.04745 81.3739 1.46368C81.4432 1.60243 81.582 1.81055 81.6513 1.94929C81.7207 2.08803 81.7207 2.29615 81.7207 2.50427C81.7207 2.71239 81.7207 2.9205 81.7207 3.12862V29.9064C81.7207 32.5426 81.2351 32.9588 79.3621 33.0282V33.5138H86.4381V33.0282C84.565 32.8894 84.0794 32.5426 84.0794 29.9064V6.94411C84.0794 6.52787 84.01 5.6954 84.01 5.6954L84.4262 6.94411L95.8727 33.375H96.5664L108.221 6.18101L108.568 5.07105C108.568 5.07105 108.498 5.62603 108.498 6.11164V29.9064C108.498 32.5426 108.013 32.9588 106.14 33.0282V33.5138H115.574V33.0282C113.701 32.8894 113.216 32.5426 113.216 29.9064V3.12862C113.216 1.18619 113.701 1.04745 115.574 0.908703V0.423096H108.221L97.6764 25.3972L86.993 0.423096H79.4314Z" fill="black"/>
<path d="M218.454 31.2938C220.674 32.6119 223.934 33.9993 227.472 33.9993C227.542 33.9993 227.611 33.9993 227.68 33.9993C232.814 33.9299 238.294 30.1145 238.294 24.0791C238.294 17.558 233.716 16.0318 229.137 13.6732C224.489 11.3839 222.547 10.2046 222.547 7.15216C222.547 5.07099 223.796 2.0186 227.958 2.0186C229.276 2.0186 230.455 2.36546 231.427 2.85107C234.756 4.72413 234.965 7.36028 235.381 9.02522H235.866L235.589 1.67174C233.438 0.769897 231.773 0.353662 230.594 0.214917C229.9 0.145544 229.207 0.0761719 228.652 0.0761719C224.004 0.0761719 218.593 2.85107 218.593 8.67836C218.593 12.6326 220.951 15.13 225.669 17.4887C230.317 19.8473 233.855 20.8185 233.855 25.4665C233.855 27.8252 232.467 31.9875 227.264 31.9875C225.183 31.9875 223.518 31.2938 222.2 30.1838C219.078 27.2702 219.148 24.9115 218.939 24.0097H218.454V31.2938Z" fill="black"/>
<path d="M48.6301 16.3094H48.0751V4.65482C48.5607 5.83415 48.6301 7.01348 48.6301 7.9847V16.3094ZM26.5697 11.6614C27.2634 11.8696 28.0265 12.0083 28.859 12.0777V11.5227C28.1652 11.4533 27.4021 11.3146 26.7084 11.1065C25.8066 10.8983 24.9741 10.6902 24.1416 10.6902C23.7254 10.6902 23.3092 10.7596 22.9623 10.8983V11.5227C23.2398 11.3839 23.656 11.3146 24.1416 11.3146C24.9047 11.2452 25.7372 11.4533 26.5697 11.6614ZM19.8405 11.2452C20.3261 11.2452 20.7424 11.3146 21.0199 11.4533V10.829C20.673 10.6902 20.2568 10.6209 19.8405 10.6209C19.0081 10.6209 18.1756 10.829 17.2737 11.0371C16.58 11.2452 15.8863 11.3839 15.1232 11.4533V12.0083C15.8863 11.9389 16.6494 11.8002 17.4125 11.5921C18.3143 11.4533 19.0774 11.2452 19.8405 11.2452ZM19.8405 9.85775C20.3261 9.85775 20.7424 9.9965 21.0199 10.0659V9.44152C20.673 9.30277 20.2568 9.30277 19.8405 9.2334C19.0081 9.2334 18.1756 9.44152 17.2737 9.64964C16.58 9.85775 15.8863 9.9965 15.1232 10.0659V10.6209C15.9557 10.5515 16.6494 10.4127 17.4125 10.2046C18.3143 9.9965 19.0774 9.78838 19.8405 9.85775ZM19.8405 12.702C20.3261 12.702 20.7424 12.7714 21.0199 12.9101V12.2858C20.673 12.147 20.2568 12.147 19.8405 12.0777C19.0081 12.0777 18.1756 12.2858 17.2737 12.4939C16.58 12.702 15.8863 12.8408 15.1232 12.9101V13.4651C15.9557 13.3957 16.6494 13.1876 17.4125 13.0489C18.3143 12.8408 19.0774 12.6327 19.8405 12.702ZM19.8405 8.40093C20.3261 8.40093 20.7424 8.53968 21.0199 8.60905V7.9847C20.673 7.84595 20.2568 7.77658 19.8405 7.77658C19.0081 7.77658 18.1756 7.9847 17.2737 8.19281C16.58 8.40093 15.8863 8.53968 15.1232 8.60905V9.16403C15.8863 9.09466 16.6494 8.95591 17.4125 8.74779C18.3143 8.60905 19.0774 8.40093 19.8405 8.40093ZM16.0944 50.8569C9.22654 39.5492 9.36528 28.519 9.36528 27.1315V0.423096H61.3946V27.1315C61.3946 28.519 61.5334 39.5492 54.6655 50.8569C48.5607 61.124 39.3342 65.6332 35.38 67.0207C31.4951 65.6332 22.2686 61.124 16.0944 50.8569ZM29.9689 48.7757L28.5815 47.6658L29.3446 46.0008L27.5409 46.3477L26.7778 44.7521L25.9453 46.3477L24.211 46.0008L24.9741 47.6658L23.5866 48.7757L25.321 49.192V50.9956L26.7778 49.8857L28.1652 50.9956V49.192L29.9689 48.7757ZM37.3918 60.0834L39.1261 59.251L37.3918 58.4879L38.0161 56.6842L36.2124 57.3779L35.4493 55.6436L34.6862 57.3085L32.8826 56.6148L33.5763 58.4185L31.842 59.1816L33.5763 60.0141L32.8826 61.8177L34.6862 61.124L35.4493 62.8583L36.2124 61.124L38.0161 61.8177L37.3918 60.0834ZM33.5763 39.3411L32.1888 40.5204L33.9231 40.9366V42.7403L35.3106 41.6304L36.7674 42.7403L36.8368 40.9366L38.5711 40.5204L37.1836 39.3411L37.9467 37.6761L36.1431 38.023L35.38 36.4968L34.6169 38.0924L32.8132 37.7455L33.5763 39.3411ZM39.6811 50.7875L40.7216 49.6776L39.1955 49.4001L38.5017 48.0126L37.808 49.4001L36.2818 49.6776L37.3918 50.7875L37.1143 52.3137L38.5017 51.62L39.8892 52.3137L39.6811 50.7875ZM44.8146 45.3071L45.6471 43.9196H44.0515L43.2884 42.5322L42.5253 43.9196H40.9298L41.7622 45.3071L40.9298 46.6945H42.5253L43.2884 48.082L44.0515 46.6945H45.6471L44.8146 45.3071ZM57.0242 11.8696C56.6079 12.0777 56.2611 12.4245 56.053 12.8408C55.8448 13.1876 55.7755 13.5345 55.7755 13.8814C55.7755 13.9507 55.7755 14.0201 55.7755 14.1588C55.9836 14.0201 56.1917 13.8814 56.3998 13.7426C56.5386 13.6039 56.6773 13.3957 56.8161 13.257C56.9548 12.9795 57.0242 12.5633 57.0242 12.2164C57.0242 12.0777 57.0242 11.9389 57.0242 11.8696ZM51.6131 19.8474C52.0294 20.0555 52.515 20.1249 53.0006 20.0555C53.4862 19.9861 53.833 19.778 54.1799 19.4312C53.7637 19.223 53.3474 19.1537 52.8618 19.223C52.3762 19.2924 51.96 19.5005 51.6131 19.8474ZM51.6131 19.0843C51.8212 18.7374 51.96 18.3212 51.96 17.905C51.96 17.8356 51.96 17.8356 51.96 17.7662C51.5438 17.9743 51.1969 18.2518 50.9194 18.5987C50.7113 18.9455 50.5725 19.3618 50.5725 19.778C50.5725 19.8474 50.5725 19.8474 50.5725 19.9168C51.0581 19.778 51.405 19.5005 51.6131 19.0843ZM52.1681 18.9455C52.1681 18.9455 52.1681 19.0149 52.1681 18.9455C52.3068 18.9455 52.3762 18.9455 52.4456 18.8762C52.7231 18.6681 52.8618 18.3906 53.0006 18.0437C53.0699 17.8356 53.1393 17.5581 53.1393 17.35C53.1393 17.1419 53.0699 16.9337 53.0006 16.7256C52.7231 16.9337 52.515 17.1419 52.3762 17.4194C52.3762 18.0437 52.3068 18.5293 52.1681 18.9455ZM53.4862 17.8356C53.4862 17.8356 53.4862 17.905 53.4862 17.8356C53.6249 17.8356 53.6943 17.7662 53.7637 17.6968C53.9718 17.4194 54.0412 17.1419 54.1105 16.795C54.1105 16.7256 54.1105 16.6563 54.1105 16.5869C54.1105 16.24 53.9718 15.8238 53.7637 15.4769C53.5556 15.7544 53.3474 16.0319 53.2781 16.3094C53.4862 16.8644 53.5556 17.35 53.4862 17.8356ZM54.4574 16.4481C54.4574 16.4481 54.4574 16.5175 54.4574 16.4481C54.5961 16.4481 54.6655 16.3788 54.7349 16.24C54.8043 16.0319 54.8736 15.8238 54.8736 15.5463C54.8736 15.4769 54.8736 15.3382 54.8736 15.2688C54.8043 14.8526 54.5961 14.4363 54.2493 14.0895C54.1105 14.367 54.0412 14.7138 54.0412 14.9913C54.2493 15.5463 54.388 15.9625 54.4574 16.4481ZM55.1511 14.8526C55.1511 14.8526 55.1511 14.9219 55.1511 14.8526C55.2899 14.7832 55.2899 14.7138 55.3592 14.5751C55.3592 14.5057 55.3592 14.5057 55.3592 14.4363C55.3592 14.1588 55.2899 13.8814 55.2205 13.6039C55.0817 13.1876 54.7349 12.9101 54.3187 12.6327C54.2493 12.7714 54.2493 12.9795 54.2493 13.1183C54.2493 13.257 54.2493 13.3957 54.3187 13.5345C54.7349 14.0201 55.0124 14.4363 55.1511 14.8526ZM55.4286 13.1876C55.498 13.1183 55.5674 12.9795 55.5674 12.9101C55.498 12.5633 55.4286 12.2858 55.2205 12.0083C54.943 11.6614 54.5961 11.3839 54.1105 11.2452C54.1105 11.5921 54.1799 11.9389 54.3187 12.2164C54.8043 12.4245 55.1511 12.7714 55.4286 13.1876ZM55.3592 11.1758C55.2205 10.829 55.0818 10.5515 54.8043 10.3434C54.4574 10.0659 54.1105 9.92713 53.6249 9.85775C53.6943 10.2046 53.833 10.4821 54.0412 10.6902C54.5268 10.829 54.943 11.1065 55.2899 11.3839H55.3592C55.3592 11.3839 55.3592 11.3146 55.3592 11.1758ZM54.8043 9.85775C54.8043 9.71901 54.7349 9.64964 54.7349 9.51089C54.5268 9.2334 54.3187 9.02528 54.0412 8.88654C53.6249 8.67842 53.2087 8.60905 52.7231 8.67842C52.9312 8.95591 53.0699 9.2334 53.3474 9.44152C53.9024 9.44152 54.388 9.58026 54.8043 9.85775ZM54.5268 18.7374C54.943 18.5987 55.2899 18.2518 55.5674 17.8356C55.0817 17.7662 54.5961 17.7662 54.1799 17.905C53.833 18.0437 53.4862 18.3906 53.2087 18.7374C53.4168 18.7374 53.6943 18.8068 53.9024 18.8762C54.1105 18.8762 54.3187 18.8762 54.5268 18.7374ZM55.7061 17.1419C56.053 16.8644 56.3305 16.4481 56.5386 15.9625C56.053 15.9625 55.5674 16.1013 55.2205 16.3788C54.8736 16.6563 54.5961 17.0031 54.4574 17.4194C54.6655 17.35 54.943 17.35 55.1511 17.35C55.3592 17.35 55.5674 17.2112 55.7061 17.1419ZM56.9548 13.9507C56.5386 14.0895 56.1223 14.2976 55.7755 14.6445C55.498 14.9913 55.3592 15.4076 55.2899 15.8932C55.498 15.8238 55.7061 15.7544 55.9836 15.685C56.1917 15.5463 56.3305 15.4076 56.4692 15.2688C56.8161 14.8526 56.9548 14.4363 56.9548 13.9507ZM56.5386 9.78838C56.1917 10.1352 55.9142 10.4821 55.7755 10.9677C55.7061 11.1065 55.7061 11.3146 55.7061 11.5227C55.7061 11.8002 55.7755 12.0777 55.8448 12.2858C55.9836 12.0777 56.1917 11.9389 56.3305 11.8002C56.4692 11.5921 56.5386 11.3839 56.6079 11.1758C56.6773 11.0371 56.6773 10.829 56.6773 10.6902C56.7467 10.4127 56.6773 10.0659 56.5386 9.78838ZM55.1511 9.2334C55.1511 9.64964 55.2899 10.0659 55.5674 10.4821C55.6367 10.274 55.7755 10.0659 55.9142 9.85775C55.9836 9.64964 56.053 9.44152 56.053 9.2334C56.053 8.74779 55.9142 8.33156 55.6367 7.91532C55.3592 8.33156 55.1511 8.74779 55.1511 9.2334ZM54.0412 7.2216C54.0412 7.36034 54.0412 7.56846 54.1105 7.70721C54.1799 8.12344 54.4574 8.4703 54.8043 8.81717C54.8736 8.60905 54.943 8.33156 55.0124 8.12344C55.0124 8.05407 55.0124 8.05407 55.0124 7.9847C55.0124 7.84595 55.0124 7.70721 54.943 7.49909C54.8043 7.08285 54.5961 6.66662 54.1799 6.31976C54.1105 6.59725 54.0412 6.87474 54.0412 7.2216ZM53.833 8.05407C53.5556 7.84595 53.2781 7.70721 53.0006 7.56846C52.5843 7.42972 52.0987 7.49909 51.6825 7.63783C51.8906 7.91532 52.1681 8.12344 52.4456 8.26219C52.9312 8.19281 53.4862 8.19281 53.9024 8.33156H53.9718C53.9024 8.26219 53.9024 8.19281 53.833 8.05407ZM52.515 5.41791C52.515 5.76478 52.5843 6.11164 52.7231 6.4585C52.9312 6.87474 53.2781 7.15223 53.6943 7.36034C53.6943 7.08285 53.6943 6.87474 53.7637 6.59725C53.6943 6.38913 53.6943 6.18101 53.5556 6.04227C53.3474 5.62603 53.0006 5.27917 52.5843 5.07105C52.515 5.2098 52.515 5.27917 52.515 5.41791ZM50.7113 5.55666C50.85 6.04227 51.1275 6.4585 51.4744 6.66662C51.8212 6.87474 52.2375 7.01348 52.6537 7.08285C52.515 6.94411 52.4456 6.80536 52.3069 6.59725C52.2375 6.4585 52.1681 6.25038 52.0987 6.11164C52.0294 6.04227 52.0294 6.04227 51.96 5.97289C51.6825 5.6954 51.2663 5.55666 50.7113 5.55666ZM45.3002 16.4481C45.3002 16.795 45.5777 17.2112 46.2021 17.2112H47.3814C47.2427 17.6275 47.1039 18.2518 47.1039 18.8762C47.1039 19.7086 47.2427 20.4024 47.5201 20.888C46.6183 20.7492 45.994 20.5411 45.3696 20.1943H45.3002L45.1615 20.5411H45.2309C45.7858 20.8186 46.2714 20.9573 46.8958 21.1655C46.8958 21.1655 47.3814 21.2348 47.7283 21.3042C47.6589 21.3736 47.5895 21.5123 47.5895 21.6511C47.5895 21.9286 47.7976 22.1367 48.0751 22.1367C48.3526 22.1367 48.5607 21.9286 48.5607 21.6511C48.5607 21.5123 48.4914 21.3736 48.422 21.3042C48.7689 21.2348 49.1851 21.1655 49.1851 21.1655C49.8094 21.0267 50.3644 20.888 50.9194 20.5411H50.9888L50.85 20.1249H50.7807C50.1563 20.4717 49.532 20.6799 48.6301 20.8186C48.8382 20.333 49.0463 19.6393 49.0463 18.8068C49.0463 18.1825 48.977 17.5581 48.7689 17.1419H49.9482C50.5725 17.1419 50.85 16.795 50.85 16.3788C50.85 16.1013 50.6419 15.8238 50.295 15.8238C50.0176 15.8238 49.7401 16.0319 49.7401 16.3788C49.7401 16.4481 49.7401 16.5175 49.8094 16.5869C49.8788 16.6563 49.8788 16.795 49.6707 16.795H48.977V7.9847C48.977 6.80536 48.9076 5.34854 48.2139 3.96109L48.0058 3.54486L47.7976 3.96109C47.1039 5.34854 47.0345 6.80536 47.0345 7.9847V16.795H46.3408C46.1327 16.795 46.2021 16.6563 46.2021 16.5869C46.2021 16.5175 46.2714 16.4481 46.2714 16.3788C46.2714 16.1013 46.0633 15.8238 45.7858 15.8238C45.5777 15.8932 45.3002 16.1706 45.3002 16.4481ZM43.8434 17.4887C43.7047 17.2112 43.4965 17.0031 43.2191 16.795C43.1497 17.0031 43.0803 17.2112 43.0803 17.4194C43.0803 17.6275 43.1497 17.905 43.2191 18.1131C43.2884 18.4599 43.4965 18.6681 43.7047 18.9455C43.774 18.9455 43.9128 19.0149 43.9822 19.0149V18.9455C43.8434 18.5293 43.774 18.0437 43.8434 17.4887ZM43.4272 8.67842C43.0109 8.60905 42.5253 8.67842 42.1091 8.88654C41.8316 9.02528 41.5541 9.2334 41.4154 9.51089C41.4154 9.64964 41.4154 9.71901 41.346 9.85775H41.4154C41.8316 9.58026 42.3172 9.44152 42.8722 9.44152C43.0803 9.2334 43.2884 8.95591 43.4272 8.67842ZM42.9416 16.3788C42.8722 16.1013 42.6641 15.8238 42.456 15.5463C42.2478 15.8932 42.1091 16.24 42.1091 16.6563C42.1091 16.7256 42.1091 16.795 42.1091 16.8644C42.1091 17.2112 42.2478 17.4887 42.456 17.7662C42.5253 17.8356 42.6641 17.905 42.7334 17.9743V17.905C42.6641 17.35 42.7334 16.8644 42.9416 16.3788ZM41.346 15.6157C41.346 15.8238 41.4154 16.0319 41.4847 16.3094C41.5541 16.3788 41.6235 16.4481 41.6929 16.5175C41.6929 16.5175 41.6929 16.4481 41.7622 16.4481C41.8316 15.9625 41.9704 15.4769 42.2478 15.0607C42.2478 14.7138 42.1091 14.4363 41.9704 14.1588C41.6235 14.5057 41.4154 14.9219 41.346 15.3382C41.346 15.4076 41.346 15.5463 41.346 15.6157ZM41.901 13.6732C41.9704 13.5345 41.9704 13.3957 41.9704 13.257C41.9704 13.1183 41.901 12.9101 41.901 12.7714C41.4847 13.0489 41.2073 13.3264 40.9991 13.7426C40.8604 14.0201 40.8604 14.2976 40.8604 14.5751C40.8604 14.6445 40.8604 14.6445 40.8604 14.7138C40.9298 14.7832 40.9991 14.9219 40.9991 14.9913C40.9991 14.9913 41.0685 14.9913 41.0685 14.9219C41.2073 14.4363 41.4847 14.0201 41.901 13.6732ZM40.8604 11.1758C40.8604 11.2452 40.8604 11.3839 40.8604 11.4533H40.9298C41.2766 11.1065 41.6929 10.8983 42.1785 10.7596C42.3866 10.4821 42.5253 10.2046 42.5947 9.92713C42.1091 9.9965 41.6929 10.1352 41.346 10.4127C41.1379 10.5515 40.9298 10.829 40.8604 11.1758ZM40.6523 12.9101C40.7216 12.9795 40.7216 13.1183 40.7216 13.257C40.7216 13.257 40.7216 13.257 40.791 13.257C41.0685 12.8408 41.4154 12.4939 41.901 12.2858C42.0397 12.0083 42.1091 11.6614 42.1091 11.3146C41.6235 11.4533 41.2766 11.7308 40.9991 12.0777C40.791 12.2858 40.6523 12.5633 40.6523 12.9101ZM40.3748 14.6445C40.0973 14.2976 39.6811 14.0895 39.1955 13.9507C39.2648 14.4363 39.4036 14.8526 39.6811 15.1994C39.8198 15.3382 40.0279 15.4769 40.1667 15.6157C40.3748 15.685 40.5829 15.7544 40.791 15.8238C40.791 15.4076 40.6523 14.9913 40.3748 14.6445ZM39.6811 15.9625C39.8198 16.4481 40.0973 16.8644 40.4442 17.1419C40.5829 17.2806 40.791 17.35 40.9991 17.4194C41.2766 17.4194 41.4847 17.4194 41.6929 17.4887C41.4847 17.0725 41.2766 16.6563 40.9298 16.4481C40.6523 16.1013 40.1667 15.9625 39.6811 15.9625ZM40.6523 17.905C40.9298 18.3212 41.2073 18.5987 41.6929 18.8068C41.901 18.8762 42.1091 18.9455 42.3172 18.9455C42.5253 18.8762 42.8028 18.8762 43.0109 18.8068C42.7334 18.4599 42.3866 18.1131 42.0397 17.9743C41.6235 17.7662 41.1379 17.7662 40.6523 17.905ZM42.0397 19.4312C42.3866 19.778 42.8028 19.9861 43.2884 20.0555C43.7047 20.1249 44.1903 19.9861 44.6065 19.8474C44.2596 19.5005 43.8434 19.2924 43.3578 19.223C42.9416 19.1537 42.456 19.223 42.0397 19.4312ZM45.6471 19.9168C45.6471 19.8474 45.6471 19.8474 45.6471 19.778C45.6471 19.3618 45.5083 18.9455 45.3002 18.5987C45.0227 18.2518 44.6759 17.9743 44.2596 17.7662C44.2596 17.8356 44.2596 17.8356 44.2596 17.905C44.2596 18.3212 44.3984 18.7374 44.6065 19.0843C44.8146 19.5005 45.1615 19.778 45.6471 19.9168ZM43.8434 6.59725C43.774 6.73599 43.6353 6.94411 43.4965 7.08285C43.9128 7.08285 44.329 6.94411 44.6759 6.66662C45.0227 6.38913 45.3002 5.97289 45.5083 5.55666C45.0227 5.55666 44.5371 5.6954 44.1903 5.97289C44.1209 6.04227 44.1209 6.04227 44.0515 6.11164C43.9822 6.25038 43.9128 6.4585 43.8434 6.59725ZM42.456 6.59725C42.5253 6.87474 42.5253 7.08285 42.5253 7.36034C42.9416 7.15223 43.2884 6.80536 43.4272 6.4585C43.6353 6.11164 43.7047 5.76478 43.7047 5.41791C43.7047 5.27917 43.7047 5.2098 43.6353 5.07105C43.2191 5.27917 42.8722 5.62603 42.6641 6.04227C42.5947 6.25038 42.5253 6.38913 42.456 6.59725ZM42.2478 8.33156C42.2478 8.40093 42.3172 8.40093 42.2478 8.33156C42.8028 8.19281 43.2884 8.19281 43.774 8.26219C44.0515 8.12344 44.329 7.91532 44.5371 7.63783C44.1209 7.49909 43.6353 7.42972 43.2191 7.56846C42.8722 7.63783 42.5947 7.77658 42.3866 8.05407C42.3172 8.19281 42.3172 8.26219 42.2478 8.33156ZM41.1379 7.91532C41.1379 7.9847 41.1379 7.9847 41.1379 8.05407C41.2766 8.26219 41.346 8.53968 41.346 8.74779C41.6929 8.40093 41.901 8.05407 42.0397 7.63783C42.1091 7.49909 42.1091 7.29097 42.1091 7.15223C42.1091 6.87474 42.0397 6.52787 41.901 6.25038C41.5541 6.59725 41.2766 6.94411 41.1379 7.42972C41.2073 7.63783 41.1379 7.77658 41.1379 7.91532ZM40.1667 9.2334C40.1667 9.44152 40.236 9.64964 40.3054 9.85775C40.4442 10.0659 40.5829 10.274 40.6523 10.4821C40.8604 10.1352 41.0685 9.71901 41.0685 9.2334C41.0685 8.81717 40.8604 8.33156 40.6523 7.91532C40.3748 8.33156 40.1667 8.74779 40.1667 9.2334ZM39.4729 10.6902C39.4729 10.8983 39.4729 11.0371 39.5423 11.1758C39.6117 11.3839 39.6811 11.5921 39.8198 11.8002C40.0279 11.9389 40.1667 12.0777 40.3054 12.2858C40.3748 12.0083 40.4442 11.7308 40.4442 11.5227C40.4442 11.3146 40.4442 11.1758 40.3748 10.9677C40.236 10.5515 39.9585 10.1352 39.6117 9.78838C39.5423 10.0659 39.4729 10.4127 39.4729 10.6902ZM39.1261 12.147C39.1261 12.4939 39.1955 12.9101 39.4036 13.1876C39.4729 13.3957 39.6117 13.5345 39.8198 13.6732C40.0279 13.7426 40.236 13.8814 40.4442 14.0201C40.4442 13.9507 40.4442 13.812 40.4442 13.7426C40.4442 13.3957 40.3748 13.0489 40.1667 12.702C39.9586 12.2858 39.6117 11.9389 39.1261 11.7308C39.1261 11.9389 39.1261 12.0777 39.1261 12.147ZM22.2686 17.6275C22.7542 17.2806 23.3785 17.1419 24.1416 17.1419C24.9741 17.1419 25.8066 17.2806 26.7084 17.5581C27.6102 17.7662 28.6508 18.0437 29.622 17.9743C29.622 17.4887 29.622 7.77658 29.622 5.97289C29.622 5.83415 29.622 5.76478 29.622 5.6954C28.5815 5.76478 27.5409 5.48729 26.5697 5.27917C25.7372 5.07105 24.9047 4.86293 24.211 4.86293C23.1704 4.86293 22.6154 5.2098 22.2686 5.48729V5.90352V17.6275ZM14.4295 17.905C15.4007 17.9743 16.3719 17.7662 17.3431 17.4887C18.245 17.2806 19.0774 17.0725 19.9099 17.0725C20.673 17.0725 21.2974 17.2806 21.783 17.5581V5.97289V5.48729C21.3667 5.2098 20.8117 4.93231 19.8405 4.86293C19.0774 4.86293 18.3143 5.00168 17.4819 5.2098C16.5107 5.48729 15.5394 5.6954 14.4295 5.62603C14.4295 5.6954 14.4295 5.76478 14.4295 5.90352C14.4295 7.70721 14.4295 17.4194 14.4295 17.905ZM12.5564 19.8474C12.5564 19.8474 20.673 19.8474 20.9505 19.8474C21.1586 20.1943 21.5055 20.4717 21.9911 20.4717C22.4767 20.4717 22.8929 20.1943 23.0317 19.8474C23.3092 19.8474 31.4257 19.8474 31.4257 19.8474V5.97289H31.1482H30.3851L30.4545 6.25038V6.31976V18.8762C29.8302 18.8762 23.0317 18.8762 22.6848 18.8762C22.5461 19.0843 22.4073 19.1537 21.9911 19.1537C21.6442 19.1537 21.5055 19.0843 21.3667 18.8762C21.0199 18.8762 14.7763 18.8762 13.5276 18.8762V6.31976V6.25038L13.597 5.97289H12.5564V19.8474ZM15.6088 47.6658L35.38 29.837L55.2205 47.6658C56.5386 45.1683 57.4404 42.7403 58.2035 40.451L35.38 19.9861L12.6258 40.451C13.3195 42.7403 14.2907 45.1683 15.6088 47.6658ZM19.8405 14.0895C20.3261 14.0895 20.7424 14.1588 21.0199 14.2976V13.6732C20.673 13.5345 20.2568 13.5345 19.8405 13.4651C19.0081 13.4651 18.1756 13.6732 17.2737 13.8814C16.58 14.0895 15.8863 14.2282 15.1232 14.2976V14.8526C15.8863 14.7832 16.6494 14.5751 17.4125 14.4363C18.3143 14.2976 19.0774 14.0895 19.8405 14.0895ZM19.8405 15.5463C20.3261 15.5463 20.7424 15.6157 21.0199 15.7544V15.1301C20.673 14.9913 20.2568 14.9219 19.8405 14.9219C19.0081 14.9219 18.1756 15.1301 17.2737 15.3382C16.58 15.5463 15.8863 15.685 15.1232 15.7544V16.3094C15.8863 16.24 16.6494 16.0319 17.4125 15.8932C18.3143 15.685 19.0774 15.4769 19.8405 15.5463ZM19.8405 7.01348C20.3261 7.01348 20.7424 7.15223 21.0199 7.2216V6.59725C20.673 6.4585 20.2568 6.4585 19.8405 6.38913C19.0081 6.38913 18.1756 6.59725 17.2737 6.80536C16.58 7.01348 15.8863 7.15223 15.1232 7.2216V7.77658C15.8863 7.70721 16.6494 7.56846 17.4125 7.36034C18.3143 7.15223 19.0774 6.94411 19.8405 7.01348ZM26.5697 10.2046C27.2634 10.4127 28.0265 10.5515 28.859 10.6209V10.0659C28.1652 9.9965 27.4021 9.85775 26.7084 9.64964C25.8066 9.44152 24.9741 9.2334 24.1416 9.2334C23.7254 9.2334 23.3092 9.30277 22.9623 9.44152V10.0659C23.2398 9.92713 23.656 9.85775 24.1416 9.85775C24.9047 9.78838 25.7372 9.9965 26.5697 10.2046ZM26.5697 7.36034C27.2634 7.56846 28.0265 7.70721 28.859 7.77658V7.2216C28.1652 7.15223 27.4021 7.01348 26.7084 6.80536C25.8066 6.59725 24.9741 6.38913 24.1416 6.38913C23.7254 6.38913 23.3092 6.4585 22.9623 6.59725V7.2216C23.2398 7.08285 23.656 7.01348 24.1416 7.01348C24.9047 6.94411 25.7372 7.15223 26.5697 7.36034ZM26.5697 13.0489C27.2634 13.1876 28.0959 13.3957 28.859 13.4651V12.9101C28.0959 12.8408 27.4021 12.702 26.7084 12.4939C25.8066 12.2858 24.9741 12.0777 24.211 12.0777C23.7948 12.0777 23.3785 12.147 23.0317 12.2164V12.8408C23.3092 12.702 23.7254 12.6327 24.211 12.6327C24.9047 12.6327 25.7372 12.8408 26.5697 13.0489ZM26.5697 8.81717C27.2634 9.02528 28.0265 9.16403 28.859 9.2334V8.67842C28.1652 8.60905 27.4021 8.4703 26.7084 8.26219C25.8066 8.05407 24.9741 7.84595 24.1416 7.84595C23.7254 7.84595 23.3092 7.91532 22.9623 8.05407V8.67842C23.2398 8.53968 23.656 8.4703 24.1416 8.4703C24.9047 8.40093 25.7372 8.60905 26.5697 8.81717ZM26.5697 14.5057C27.2634 14.7138 28.0265 14.8526 28.859 14.9219V14.367C28.1652 14.2976 27.4021 14.0895 26.7084 13.9507C25.8066 13.7426 24.9741 13.5345 24.1416 13.5345C23.7254 13.5345 23.3092 13.6039 22.9623 13.7426V14.367C23.2398 14.2282 23.656 14.1588 24.1416 14.1588C24.9047 14.0895 25.7372 14.2976 26.5697 14.5057ZM26.5697 15.8932C27.2634 16.1013 28.0265 16.24 28.859 16.3094V15.7544C28.1652 15.685 27.4021 15.5463 26.7084 15.3382C25.8066 15.1301 24.9741 14.9219 24.1416 14.9219C23.7254 14.9219 23.3092 14.9913 22.9623 15.1301V15.7544C23.2398 15.6157 23.656 15.5463 24.1416 15.5463C24.9047 15.4769 25.7372 15.685 26.5697 15.8932ZM70.8293 45.3071L70.6906 45.654C69.3725 50.0244 67.1526 54.3949 65.557 57.2392L65.2101 57.8635L62.9208 55.7823C62.8515 55.9211 62.7127 56.1292 62.6434 56.2679C56.8161 65.5639 48.6301 72.293 38.8486 75.9004L35.38 77.1491L31.9113 75.9004C22.1992 72.3624 13.9439 65.5639 8.18595 56.2679C8.11658 56.1292 8.04721 55.9211 7.90846 55.7823L5.5498 57.8635L5.20294 57.2392C3.60737 54.3255 1.45682 49.9551 0.0693725 45.654L0 45.3071L5.61917 40.2429L6.3129 39.6185L6.59039 40.451C6.86788 41.4916 7.21474 42.4628 7.5616 43.434L9.15717 41.9772L9.78152 41.4222L10.059 42.2547C11.2383 45.7927 12.8339 49.1226 14.707 52.1056C19.6324 59.9447 26.5003 65.6332 34.6169 68.6162C34.6169 68.6162 35.1718 68.8244 35.4493 68.8937C35.7268 68.8244 36.2818 68.6162 36.2818 68.6162C44.3984 65.6332 51.3356 59.9447 56.1917 52.1056C58.0648 49.1226 59.6603 45.7927 60.8397 42.2547L61.1172 41.4222L63.3371 43.434C63.6839 42.4628 64.0308 41.4916 64.3083 40.451L64.5858 39.6185L70.8293 45.3071ZM4.64796 53.6318L3.60737 47.0414L6.65976 44.2665C6.3129 43.434 6.03541 42.5322 5.75792 41.6304C4.85607 42.4628 1.73431 45.2377 1.31808 45.654C2.21992 48.4982 3.39925 51.2731 4.64796 53.6318ZM7.35348 54.8111C6.65976 53.6318 5.96603 52.3831 5.41105 51.1344L6.17415 55.9211C6.38227 55.6436 6.86788 55.2274 7.35348 54.8111ZM65.4183 51.1344C64.8633 52.3831 64.1695 53.6318 63.4758 54.8111C63.9614 55.2274 64.3777 55.6436 64.6552 55.9211L65.4183 51.1344ZM65.8345 47.3189C65.3489 46.9027 62.3659 44.1971 61.5334 43.434C60.3541 46.7639 58.8972 49.955 57.0936 52.7993C52.0987 60.8465 45.0227 66.6738 36.6287 69.7956L35.38 70.2118L34.2006 69.7956C25.8066 66.7432 18.7999 60.8465 13.7358 52.7993C11.9321 49.955 10.4752 46.7639 9.29591 43.434C8.39407 44.1971 5.48043 46.9027 4.99482 47.3189C6.10478 50.2325 7.5616 53.0768 9.15717 55.6436C14.8457 64.7314 22.8929 71.3218 32.3969 74.7904C32.3969 74.7904 35.1718 75.7616 35.4493 75.9004C35.7962 75.7616 38.5711 74.7904 38.5711 74.7904C48.0751 71.3218 56.1223 64.662 61.8109 55.6436C63.2677 53.1462 64.7245 50.3019 65.8345 47.3189ZM69.5112 45.654C69.095 45.2377 65.9732 42.4628 65.0714 41.6304C64.7939 42.5322 64.5164 43.434 64.1695 44.2665L67.2219 47.0414L66.1813 53.7012C67.3607 51.2731 68.6094 48.4982 69.5112 45.654ZM9.71215 54.1174L9.78152 54.3949L9.5734 54.5336C9.43466 54.3255 9.36529 54.1174 9.22654 53.8399C9.0878 53.6318 8.94905 53.4237 8.8103 53.1462L9.01842 53.0768L9.22654 53.2849C9.43466 53.0768 9.78152 52.7993 9.92026 52.5218L9.43466 51.62L8.46344 51.8281L8.53282 52.1056L8.39407 52.175C8.3247 51.9668 8.18595 51.8281 8.11658 51.62C8.04721 51.4812 7.97784 51.3425 7.83909 51.1344L8.04721 51.065L8.25532 51.2731C8.94905 51.2731 10.4059 50.9956 11.3077 50.8569C11.4465 51.065 11.6546 51.2038 11.7933 51.3425L11.8627 51.62L10.9609 52.7299C10.4752 53.2156 9.92026 53.8399 9.71215 54.1174ZM10.2671 52.2443L11.0996 51.3425L9.85089 51.62L10.2671 52.2443ZM15.3313 57.3779L15.4701 57.2392C15.3313 57.1004 15.2619 56.9617 15.1232 56.7536C14.9845 56.6148 14.9151 56.4067 14.7763 56.2679L14.5682 56.4067L14.707 56.6842C14.2214 57.031 13.1114 57.9329 13.1114 57.9329C13.3889 57.1004 13.7358 56.1292 14.0826 55.2967C13.9439 55.158 13.8745 55.0192 13.7358 54.8805C13.6664 54.7417 13.5276 54.603 13.4583 54.4643L13.3195 54.603L13.4583 54.8805C13.2501 55.0886 13.042 55.2274 12.7645 55.4355L12.0014 55.9905C11.7239 56.1986 11.5158 56.3373 11.2383 56.4761L11.0302 56.2679L10.8915 56.4067C11.0302 56.5454 11.0996 56.6842 11.2383 56.8923C11.3771 57.031 11.4465 57.2392 11.5852 57.3779L11.7239 57.2392L11.5158 56.8923C12.0014 56.5454 12.6258 56.0598 13.1808 55.6436C12.8339 56.4761 12.5564 57.3779 12.2096 58.3491C12.2789 58.4185 12.3483 58.5572 12.4177 58.6266C12.487 58.696 12.5564 58.8347 12.6258 58.9041C12.9033 58.696 13.1808 58.4185 13.597 58.141L14.3601 57.586C14.6376 57.3779 14.9151 57.2392 15.1232 57.1004L15.3313 57.3779ZM15.6088 59.9447C14.8457 60.6384 14.9151 61.679 15.5394 62.3034C15.9557 62.7196 16.3719 62.9971 17.135 63.0664L17.2044 62.6502C16.7881 62.5808 16.4413 62.4421 16.2332 62.1646C15.7476 61.679 15.7476 60.9853 16.3025 60.4303C16.8575 59.8753 17.4819 60.0834 17.8287 60.4997C18.0368 60.7078 18.1756 60.9853 18.1756 61.2628L18.0368 61.4709L18.1756 61.679C18.3837 61.5403 18.6612 61.3321 18.8693 61.2628C18.7306 60.8465 18.5225 60.569 18.245 60.2222C17.4819 59.3897 16.3719 59.251 15.6088 59.9447ZM22.3379 66.327C21.7136 67.0901 20.7424 67.1594 19.7712 66.3963C18.8693 65.6332 18.7306 64.7314 19.4243 63.8295C20.0486 63.0664 21.0892 62.9971 21.9911 63.7602C22.8929 64.5233 23.0317 65.4945 22.3379 66.327ZM21.6442 64.107C21.1586 63.6908 20.5343 63.8989 20.0486 64.3845C19.563 64.9395 19.563 65.5639 20.0486 65.9801C20.5343 66.3963 21.1586 66.1882 21.6442 65.7026C22.0604 65.217 22.1298 64.5233 21.6442 64.107ZM27.194 68.5469C26.9859 68.9631 26.5003 69.0325 26.0147 68.8244C26.0841 69.1712 26.2228 70.3506 26.2922 70.5587L26.3615 70.6974L26.2228 70.9055C25.9453 70.6974 25.5984 70.5587 25.321 70.4199C25.321 69.865 25.2516 69.0325 25.1822 68.5469L24.9741 68.4081L24.8353 68.6856C24.6272 68.9631 24.4885 69.2406 24.4191 69.4487L24.6272 69.6568L24.4885 69.8649C24.2804 69.7262 24.0723 69.5875 23.8641 69.4487C23.656 69.31 23.4479 69.1712 23.1704 69.0325L23.3092 68.8244L23.5866 68.9631C23.7948 68.755 23.9335 68.4775 24.1416 68.2L24.6272 67.3675C24.8353 67.0901 24.9741 66.8126 25.1128 66.6044L24.9047 66.3963L25.0435 66.1882C25.1822 66.327 25.3903 66.3963 25.5291 66.5351C25.7372 66.6738 25.9453 66.7432 26.1534 66.8819C26.3615 67.0207 26.5697 67.0901 26.7778 67.2288C27.4715 67.7144 27.4715 68.2 27.194 68.5469ZM26.1534 67.4369C25.9453 67.2982 25.8759 67.2982 25.7372 67.2288C25.6678 67.3675 25.5291 67.5757 25.3903 67.7838L25.2516 67.9919C25.321 68.0613 25.3903 68.1306 25.4597 68.2C25.8759 68.4775 26.2228 68.4775 26.4309 68.1306C26.5697 67.8531 26.5003 67.645 26.1534 67.4369ZM31.4257 71.183C31.3564 71.8074 31.287 72.7092 31.287 73.0561L31.4951 73.1948L31.4257 73.4029C31.2176 73.2642 30.9401 73.1948 30.732 73.0561C30.5239 72.9173 30.2464 72.848 30.0383 72.7786L30.1077 72.5705L30.3851 72.6398C30.4545 72.3624 30.5239 71.9461 30.5239 71.6686L29.5527 71.2524L28.9283 72.0155L29.1364 72.1542L29.0671 72.3624C28.859 72.293 28.6508 72.1542 28.5121 72.0849C28.3733 72.0155 28.1652 71.9461 28.0265 71.8768L28.0959 71.6686L28.3733 71.738C28.9283 71.3218 29.8995 70.2812 30.5933 69.5181C30.8708 69.5875 31.0789 69.5875 31.287 69.6568L31.5645 69.8649L31.4257 71.183ZM30.732 69.9343L29.8995 70.9055L30.5933 71.2524L30.732 69.9343ZM40.9298 72.3624C40.791 72.0849 40.6523 71.8768 40.5135 71.5299L40.1667 70.6974C40.0279 70.3506 39.8892 70.1424 39.8198 69.8649L40.0973 69.7262L40.0279 69.5181C39.8198 69.6568 39.5423 69.7262 39.3342 69.8649C39.1261 69.9343 38.8486 70.0731 38.6405 70.1424L38.7098 70.3506L38.9873 70.2812C39.1261 70.5587 39.2648 70.7668 39.4036 71.1137L39.7504 71.9461C39.8892 72.293 39.9585 72.5011 40.0973 72.7786L39.8198 72.9173L39.8892 73.1255C40.0973 72.9867 40.3748 72.9173 40.5829 72.7786C40.791 72.7092 41.0685 72.5705 41.2766 72.5011L41.2073 72.293L40.9298 72.3624ZM46.8958 69.1712C46.7571 68.9631 46.5489 68.6856 46.4102 68.4081L45.9246 67.5757C45.7165 67.2982 45.5777 67.0207 45.5083 66.8126L45.7165 66.6044L45.5777 66.3963C45.3696 66.5351 45.1615 66.6738 45.0227 66.7432C44.8146 66.8819 44.6065 66.9513 44.3984 67.09C44.5371 67.5063 44.8146 69.1712 44.884 69.5181C44.5371 69.2406 43.2884 68.2694 43.0109 67.9225C42.8028 68.0613 42.5947 68.2 42.456 68.2694C42.2478 68.4081 42.0397 68.4775 41.8316 68.6162L41.9704 68.8244L42.2478 68.755L42.456 69.1712C42.6641 69.5875 43.4272 70.8362 43.5659 71.183L43.3578 71.3911L43.4965 71.5993C43.6353 71.5299 43.8434 71.3911 43.9822 71.3218C44.1209 71.2524 44.329 71.1137 44.4678 71.0443L44.329 70.8362L44.0515 70.9749C43.9128 70.7668 43.7047 70.4893 43.5659 70.2118L43.2884 69.7262C43.0803 69.31 42.8722 69.0325 42.8028 68.8937C43.9822 69.9343 44.6759 70.4199 44.9534 70.6974L45.3696 70.4199L44.8146 67.645C44.884 67.7838 45.0921 68.0613 45.3002 68.4775L45.5777 68.9631C45.7858 69.2406 45.8552 69.5181 45.994 69.7956L45.7858 70.0037L45.8552 70.2118C46.0633 70.0731 46.2714 69.9343 46.4796 69.7956C46.6877 69.6568 46.9652 69.5181 47.1733 69.3793L47.1039 69.1712H46.8958ZM50.0869 66.7432C49.8788 66.5351 49.6707 66.327 49.4626 66.0495L49.0463 65.4945C48.8382 65.2864 48.6301 65.0089 48.4914 64.7314C48.5607 64.662 48.6301 64.5233 48.7689 64.4539C49.1157 64.1764 49.3932 64.2458 49.6013 64.4539C49.8094 64.7314 49.8788 65.0782 49.532 65.2864C49.4626 65.3557 49.3932 65.4251 49.3238 65.4251L49.4626 65.8413C49.6013 65.772 49.7401 65.6332 49.8788 65.5639C50.5725 65.0089 50.5725 64.3152 50.2257 63.8295C49.8788 63.4133 49.3238 63.3439 48.7689 63.8295C48.6301 63.9683 48.4914 64.107 48.2832 64.2458C48.0751 64.4539 47.867 64.5926 47.7283 64.7314C47.5895 64.8701 47.3814 65.0089 47.1733 65.1476L47.312 65.2864L47.5895 65.1476C47.7976 65.3557 48.0058 65.5639 48.2139 65.8413L48.7689 66.6044C48.977 66.8819 49.1851 67.0901 49.3238 67.2982L49.1157 67.5063L49.2545 67.645C49.4626 67.5063 49.6707 67.2982 49.8788 67.1594C50.0869 67.0207 50.295 66.8819 50.5725 66.6044L50.4338 66.4657L50.0869 66.7432ZM55.5674 61.7484L55.7061 61.8871C55.498 62.0259 55.3592 62.234 55.1511 62.4421C54.943 62.6502 54.8043 62.8583 54.5961 62.9971L54.4574 62.8583L54.5961 62.6502C54.388 62.5115 53.9718 62.3033 53.6943 62.1646L52.9312 62.9277L53.4168 63.7602L53.6249 63.6214L53.7637 63.7602C53.6249 63.8989 53.4862 64.0377 53.3474 64.1764C53.2087 64.3152 53.0699 64.4539 53.0006 64.5926L52.8618 64.4539L53.0006 64.2458C52.7925 63.6214 52.0987 62.3033 51.6825 61.4015C51.8212 61.1934 51.96 60.9853 52.0294 60.7772L52.3069 60.6384L53.5556 61.1934C54.1105 61.4709 54.943 61.8177 55.2205 61.8871L55.5674 61.7484ZM53.4168 61.9565L52.2375 61.4015L52.8618 62.5115L53.4168 61.9565ZM59.1054 57.2392L59.2441 57.3779C59.036 57.6554 58.8279 57.9329 58.6891 58.2104C58.0648 58.2104 57.2323 58.141 56.7467 58.141L56.6079 58.3491L56.8161 58.5572C57.0936 58.7654 57.3017 58.9041 57.5792 59.0428L57.7873 58.8347L57.9954 58.9735C57.8566 59.1816 57.6485 59.3897 57.5098 59.5978C57.371 59.8059 57.2323 60.0141 57.0242 60.2222L56.8161 60.0834L56.9548 59.8059C56.7467 59.5978 56.5386 59.4591 56.2611 59.251L55.498 58.696C55.2205 58.4879 55.0124 58.3491 54.7349 58.141L54.5268 58.3491L54.3187 58.2104C54.4574 58.0716 54.5961 57.9329 54.6655 57.7248C54.8043 57.5166 54.943 57.3779 55.0818 57.1698C55.2205 56.9617 55.3592 56.8229 55.498 56.6148C56.053 55.8517 56.5386 55.9211 56.8854 56.1986C57.2323 56.4761 57.3017 56.9617 57.0936 57.3779C57.4404 57.3779 58.6197 57.3085 58.8279 57.3085L59.1054 57.2392ZM56.5386 56.9617C56.3305 56.7536 56.053 56.8229 55.8448 57.1698C55.7061 57.3085 55.6367 57.4473 55.5674 57.5166C55.7061 57.586 55.8448 57.7941 56.1223 57.9329L56.3305 58.0716C56.3998 58.0023 56.4692 57.9329 56.5386 57.8635C56.8161 57.5166 56.8161 57.1698 56.5386 56.9617ZM61.464 54.048C60.8397 55.0886 59.9378 55.3661 59.036 54.8111C58.2035 54.3255 57.926 53.3543 58.5504 52.3137C59.1747 51.2731 60.0072 50.9956 60.9784 51.5506C61.8109 51.9669 62.0884 53.0074 61.464 54.048ZM60.4928 52.3137C59.8684 51.9669 59.2441 52.0362 58.8972 52.5218C58.5504 53.0768 58.8279 53.6318 59.4522 54.048C60.0766 54.3949 60.7009 54.3255 61.0478 53.8399C61.3946 53.2849 61.1172 52.6606 60.4928 52.3137ZM35.38 71.9461C35.0331 71.9461 34.6862 72.293 34.6862 72.7092C34.6862 73.1255 35.0331 73.4723 35.38 73.4723C35.7962 73.4723 36.1431 73.1255 36.1431 72.7092C36.1431 72.293 35.7962 71.9461 35.38 71.9461ZM8.3247 48.8451C8.74093 48.8451 9.0878 48.4982 9.0878 48.1514C9.0878 47.7351 8.74093 47.3883 8.3247 47.3883C7.90846 47.3883 7.63097 47.7351 7.63097 48.1514C7.63097 48.4982 7.97784 48.8451 8.3247 48.8451ZM62.574 48.8451C62.9902 48.8451 63.3371 48.4982 63.3371 48.1514C63.3371 47.7351 62.9902 47.3883 62.574 47.3883C62.2271 47.3883 61.8803 47.7351 61.8803 48.1514C61.8109 48.4982 62.1577 48.8451 62.574 48.8451Z" fill="black"/>
</g>
<defs>
<clipPath id="clip0_1987_2942">
<rect width="273.674" height="80" fill="white"/>
</clipPath>
</defs>
</svg>
