<svg width="242" height="80" viewBox="0 0 242 80" fill="none" xmlns="http://www.w3.org/2000/svg">
<g clip-path="url(#clip0_1712_58)">
<path d="M0 12.2053L12.229 0H242V67.7527L229.75 80H0V12.2053Z" fill="#00467F"/>
<path d="M21.3197 12.1426V36.8641C21.3197 42.6542 25.6436 59.5705 45.45 67.8786L45.7533 68.0287L46.0532 67.8786C65.8596 59.5705 70.1835 42.7066 70.1835 36.8641V12.1426H21.3197Z" fill="white"/>
<path d="M26.5991 28.5074L26.4491 28.4061C25.3437 27.753 24.0361 27.4003 22.7285 27.4003H22.4286V36.8154C22.4286 37.0179 23.0807 57.2065 45.8057 66.7717C68.5271 57.2065 69.1827 37.0179 69.1827 36.8154V27.4003H68.8793C67.5717 27.4003 66.2641 27.753 65.1587 28.4061C62.798 29.8169 59.6282 29.8169 57.2152 28.4061C54.9521 27.0476 51.9882 27.0476 49.7739 28.4061L49.7251 28.455C47.3609 29.8135 44.2469 29.8134 41.8827 28.4061L41.8339 28.3572C39.6231 27.0476 36.6557 27.0476 34.4449 28.3572L34.3438 28.4061C31.9307 29.8169 28.9145 29.8169 26.6026 28.5074" fill="#14477E"/>
<path d="M29.2109 16.522C30.0652 15.5163 31.1706 15.415 31.725 15.3626C35.3445 15.2613 37.2031 17.9818 37.102 20.147C37.0009 22.6125 35.1423 23.2201 34.8912 23.269C34.8912 23.269 34.8424 23.8208 35.2922 24.5262C35.3411 24.5751 35.3934 24.6275 35.3411 24.7777C35.3411 24.8266 35.2399 24.9278 35.2399 24.9802C35.2399 24.9802 35.1911 25.0815 35.2399 25.1828C35.2887 25.3329 35.2399 25.5355 35.09 25.738C34.9889 25.9406 35.09 26.4435 35.1388 26.7962C35.1388 26.8451 35.09 26.8451 35.0377 26.7962C34.7866 26.646 34.6332 26.192 34.5844 25.9406C34.1311 26.0418 33.6289 26.6949 33.479 27.1C33.479 27.1489 33.3779 27.2013 33.3779 27.1C33.3779 27.0511 33.2767 26.3457 33.9811 25.7904C33.6289 25.6891 33.2767 25.8393 33.0257 25.993C33.0257 25.993 32.9245 26.0418 32.9768 25.9441C32.9768 25.8952 33.1791 25.4412 34.1345 25.3399C34.1345 25.291 34.3368 24.9872 34.4344 24.7358C34.3856 24.383 34.2322 23.929 33.9811 23.5274C33.9323 23.5274 33.2767 23.5763 32.8234 23.929C32.7746 23.929 32.7223 24.0303 32.7223 24.0792V24.2818C32.7223 24.3307 32.67 24.4843 32.4189 24.5821C32.4189 24.5821 31.6134 24.8335 31.2124 25.0361C31.2124 25.0361 30.8602 25.1862 30.6092 25.539C30.5603 25.5879 30.3581 25.8917 30.0547 25.993C30.0059 25.993 29.8036 26.0942 29.7025 26.1955L29.3992 26.4958C29.298 26.5447 29.0993 26.7997 28.9458 27.1C28.897 27.1489 28.897 27.2013 28.897 27.1V26.7997C28.9981 26.3946 29.1481 26.1955 29.3503 25.993C29.3178 25.993 29.2841 25.9767 29.2492 25.9441C28.9458 25.993 28.0427 25.8952 27.4883 26.1466C27.436 26.1466 27.3871 26.1466 27.436 26.0977C27.5371 25.9476 27.7393 25.4412 28.9458 25.3923C28.9458 25.291 28.3949 24.9872 28.0915 24.9872C27.9904 24.9872 28.0427 24.9383 28.0915 24.9383C28.1403 24.8894 28.6948 24.6869 29.3503 25.0885C29.3992 25.0885 29.8036 24.9383 30.0547 24.8859C30.3546 24.6834 31.0102 24.0303 31.2612 23.8802V23.5763H31.2124C30.8602 23.0735 30.8079 22.368 30.8079 21.9664C30.1035 21.9175 29.3503 21.261 28.9493 20.7581C28.4472 20.7092 27.4394 20.3041 26.8885 19.1971C25.0299 20.5067 23.8199 22.9233 23.7711 23.0246C23.7362 23.0572 23.7025 23.0572 23.67 23.0246C23.4677 22.6718 23.4189 22.0677 23.4677 21.9175C23.8199 20.9607 24.6742 19.6022 25.6297 18.3939C25.2775 16.3788 27.1361 15.7258 27.8404 15.7258C28.5936 15.9283 29.0958 16.3788 29.1969 16.5325" fill="#14477E"/>
<path d="M32.8304 16.8257C32.8792 16.6755 33.2314 16.5253 33.486 16.5253C32.3806 16.0714 31.6762 16.6266 31.725 16.5742V16.5253C31.725 16.5253 31.8749 16.2739 32.2271 16.0225C31.2229 16.0225 30.7173 16.5777 30.7173 16.5777V16.5288C30.7173 16.5288 30.7661 16.3263 31.1183 16.026C29.9606 16.0748 29.1062 17.4857 29.1062 17.4857C29.1062 17.4857 28.904 16.4799 27.8997 16.4799C27.1954 16.3787 25.5355 17.3844 26.1911 18.694C25.8912 19.2493 24.9358 20.0525 24.1302 21.7672V21.8161C24.8834 20.7579 25.94 19.4483 26.9966 18.7953C27.0977 18.8966 27.701 20.5065 29.1586 20.5589C29.3085 20.6601 30.0129 21.8685 31.3205 21.7672C31.3205 21.9173 31.3205 23.0244 31.5716 23.4295L31.6204 23.4784C31.7215 23.3771 32.4259 22.8253 33.0292 22.6717C33.0292 22.6717 33.2802 21.865 33.4302 21.6659C34.6367 21.3656 35.2888 20.4087 35.3411 19.4518C35.2922 18.0934 34.1345 16.6825 32.8269 16.8327M26.749 18.3867C26.5991 18.3867 26.4491 18.2365 26.4491 18.0864C26.4491 17.9362 26.5991 17.7825 26.749 17.7825C26.899 17.7825 27.0489 17.9327 27.0489 18.0864C27.0489 18.24 26.899 18.3867 26.749 18.3867Z" fill="white"/>
<path d="M44.5468 16.522C45.4011 15.5163 46.5065 15.415 47.061 15.3626C50.6805 15.2613 52.5426 17.9818 52.4414 20.147C52.3403 22.6125 50.4817 23.2201 50.2307 23.269C50.2307 23.269 50.1818 23.8208 50.6317 24.5262C50.6805 24.5751 50.7328 24.6275 50.6805 24.7777C50.6805 24.8266 50.5794 24.9278 50.5794 24.9802C50.5794 24.9802 50.5305 25.0815 50.5794 25.1828C50.6282 25.3329 50.5794 25.5355 50.4294 25.738C50.3283 25.9406 50.4294 26.4435 50.4817 26.7962C50.4817 26.8451 50.4294 26.8451 50.3806 26.7962C50.1295 26.646 49.9796 26.192 49.9308 25.9406C49.4775 26.0418 48.9753 26.6949 48.8254 27.1C48.8254 27.1489 48.7243 27.2013 48.6754 27.1C48.6754 27.0511 48.5743 26.3457 49.2787 25.7904C48.9265 25.6891 48.5743 25.8393 48.3233 25.993C48.3233 25.993 48.2221 26.0418 48.2744 25.9441C48.2744 25.8952 48.4767 25.4412 49.4286 25.3399C49.4286 25.291 49.6309 24.9872 49.732 24.7358C49.732 24.383 49.5298 23.929 49.2787 23.5274C49.2299 23.5274 48.5743 23.5763 48.121 23.929C48.0722 23.929 48.0199 24.0303 48.0199 24.0792V24.2818C48.0199 24.3307 47.9676 24.4843 47.72 24.5821C47.72 24.5821 46.9145 24.8335 46.5135 25.0361C46.5135 25.0361 46.1613 25.1862 45.9102 25.539C45.8614 25.5879 45.6592 25.8917 45.3558 25.993C45.307 25.993 45.1047 26.0942 45.0036 26.1955C44.9025 26.2968 44.8014 26.3981 44.7037 26.4958C44.6026 26.5447 44.4003 26.7997 44.2504 27.1C44.2504 27.1489 44.1981 27.2013 44.1981 27.1V26.7997C44.2992 26.3946 44.5015 26.1955 44.6514 25.993C44.6189 25.993 44.5852 25.9767 44.5503 25.9441C44.2504 25.993 43.3438 25.8952 42.7893 26.1466C42.7405 26.1466 42.6882 26.1466 42.7405 26.0977C42.8416 25.9476 43.0404 25.4412 44.2504 25.3923C44.2504 25.291 43.696 24.9872 43.3961 24.9872C43.295 24.9872 43.3473 24.9383 43.3961 24.9383C43.4449 24.8894 43.9993 24.6869 44.6514 25.0885C44.7037 25.0885 45.1047 24.9383 45.3558 24.8859C45.6592 24.6834 46.3112 24.0303 46.5623 23.8802V23.5763H46.5135C46.1613 23.0735 46.1125 22.368 46.1125 21.9664C45.4081 21.9175 44.6549 21.261 44.2539 20.7581C43.7518 20.7092 42.744 20.3041 42.1931 19.1971C40.3345 20.5067 39.1245 22.9233 39.0756 23.0246C39.0431 23.0572 39.0094 23.0572 38.9745 23.0246C38.7723 22.6718 38.7235 22.0677 38.7723 21.9175C39.1245 20.9607 39.9788 19.6022 40.9342 18.3939C40.582 16.3788 42.4441 15.7258 43.1485 15.7258C43.9017 15.9283 44.4561 16.3788 44.5573 16.5325" fill="#14477E"/>
<path d="M48.1664 16.8257C48.2152 16.6755 48.5674 16.5253 48.8185 16.5253C47.7131 16.0714 47.0087 16.6266 47.061 16.5742V16.5253C47.061 16.5253 47.2109 16.2739 47.5631 16.0225C46.5589 16.0225 46.0532 16.5777 46.0532 16.5777V16.5288C46.0532 16.5288 46.1021 16.3263 46.4577 16.026C45.3 16.0748 44.4457 17.4857 44.4457 17.4857C44.4457 17.4857 44.2435 16.4799 43.2392 16.4799C42.5348 16.3787 40.9273 17.3844 41.5306 18.694C41.2307 19.2493 40.2752 20.0525 39.4697 21.7672V21.8161C40.1741 20.7579 41.2307 19.4483 42.3326 18.7953C42.4337 18.8966 43.0858 20.5065 44.4945 20.5589C44.6445 20.6601 45.3489 21.8685 46.6042 21.7672C46.6042 21.9173 46.6042 23.0244 46.8553 23.4295L46.9041 23.4784C47.0052 23.3771 47.7096 22.8253 48.3128 22.6717C48.3128 22.6717 48.5639 21.865 48.7138 21.6659C49.9692 21.3656 50.5724 20.4087 50.6247 19.4518C50.6247 18.0934 49.467 16.6825 48.1629 16.8327M42.0815 18.3867C41.9316 18.3867 41.7816 18.2365 41.7816 18.0864C41.7816 17.9362 41.9316 17.7825 42.0815 17.7825C42.2315 17.7825 42.3814 17.9327 42.3814 18.0864C42.3814 18.24 42.2315 18.3867 42.0815 18.3867Z" fill="white"/>
<path d="M59.7259 16.522C60.5802 15.5163 61.6856 15.415 62.24 15.3626C65.8596 15.2613 67.7182 17.9818 67.617 20.147C67.5159 22.6125 65.6573 23.2201 65.4063 23.269C65.4063 23.269 65.3575 23.8208 65.8073 24.5262C65.8561 24.5751 65.9084 24.6275 65.8561 24.7777C65.8561 24.8266 65.755 24.9278 65.755 24.9802C65.755 24.9802 65.7062 25.0815 65.755 25.1828C65.8038 25.3329 65.755 25.5355 65.605 25.738C65.5039 25.9406 65.605 26.4435 65.6538 26.7962C65.6538 26.8451 65.605 26.8451 65.5527 26.7962C65.3017 26.646 65.1482 26.192 65.0994 25.9406C64.6496 26.0418 64.144 26.6949 63.994 27.1C63.994 27.1489 63.8929 27.2013 63.8929 27.1C63.8929 27.0511 63.7918 26.3457 64.4962 25.7904C64.144 25.6891 63.7918 25.8393 63.4919 25.993C63.4919 25.993 63.3908 26.0418 63.4431 25.9441C63.4431 25.8952 63.6453 25.4412 64.6008 25.3399C64.6008 25.291 64.803 24.9872 64.9006 24.7358C64.9006 24.383 64.6984 23.929 64.4473 23.5274C64.3985 23.5274 63.743 23.5763 63.2896 23.929C63.2408 23.929 63.1885 24.0303 63.1885 24.0792V24.2818C63.1885 24.3307 63.1397 24.4843 62.9375 24.5821C62.9375 24.5821 62.1319 24.8335 61.7309 25.0361C61.7309 25.0361 61.3787 25.1862 61.1277 25.539C61.0789 25.5879 60.8766 25.8917 60.5767 25.993C60.5279 25.993 60.3257 26.0942 60.2245 26.1955C60.1234 26.2968 60.0223 26.3981 59.9247 26.4958C59.8235 26.5447 59.6248 26.7997 59.4713 27.1C59.4713 27.1489 59.4225 27.2013 59.4225 27.1V26.7997C59.5236 26.3946 59.6736 26.1955 59.8723 25.993C59.8398 25.993 59.8061 25.9767 59.7712 25.9441C59.4679 25.993 58.5647 25.8952 58.0103 26.1466C57.9615 26.1466 57.9092 26.1466 57.9615 26.0977C58.0626 25.9476 58.2648 25.4412 59.4713 25.3923C59.4713 25.291 58.9169 24.9872 58.617 24.9872C58.5159 24.9872 58.5682 24.9383 58.617 24.9383C58.6658 24.8894 59.2203 24.6869 59.8723 25.0885C59.9212 25.0885 60.3257 24.9383 60.5767 24.8859C60.8766 24.6834 61.5322 24.0303 61.7832 23.8802V23.5763H61.7344C61.3822 23.0735 61.3334 22.368 61.3334 21.9664C60.629 21.9175 59.8758 21.261 59.4748 20.7581C58.9727 20.7092 57.9649 20.3041 57.414 19.1971C55.5554 20.5067 54.3489 22.9233 54.2966 23.0246C54.264 23.0572 54.2303 23.0572 54.1955 23.0246C53.9932 22.6718 53.9444 22.0677 54.042 21.9175C54.3942 20.9607 55.2485 19.6022 56.204 18.3939C55.8518 16.3788 57.7139 15.7258 58.4148 15.7258C59.1192 15.9283 59.6213 16.3788 59.7224 16.5325" fill="#14477E"/>
<path d="M63.3454 16.8257C63.3977 16.6755 63.7499 16.5253 64.001 16.5253C62.8956 16.0714 62.1912 16.6266 62.24 16.5742V16.5253C62.24 16.5253 62.39 16.2739 62.7421 16.0225C61.7344 16.0225 61.2323 16.5777 61.2323 16.5777V16.5288C61.2323 16.5288 61.2811 16.3263 61.6333 16.026C60.4756 16.0748 59.6213 17.4857 59.6213 17.4857C59.6213 17.4857 59.419 16.4799 58.4147 16.4799C57.7104 16.3787 56.1028 17.3844 56.7061 18.694C56.4062 19.2493 55.4508 20.0525 54.6453 21.7672V21.8161C55.3985 20.7579 56.4062 19.4483 57.5116 18.7953C57.6127 18.8966 58.216 20.5065 59.6736 20.5589C59.8235 20.6601 60.5279 21.8685 61.8355 21.7672C61.8355 21.9173 61.8355 23.0244 62.0866 23.4295L62.1389 23.4784C62.24 23.3771 62.9444 22.8253 63.5442 22.6717C63.5442 22.6717 63.7952 21.865 63.9452 21.6659C65.1517 21.3656 65.8073 20.4087 65.8561 19.4518C65.8561 18.0934 64.6496 16.6825 63.3419 16.8327M57.264 18.3867C57.1141 18.3867 56.9641 18.2365 56.9641 18.0864C56.9641 17.9362 57.1141 17.7825 57.264 17.7825C57.414 17.7825 57.5639 17.9327 57.5639 18.0864C57.5639 18.24 57.4628 18.3867 57.264 18.3867Z" fill="white"/>
<path d="M47.6608 51.9156L47.3086 52.1671L47.6608 52.3696C47.9118 52.5198 48.0653 52.7223 48.0653 53.0262C48.0653 53.4278 47.7131 53.7805 47.3121 53.7805H44.1458C43.7448 53.7805 43.3926 53.4278 43.3926 53.0262C43.3926 52.7747 43.5426 52.5233 43.7971 52.3696L44.1493 52.1671L43.7971 51.9156C43.0439 51.4128 42.1373 51.1613 41.283 51.1613C40.4287 51.1613 39.522 51.4128 38.7688 51.9156C37.9145 52.4709 37.109 52.67 35.7526 52.67C34.0439 52.67 32.6351 52.1671 31.3798 51.06L31.331 51.0112H30.5255L30.4244 51.1124C30.3232 51.2626 30.1245 51.315 29.9711 51.315C29.6677 51.315 29.3678 51.0635 29.3678 50.7597C29.3678 50.4559 29.6189 50.2079 29.9711 50.2079C30.1733 50.2079 30.3232 50.3092 30.4244 50.4105L30.5255 50.5118H31.4809V49.3523H30.5255L30.4244 49.4536C30.3232 49.6038 30.1245 49.6562 29.9711 49.6562C29.6677 49.6562 29.3678 49.4047 29.3678 49.1009C29.3678 48.7971 29.6189 48.5456 29.9711 48.5456C30.1733 48.5456 30.3232 48.6469 30.4244 48.7482L30.5255 48.8495H31.4809V47.6935H30.5255L30.4244 47.7948C30.3232 47.945 30.1245 47.9974 29.9711 47.9974C29.6677 47.9974 29.3678 47.7459 29.3678 47.4421C29.3678 47.1383 29.6189 46.8868 29.9711 46.8868C30.1733 46.8868 30.3232 46.9881 30.4244 47.0894L30.5255 47.1907H31.4809V46.0347H30.5255L30.4244 46.136C30.3232 46.2862 30.1245 46.3385 29.9711 46.3385C29.6677 46.3385 29.3678 46.0871 29.3678 45.7833C29.3678 45.4795 29.6189 45.228 29.9711 45.228C30.1733 45.228 30.3232 45.3293 30.4244 45.4306L30.5255 45.5318H31.4809V44.3759H30.5255L30.4244 44.4772C30.3232 44.6274 30.1245 44.6797 29.9711 44.6797C29.6677 44.6797 29.3678 44.4283 29.3678 44.1245C29.3678 43.8206 29.6189 43.5727 29.9711 43.5727C30.1733 43.5727 30.3232 43.674 30.4244 43.7752L30.5255 43.8765H31.4809V42.7171H30.5255L30.4244 42.8184C30.3232 42.9685 30.1245 43.0209 29.9711 43.0209C29.6677 43.0209 29.3678 42.7695 29.3678 42.4657C29.3678 42.1618 29.6189 41.9104 29.9711 41.9104C30.1733 41.9104 30.3232 42.0117 30.4244 42.1129L30.5255 42.2142H31.4809V41.0548H30.5255L30.4244 41.1561C30.3232 41.3062 30.1245 41.3586 29.9711 41.3586C29.6677 41.3586 29.3678 41.1072 29.3678 40.8069C29.3678 40.5065 29.6189 40.2516 29.9711 40.2516C30.1733 40.2516 30.3232 40.3529 30.4244 40.4541L30.4732 40.5554H31.2264L32.0319 40.1538V50.6759L32.133 50.8784C34.295 52.2369 36.5058 52.3906 38.469 51.2835C40.5298 50.1241 43.4449 50.0752 45.1536 52.5407H44.498C44.3481 52.5407 44.247 52.642 44.247 52.7922C44.247 52.9424 44.3481 53.0436 44.498 53.0436H47.061C47.2109 53.0436 47.3121 52.9424 47.3121 52.7922C47.3121 52.642 47.2109 52.5407 47.061 52.5407H46.2555C48.0164 50.0228 50.9281 50.2254 52.9401 51.2835C54.7499 52.188 56.8596 52.0903 59.2238 50.8784L59.3737 50.6759V40.1538L60.1792 40.5554H60.9324L60.9812 40.4541C61.0824 40.304 61.2811 40.2516 61.4311 40.2516C61.7344 40.2516 62.0343 40.503 62.0343 40.8069C62.0343 41.1107 61.7832 41.3586 61.4311 41.3586C61.2288 41.3586 61.0789 41.2574 60.9812 41.1561L60.8801 41.0548H59.9247V42.2142H60.8801L60.9812 42.1129C61.0824 41.9628 61.2811 41.9104 61.4311 41.9104C61.7344 41.9104 62.0343 42.1618 62.0343 42.4657C62.0343 42.7695 61.7832 43.0209 61.4311 43.0209C61.2288 43.0209 61.0789 42.9197 60.9812 42.8184L60.8801 42.7171H59.9247V43.8765H60.8801L60.9812 43.7752C61.0824 43.6251 61.2811 43.5727 61.4311 43.5727C61.7344 43.5727 62.0343 43.8241 62.0343 44.1245C62.0343 44.4248 61.7832 44.6797 61.4311 44.6797C61.2288 44.6797 61.0789 44.5785 60.9812 44.4772L60.8801 44.3759H59.9247V45.5318H60.8801L60.9812 45.4306C61.0824 45.2804 61.2811 45.228 61.4311 45.228C61.7344 45.228 62.0343 45.4795 62.0343 45.7833C62.0343 46.0871 61.7832 46.3385 61.4311 46.3385C61.2288 46.3385 61.0789 46.2373 60.9812 46.136L60.8801 46.0347H59.9247V47.1907H60.8801L60.9812 47.0894C61.0824 46.9392 61.2811 46.8868 61.4311 46.8868C61.7344 46.8868 62.0343 47.1383 62.0343 47.4421C62.0343 47.7459 61.7832 47.9974 61.4311 47.9974C61.2288 47.9974 61.0789 47.8961 60.9812 47.7948L60.8801 47.6935H59.9247V48.8495H60.8801L60.9812 48.7482C61.0824 48.598 61.2811 48.5456 61.4311 48.5456C61.7344 48.5456 62.0343 48.7971 62.0343 49.1009C62.0343 49.4047 61.7832 49.6562 61.4311 49.6562C61.2288 49.6562 61.0789 49.5549 60.9812 49.4536L60.8801 49.3523H59.9247V50.5118H60.8801L60.9812 50.4105C61.0824 50.2603 61.2811 50.2079 61.4311 50.2079C61.7344 50.2079 62.0343 50.4594 62.0343 50.7597C62.0343 51.06 61.7832 51.315 61.4311 51.315C61.2288 51.315 61.0789 51.2137 60.9812 51.1124L60.8801 51.0112H60.0746L60.0258 51.06C58.767 52.1671 57.4105 52.67 55.6496 52.67C54.2931 52.67 53.4876 52.4674 52.6333 51.9156C51.1234 50.8575 49.216 50.8575 47.6573 51.9156" fill="white"/>
<path d="M33.336 50.4557C34.9436 51.3113 36.3035 51.5628 38.6642 50.3056C41.2795 48.9471 43.9924 49.8516 45.5511 51.3637V52.1704C43.6402 49.7049 40.5751 49.8062 38.4132 51.0145C36.6522 52.0203 34.6925 51.919 32.6805 50.7142V40.0908L33.2349 39.8394V50.4627H33.336V50.4557Z" fill="white"/>
<path d="M33.6847 50.1029V39.5285L33.7335 39.4796C35.5433 39.8847 36.952 39.7834 38.7618 38.9767C40.9726 38.0198 43.2357 38.3201 45.4988 39.8812V50.6547C44.3934 49.7502 42.9358 49.1426 41.3248 49.1426C40.3693 49.1426 39.3651 49.3451 38.4096 49.848C36.2965 50.955 35.1423 50.8049 33.6847 50.0994" fill="white"/>
<path d="M52.8913 50.3058C55.2555 51.5665 56.612 51.3115 58.2195 50.4559L58.3694 50.4071V39.7837L58.9239 40.0351V50.6585C56.7619 51.7166 54.851 51.8144 53.1912 50.9588C51.0292 49.8518 47.9641 49.6003 46.0532 52.1148V51.308C47.5631 49.8483 50.276 48.9403 52.8913 50.3023" fill="white"/>
<path d="M46.0044 50.6582V39.8847C48.2152 38.3236 50.4783 38.0722 52.7413 38.9802C54.5999 39.7345 55.9599 39.8847 57.7696 39.4831L57.8219 39.5319V50.1064C56.3644 50.8607 55.2067 51.0109 53.097 49.9039C50.4817 48.493 47.72 49.2473 46.0079 50.6582" fill="white"/>
<path d="M57.9684 37.5697L55.1021 35.4045L52.2357 37.5697L53.3446 34.1438L50.3248 31.9786H53.9967L55.1021 28.5073L56.2074 31.9786H59.8793L56.863 34.1438L57.9684 37.5697Z" fill="white"/>
<path d="M39.2675 37.6185L36.4011 35.4533L33.5348 37.6185L34.6402 34.1437L31.6762 31.9785H35.2957L36.4011 28.5562L37.5065 31.9785H41.1784L38.1586 34.1437L39.2675 37.6185Z" fill="white"/>
<path d="M42.9358 64.6029L43.9924 61.1805L41.0249 59.0153H44.6444L45.7498 55.5405L46.8587 59.0153H50.5271L47.5108 61.1805L48.6197 64.6029L45.7498 62.4901L42.9358 64.6029Z" fill="white"/>
<path d="M110.978 20.9183H107.045V18.1595H110.696V16.4727H107.045V13.8291H110.867V12.1982H105.361V22.5492H110.978V20.9183Z" fill="white"/>
<path d="M158.555 13.8291V12.1982H153.109V22.5492H158.667V20.9183H154.734V18.1595H158.444V16.4727H154.734V13.8291H158.555Z" fill="white"/>
<path d="M96.2038 18.2188H100.922V22.5492H102.554V12.1982H100.922V16.5321H96.2038V12.1982H94.5753V22.5492H96.2038V18.2188Z" fill="white"/>
<path d="M120.92 22.6646C122.269 22.6646 123.336 22.27 124.065 21.4842C124.738 20.7509 125.132 19.6822 125.132 18.3901V12.146H123.504V18.1666C123.504 19.2352 123.336 19.7975 122.998 20.248C122.775 20.5273 122.154 20.9813 121.031 20.9813C120.299 20.9813 119.682 20.6985 119.236 20.1921C118.842 19.7416 118.73 19.2911 118.73 18.2784V12.2019H117.102V18.6136C117.102 19.9092 117.496 20.9778 118.336 21.7077C118.953 22.3258 119.909 22.6646 120.92 22.6646Z" fill="white"/>
<path d="M136.144 22.5492V12.1982H134.572V19.6227C134.404 19.4551 128.731 12.1982 128.731 12.1982H127.496V22.5492H129.069V15.1806C129.236 15.3482 134.798 22.5492 134.798 22.5492H136.148H136.144Z" fill="white"/>
<path d="M151.027 12.1982H149.343C149.343 12.1982 146.87 18.7252 146.759 18.8928C146.703 18.7252 144.175 12.1982 144.175 12.1982H142.491L146.536 22.661H147.041L151.03 12.1982H151.027Z" fill="white"/>
<path d="M167.092 22.5496H169.058L168.776 22.1549C168.214 21.3098 167.991 20.9746 167.653 20.3529C167.315 19.7907 167.036 19.1726 166.698 18.7221C166.419 18.2716 166.136 17.9922 165.798 17.7093C166.698 17.203 167.144 16.3578 167.144 15.2333C167.144 14.3323 166.865 13.6025 166.3 13.0402C165.739 12.5338 164.954 12.251 163.995 12.251H161.523V22.6019H163.151V18.2716H163.49C164.051 18.2716 164.557 18.4392 165.735 20.4647L167.081 22.5461L167.092 22.5496ZM165.522 15.181C165.522 15.6315 165.411 15.9667 165.184 16.1937C164.902 16.4766 164.511 16.5883 163.95 16.5883H163.277V13.7771H163.95C165.017 13.7771 165.522 14.2276 165.522 15.1844C165.522 15.1472 165.522 15.1472 165.522 15.1844" fill="white"/>
<path d="M173.215 13.8291C173.888 13.8291 174.564 14.1679 175.182 14.8419L175.405 15.0654L175.46 15.1212V12.984L175.405 12.9281C174.732 12.4217 173.999 12.1982 173.271 12.1982C172.427 12.1982 171.698 12.4776 171.192 12.984C170.687 13.4904 170.404 14.2202 170.404 15.0654C170.404 16.5286 171.416 17.3144 172.427 17.9919L172.65 18.1595L173.1 18.4982C173.379 18.6659 173.55 18.837 173.717 19.0046C174.111 19.3992 174.278 19.738 174.278 20.1291C174.278 20.5202 173.94 21.1977 172.985 21.1977C172.2 21.1977 171.356 20.6913 170.739 19.8462L170.512 19.5075L170.457 19.3957L170.512 21.9276C171.297 22.6016 172.141 22.8845 173.152 22.8845C173.884 22.8845 174.613 22.6016 175.063 22.0393C175.569 21.533 175.851 20.8031 175.851 19.958C175.851 18.2712 174.784 17.4261 173.829 16.808L173.1 16.3575C172.817 16.1899 172.65 16.0746 172.483 15.907C172.089 15.5682 171.921 15.2889 171.921 14.8942C171.921 14.2761 172.483 13.8256 173.215 13.8256" fill="white"/>
<path d="M194.392 22.5492H196.02V17.1502L199.504 12.1982H197.54C197.54 12.1982 195.235 15.4041 195.18 15.5159C195.124 15.4006 192.875 12.1982 192.875 12.1982H190.852C190.852 12.1982 194.336 17.0909 194.336 17.1502C194.392 17.1502 194.392 22.5492 194.392 22.5492Z" fill="white"/>
<path d="M140.524 12.1982H138.896V22.5492H140.524V12.1982Z" fill="white"/>
<path d="M180.349 12.1982H178.721V22.5492H180.349V12.1982Z" fill="white"/>
<path d="M88.5113 22.5492H90.1398V13.8291H93.2293V12.1982H85.366V13.8291H88.5113V22.5492Z" fill="white"/>
<path d="M185.517 22.5492H187.205V13.8291H190.291V12.1982H182.427V13.8291H185.517V22.5492Z" fill="white"/>
<path d="M216.301 17.8242H219.781V16.1934H216.301V13.8291H219.781V12.1982H214.672V22.4375H216.301V17.8242Z" fill="white"/>
<path d="M207.761 22.7168C209.222 22.7168 210.512 22.1546 211.412 21.1418C212.256 20.185 212.705 18.8928 212.705 17.4855C212.705 16.0781 212.256 14.786 211.359 13.7732C210.46 12.7605 209.17 12.1982 207.764 12.1982C206.359 12.1982 205.069 12.7605 204.169 13.7732C203.325 14.7301 202.823 16.0222 202.823 17.4296C202.823 18.837 203.273 20.1291 204.169 21.086C205.069 22.0987 206.359 22.7168 207.764 22.7168M205.459 14.8419C206.077 14.1679 206.865 13.8291 207.82 13.8291C209.731 13.8291 211.133 15.3482 211.133 17.4296C211.133 18.4423 210.795 19.3433 210.177 20.0173C209.56 20.6913 208.716 21.0301 207.82 21.0301C206.924 21.0301 206.08 20.6913 205.459 20.0173C204.842 19.3433 204.504 18.4423 204.504 17.4296C204.504 16.4169 204.842 15.5159 205.459 14.8419Z" fill="white"/>
<path d="M176.304 29.7505H174.338L167.541 47.4142H170.408C170.408 47.4142 172.315 42.5181 172.315 42.4098H178.383C178.438 42.5216 180.405 47.4142 180.405 47.4142H183.324L176.301 29.7505H176.304ZM173.441 39.651C173.497 39.4833 175.181 34.9818 175.293 34.6431C175.405 34.9818 177.26 39.4798 177.316 39.651H173.441Z" fill="white"/>
<path d="M165.128 44.6589H158.217V29.8623H155.41V47.4736H165.128V44.6589Z" fill="white"/>
<path d="M90.1398 42.4654H96.2072C96.263 42.5772 98.2297 47.4733 98.2297 47.4733H101.096L94.0174 29.8096H92.1065L85.3102 47.4733H88.2289C88.2289 47.4733 90.084 42.5213 90.1398 42.4654ZM93.0584 34.6428C93.17 34.9816 94.9693 39.4796 95.0809 39.6507H91.2033C91.2591 39.483 92.9468 34.9816 93.0584 34.6428Z" fill="white"/>
<path d="M134.456 46.0658V42.633L134.345 42.6888L133.951 42.9717C132.267 44.1521 130.467 44.8261 128.783 44.8261C127.099 44.8261 125.582 44.2638 124.515 43.1393C123.448 42.0148 122.886 40.4957 122.886 38.6937C122.886 36.8917 123.448 35.3761 124.515 34.2516C125.582 33.1271 127.043 32.509 128.616 32.509C130.3 32.509 131.873 33.0154 133.728 34.2516L134.066 34.4786L134.177 34.5345L134.066 31.1051H134.01C131.876 30.0924 130.248 29.6978 128.619 29.6978C123.622 29.6978 119.968 33.5811 119.968 38.9801C119.968 41.0056 120.697 43.1428 121.99 44.7178C123.113 46.0693 125.136 47.7561 128.508 47.7561C131.315 47.7002 133.002 46.911 134.46 46.0693" fill="white"/>
<path d="M144.063 38.1878C144.119 38.076 150.971 29.8623 150.971 29.8623H147.432C147.432 29.8623 141.702 36.7839 141.476 37.1192V29.8623H138.665V47.4701H141.476V39.5393C141.699 39.8187 148.833 47.4701 148.833 47.4701H152.652C152.652 47.4701 144.171 38.2995 144.056 38.1878" fill="white"/>
<path d="M218.658 32.7329C217.141 30.8751 214.895 29.8623 212.256 29.8623H206.021V47.4701H212.256C214.728 47.4701 216.862 46.5133 218.435 44.7671C219.84 43.1363 220.68 40.9431 220.68 38.6907C220.68 36.4382 219.952 34.3009 218.658 32.7259M211.973 44.6589H208.769V32.677H211.858C213.769 32.677 215.282 33.2952 216.353 34.479C217.305 35.5477 217.814 37.0109 217.814 38.6976C217.814 40.8908 216.58 44.6589 211.973 44.6589Z" fill="white"/>
<path d="M109.744 47.6968C112.049 47.6968 113.845 47.0228 115.079 45.7272C116.258 44.491 116.819 42.689 116.819 40.4959V29.862H114.009V40.0454C114.009 41.8439 113.73 42.8566 113.109 43.5341C112.659 43.9846 111.704 44.7704 109.737 44.7704C108.502 44.7704 107.491 44.3199 106.647 43.4189C106.03 42.689 105.804 41.9556 105.804 40.1571V29.8062H102.996V40.6635C102.996 42.8566 103.725 44.7145 105.075 45.9507C106.368 47.0787 107.993 47.6934 109.737 47.6934" fill="white"/>
<path d="M198.775 42.4658C198.552 42.127 188.889 29.8623 188.889 29.8623H186.699V47.4701H189.339V34.9819C189.566 35.3207 199.113 47.4701 199.113 47.4701H201.418V29.8623H198.778V42.4658H198.775Z" fill="white"/>
<path d="M90.9801 67.1031L86.712 62.0952H85.4776V69.2997H86.8236V64.1766L91.151 69.2997H92.3296V62.0952H90.9801V67.1031Z" fill="white"/>
<path d="M100.925 66.1462H104.07V65.0776H100.925V63.1638H104.182V62.0952H99.5757V69.2962H104.238V68.1717H100.925V66.1462Z" fill="white"/>
<path d="M118.618 66.5408L116.763 62.0952H115.585L113.674 66.5408L111.934 62.0952H110.473L113.451 69.3556H113.9L116.146 64.0648L118.395 69.3556H118.842L121.819 62.0952H120.414L118.618 66.5408Z" fill="white"/>
<path d="M142.829 62.0952H136.479V63.1673H140.412L136.256 69.2997H142.829V68.1717H138.613L142.829 62.0952Z" fill="white"/>
<path d="M150.915 66.1462H154.061V65.0776H150.915V63.1638H154.176V62.0952H149.566V69.2962H154.231V68.1717H150.915V66.1462Z" fill="white"/>
<path d="M163.444 62.0952L160.466 69.2962H161.927L162.6 67.5536H165.801L166.534 69.2962H167.995L164.849 62.0952H163.444ZM163.05 66.485L164.176 63.6702L165.411 66.485H163.05Z" fill="white"/>
<path d="M175.914 62.0952H174.509V69.2997H179.394V68.1717H175.914V62.0952Z" fill="white"/>
<path d="M188.213 62.0952L185.235 69.2962H186.696L187.369 67.5536H190.57L191.302 69.2962H192.763L189.618 62.0952H188.213ZM187.819 66.485L188.945 63.6702L190.179 66.485H187.819Z" fill="white"/>
<path d="M204.783 67.1031L200.515 62.0952H199.28V69.2997H200.686V64.1766L204.954 69.2997H206.132V62.0952H204.783V67.1031Z" fill="white"/>
<path d="M218.379 62.5457C217.817 62.2663 217.144 62.0952 216.412 62.0952H213.434V69.2962H216.356C217.144 69.2962 217.817 69.1286 218.379 68.8457C218.996 68.5628 219.446 68.1123 219.784 67.606C220.122 67.0437 220.29 66.4256 220.29 65.7516C220.29 65.0776 220.122 64.4595 219.784 63.8937C219.39 63.2756 218.94 62.881 218.379 62.5457ZM218.096 67.4977C217.647 67.9482 217.029 68.1717 216.241 68.1717H214.78V63.1638H216.185C216.97 63.1638 217.591 63.3908 218.096 63.8378C218.546 64.2883 218.769 64.9065 218.769 65.6957C218.769 66.4256 218.543 67.0437 218.096 67.4942" fill="white"/>
<path d="M220.513 54.5034H85.4218V55.2892H220.513V54.5034Z" fill="white"/>
</g>
<defs>
<clipPath id="clip0_1712_58">
<rect width="242" height="80" fill="white"/>
</clipPath>
</defs>
</svg>
