<svg width="100" height="100" viewBox="0 0 100 100" fill="none" xmlns="http://www.w3.org/2000/svg">
<rect width="100" height="100" fill="#E64626"/>
<path d="M18.853 65.7216H16.67V65.4422H17.4279V61.0938H15.9121V61.7015H15.5488V60.5H15.9121V60.7096H19.6143V60.5H19.9776V61.7015H19.6143V61.0938H18.095V65.4422H18.853V65.7216Z" fill="black"/>
<path d="M25.7548 65.7233H23.9491V65.444H24.5184V63.3554H21.6719V65.444H22.2413V65.7233H20.4355V65.444H21.0048V60.9943H20.4355V60.7148H22.2413V60.9943H21.6719V63.013H24.5184V60.9943H23.9491V60.7148H25.7548V60.9943H25.1786V65.444H25.7548V65.7233Z" fill="black"/>
<path d="M29.8414 65.7219H26.3906V65.4426H26.9599V60.9929H26.3906V60.7135H29.4188V60.5039H29.7681V61.7124H29.4257V61.0663H27.6271V63.0082H29.0591V62.4388L29.4084 62.4319V63.9268L29.0591 63.9337V63.3469H27.6271V65.3797H29.4921V64.7161H29.8414V65.7219Z" fill="black"/>
<path d="M37.3307 60.9624H36.7614V63.8543C36.7614 64.6646 36.4715 65.1885 35.8394 65.5308C35.5139 65.701 35.1519 65.7897 34.7846 65.7892C33.6844 65.7892 32.874 65.0907 32.874 64.0639V60.9624H32.3047V60.6829H34.1104V60.9624H33.5411V63.8263C33.5411 64.7414 34.0791 65.3456 34.9208 65.3456C35.7835 65.3456 36.3702 64.731 36.3702 63.8194V60.9553H35.8009V60.676H37.3272L37.3307 60.9624ZM42.0109 65.7718H41.7769L38.864 61.7656V65.4051H39.4402V65.6845H37.9035V65.4051H38.4798V61.2138L38.2702 60.9239H37.7463V60.6445H38.8466L41.6232 64.4865V60.9938H41.047V60.7143H42.5697V60.9938H42.0004L42.0109 65.7718Z" fill="black"/>
<path d="M44.9424 65.7233H43.1367V65.444H43.706V60.9943H43.1367V60.7148H44.9424V60.9943H44.373V65.444H44.9424V65.7233Z" fill="black"/>
<path d="M48.0066 65.8177H47.7481L45.8377 60.9279H45.3906V60.6484H47.2767V60.9279H46.5642L48.0381 64.6546L49.4945 60.9279H48.9951V60.6484H50.2943V60.9279H49.9102L48.0066 65.8177Z" fill="black"/>
<path d="M54.1891 65.7219H50.7383V65.4426H51.3076V60.9929H50.7383V60.7135H53.7665V60.5039H54.1157V61.7124H53.7734V61.0663H51.9747V63.0082H53.4067V62.4388L53.756 62.4319V63.9268L53.4067 63.9337V63.3469H51.9747V65.3797H53.8398V64.7161H54.1891V65.7219Z" fill="black"/>
<path d="M56.1535 63.0936H56.88C57.4563 63.0936 57.858 62.6745 57.858 62.0458C57.858 61.3927 57.5017 61.0329 56.8625 61.0329H56.15L56.1535 63.0936ZM59.2969 65.6887H58.6508C58.2037 65.6887 58.1199 65.6432 57.8684 65.2415L56.7368 63.4428H56.1431V65.4092H56.7124V65.6887H54.9102V65.4092H55.4794V60.9631H54.9102V60.6836H57.0196C57.7531 60.6836 58.1723 60.8931 58.3993 61.3577C58.4971 61.5672 58.5495 61.7908 58.5495 62.0352C58.5495 62.7687 58.1408 63.2402 57.4108 63.345L58.5041 65.032C58.6857 65.3114 58.8079 65.4023 58.993 65.4023H59.29L59.2969 65.6887Z" fill="black"/>
<path d="M60.269 65.7559H59.9127V64.3938H60.269V64.9946C60.7335 65.3089 60.9326 65.3787 61.2714 65.3787C61.8791 65.3787 62.2843 65.0644 62.2843 64.5824C62.2843 64.1493 61.9874 63.8314 61.1666 63.4053C60.2096 62.9059 59.8848 62.5252 59.8848 61.9035C59.8848 61.1526 60.5205 60.5902 61.3797 60.5902C61.7639 60.5902 62.0433 60.6601 62.2808 60.7998V60.5273H62.6301V61.8267H62.2808V61.2853C61.9315 61.0268 61.7044 60.95 61.4006 60.95C60.8836 60.95 60.5519 61.2643 60.5519 61.7323C60.5519 62.1165 60.7719 62.3401 61.7184 62.885C62.6649 63.4298 62.9409 63.7651 62.9409 64.3868C62.9409 65.1762 62.2912 65.7839 61.432 65.7839C60.9535 65.7839 60.6427 65.6861 60.2655 65.4416L60.269 65.7559Z" fill="black"/>
<path d="M65.4542 65.7233H63.6484V65.444H64.2177V60.9943H63.6484V60.7148H65.4542V60.9943H64.8848V65.444H65.4542V65.7233Z" fill="black"/>
<path d="M69.2534 65.7216H67.0704V65.4422H67.8283V61.0938H66.3125V61.7015H65.9492V60.5H66.3125V60.7096H70.0147V60.5H70.378V61.7015H70.0147V61.0938H68.4954V65.4422H69.2534V65.7216Z" fill="black"/>
<path d="M74.0452 65.7221H72.2394V65.4428H72.8087V63.4171L71.237 60.9966H70.7969V60.7172H72.669V60.9966H71.9774L73.2837 62.9874L74.4887 60.9966H73.7971V60.7172H75.3129V60.9966H74.9183L73.4618 63.3717V65.4428H74.0381L74.0452 65.7221ZM78.0268 63.183C78.0268 64.4648 78.7392 65.3903 79.7242 65.3903C80.7091 65.3903 81.4007 64.4578 81.4007 63.183C81.4007 61.9082 80.7022 60.9826 79.7347 60.9826C78.7393 60.9826 77.9884 61.8907 77.9884 63.183M77.2375 63.19C77.2375 61.793 78.3481 60.5879 79.6893 60.5879C81.0096 60.5879 82.1168 61.7754 82.1168 63.183C82.1168 64.5906 81.0096 65.785 79.6893 65.785C78.3691 65.785 77.2375 64.5976 77.2375 63.19Z" fill="black"/>
<path d="M84.4282 65.7219H82.6225V65.4426H83.1918V60.9929H82.6225V60.7135H85.6507V60.5039H86V61.7124H85.6576V61.0663H83.8625V63.0082H85.2595V62.4388L85.6088 62.4319V63.9268L85.2595 63.9337V63.3469H83.8625V65.4426H84.4318L84.4282 65.7219ZM16.4954 81.8931H15.5524V78.2956H16.4954V79.8743C17.7179 80.6951 18.2558 80.8943 19.1359 80.8943C20.7356 80.8943 21.8148 80.056 21.8148 78.7986C21.8148 77.66 21.036 76.8183 18.881 75.7006C16.3662 74.3804 15.5 73.3814 15.5 71.7329C15.5 69.7525 17.1766 68.2402 19.4398 68.2402C20.4387 68.2402 21.1792 68.4218 21.8219 68.799V68.0796H22.7404V71.5023H21.8219V70.0844C20.802 69.4068 20.3025 69.2042 19.5027 69.2042C18.1056 69.2042 17.2673 70.025 17.2673 71.2998C17.2673 72.3197 17.8471 72.9064 20.3409 74.3489C22.8347 75.7914 23.5612 76.6681 23.5612 78.3062C23.5612 80.3843 21.8427 81.9839 19.5795 81.9839C18.4831 82.0215 17.4035 81.707 16.4989 81.0863L16.4954 81.8931Z" fill="black"/>
<path d="M32.4676 81.7172H27.7105V80.9767H29.2125V75.64L25.0736 69.2483H23.9141V68.5078H28.8527V69.2483H27.0365L30.4768 74.4943L33.6202 69.2483H31.8039V68.5078H35.8031V69.2483H34.7623L30.9203 75.5142V80.9732H32.4396L32.4676 81.7172Z" fill="black"/>
<path d="M40.0829 80.7113H42.4824C45.2206 80.7113 47.3023 78.2909 47.2779 75.1125C47.2779 72.025 45.1578 69.5242 42.5208 69.5242H40.0829V80.7113ZM36.8242 81.7101V80.9696H38.326V69.2133H36.8242V68.4729H42.7618C46.3593 68.4729 49.3001 71.4312 49.3001 75.0601C49.3001 78.7623 46.4222 81.6787 42.7444 81.6787L36.8242 81.7101ZM60.7946 81.9336H60.1763L52.4924 71.3683V80.9732H54.0152V81.7136H49.9742V80.9732H51.4936V70.0062L50.9556 69.2447H49.576V68.5462H52.4749L59.7921 78.5911V69.2133H58.2728V68.5148H62.2895V69.2133H60.7875L60.7946 81.9336ZM72.7465 81.7172H63.648V80.9767H65.15V69.2133H63.648V68.4729H71.6253V67.9141H72.5439V71.0575H71.6463V69.36H66.9068V74.4873H70.6859V72.9854L71.608 72.968V76.9147L70.6859 76.9322V75.3954H66.9068V80.7532H71.7965V78.9964H72.7151L72.7465 81.7172Z" fill="black"/>
<path d="M82.6433 81.7172H77.8863V80.9767H79.3882V75.64L75.2494 69.2483H74.0898V68.5078H79.0285V69.2483H77.2122L80.6526 74.4943L83.796 69.2483H81.9797V68.5078H85.9789V69.2483H84.9381L81.0961 75.5142V80.9732H82.6154L82.6433 81.7172Z" fill="black"/>
<path d="M68.447 19.2021V28.4955C68.447 39.7597 60.7742 51.3318 49.72 53.4985C39.0579 51.4753 31 39.7597 31 28.4955V15.9992C31 15.9992 40.339 13.5 49.727 13.5C60.6271 13.5 68.4539 15.9992 68.4539 15.9992L68.447 19.2021Z" fill="black"/>
<path d="M49.723 50.5649C58.7015 50.5544 65.6637 42.2269 65.6637 33.056V17.3044L65.4293 17.2344C65.4293 17.2344 57.3434 14.7246 49.7196 14.7246C42.0958 14.7246 34.0275 17.2309 34.01 17.2344L33.7754 17.3044V33.056C33.7789 42.2269 40.7796 50.5579 49.723 50.5649Z" fill="#E64626"/>
<path d="M53.3463 49.4109V43.2013H60.4347C60.8547 43.2013 61.2187 43.4043 61.4497 43.7263C63.1229 41.4931 64.25 38.8119 64.7646 35.9486H53.3534V29.9769L49.727 29.8789L46.1076 29.9769V35.9486H34.6895C35.1583 38.7712 36.2961 41.4405 38.0078 43.7334C38.2318 43.4183 38.6028 43.2083 39.0579 43.2083H46.1426V49.4179C47.3213 49.7451 48.5388 49.9111 49.762 49.9114V49.964H49.769V49.9114C50.9933 49.9114 52.2121 49.7454 53.3918 49.4179" fill="black"/>
<path d="M61.3995 41.6958L59.8523 40.9957L59.3028 42.5989L58.7287 40.9887L57.206 41.7307L57.9061 40.1836L56.3029 39.634L57.9132 39.0565L57.1711 37.5304L58.7182 38.2304L59.2678 36.6307L59.8418 38.2409L61.3645 37.4988L60.6644 39.0495L62.2676 39.6025L60.6574 40.1766L61.3995 41.6958ZM38.0345 41.6958L39.5818 40.9957L40.1313 42.5989L40.7053 40.9887L42.228 41.7307L41.528 40.1836L43.1276 39.634L41.5174 39.0565L42.2595 37.5304L40.7193 38.2304L40.1698 36.6307L39.5958 38.2409L38.0731 37.4988L38.7731 39.0495L37.1699 39.6025L38.7802 40.1766L38.0345 41.6958ZM51.8155 47.7794L50.2753 47.0793L49.7257 48.6895L49.1517 47.0723L47.629 47.8179L48.3291 46.2708L46.7259 45.7177L48.3361 45.1436L47.5941 43.621L49.1342 44.3211L49.6873 42.7179L50.2613 44.328L51.7805 43.5859L51.0804 45.1331L52.6836 45.6826L51.0734 46.2602L51.8155 47.7794ZM51.819 36.0322L50.2789 35.3322L49.7257 36.9352L49.1517 35.3251L47.6326 36.0672L48.3327 34.52L46.7295 33.9705L48.3396 33.3964L47.5975 31.8738L49.1377 32.5738L49.6873 30.9707L50.2613 32.5808L51.784 31.8387L51.0839 33.386L52.6871 33.939L51.0769 34.513L51.819 36.0322Z" fill="#E64626"/>
<path d="M54.7598 37.1406H55.4318V37.6306H54.7598V37.1406Z" fill="#E64626"/>
<path d="M54.7598 38.457H55.4318V38.947H54.7598V38.457Z" fill="#E64626"/>
<path d="M54.7598 39.7773H55.4318V40.2673H54.7598V39.7773Z" fill="#E64626"/>
<path d="M54.7598 41.0898H55.4318V41.5798H54.7598V41.0898Z" fill="#E64626"/>
<path d="M53.7335 38.2712H50.7826V37.8231H53.7335V38.2712ZM53.7335 39.4962H50.7826V39.0482H53.7335V39.4962ZM53.7335 40.7214H50.7826V40.2733H53.7335V40.7214ZM51.4126 36.843C51.3566 36.836 51.2867 36.843 51.2307 36.843C51.0721 36.8402 50.9144 36.8691 50.7671 36.9281C50.6198 36.9871 50.4859 37.075 50.373 37.1865C50.2602 37.298 50.1707 37.431 50.11 37.5776C50.0493 37.7242 50.0186 37.8815 50.0196 38.0401V42.0165C50.2436 41.754 50.5796 41.5895 50.9506 41.5895H54.4019V36.843H51.4126Z" fill="#E64626"/>
<path d="M44.678 37.1426H44.0059V37.6326H44.678V37.1426Z" fill="#E64626"/>
<path d="M44.678 38.459H44.0059V38.949H44.678V38.459Z" fill="#E64626"/>
<path d="M44.678 39.7773H44.0059V40.2673H44.678V39.7773Z" fill="#E64626"/>
<path d="M44.678 41.0898H44.0059V41.5798H44.678V41.0898Z" fill="#E64626"/>
<path d="M45.7001 37.8152H48.6544V38.2633H45.7001V37.8152ZM45.7001 39.0404H48.6544V39.4884H45.7001V39.0404ZM45.7001 40.2654H48.6544V40.7135H45.7001V40.2654ZM45 36.8351V41.5816H48.4514C48.826 41.5816 49.1585 41.7461 49.3825 42.0087V38.0322C49.3835 37.8738 49.3528 37.717 49.2923 37.5706C49.2319 37.4243 49.1428 37.2913 49.0303 37.1799C48.9178 37.0684 48.7842 36.9804 48.6373 36.9212C48.4904 36.862 48.3332 36.8328 48.1749 36.8351C48.1154 36.8351 48.0489 36.8281 47.9928 36.8351H45Z" fill="#E64626"/>
<path d="M49.7206 29.2129C56.3712 29.2129 63.3125 30.2735 65.0031 30.543V17.7597L63.8725 17.4096L60.2951 16.5556C57.3548 15.936 53.4624 15.3164 49.724 15.3164C44.1129 15.3129 38.1798 16.7165 35.572 17.4096L34.4414 17.7597V30.543C36.1286 30.27 43.1049 29.2129 49.7206 29.2129Z" fill="black"/>
<path fill-rule="evenodd" clip-rule="evenodd" d="M47.7244 18.7394C47.8784 18.8764 48.0064 19.04 48.1024 19.2224C48.1094 19.2435 48.1514 19.2645 48.1724 19.2435C48.2529 19.1735 48.3054 19.0789 48.3054 18.9634C48.3054 18.7604 48.1409 18.6029 47.9448 18.6029C47.8667 18.6013 47.7904 18.626 47.7279 18.673M45.1166 21.8582C45.1166 21.6937 44.819 20.9937 44.7035 20.8012C44.4585 20.3811 44.8225 19.156 45.3966 19.0055C45.5191 18.9775 45.5856 18.7954 45.4876 18.6974C45.2426 18.4594 44.9696 18.1584 44.602 18.1584C44.154 18.1584 43.79 18.5224 43.79 18.974C43.79 19.4885 44.1889 19.569 44.1574 19.709C43.9964 20.1886 43.9965 20.7066 44.21 21.0741C44.357 21.3296 44.4726 21.7392 44.5601 22.0262C44.6161 22.3273 44.7945 22.5863 45.0501 22.7263C45.1761 22.7963 45.1201 22.9013 45.1691 23.0063C45.1936 23.0553 45.2391 23.0904 45.2671 23.1184C45.3231 23.1604 45.2811 23.1709 45.2321 23.1639C44.854 23.1149 44.266 22.9539 44.0245 22.4464C43.8984 22.1733 43.4854 23.1359 43.2404 22.6773C42.9813 22.1873 42.8554 21.8198 42.7504 21.3297C42.6874 21.0567 42.5159 21.5222 42.4494 21.3577C42.3215 21.0477 42.2526 20.7164 42.2463 20.381C42.2463 19.1769 43.1283 18.1654 44.322 17.8889C44.553 17.8329 44.0525 17.4512 44.3816 17.4687C44.5916 17.4827 45.2916 17.4828 45.8166 17.7418C45.9216 17.7838 45.9777 17.5913 46.1772 17.4618C46.1947 17.4548 46.2402 17.4338 46.2823 17.4618C46.4923 17.5913 46.5622 17.8118 46.6672 17.7348C47.1923 17.4828 47.8854 17.4827 48.0919 17.4687C48.428 17.4477 47.9169 17.8329 48.1514 17.8889C49.3416 18.1689 50.2271 19.1769 50.2271 20.381C50.2197 20.7166 50.1497 21.0479 50.0206 21.3577C49.9506 21.5222 49.786 21.0567 49.723 21.3297C49.6227 21.7999 49.4566 22.2535 49.2295 22.6773C48.9845 23.1324 48.5749 22.1733 48.4454 22.4464C48.2144 22.9294 47.6753 23.0974 47.2973 23.1534C47.2518 23.1604 47.2133 23.1534 47.2624 23.1044C47.2834 23.0869 47.3743 22.9993 47.4023 22.8243C47.4023 22.8068 47.3953 22.7789 47.4373 22.7614C47.5805 22.6933 47.7057 22.5925 47.803 22.4673C47.9002 22.3421 47.9668 22.1958 47.9974 22.0402C48.0884 21.7462 48.2074 21.3226 48.3544 21.0601C48.6764 20.4861 48.2844 19.7895 48.3894 19.632C48.61 19.492 48.757 19.2365 48.757 18.9529C48.757 18.4979 48.3929 18.1373 47.9448 18.1373C47.6998 18.1373 47.4829 18.2424 47.3358 18.4174L47.3113 18.4384L47.1013 18.6834C47.0313 18.7779 47.0453 18.9494 47.1713 18.9844C47.7314 19.1245 48.0884 20.3845 47.8609 20.7871C47.7629 20.9691 47.4548 21.6412 47.4548 21.8373C47.4553 21.8973 47.4439 21.9568 47.4212 22.0124C47.3985 22.0681 47.3651 22.1186 47.3228 22.1612C47.2805 22.2039 47.2302 22.2377 47.1748 22.2608C47.1193 22.2839 47.0598 22.2957 46.9998 22.2957C46.8073 22.2957 46.6498 22.1768 46.5798 21.9982C46.7443 21.8827 47.0837 21.6832 47.0837 21.4732L47.0138 20.7906C47.2938 20.7556 47.4163 20.6051 47.4548 20.3426L47.5248 20.29C47.6158 20.206 47.6788 19.94 47.4793 20.0101C47.1993 20.0626 46.8843 20.0521 46.5693 20.1361C46.5273 20.1501 46.4992 20.1851 46.4887 20.2236C46.5433 20.5835 46.6134 20.9409 46.6988 21.2947C46.5517 21.3192 46.3277 21.3087 46.2717 21.3087C46.1374 21.3128 46.0032 21.3199 45.8692 21.3297C45.8832 21.1022 46.0652 20.2796 46.0652 20.2796C46.0722 20.2446 46.0651 20.2096 46.0441 20.1816C45.9846 20.1046 45.1796 20.0346 45.0711 20.0136C45.0256 20.0066 44.9801 20.0206 44.9521 20.0626C44.8716 20.1746 45.0116 20.3006 45.0991 20.3566C45.1341 20.6121 45.2671 20.7591 45.5366 20.7941C45.5401 20.8536 45.4667 21.4872 45.4667 21.4942C45.4667 21.7113 45.7991 21.8967 45.9671 21.9947C45.9111 22.1942 45.7572 22.3448 45.5717 22.3448C45.5116 22.3448 45.4521 22.3329 45.3967 22.3098C45.3413 22.2867 45.2909 22.2529 45.2486 22.2103C45.2063 22.1676 45.1729 22.1171 45.1503 22.0615C45.1276 22.0059 45.1161 21.9463 45.1166 21.8863M44.8576 18.7359C44.7876 18.6729 44.7036 18.6309 44.6056 18.6309C44.4025 18.6309 44.245 18.7919 44.245 18.9914C44.245 19.1069 44.2975 19.2085 44.378 19.2715C44.406 19.2925 44.4481 19.2785 44.4551 19.268C44.5601 19.0929 44.7 18.932 44.8576 18.8059C44.8716 18.7919 44.8856 18.7464 44.8611 18.7254M46.9052 22.8629C46.8177 23.0904 46.4957 23.0168 46.3207 23.1568C46.3032 23.1743 46.2507 23.1744 46.2367 23.1604C46.0617 23.0133 45.7466 23.0834 45.6416 22.8349C45.6346 22.8174 45.6347 22.7718 45.6767 22.7648C45.8992 22.74 46.1048 22.6341 46.2542 22.4673C46.2682 22.4498 46.3032 22.4393 46.3382 22.4743C46.4712 22.6249 46.6532 22.7298 46.8633 22.7648C46.8878 22.7718 46.9263 22.7893 46.8983 22.8593M54.4101 19.2364C54.4101 19.2364 55.1101 19.212 55.5651 18.8095C55.5651 18.8095 56.0552 18.6415 56.3352 18.9005C56.3702 18.9285 56.3703 19.0054 56.3003 19.0124C56.1809 19.0355 56.0677 19.0832 55.9677 19.1525C55.7227 19.3205 54.7216 19.73 54.4101 19.2364ZM41.0946 22.3308C40.8566 22.1207 41.3747 20.9306 40.2301 20.6401C40.0481 20.6296 40.3071 20.8502 40.2441 20.9062C39.9116 21.1862 39.999 21.2912 39.9815 21.4592C39.9745 21.5397 39.887 21.5292 39.8415 21.5187C39.5965 21.3542 38.9909 21.0286 38.4414 21.5467C38.3364 21.6447 38.6514 21.6623 38.6444 21.7218C38.5744 22.1068 38.8194 22.3168 39.005 22.4218C39.068 22.4498 39.0679 22.5268 39.0294 22.5723C38.9699 22.6353 38.8194 22.7334 38.7844 22.8944C38.7599 22.9994 38.3749 22.9643 38.4939 23.0869C39.082 23.7099 39.6841 23.3494 39.9291 23.1639C40.0936 22.9959 40.8041 23.1884 40.6886 23.5139C40.5486 23.969 40.5836 24.193 40.7026 24.116C40.8846 24.0005 40.9826 23.92 41.2347 23.92C41.2837 23.92 41.4203 23.948 41.3642 24.06C41.2767 24.27 41.1892 24.4625 41.2697 24.76C41.3047 24.886 41.3922 24.8581 41.4377 24.8091C41.7178 24.417 42.3338 24.459 42.6279 24.6166C43.0549 24.8966 44.273 25.3166 45.8692 23.7555C45.9182 23.71 45.9182 23.5349 45.7782 23.5874C45.3406 23.7624 44.8506 23.7974 44.0455 23.3879C43.9755 23.3529 43.6674 23.2479 43.5834 23.2269C42.5858 23.0099 41.5287 22.7018 41.0877 22.3168M61.1377 23.7064C61.9918 23.7099 61.1518 24.4135 61.1098 24.6166C61.0748 24.7671 61.2148 24.8966 61.3548 24.9771C61.4598 25.0331 61.4598 25.096 61.3828 25.1661C61.3058 25.2361 61.1867 25.2991 60.8927 25.3061C60.7667 25.3096 60.7702 25.3866 60.7807 25.4391C60.7982 25.5721 60.9452 25.6736 61.1482 25.6946C61.2602 25.7296 61.2778 25.7996 61.1833 25.9046C61.0152 26.0796 60.7842 26.0796 60.4027 26.0691C60.0387 26.0551 59.7481 26.4962 59.9616 26.6818C60.1016 26.8043 60.3957 27.0773 60.1437 27.8228C60.0631 28.0469 59.9266 27.6128 59.8111 27.6828C59.5136 27.8578 59.251 27.6373 59.111 27.4728C59.0515 27.4028 58.999 27.4028 58.9605 27.4728C58.838 27.6828 58.523 28.0539 57.8824 27.7074C57.7424 27.6374 57.4624 27.8894 57.4414 27.8019C57.3961 27.6252 57.4072 27.4387 57.4731 27.2686C57.539 27.0986 57.6565 26.9533 57.8089 26.8532C57.8334 26.8357 57.9139 26.7238 57.7739 26.7273C57.5569 26.7168 57.2944 26.6467 57.2664 26.3772C57.2629 26.3212 56.9863 26.3352 57.0038 26.2582C57.0738 25.8942 57.8719 25.6281 58.425 25.9956C58.8905 26.3107 59.4821 25.2501 59.055 24.7531C58.7505 24.396 56.9618 25.3936 56.3527 24.0985C56.1077 23.5734 56.4158 23.1289 56.1638 23.0939C55.9117 23.0589 54.7916 22.8139 53.5385 23.8185C52.8542 24.3797 52.0148 24.7183 51.1326 24.789C50.2505 24.8597 49.3679 24.659 48.603 24.2139C48.519 24.1894 48.4349 24.256 48.4734 24.34C48.5609 24.557 48.5224 24.7601 48.4174 24.9176C48.2004 25.2501 47.4373 25.5897 47.3043 25.6282C46.4152 25.8907 46.5062 26.5732 46.6042 26.8743C46.6322 26.9653 46.5972 27.0212 46.4992 27.0037C46.2262 26.9547 45.6802 26.7867 45.4631 26.2547C45.4386 26.1917 45.3792 26.1917 45.3022 26.2442C44.9731 26.4787 45.092 26.8218 45.1691 26.9723C45.1971 27.0353 45.1831 27.0913 45.0991 27.1018C44.7981 27.1368 44.5811 26.7867 44.3185 26.8077C44.1435 26.8252 43.9474 26.9548 43.8389 27.0318C43.7864 27.0668 43.7794 27.1508 43.8109 27.2488C44.1434 28.2359 43.601 28.2639 43.566 28.2499C43.531 28.2359 43.5484 28.0644 43.3909 28.0399C42.8553 28.0679 42.7049 27.7248 42.6734 27.4623C42.6629 27.3783 42.6313 27.3503 42.5753 27.3923C42.3653 27.5324 41.8753 27.8124 41.5252 27.4028C41.4797 27.3433 41.3327 27.4063 41.2522 27.4379C41.1717 27.4694 41.1822 27.3573 41.1822 27.3258C41.2172 26.7657 41.6022 26.5137 41.8123 26.4157C41.8893 26.3807 41.8997 26.3388 41.8367 26.2932C41.6687 26.1672 41.3712 25.8941 41.4657 25.6001C41.4797 25.5441 41.2137 25.4391 41.2802 25.3901C41.8927 24.9455 42.6803 25.6842 42.7853 25.7647C42.8903 25.8452 43.4854 25.8697 44.8751 25.0646C45.7852 24.557 46.2542 24.1335 46.5132 23.815C46.5482 23.78 46.6113 23.71 46.7023 23.71C47.2763 23.689 47.8434 23.605 48.288 23.2129C48.358 23.1359 48.4385 23.1779 48.47 23.2059C49.2856 23.7729 49.7056 22.5198 49.8701 21.9458C49.8911 21.8303 49.9156 21.7357 50.0381 21.7252L58.719 21.8477C58.719 21.8477 59.4681 21.9072 59.4295 21.4417C59.37 20.6926 56.2687 20.7136 53.955 21.0286C53.1149 21.1476 51.8897 21.2142 51.1722 20.9306C50.8914 20.8327 50.6528 20.6411 50.4966 20.3881C50.3566 20.0836 50.3917 19.898 50.4162 19.709C50.4512 19.569 50.5211 19.4289 50.6191 19.2644C51.2142 18.3473 52.5864 18.2774 53.0099 18.2774C53.0939 18.2774 53.1429 18.2424 53.1499 18.1864C53.1919 17.9764 53.3529 17.4863 53.927 17.4863C54.0766 17.4733 54.2225 17.433 54.3575 17.3673C54.4275 17.3393 54.4696 17.3533 54.4556 17.4163C54.4416 17.4793 54.403 17.5913 54.3155 17.6613C53.913 18.0114 53.9725 18.1653 54.018 18.2108C54.046 18.2353 54.0881 18.2213 54.1126 18.1933C55.3377 17.1292 56.0447 17.8328 56.2652 18.0639C56.3003 18.1059 56.3108 18.1689 56.2408 18.1864C55.4112 18.3719 55.0856 19.1139 53.3914 18.9914C53.1814 18.9774 51.7988 18.9074 51.3612 19.5375C51.1092 19.9015 51.2842 20.2445 52.0333 20.4126C52.6003 20.5386 53.9305 20.3426 54.5535 20.2936C55.1766 20.2446 57.8369 19.9436 59.2371 20.3146C59.8321 20.4826 60.6862 20.9587 60.5146 21.8548C60.4026 22.4218 59.8601 22.6424 59.8601 22.6424C59.8601 22.6424 58.32 23.7274 61.0782 23.7379M56.4053 25.3831C56.0672 25.6583 55.6354 25.7913 55.2011 25.7541C54.9456 25.7436 54.8161 25.8171 54.7566 25.8942C54.7216 25.9467 54.6936 26.0096 54.6866 26.0236C54.6516 26.1496 54.6971 26.2827 54.7671 26.3912C54.8371 26.4997 54.802 26.5417 54.704 26.5662C54.606 26.5907 54.4731 26.5942 54.214 26.4682C54.0985 26.4122 54.0671 26.4857 54.0531 26.5382C54.0111 26.6642 54.0881 26.8182 54.2631 26.9338C54.3506 27.0108 54.3331 27.0843 54.2 27.1333C53.969 27.2138 53.766 27.1088 53.43 26.9233C53.2339 26.8183 53.0799 26.7972 52.9469 26.9582C52.8699 27.0422 52.8768 27.1263 52.9223 27.1683C53.0554 27.2979 53.1324 27.5534 52.8033 27.9664C52.6983 28.0994 52.5794 27.7284 52.4814 27.7704C52.0333 27.9804 51.6692 27.7073 51.5362 27.5183C51.5082 27.4833 51.4452 27.4693 51.3682 27.5183C51.1442 27.6688 50.6681 27.9139 50.4826 27.4834C50.4546 27.4204 50.1921 27.5814 50.1956 27.4554C50.2061 26.7448 50.8257 26.6152 51.0882 26.5872C51.1687 26.5802 51.1862 26.5382 51.1442 26.4752C51.0392 26.3211 50.9132 26.1357 50.9832 25.9221C51.0287 25.7646 50.6262 25.7297 50.7907 25.6422C51.6063 25.2361 52.0613 26.0132 52.2013 26.0972C52.4393 26.2372 53.5034 25.8872 53.6365 25.3096C53.6645 25.1976 53.3914 25.1451 53.1114 25.0786C53.0624 25.0646 53.0344 25.0016 53.1254 24.9316C53.7695 24.452 54.2876 23.8289 55.4532 23.7064C55.5932 23.6924 55.6491 23.8114 55.6561 23.8674C55.6771 24.0424 55.7262 24.2245 55.8032 24.3926C55.9713 24.7531 56.1742 24.9736 56.3807 25.1381C56.4787 25.2151 56.4683 25.3271 56.4158 25.3761" fill="#E64626"/>
<path d="M49.7191 29.2129C43.0684 29.2129 36.1237 30.2735 34.4366 30.5431V17.7562L35.5672 17.4062C38.1714 16.7062 44.1081 15.3059 49.7191 15.3129C53.4575 15.3129 57.3499 15.9325 60.2902 16.5556L63.8676 17.4096L64.9982 17.7597V30.5466C63.3075 30.2736 56.3313 29.2164 49.7156 29.2164M65.4253 17.2032C65.4253 17.2032 57.3394 14.6969 49.7156 14.6934C42.0918 14.6899 34.02 17.1997 34.006 17.2032L33.7715 17.2731V33.0248C33.7715 42.1957 40.7722 50.5266 49.7156 50.5336V49.8685C45.4382 49.8685 41.6298 47.8733 38.8715 44.7685C36.1132 41.6637 34.426 37.4423 34.433 33.0213V31.1801L39.1165 30.5326C42.0673 30.1825 45.9597 29.8325 49.7156 29.8325C53.4715 29.8325 57.3639 30.1825 60.3217 30.5326L65.0017 31.1801V33.0213C64.9937 37.3454 63.4166 41.5195 60.5632 44.7685C57.8084 47.8768 53.9965 49.8685 49.7225 49.8685V50.5336C58.6975 50.5231 65.6598 42.1957 65.6633 33.0248V17.2731L65.4253 17.2032Z" fill="#E64626"/>
</svg>
