<svg width="100" height="100" viewBox="0 0 100 100" fill="none" xmlns="http://www.w3.org/2000/svg">
<g clip-path="url(#clip0_1973_966)">
<path d="M100 0H0V100H100V0Z" fill="white"/>
<path d="M45.8947 59.6658H47.1467V63.1826C47.1467 65.2269 45.9658 65.753 44.6582 65.753C43.3506 65.753 42.1734 65.2037 42.1734 63.2095V59.6658H43.4265V63.2446C43.4265 64.4154 44.0266 64.7597 44.6758 64.7597C45.4213 64.7597 45.8953 64.3556 45.8953 63.2446V59.6658H45.8947ZM64.129 63.0655H66.9804V62.0274H64.129V60.7039H67.1054V59.6663H62.9138V65.6694H67.1246L67.2737 64.6313H64.129V63.066V63.0655ZM76.0304 62.0096C75.0643 61.7824 74.8062 61.6109 74.8062 61.1825C74.8062 60.754 75.1268 60.5204 75.6622 60.5204C76.436 60.5204 76.6471 60.9245 76.7117 61.3044H77.9728C77.8884 60.433 77.2632 59.5789 75.6959 59.5789C74.2937 59.5789 73.5269 60.29 73.5269 61.3254C73.5269 62.1391 73.9335 62.725 75.5361 63.106C76.5642 63.3482 76.8512 63.5683 76.8512 64.0647C76.8512 64.5136 76.553 64.798 75.8503 64.798C75.1476 64.798 74.7185 64.525 74.5801 63.9142H73.319C73.4606 64.9971 74.2446 65.7524 75.7531 65.7524C77.2616 65.7524 78.1299 65.0003 78.1299 63.912C78.1299 63.072 77.7564 62.4218 76.0299 62.009M81.2234 60.7033H83.037V65.6688H84.2896V60.7033H86.0968V59.6658H81.2234V60.7033ZM89.3068 62.4477C89.0113 61.8046 88.3973 60.5765 87.9324 59.6652H86.5168L88.5694 63.3504C88.6089 63.414 88.618 63.4755 88.618 63.5419V65.6683H89.8711V63.5241C89.8711 63.4038 89.8941 63.3768 89.9181 63.3342L92 59.6652H90.6903C90.2328 60.5425 89.5654 61.8261 89.3073 62.4477M72.5581 64.5217C72.5581 64.9259 72.5602 65.3888 72.6436 65.6688H71.4562C71.3509 65.4077 71.3333 64.9571 71.3333 64.3253V64.2336C71.3333 63.5651 71.1639 63.25 70.1983 63.25H69.3278V65.6688H68.1036V59.6658H70.6963C71.9874 59.6658 72.6821 60.3839 72.6821 61.3114C72.6821 62.1143 72.2471 62.554 71.8078 62.731C72.1156 62.8416 72.5581 63.1561 72.5581 64.2277V64.5217ZM71.4177 61.4517C71.4177 60.9548 71.0955 60.6747 70.4548 60.6747H69.3284V62.2416H70.4201C71.1383 62.2416 71.4177 61.9659 71.4177 61.4517ZM79.1661 65.6688H80.4181V59.6658H79.1661V65.6688ZM54.5274 65.6688H55.7795V59.6658H54.5274V65.6688ZM59.9967 62.4741C59.7119 63.3261 59.4719 64.0728 59.3506 64.6286H59.333C59.1962 64.02 58.9857 63.2959 58.7147 62.4542L57.8186 59.6658H56.4752L58.5774 65.6688H60.0533L62.2122 59.6658H60.9356L59.9967 62.4741ZM52.0485 61.4841C52.0485 62.4687 52.0474 63.5047 52.1132 64.1403H52.0977C51.8198 63.4874 50.4144 61.0179 49.6642 59.6658H48.1081V65.6688H49.2522V63.8041C49.2522 62.7277 49.2388 61.51 49.1955 60.9736H49.211C49.5113 61.6659 51.061 64.4872 51.7092 65.6688H53.1835V59.6658H52.0474V61.4841H52.0485ZM42.1675 56.6821H47.773V37.8701H42.1675V56.6821ZM86.3972 37.8696V49.6506C86.3972 51.5946 85.2002 52.8032 83.2754 52.8032C81.3506 52.8032 80.1531 51.5946 80.1531 49.6506V37.8696H74.5518V49.8762C74.5518 54.4208 77.8938 57.2437 83.2754 57.2437C88.657 57.2437 91.9995 54.4208 91.9995 49.8762V37.8696H86.3972ZM54.6391 42.8701H54.8978L58.5395 56.6821H63.4765L66.8745 42.8701H67.115L67.1139 56.6821H72.215V37.8696H63.9606L61.1472 50.7152H61.0136L57.8988 37.8696H49.988V56.6821H54.6418L54.6391 42.8701ZM19.7561 34.6376L20.7345 34.834L20.6025 33.9594C20.5267 33.4523 20.6731 32.9386 21.0038 32.5496C21.3309 32.167 21.8038 31.9469 22.3008 31.9469C23.2439 31.9469 24.0118 32.7266 24.0118 33.6848C24.0118 33.7749 24.0075 33.8634 23.992 33.9611L23.7703 35.4448L24.691 35.6299L24.9176 34.1094C24.9416 33.967 24.9496 33.8267 24.9496 33.6848C24.9496 32.2043 23.7612 31 22.3002 31C21.5291 31 20.797 31.3405 20.2926 31.9329C19.7834 32.5302 19.5578 33.3211 19.6749 34.1019L19.7556 34.6376H19.7561ZM20.998 66.2294C13.7247 65.555 8 59.3528 8 51.7856C8 45.4659 11.9917 40.0898 17.5406 38.0892C17.7127 38.2915 17.9692 38.5548 18.2941 38.83L18.277 38.8208C17.7506 38.9843 17.0394 39.3064 17.0394 39.3064C15.1172 40.147 13.4244 41.4274 12.0922 43.0325C12.5929 43.2969 13.4319 43.6999 14.5642 44.1057C14.8827 43.2915 15.2524 42.5334 15.6623 41.8385C15.7035 41.8995 15.9274 42.2259 16.31 42.5534L16.3164 42.5464C15.9931 43.1215 15.696 43.7372 15.4368 44.3992C15.3246 44.6927 15.2209 44.9862 15.1274 45.2895C14.5268 47.0894 14.1703 49.1359 14.1329 51.3152C14.1239 51.4759 14.1239 51.6276 14.1239 51.7889C14.1239 51.9502 14.1239 52.1013 14.1329 52.2626C14.18 54.6026 14.5834 56.8002 15.2776 58.7048C15.3807 59.0081 15.4934 59.3113 15.6153 59.5951C16.8539 62.5162 18.7659 64.5741 20.9745 65.1773L20.999 66.2299L20.998 66.2294ZM8.96133 51.3152H13.1941C13.2315 49.0323 13.6162 46.8817 14.2446 44.9862C12.9632 44.5281 12.0302 44.0695 11.5145 43.7938C9.98785 45.9207 9.05698 48.509 8.96133 51.3152ZM11.7801 60.1373C12.6629 59.7014 13.5366 59.3145 14.3953 59.0075C13.6723 57.0085 13.2411 54.7062 13.1941 52.2621H8.96186C9.06393 55.2258 10.0969 57.9478 11.7801 60.1373ZM18.0878 64.676C16.7364 63.5468 15.5821 61.8974 14.733 59.8886C13.9668 60.1632 13.1871 60.5075 12.4037 60.8868C13.9326 62.6058 15.8798 63.9271 18.0883 64.6766M28.7185 39.9285C28.4914 42.7843 24.9405 43.2942 24.1791 43.264L24.1497 44.4521C23.8627 44.4121 23.5661 44.3927 23.2792 44.3927L23.3086 40.358C23.3086 40.358 23.7441 40.358 24.2582 40.2182C24.862 40.0585 25.554 39.7191 25.7517 38.9697C24.5056 39.3296 23.4961 39.5589 22.5963 39.5184C18.6799 39.369 17.7501 36.9421 17.6512 36.4829C17.1863 36.3232 16.5039 36.1835 15.525 36.1435H15.4357C15.1392 36.1435 14.5652 36.1835 14.1602 36.2833C14.0517 36.2833 14.0811 36.2234 14.1009 36.1835C14.5856 35.864 15.0905 35.7443 15.3967 35.6941C16.1678 35.5846 16.8897 35.6142 17.5919 35.8036C17.6021 35.584 17.6614 35.2047 17.7207 35.0051L25.0992 36.6027C25.1388 36.6027 28.9269 37.2917 28.7191 39.9285M21.815 36.7727L20.2226 36.2131L18.6991 36.2833L20.1927 36.8628L21.815 36.7727ZM23.1103 45.2306L21.597 45.201C21.597 45.201 19.708 45.2306 19.708 44.2724C19.708 43.6929 20.143 43.4733 20.4299 43.3929L20.4593 44.1925C20.6672 44.2524 20.9542 44.3123 21.3303 44.3323L21.2513 40.3574L20.6277 40.3671C20.5491 40.3671 20.4593 40.3671 20.3509 40.3768C19.2436 40.5069 16.5729 41.3459 16.5729 44.2719V44.2816C16.5729 45.8889 17.3744 46.8676 18.3929 47.4369C19.4211 48.0163 20.6677 48.1858 21.5478 48.1858L23.0612 48.216C23.0612 48.216 24.9507 48.1858 24.9507 49.1445C24.9507 50.0035 24.0107 50.0736 23.991 50.0736L24.0204 49.1246C23.8429 49.0944 23.1408 49.0647 23.1408 49.0647L23.0318 54.0485C23.3187 54.0582 23.6153 54.0782 23.9023 54.1181L23.9226 53.0595H24.031C24.8721 53.0595 28.0858 52.3608 28.0858 49.1451C28.0858 45.9294 24.8812 45.2301 23.1109 45.2301M23.6746 62.7385H23.7339C24.5745 62.7385 27.957 62.0393 27.957 58.8235C27.957 55.6078 24.6434 54.9091 23.0019 54.9091H21.4094C21.3998 54.9091 19.7085 54.9496 19.7085 53.98C19.7085 53.1016 20.6677 53.0514 20.6779 53.0514L20.6977 54.0393L21.5778 54.0593L21.4591 49.0366C21.1626 49.0269 20.8756 49.0167 20.5988 48.987L20.6186 50.0656C19.7775 50.0656 16.4051 50.7643 16.4051 53.98C16.4051 57.1957 19.7187 57.895 21.3603 57.895H22.9522C22.9623 57.895 24.6536 57.8043 24.6536 58.8235C24.6536 59.5724 23.9616 59.7127 23.7537 59.7424L23.7831 58.8802C23.7831 58.8802 23.4213 58.7216 22.9025 58.7485L22.6951 67.8912C22.6951 67.8912 22.6855 67.9711 22.6257 68.0207C22.5562 68.1006 22.4082 68.1205 22.3093 68.1205C22.0517 68.1205 21.9235 68.0304 21.9133 67.8713L21.6964 58.7458C21.6964 58.7458 21.0535 58.7361 20.8254 58.7162L20.8553 59.7823H17.7495C17.3637 59.7823 17.2157 60.2917 17.5417 60.5015L20.9248 62.6786L21.0033 66.224L21.0434 67.8815C21.0434 67.922 21.0434 68.3212 21.3501 68.6504C21.5083 68.8106 21.7947 69 22.3093 69C22.8239 69 23.0906 68.8101 23.2493 68.6504C23.5656 68.3212 23.5656 67.9214 23.5656 67.8912L23.6052 66.2337V66.2294L23.6249 65.1147L23.6746 62.738V62.7385ZM36.6005 51.7856C36.6005 59.3523 30.8768 65.5539 23.6052 66.2299L23.6271 65.1897C25.8495 64.5854 27.77 62.4979 29.0039 59.5384C29.1262 59.2541 29.2385 58.96 29.3421 58.6568C30.0176 56.7716 30.4216 54.5832 30.4675 52.2621C30.4766 52.1013 30.4766 51.9497 30.4766 51.7883C30.4766 51.627 30.4766 51.4759 30.4675 51.3146C30.4301 49.117 30.0641 47.0516 29.464 45.242C29.3603 44.9387 29.2572 44.6447 29.1353 44.3512C28.8938 43.7356 28.6191 43.1582 28.322 42.6171C28.555 42.4018 28.7677 42.1541 28.9515 41.8725C29.3437 42.5426 29.6996 43.2683 30.008 44.0479C30.8148 43.7534 31.6351 43.3913 32.4618 42.9796C31.6153 41.9696 30.6225 41.0939 29.5233 40.372C29.6408 39.7974 29.5548 39.2745 29.5548 39.2745C33.764 41.8083 36.6015 46.4608 36.6015 51.7851M31.4059 51.3152H35.6391C35.5435 48.489 34.5987 45.8846 33.0528 43.7496C32.1379 44.2104 31.2301 44.6177 30.3457 44.949C30.9837 46.8531 31.3685 49.0226 31.4059 51.3152ZM32.2507 60.8258C31.711 60.5544 30.9153 60.1918 29.8947 59.832C29.0413 61.865 27.8769 63.5354 26.5132 64.6755C28.7474 63.9174 30.7144 62.574 32.2502 60.8258M35.6386 52.2621H31.4059C31.3588 54.6873 30.9361 56.9702 30.2324 58.9503C31.4123 59.3674 32.302 59.7861 32.8641 60.0775C34.5207 57.8982 35.5371 55.1994 35.6381 52.2621" fill="#26008B"/>
</g>
<defs>
<clipPath id="clip0_1973_966">
<rect width="100" height="100" fill="white"/>
</clipPath>
</defs>
</svg>
