<svg width="131" height="36" viewBox="0 0 131 36" fill="none" xmlns="http://www.w3.org/2000/svg">
<path d="M10.8945 27.0757C14.645 27.0757 17.574 25.254 19.11 22.0749L15.2165 20.1104C14.395 21.7535 12.7876 22.6822 10.8587 22.6822C8.32266 22.6822 6.50096 21.1105 6.14376 18.753H19.2886V17.2528C19.2886 12.4307 16.0381 8.28719 10.4301 8.28719C4.96502 8.28719 1.25018 12.5021 1.25018 17.61C1.25018 23.2537 5.39365 27.0757 10.8945 27.0757ZM6.35808 15.9312C6.71528 14.1452 8.17978 12.7164 10.3944 12.7164C12.5376 12.7164 14.0378 14.1095 14.2521 15.9312H6.35808ZM29.2538 27.0757C31.6827 27.0757 33.6116 26.1113 34.8617 24.5396V26.6113H39.6839V17.7172C39.6839 12.3949 35.6118 8.39435 30.0753 8.39435C24.6459 8.39435 20.5025 12.645 20.5025 17.7172C20.5025 22.8608 24.1101 27.0757 29.2538 27.0757ZM30.0753 22.325C27.4678 22.325 25.5746 20.2532 25.5746 17.7529C25.5746 15.2525 27.4678 13.1808 30.0753 13.1808C32.6828 13.1808 34.6117 15.2525 34.6117 17.7529C34.6117 20.2532 32.6828 22.325 30.0753 22.325ZM49.2517 27.1114C53.288 27.1114 56.7528 24.8253 56.7528 21.2534C56.7528 14.6096 47.0371 16.8956 47.0371 14.038C47.0371 13.1093 47.9658 12.5021 49.216 12.5021C50.6448 12.5021 51.9307 13.1093 52.5022 14.3952L56.2527 12.2878C55.1811 10.2518 52.8951 8.46579 49.1088 8.46579C44.751 8.46579 41.9649 10.9662 41.9649 14.1452C41.9649 20.9676 51.6806 18.503 51.6806 21.3606C51.6806 22.3964 50.6448 23.0394 49.0017 23.0394C47.2157 23.0394 46.0369 22.4321 45.2868 21.0034L41.5363 23.1108C43.0008 25.7541 45.5726 27.1114 49.2517 27.1114ZM67.1812 35.2555C73.0035 35.2555 76.9684 31.2192 76.9684 25.0397V8.93014H71.8248V17.61C71.8248 20.1461 70.1102 22.0392 67.8242 22.0392C65.3238 22.0392 63.9308 20.289 63.9308 17.7172V8.93014H58.93V17.8958C58.93 23.1465 61.4304 26.8256 67.1812 26.8256C69.3601 26.8256 70.9318 26.0398 71.8962 24.611V25.1111C71.8962 28.3973 70.146 30.6119 67.1098 30.6119C64.8238 30.6119 63.2521 29.4332 62.4663 27.8972L58.2871 30.1833C59.8945 33.4695 62.9663 35.2555 67.1812 35.2555ZM88.8446 22.1821C86.2371 22.1821 84.9512 19.8603 84.9512 17.1456V8.93014H79.879V17.7172C79.879 22.8965 82.9509 27.0757 88.8446 27.0757C94.7741 27.0757 97.8459 22.8965 97.8459 17.7172V8.93014H92.7738V17.1099C92.7738 19.8603 91.4521 22.1821 88.8446 22.1821ZM109.504 13.3594C112.397 13.3594 113.719 15.6811 113.719 18.3958V26.6113H118.791V17.7886C118.791 12.6093 115.683 8.43007 109.504 8.43007C103.324 8.43007 100.288 12.645 100.288 17.7886V26.6113H105.36V18.3958C105.36 15.6811 106.646 13.3594 109.504 13.3594ZM124.675 6.2869C126.389 6.2869 127.782 4.89383 127.782 3.14358C127.782 1.42904 126.389 0.00025174 124.675 0.00025174C122.96 0.00025174 121.531 1.42904 121.531 3.14358C121.531 4.89383 122.96 6.2869 124.675 6.2869ZM122.139 8.93014V26.6113H127.211V8.93014H122.139Z" fill="black"/>
<rect x="29" y="24" width="10.6" height="3.1" fill="black"/>
<path fill-rule="evenodd" clip-rule="evenodd" d="M39.6808 26.6115H39.7001V17.7173C39.7001 12.3951 35.6281 8.39453 30.0916 8.39453C24.6622 8.39453 20.5187 12.6452 20.5187 17.7173C20.5187 22.7028 23.908 26.8158 28.8 27.064V27.1H39.6808V26.6115ZM25.5909 17.7531C25.5909 20.2534 27.4841 22.3252 30.0916 22.3252C32.6991 22.3252 34.628 20.2534 34.628 17.7531C34.628 15.2527 32.6991 13.181 30.0916 13.181C27.4841 13.181 25.5909 15.2527 25.5909 17.7531Z" fill="#8B76DD"/>
</svg>
