<svg width="303" height="80" viewBox="0 0 303 80" fill="none" xmlns="http://www.w3.org/2000/svg">
<g clip-path="url(#clip0_1712_2959)">
<path d="M79.2795 33.7007C79.2795 30.5041 80.9389 28.8906 83.3755 28.8906C84.7293 28.8906 85.5328 29.1523 86.1004 29.5229V31.1626H84.9039C84.6769 30.164 84.3362 29.6756 83.3362 29.6756C81.9782 29.6756 81.1616 30.6219 81.1616 33.6352C81.1616 36.8056 82.0437 37.5251 83.4149 37.5251C84.4542 37.5251 84.8472 37.0803 85.0349 36.025H86.1659V37.6036C85.6638 37.9699 84.69 38.3014 83.3755 38.3014C80.6507 38.3014 79.2795 36.5919 79.2795 33.7007Z" fill="#545659"/>
<path d="M90.131 38.3059C88.1965 38.3059 86.9564 37.0456 86.9564 34.8608C86.9564 32.676 88.2446 31.3765 90.1703 31.3765C92.0961 31.3765 93.3406 32.6673 93.3406 34.8215C93.3406 37.1372 91.9171 38.3059 90.131 38.3059ZM90.131 32.1222C89.0786 32.1222 88.7074 32.9377 88.7074 34.8041C88.7074 36.6706 89.0612 37.5776 90.1834 37.5776C91.1179 37.5776 91.5939 36.6836 91.5939 34.8172C91.5939 32.8592 91.0917 32.1222 90.131 32.1222Z" fill="#545659"/>
<path d="M96.4934 36.6749C96.4934 37.438 96.6244 37.595 97.3886 37.6212V38.1488H93.9912V37.6212C94.7292 37.5819 94.8864 37.4511 94.8864 36.701V30.5086C94.8864 29.5492 94.6768 29.4184 93.9388 29.3922V28.8907L96.096 28.5244H96.2969C96.3755 28.7207 96.4934 29.1567 96.4934 29.8239V36.6749Z" fill="#545659"/>
<path d="M104.275 37.4771V37.9917C104.039 38.1225 103.603 38.2272 103.131 38.2272C102.262 38.2272 101.948 37.8609 101.856 37.307C101.629 37.7388 101.052 38.3318 100.039 38.3318C98.8297 38.3318 97.9345 37.7126 97.9345 36.4261C97.9345 34.8606 99.1965 34.2719 101.266 34.2719C101.424 34.2719 101.646 34.2719 101.821 34.285V33.6919C101.821 32.6278 101.572 32.1525 100.769 32.1525C99.8472 32.1525 99.5983 32.6932 99.4935 33.3517H98.3363V32.0914C98.9694 31.7382 100.009 31.3806 100.996 31.3806C102.498 31.3806 103.445 32.0522 103.445 33.5916C103.445 33.9841 103.393 35.1048 103.393 36.2997C103.393 37.2852 103.524 37.4466 104.288 37.4815M99.2577 30.3079L101.681 28.062L102.55 29.4924L99.5633 30.7701L99.2577 30.3079ZM101.328 34.9522C100.157 34.9522 99.6026 35.3446 99.6026 36.2386C99.6026 37.0803 99.9301 37.3288 100.55 37.3288C101.026 37.3288 101.485 37.0279 101.747 36.618L101.786 34.9609C101.681 34.9609 101.432 34.9478 101.328 34.9478" fill="#545659"/>
<path d="M104.686 38.1444V37.6167C105.397 37.5775 105.555 37.4467 105.555 36.6966V33.5263C105.555 32.5669 105.384 32.436 104.672 32.4055V31.9084L106.908 31.42H107.157V36.6922C107.157 37.4423 107.262 37.5862 108.013 37.6124V38.14H104.681L104.686 38.1444ZM106.266 30.6394C105.712 30.6394 105.266 30.1902 105.266 29.6407C105.266 29.0913 105.716 28.6421 106.279 28.6421C106.843 28.6421 107.279 29.0913 107.279 29.6407C107.279 30.1902 106.83 30.6394 106.266 30.6394Z" fill="#545659"/>
<path d="M108.611 37.7521V36.3959H109.716C109.821 37.303 110.271 37.5908 111.07 37.5908C111.769 37.5908 112.293 37.3161 112.293 36.6183C112.293 35.9991 111.952 35.7636 111.266 35.6066L110.358 35.3973C109.319 35.1618 108.659 34.5687 108.659 33.4654C108.659 32.083 109.777 31.3896 111.148 31.3896C112.253 31.3896 112.952 31.6905 113.284 31.8519V33.1514H112.245C112.127 32.4275 111.721 32.1266 111.022 32.1266C110.323 32.1266 109.943 32.4406 109.943 33.0075C109.943 33.4916 110.196 33.7576 110.852 33.9015L111.72 34.0977C112.996 34.403 113.655 35.031 113.655 36.1125C113.655 37.4818 112.642 38.306 110.943 38.306C109.629 38.306 108.969 37.9484 108.611 37.7521Z" fill="#545659"/>
<path d="M118 32.4406H116.616V36.1735C116.616 37.159 116.747 37.473 117.406 37.473C117.642 37.473 117.869 37.4207 118.157 37.3291L118.314 37.9091C117.843 38.1838 117.341 38.3277 116.747 38.3277C115.642 38.3277 115.009 37.8655 115.009 36.4875V32.4406H114.218V31.8737L115.1 31.5466C115.192 30.9448 115.389 30.2732 115.707 29.7717L116.734 29.6147C116.668 30.0857 116.616 30.8925 116.616 31.5597H118.196L118 32.4406Z" fill="#545659"/>
<path d="M124.031 36.8188L124.319 37.3203C123.646 37.9265 122.817 38.3059 121.764 38.3059C119.79 38.3059 118.633 37.0325 118.633 34.8215C118.633 32.6106 119.882 31.3765 121.646 31.3765C123.528 31.3765 124.437 32.5626 124.437 34.573V35.0352H120.341C120.38 36.7185 120.961 37.3203 122.275 37.3203C122.83 37.3203 123.498 37.1241 124.026 36.8188M120.358 34.2546H122.808C122.808 32.6629 122.48 32.1135 121.651 32.1135C120.873 32.1135 120.454 32.6106 120.362 34.2546" fill="#545659"/>
<path d="M134.424 36.7011C134.424 37.4512 134.568 37.582 135.24 37.6213V38.149H131.961V37.6213C132.712 37.5951 132.817 37.4381 132.817 36.7535V33.6529C132.817 32.8636 132.489 32.5758 131.908 32.5758C131.223 32.5758 130.777 32.8505 130.354 33.2212V36.7578C130.354 37.4425 130.459 37.5995 131.21 37.6256V38.1533H127.878V37.6256C128.59 37.5864 128.747 37.4556 128.747 36.7055V33.5352C128.747 32.5758 128.576 32.4449 127.865 32.4144V31.9129L129.799 31.3853H130C130.079 31.5553 130.275 32.0568 130.301 32.554C130.882 31.9216 131.55 31.3983 132.581 31.3983C133.611 31.3983 134.424 32.0307 134.424 33.2909V36.6968V36.7011Z" fill="#545659"/>
<path d="M142.105 37.4773V37.9919C141.865 38.1228 141.432 38.2274 140.956 38.2274C140.087 38.2274 139.773 37.8611 139.677 37.3073C139.45 37.739 138.873 38.3321 137.86 38.3321C136.651 38.3321 135.755 37.7128 135.755 36.4264C135.755 34.8608 137.018 34.2721 139.087 34.2721C139.245 34.2721 139.467 34.2721 139.642 34.2852V33.6921C139.642 32.6281 139.393 32.1527 138.59 32.1527C137.668 32.1527 137.415 32.6935 137.314 33.352H136.157V32.0917C136.79 31.7384 137.83 31.3809 138.817 31.3809C140.319 31.3809 141.266 32.0524 141.266 33.5918C141.266 33.9843 141.214 35.105 141.214 36.2999C141.214 37.2855 141.345 37.4468 142.109 37.4817M139.153 34.9524C137.983 34.9524 137.428 35.3449 137.428 36.2389C137.428 37.0805 137.755 37.3291 138.376 37.3291C138.852 37.3291 139.31 37.0282 139.572 36.6183L139.611 34.9611C139.507 34.9611 139.258 34.948 139.153 34.948" fill="#545659"/>
<path d="M152.284 29.0479L152.402 31.3068H151.585C151.349 30.1904 151.245 29.8502 150.428 29.8502H149.651V36.6488C149.651 37.4381 149.93 37.5951 150.755 37.6082V38.1446H146.86V37.6082C147.69 37.5951 147.965 37.4338 147.965 36.6488V29.8502H147.188C146.371 29.8502 146.279 30.1904 146.031 31.3068H145.214L145.345 29.0479H152.284Z" fill="#545659"/>
<path d="M156.672 31.372C156.843 31.372 157.013 31.3982 157.122 31.4374L156.79 33.1207C156.62 33.0553 156.476 33.0292 156.21 33.0292C155.17 33.0292 154.865 33.3955 154.865 34.5424V36.701C154.865 37.4511 154.996 37.595 155.943 37.6211V38.1488H152.389V37.6211C153.1 37.5819 153.258 37.4511 153.258 36.701V33.5307C153.258 32.5713 153.087 32.4404 152.375 32.4099V31.9084L154.31 31.3808H154.511C154.603 31.577 154.812 32.1832 154.825 32.9856C155.244 31.9608 155.961 31.3677 156.668 31.3677" fill="#545659"/>
<path d="M157.384 38.1443V37.6166C158.096 37.5774 158.253 37.4466 158.253 36.6965V33.5305C158.253 32.5711 158.079 32.4403 157.371 32.4098V31.9083L159.607 31.4198H159.856V36.6921C159.856 37.4422 159.961 37.5861 160.712 37.6123V38.1399H157.38L157.384 38.1443ZM157.397 30.3078L159.821 28.0576L160.69 29.4923L157.699 30.7657L157.397 30.3078Z" fill="#545659"/>
<path d="M164.511 38.3059C162.576 38.3059 161.336 37.0456 161.336 34.8608C161.336 32.676 162.624 31.3765 164.55 31.3765C166.476 31.3765 167.72 32.6673 167.72 34.8215C167.72 37.1372 166.297 38.3059 164.511 38.3059ZM164.511 32.1222C163.454 32.1222 163.087 32.9377 163.087 34.8041C163.087 36.6706 163.441 37.5776 164.563 37.5776C165.498 37.5776 165.974 36.6836 165.974 34.8172C165.974 32.8592 165.472 32.1222 164.511 32.1222Z" fill="#545659"/>
<path d="M174.952 36.7011C174.952 37.4512 175.096 37.582 175.769 37.6213V38.149H172.493V37.6213C173.24 37.5951 173.349 37.4381 173.349 36.7535V33.6529C173.349 32.8636 173.022 32.5758 172.441 32.5758C171.755 32.5758 171.31 32.8505 170.886 33.2212V36.7578C170.886 37.4425 170.991 37.5995 171.742 37.6256V38.1533H168.41V37.6256C169.122 37.5864 169.279 37.4556 169.279 36.7055V33.5352C169.279 32.5758 169.105 32.4449 168.397 32.4144V31.9129L170.332 31.3853H170.528C170.607 31.5553 170.808 32.0568 170.834 32.554C171.41 31.9216 172.083 31.3983 173.109 31.3983C174.135 31.3983 174.952 32.0307 174.952 33.2909V36.6968V36.7011Z" fill="#545659"/>
<path d="M179.537 38.3056C177.603 38.3056 176.362 37.0454 176.362 34.8606C176.362 32.6758 177.651 31.3762 179.576 31.3762C181.502 31.3762 182.747 32.667 182.747 34.8213C182.747 37.1369 181.323 38.3056 179.537 38.3056ZM177.904 30.3078L180.327 28.0576L181.196 29.4923L178.21 30.7701L177.908 30.3078H177.904ZM179.537 32.1219C178.48 32.1219 178.114 32.9374 178.114 34.8039C178.114 36.6703 178.467 37.5774 179.59 37.5774C180.524 37.5774 181 36.6834 181 34.817C181 32.8589 180.498 32.1219 179.537 32.1219Z" fill="#545659"/>
<path d="M183.437 38.1444V37.6167C184.148 37.5775 184.306 37.4467 184.306 36.6966V33.5263C184.306 32.5669 184.131 32.436 183.424 32.4055V31.9084L185.659 31.42H185.908V36.6922C185.908 37.4423 186.013 37.5862 186.764 37.6124V38.14H183.432L183.437 38.1444ZM185.017 30.6394C184.463 30.6394 184.017 30.1902 184.017 29.6407C184.017 29.0913 184.463 28.6421 185.031 28.6421C185.598 28.6421 186.031 29.0913 186.031 29.6407C186.031 30.1902 185.585 30.6394 185.017 30.6394Z" fill="#545659"/>
<path d="M190.004 38.2927C188.555 38.2927 187.384 37.3072 187.384 34.9131C187.384 32.519 188.541 31.4026 190.24 31.4026C190.9 31.4026 191.52 31.6555 191.913 32.1134V30.5086C191.913 29.5492 191.716 29.4184 191.004 29.3922V28.8907L193.214 28.5244H193.52V36.2562C193.52 37.2156 193.69 37.3334 194.454 37.3726V37.8436L192.533 38.3189H192.336C192.284 38.2535 192.061 37.8174 192.009 37.2156C191.59 37.8479 190.812 38.2927 190.004 38.2927ZM190.48 37.3028C190.996 37.3028 191.48 37.0281 191.917 36.5658V32.9507C191.576 32.532 191.061 32.3445 190.576 32.3445C189.694 32.3445 189.127 32.8199 189.127 34.7517C189.127 36.6836 189.585 37.3028 190.48 37.3028Z" fill="#545659"/>
<path d="M200.424 36.8188L200.716 37.3203C200.044 37.9265 199.214 38.3059 198.162 38.3059C196.188 38.3059 195.031 37.0325 195.031 34.8215C195.031 32.6106 196.279 31.3765 198.044 31.3765C199.926 31.3765 200.838 32.5626 200.838 34.573V35.0352H196.742C196.782 36.7185 197.362 37.3203 198.677 37.3203C199.227 37.3203 199.9 37.1241 200.428 36.8188M196.751 34.2546H199.201C199.201 32.6629 198.869 32.1135 198.039 32.1135C197.262 32.1135 196.843 32.6106 196.751 34.2546Z" fill="#545659"/>
<path d="M201.956 40.0677L201.629 39.5924C202.472 39.3177 202.908 38.947 202.908 38.5283C202.908 38.2667 202.734 38.1707 202.419 38.0443C202.144 37.9265 201.812 37.7129 201.812 37.2026C201.812 36.6532 202.262 36.1909 202.878 36.1909C203.589 36.1909 204.1 36.7971 204.1 37.6387C204.1 38.8205 203.31 39.7537 201.952 40.0721" fill="#545659"/>
<path d="M207.542 37.6082C208.332 37.5951 208.515 37.3945 208.515 36.6488V30.5742C208.515 29.8241 208.332 29.6148 207.542 29.6017V29.0479H211.358C213.45 29.0479 214.559 29.8241 214.559 31.3765C214.559 32.4798 213.952 33.1122 212.742 33.3738V33.4262C214.271 33.6224 214.969 34.5033 214.969 35.7287C214.969 37.3597 213.742 38.149 211.821 38.149H207.542V37.6082ZM211.266 33.0816C212.41 33.0816 212.795 32.6499 212.795 31.4899C212.795 30.2689 212.358 29.8459 211.214 29.8459H210.214V33.0816H211.266ZM211.542 37.3684C212.777 37.3684 213.188 36.8974 213.188 35.5935C213.188 34.2896 212.769 33.8579 211.437 33.8579H210.21V37.3684H211.537H211.542Z" fill="#545659"/>
<path d="M222.17 37.4773V37.9919C221.934 38.1228 221.498 38.2274 221.022 38.2274C220.153 38.2274 219.838 37.8611 219.747 37.3073C219.52 37.739 218.943 38.3321 217.93 38.3321C216.716 38.3321 215.821 37.7128 215.821 36.4264C215.821 34.8608 217.083 34.2721 219.153 34.2721C219.31 34.2721 219.533 34.2721 219.707 34.2852V33.6921C219.707 32.6281 219.454 32.1527 218.655 32.1527C217.734 32.1527 217.485 32.6935 217.38 33.352H216.223V32.0917C216.856 31.7384 217.895 31.3809 218.882 31.3809C220.384 31.3809 221.332 32.0524 221.332 33.5918C221.332 33.9843 221.279 35.105 221.279 36.2999C221.279 37.2855 221.41 37.4468 222.175 37.4817M219.223 34.9524C218.048 34.9524 217.498 35.3449 217.498 36.2389C217.498 37.0805 217.83 37.3291 218.445 37.3291C218.917 37.3291 219.38 37.0282 219.642 36.6183L219.681 34.9611C219.576 34.9611 219.323 34.948 219.223 34.948" fill="#545659"/>
<path d="M222.581 38.1444V37.6167C223.293 37.5775 223.45 37.4467 223.45 36.6966V33.5263C223.45 32.5669 223.279 32.436 222.568 32.4055V31.9084L224.808 31.42H225.057V36.6922C225.057 37.4423 225.162 37.5862 225.913 37.6124V38.14H222.581V38.1444ZM224.162 30.6394C223.607 30.6394 223.162 30.1902 223.162 29.6407C223.162 29.0913 223.607 28.6421 224.175 28.6421C224.742 28.6421 225.175 29.0913 225.175 29.6407C225.175 30.1902 224.725 30.6394 224.162 30.6394Z" fill="#545659"/>
<path d="M228.878 36.6749C228.878 37.438 229.009 37.595 229.773 37.6212V38.1488H226.376V37.6212C227.109 37.5819 227.271 37.4511 227.271 36.701V30.5086C227.271 29.5492 227.061 29.4184 226.323 29.3922V28.8907L228.485 28.5244H228.681C228.76 28.7207 228.882 29.1567 228.882 29.8239V36.6749H228.878Z" fill="#545659"/>
<path d="M235.79 36.8188L236.079 37.3203C235.41 37.9265 234.581 38.3059 233.524 38.3059C231.546 38.3059 230.389 37.0325 230.389 34.8215C230.389 32.6106 231.642 31.3765 233.406 31.3765C235.288 31.3765 236.197 32.5626 236.197 34.573V35.0352H232.1C232.14 36.7185 232.721 37.3203 234.035 37.3203C234.59 37.3203 235.258 37.1241 235.786 36.8188M232.118 34.2546H234.568C234.568 32.6629 234.236 32.1135 233.406 32.1135C232.629 32.1135 232.205 32.6106 232.118 34.2546Z" fill="#545659"/>
<path d="M244.493 35.5148H241.585L241.205 36.7751C241.153 36.9451 241.135 37.0803 241.135 37.1675C241.135 37.5077 241.415 37.5731 242.044 37.6036V38.1444H239.175V37.6036C239.769 37.5513 239.965 37.3899 240.214 36.6181L242.677 29.0432H244.109L246.624 36.5919C246.852 37.2635 247.009 37.5513 247.611 37.6036V38.1444H244.109V37.6036C244.716 37.5774 244.952 37.4466 244.952 37.1283C244.952 37.0236 244.926 36.8928 244.886 36.7751L244.489 35.5148H244.493ZM241.821 34.6993H244.245L243.59 32.6061C243.297 31.6728 243.127 30.9751 243.061 30.648H242.996C242.904 31.0318 242.76 31.6336 242.459 32.6191L241.825 34.6949L241.821 34.6993ZM241.852 28.1144L244.459 26.1694L245.179 27.6565L242.14 28.5897L241.847 28.1144H241.852Z" fill="#545659"/>
<path d="M251.293 32.4406H249.908V36.1735C249.908 37.159 250.039 37.473 250.699 37.473C250.934 37.473 251.162 37.4207 251.45 37.3291L251.607 37.9091C251.135 38.1838 250.633 38.3277 250.039 38.3277C248.934 38.3277 248.301 37.8655 248.301 36.4875V32.4406H247.511V31.8737L248.393 31.5466C248.48 30.9448 248.681 30.2732 248.996 29.7717L250.022 29.6147C249.956 30.0857 249.904 30.8925 249.904 31.5597H251.485L251.288 32.4406H251.293Z" fill="#545659"/>
<path d="M254.376 32.4928C254.956 31.8736 255.572 31.3982 256.603 31.3982C257.633 31.3982 258.445 32.0305 258.445 33.2908V36.6967C258.445 37.4467 258.59 37.5776 259.262 37.6168V38.1445H255.983V37.6168C256.734 37.5906 256.838 37.4337 256.838 36.749V33.6484C256.838 32.8591 256.507 32.5713 255.93 32.5713C255.245 32.5713 254.799 32.846 254.376 33.2167V36.7534C254.376 37.438 254.48 37.595 255.231 37.6212V38.1488H251.904V37.6212C252.616 37.5819 252.76 37.4511 252.76 36.701V30.5086C252.76 29.5492 252.563 29.4184 251.852 29.3922V28.8907L253.974 28.5244H254.17C254.275 28.7207 254.38 29.1698 254.38 29.8283V32.4972L254.376 32.4928Z" fill="#545659"/>
<path d="M266.122 37.4773V37.9919C265.886 38.1228 265.45 38.2274 264.974 38.2274C264.105 38.2274 263.79 37.8611 263.699 37.3073C263.472 37.739 262.895 38.3321 261.882 38.3321C260.668 38.3321 259.773 37.7128 259.773 36.4264C259.773 34.8608 261.035 34.2721 263.105 34.2721C263.262 34.2721 263.485 34.2721 263.659 34.2852V33.6921C263.659 32.6281 263.406 32.1527 262.607 32.1527C261.686 32.1527 261.437 32.6935 261.328 33.352H260.17V32.0917C260.804 31.7384 261.843 31.3809 262.834 31.3809C264.332 31.3809 265.284 32.0524 265.284 33.5918C265.284 33.9843 265.231 35.105 265.231 36.2999C265.231 37.2855 265.362 37.4468 266.127 37.4817M263.175 34.9524C262 34.9524 261.45 35.3449 261.45 36.2389C261.45 37.0805 261.777 37.3291 262.397 37.3291C262.869 37.3291 263.332 37.0282 263.594 36.6183L263.633 34.9611C263.528 34.9611 263.275 34.948 263.175 34.948" fill="#545659"/>
<path d="M269.288 33.7007C269.288 30.5041 270.948 28.8906 273.384 28.8906C274.742 28.8906 275.541 29.1523 276.109 29.5229V31.1626H274.913C274.686 30.164 274.345 29.6756 273.345 29.6756C271.987 29.6756 271.17 30.6219 271.17 33.6352C271.17 36.8056 272.052 37.5251 273.424 37.5251C274.463 37.5251 274.856 37.0803 275.039 36.025H276.175V37.6036C275.672 37.9699 274.699 38.3014 273.38 38.3014C270.655 38.3014 269.284 36.5919 269.284 33.7007" fill="#545659"/>
<path d="M279.31 36.6749C279.31 37.438 279.441 37.595 280.205 37.6212V38.1488H276.808V37.6212C277.546 37.5819 277.703 37.4511 277.703 36.701V30.5086C277.703 29.5492 277.493 29.4184 276.755 29.3922V28.8907L278.917 28.5244H279.114C279.192 28.7207 279.314 29.1567 279.314 29.8239V36.6749H279.31Z" fill="#545659"/>
<path d="M280.703 38.1444V37.6167C281.415 37.5775 281.572 37.4467 281.572 36.6966V33.5263C281.572 32.5669 281.402 32.436 280.69 32.4055V31.9084L282.93 31.42H283.179V36.6922C283.179 37.4423 283.284 37.5862 284.035 37.6124V38.14H280.703V38.1444ZM282.284 30.6394C281.729 30.6394 281.284 30.1902 281.284 29.6407C281.284 29.0913 281.729 28.6421 282.297 28.6421C282.865 28.6421 283.301 29.0913 283.301 29.6407C283.301 30.1902 282.856 30.6394 282.288 30.6394" fill="#545659"/>
<path d="M290.926 37.4773V37.9919C290.69 38.1228 290.253 38.2274 289.777 38.2274C288.908 38.2274 288.594 37.8611 288.502 37.3073C288.275 37.739 287.699 38.3321 286.686 38.3321C285.472 38.3321 284.576 37.7128 284.576 36.4264C284.576 34.8608 285.838 34.2721 287.908 34.2721C288.066 34.2721 288.288 34.2721 288.463 34.2852V33.6921C288.463 32.6281 288.21 32.1527 287.41 32.1527C286.489 32.1527 286.24 32.6935 286.131 33.352H284.974V32.0917C285.607 31.7384 286.646 31.3809 287.638 31.3809C289.135 31.3809 290.087 32.0524 290.087 33.5918C290.087 33.9843 290.035 35.105 290.035 36.2999C290.035 37.2855 290.166 37.4468 290.93 37.4817M287.974 34.9524C286.799 34.9524 286.249 35.3449 286.249 36.2389C286.249 37.0805 286.576 37.3291 287.197 37.3291C287.668 37.3291 288.131 37.0282 288.393 36.6183L288.432 34.9611C288.328 34.9611 288.074 34.948 287.974 34.948" fill="#545659"/>
<path d="M295.035 32.4406H293.655V36.1735C293.655 37.159 293.786 37.473 294.445 37.473C294.681 37.473 294.908 37.4207 295.196 37.3291L295.354 37.9091C294.878 38.1838 294.38 38.3277 293.786 38.3277C292.681 38.3277 292.048 37.8655 292.048 36.4875V32.4406H291.258V31.8737L292.14 31.5466C292.231 30.9448 292.428 30.2732 292.747 29.7717L293.773 29.6147C293.707 30.0857 293.655 30.8925 293.655 31.5597H295.236L295.039 32.4406H295.035Z" fill="#545659"/>
<path d="M298.118 32.4928C298.699 31.8736 299.314 31.3982 300.341 31.3982C301.367 31.3982 302.183 32.0305 302.183 33.2908V36.6967C302.183 37.4467 302.328 37.5776 303 37.6168V38.1445H299.725V37.6168C300.476 37.5906 300.581 37.4337 300.581 36.749V33.6484C300.581 32.8591 300.253 32.5713 299.673 32.5713C298.987 32.5713 298.542 32.846 298.118 33.2167V36.7534C298.118 37.438 298.223 37.595 298.974 37.6212V38.1488H295.646V37.6212C296.358 37.5819 296.498 37.4511 296.498 36.701V30.5086C296.498 29.5492 296.301 29.4184 295.59 29.3922V28.8907L297.707 28.5244H297.904C298.013 28.7207 298.118 29.1698 298.118 29.8283V32.4972V32.4928Z" fill="#545659"/>
<path d="M89.2358 3.69385L89.4367 7.51396H88.0568C87.655 5.62571 87.4804 5.05008 86.1005 5.05008H84.7904V16.5279C84.7904 17.8579 85.2577 18.1283 86.6594 18.1501V19.0572H80.0786V18.1501C81.4804 18.1283 81.9476 17.8623 81.9476 16.5279V5.05008H80.6376C79.262 5.05008 79.1005 5.62571 78.6812 7.51396H77.3013L77.524 3.69385H89.2402H89.2358Z" fill="#545659"/>
<path d="M97.2183 7.62737C97.5065 7.62737 97.7948 7.67098 97.9738 7.7364L97.4192 10.5797C97.131 10.4707 96.8865 10.4227 96.441 10.4227C94.6856 10.4227 94.1703 11.0463 94.1703 12.9738V16.6151C94.1703 17.8798 94.393 18.124 95.9956 18.1676V19.0572H89.9913V18.1676C91.1921 18.1022 91.4585 17.8798 91.4585 16.6151V11.2643C91.4585 9.64209 91.1703 9.42405 89.9694 9.37608V8.53007L93.2358 7.64046H93.5677C93.7249 7.97624 94.0786 8.99668 94.1004 10.3486C94.8122 8.61729 96.0131 7.61865 97.214 7.61865" fill="#545659"/>
<path d="M98.9913 19.0611V18.1715C100.192 18.1061 100.459 17.8837 100.459 16.619V11.2682C100.459 9.65035 100.17 9.42794 98.9694 9.37997V8.53397L102.747 7.71413H103.17V16.619C103.17 17.8837 103.349 18.1279 104.616 18.1715V19.0611H98.9913ZM101.659 6.3797C100.725 6.3797 99.9694 5.62527 99.9694 4.69205C99.9694 3.75882 100.725 3.00439 101.681 3.00439C102.638 3.00439 103.371 3.75882 103.371 4.69205C103.371 5.62527 102.616 6.3797 101.659 6.3797Z" fill="#545659"/>
<path d="M117.087 16.6192C117.087 17.8839 117.332 18.1063 118.463 18.1717V19.0613H112.926V18.1717C114.192 18.1281 114.371 17.8621 114.371 16.7064V11.4647C114.371 10.1346 113.817 9.6462 112.838 9.6462C111.681 9.6462 110.926 10.1128 110.214 10.7364V16.7108C110.214 17.8664 110.393 18.1324 111.659 18.176V19.0657H106.035V18.176C107.236 18.1106 107.502 17.8882 107.502 16.6236V11.2728C107.502 9.65056 107.214 9.42816 106.013 9.38455V8.53854L109.284 7.64893H109.616C109.751 7.93674 110.083 8.78275 110.127 9.6244C111.105 8.56035 112.24 7.67073 113.974 7.67073C115.707 7.67073 117.087 8.73478 117.087 10.8672V16.6192Z" fill="#545659"/>
<path d="M119.838 19.0611V18.1715C121.039 18.1061 121.306 17.8837 121.306 16.619V11.2682C121.306 9.65035 121.017 9.42794 119.817 9.37997V8.53397L123.594 7.71413H124.017V16.619C124.017 17.8837 124.196 18.1279 125.463 18.1715V19.0611H119.838ZM122.507 6.3797C121.572 6.3797 120.817 5.62527 120.817 4.69205C120.817 3.75882 121.572 3.00439 122.528 3.00439C123.485 3.00439 124.218 3.75882 124.218 4.69205C124.218 5.62527 123.463 6.3797 122.507 6.3797Z" fill="#545659"/>
<path d="M133.135 9.42358H130.799V15.7294C130.799 17.3952 131.022 17.9273 132.131 17.9273C132.533 17.9273 132.908 17.84 133.397 17.6831L133.664 18.6599C132.865 19.1265 132.017 19.3707 131.017 19.3707C129.148 19.3707 128.083 18.5945 128.083 16.2614V9.42358H126.751V8.46855L128.24 7.91472C128.397 6.89428 128.729 5.76046 129.262 4.91445L130.996 4.64844C130.886 5.45084 130.795 6.8027 130.795 7.93653H133.463L133.131 9.42358H133.135Z" fill="#545659"/>
<path d="M135.777 21.8568C137.624 21.4775 139.022 20.9934 139.755 18.9482L138.69 19.0572C138.402 17.9015 138.092 16.8593 137.445 15.0844L135.712 10.3311C135.31 9.21907 135.022 8.95742 134.175 8.84404V7.93262H139.712V8.84404C138.668 8.88765 138.336 9.06644 138.336 9.48944C138.336 9.62027 138.402 9.82087 138.489 10.0433L140.044 14.6614C140.424 15.7473 140.576 16.6587 140.646 17.0381H140.734C140.777 16.7721 140.978 15.9304 141.288 14.9536L142.821 10.0476C142.886 9.84704 142.93 9.69441 142.956 9.55922C143 9.049 142.668 8.89201 141.555 8.8484V7.93698H146V8.8484C145.109 8.96178 144.821 9.15802 144.424 10.2918L141.245 19.1924C140.288 21.835 139.066 23.3003 136.642 23.7233L135.777 21.8568Z" fill="#545659"/>
<path d="M152.581 11.5564C152.581 6.16203 155.384 3.43213 159.493 3.43213C161.782 3.43213 163.14 3.87694 164.096 4.49618V7.26969H162.074C161.699 5.58203 161.122 4.76219 159.428 4.76219C157.14 4.76219 155.76 6.35827 155.76 11.443C155.76 16.7938 157.249 18.0149 159.563 18.0149C161.319 18.0149 161.987 17.2604 162.297 15.4855H164.205V18.15C163.362 18.7693 161.716 19.3231 159.493 19.3231C154.891 19.3231 152.581 16.4362 152.581 11.5521" fill="#545659"/>
<path d="M171.476 19.3271C168.205 19.3271 166.118 17.1947 166.118 13.5098C166.118 9.82483 168.297 7.62695 171.541 7.62695C174.786 7.62695 176.9 9.80302 176.9 13.4443C176.9 17.3517 174.498 19.3271 171.476 19.3271ZM171.476 8.8916C169.694 8.8916 169.074 10.2696 169.074 13.4225C169.074 16.5754 169.673 18.1061 171.563 18.1061C173.14 18.1061 173.943 16.5972 173.943 13.4443C173.943 10.1344 173.096 8.8916 171.476 8.8916Z" fill="#545659"/>
<path d="M182.786 16.5758C182.786 17.8623 183.009 18.1283 184.297 18.1719V19.0615H178.559V18.1719C179.804 18.1065 180.07 17.8841 180.07 16.6194V6.1621C180.07 4.53986 179.712 4.31745 178.467 4.27384V3.4322L182.114 2.80859H182.445C182.581 3.14002 182.777 3.87264 182.777 5.00647V16.5758H182.786Z" fill="#545659"/>
<path d="M189.878 16.5758C189.878 17.8623 190.1 18.1283 191.389 18.1719V19.0615H185.651V18.1719C186.895 18.1065 187.162 17.8841 187.162 16.6194V6.1621C187.162 4.53986 186.804 4.31745 185.559 4.27384V3.4322L189.205 2.80859H189.537C189.673 3.14002 189.869 3.87264 189.869 5.00647V16.5758H189.878Z" fill="#545659"/>
<path d="M202.127 16.8196L202.616 17.6613C201.48 18.6817 200.083 19.3271 198.301 19.3271C194.965 19.3271 193.009 17.1729 193.009 13.4443C193.009 9.71581 195.122 7.62695 198.1 7.62695C201.275 7.62695 202.812 9.62423 202.812 13.0213V13.8019H195.9C195.965 16.6452 196.943 17.6657 199.166 17.6657C200.1 17.6657 201.236 17.3342 202.122 16.824M195.921 12.4893H200.057C200.057 9.80302 199.502 8.8698 198.1 8.8698C196.786 8.8698 196.074 9.71581 195.921 12.4893Z" fill="#545659"/>
<path d="M204.524 20.9234C204.524 20.1471 205.105 19.6369 205.659 19.3709L207.301 19.3273C207.144 19.6151 207.035 19.9945 207.035 20.4393C207.035 21.5949 207.681 22.1488 209.546 22.1488C211.659 22.1488 212.393 21.4161 212.393 20.2605C212.393 19.1049 211.769 18.7735 209.236 18.6819C208.367 18.6601 207.367 18.5947 206.921 18.5249C205.834 18.3897 205.367 17.5917 205.367 16.6803C205.367 15.7034 206.279 14.9272 207.633 14.5478C205.9 14.1728 204.856 12.9256 204.856 11.3295C204.856 9.04439 206.616 7.64455 209.349 7.64455C210.148 7.64455 210.725 7.77974 211.393 7.95417C211.948 8.11116 212.349 8.22018 212.86 8.22018C213.572 8.22018 214.284 7.81898 214.908 7.33057L215.86 9.1316C215.327 9.46303 214.795 9.66363 214.17 9.66363C213.681 9.66363 213.214 9.55461 212.659 9.3104C213.301 9.77701 213.817 10.4878 213.817 11.4647C213.817 14.0637 211.284 14.84 209.035 14.84H208.856C208.231 15.0406 207.808 15.3938 207.808 15.795C207.808 16.109 207.987 16.3052 208.52 16.3314L210.607 16.3968C213.341 16.4622 214.834 17.1948 214.834 19.5715C214.834 22.1052 212.541 23.3698 209.52 23.3698C206.498 23.3698 204.515 22.3712 204.515 20.9277M211.083 11.3338C211.083 9.55897 210.528 8.86995 209.327 8.86995C208.192 8.86995 207.594 9.55897 207.594 11.2684C207.594 12.9779 208.218 13.6669 209.349 13.6669C210.48 13.6669 211.083 12.9561 211.083 11.3338Z" fill="#545659"/>
<path d="M225.576 16.8196L226.065 17.6613C224.93 18.6817 223.533 19.3271 221.751 19.3271C218.415 19.3271 216.458 17.1729 216.458 13.4443C216.458 9.71581 218.572 7.62695 221.55 7.62695C224.729 7.62695 226.262 9.62423 226.262 13.0213V13.8019H219.345C219.41 16.6452 220.389 17.6657 222.611 17.6657C223.546 17.6657 224.681 17.3342 225.568 16.824M219.371 12.4893H223.507C223.507 9.80302 222.952 8.8698 221.55 8.8698C220.24 8.8698 219.524 9.71581 219.371 12.4893Z" fill="#545659"/>
<path d="M233.332 18.1501C234.664 18.1283 234.974 17.7925 234.974 16.5279V6.27112C234.974 5.00647 234.664 4.64888 233.332 4.62707V3.69385H239.424C243.956 3.69385 246.825 5.95714 246.825 11.4213C246.825 16.1267 244.603 19.0615 239.376 19.0615H233.328V18.1501H233.332ZM239.332 17.7271C242.358 17.7271 243.734 16.5933 243.734 11.6219C243.734 6.65051 242.31 5.02827 239.397 5.02827H237.886V17.7271H239.332Z" fill="#545659"/>
<path d="M259.336 15.8604C259.336 17.4826 259.603 17.6833 260.825 17.7487V18.5511L257.668 19.3491H257.336C257.135 18.9261 256.847 18.3069 256.777 17.4608C255.843 18.5511 254.755 19.3273 253.044 19.3273C251.197 19.3273 249.93 18.3941 249.93 16.2878V11.2684C249.93 9.64618 249.642 9.42378 248.507 9.38017V8.53416L252.127 7.71432H252.638V15.686C252.638 16.9724 253.127 17.4827 254.175 17.4827C255.223 17.4827 255.843 17.0815 256.62 16.3706V11.2641C256.62 9.64182 256.332 9.41942 255.197 9.37581V8.5298L258.821 7.70996H259.332V15.856L259.336 15.8604Z" fill="#545659"/>
<path d="M264.869 19.0615H263.092C263.293 18.5295 263.38 17.9059 263.38 16.4625V6.1621C263.38 4.53986 263.044 4.31745 261.843 4.27384V3.4322L265.424 2.80859H265.76C265.934 3.16618 266.092 3.89881 266.092 5.00647V9.38041C266.738 8.4908 267.825 7.67095 269.428 7.67095C272.031 7.67095 273.721 9.5156 273.721 13.3532C273.721 17.1907 271.83 19.3057 268.939 19.3057C267.249 19.3057 266.179 18.5033 265.581 17.6617C265.445 18.0847 265.162 18.7737 264.869 19.0615ZM268.537 9.5374C267.515 9.5374 266.603 10.0694 266.092 10.6494V16.6238C266.716 17.2648 267.358 17.666 268.428 17.666C269.961 17.666 270.83 16.7764 270.83 13.4927C270.83 10.4532 270.026 9.54176 268.537 9.54176" fill="#545659"/>
<path d="M279.603 16.5758C279.603 17.8623 279.825 18.1283 281.118 18.1719V19.0615H275.38V18.1719C276.624 18.1065 276.891 17.8841 276.891 16.6194V6.1621C276.891 4.53986 276.533 4.31745 275.293 4.27384V3.4322L278.939 2.80859H279.271C279.402 3.14002 279.603 3.87264 279.603 5.00647V16.5758Z" fill="#545659"/>
<path d="M282.537 19.0611V18.1715C283.738 18.1061 284.009 17.8837 284.009 16.619V11.2682C284.009 9.65035 283.72 9.42794 282.515 9.37997V8.53397L286.293 7.71413H286.716V16.619C286.716 17.8837 286.895 18.1279 288.162 18.1715V19.0611H282.533H282.537ZM285.205 6.3797C284.271 6.3797 283.515 5.62527 283.515 4.69205C283.515 3.75882 284.271 3.00439 285.227 3.00439C286.183 3.00439 286.917 3.75882 286.917 4.69205C286.917 5.62527 286.162 6.3797 285.201 6.3797" fill="#545659"/>
<path d="M300.633 16.6192C300.633 17.8839 300.878 18.1063 302.009 18.1717V19.0613H296.472V18.1717C297.738 18.1281 297.917 17.8621 297.917 16.7064V11.4647C297.917 10.1346 297.362 9.6462 296.384 9.6462C295.227 9.6462 294.472 10.1128 293.76 10.7364V16.7108C293.76 17.8664 293.939 18.1324 295.205 18.176V19.0657H289.581V18.176C290.782 18.1106 291.048 17.8882 291.048 16.6236V11.2728C291.048 9.65056 290.76 9.42816 289.559 9.38455V8.53854L292.825 7.64893H293.157C293.288 7.93674 293.624 8.78275 293.668 9.6244C294.646 8.56035 295.782 7.67073 297.515 7.67073C299.249 7.67073 300.629 8.73478 300.629 10.8672V16.6192H300.633Z" fill="#545659"/>
<path d="M82.4279 49.0378H79.6594V48.0566H86.3755V49.0378H83.607V57.2232H82.4279V49.0378Z" fill="#006FB8"/>
<path d="M87.917 47.2763H89.0655V49.9888L89.0218 51.3842C89.6637 50.7694 90.3493 50.2635 91.2882 50.2635C92.7162 50.2635 93.3581 51.188 93.3581 52.9193V57.2234H92.2096V53.0719C92.2096 51.7985 91.8166 51.2534 90.9214 51.2534C90.2227 51.2534 89.7467 51.6154 89.0611 52.3V57.2191H87.9127V47.2676L87.917 47.2763Z" fill="#006FB8"/>
<path d="M98.0786 50.2676C99.8122 50.2676 100.79 51.5104 100.79 53.4554C100.79 53.6909 100.777 53.9176 100.751 54.0833H96.1616C96.2445 55.5529 97.1266 56.4731 98.4279 56.4731C99.0698 56.4731 99.6157 56.2638 100.118 55.9411L100.524 56.6955C99.9345 57.0705 99.2096 57.3932 98.2882 57.3932C96.4672 57.3932 95.0262 56.0675 95.0262 53.8435C95.0262 51.6194 96.524 50.2676 98.0786 50.2676ZM99.7816 53.3245C99.7816 51.9421 99.1659 51.1703 98.1004 51.1703C97.1485 51.1703 96.2795 51.9552 96.1441 53.3245H99.7816Z" fill="#006FB8"/>
<path d="M105.367 48.0566H106.528V53.4641C106.528 55.6707 107.467 56.3684 108.668 56.3684C109.869 56.3684 110.838 55.6707 110.838 53.4641V48.0566H111.956V53.4379C111.956 56.3859 110.541 57.3932 108.668 57.3932C106.795 57.3932 105.367 56.3859 105.367 53.4379V48.0566Z" fill="#006FB8"/>
<path d="M114.323 50.4333H115.275L115.371 51.4101H115.41C116.057 50.769 116.755 50.2632 117.69 50.2632C119.118 50.2632 119.76 51.1833 119.76 52.9189V57.2231H118.611V53.0759C118.611 51.8069 118.218 51.2575 117.323 51.2575C116.624 51.2575 116.148 51.6194 115.463 52.3041V57.2231H114.314V50.4333H114.323Z" fill="#006FB8"/>
<path d="M121.769 48.2965C121.769 47.8474 122.118 47.5552 122.568 47.5552C123.017 47.5552 123.362 47.8474 123.362 48.2965C123.362 48.7457 123.013 49.0379 122.568 49.0379C122.122 49.0379 121.769 48.7326 121.769 48.2965ZM121.978 50.4333H123.127V57.2232H121.978V50.4333Z" fill="#006FB8"/>
<path d="M124.441 50.4336H125.633L126.921 54.2886C127.118 54.9602 127.341 55.6448 127.55 56.2859H127.607C127.803 55.6448 128.026 54.9558 128.223 54.2886L129.511 50.4336H130.646L128.24 57.2235H126.9L124.45 50.4336H124.441Z" fill="#006FB8"/>
<path d="M134.45 50.2676C136.183 50.2676 137.166 51.5104 137.166 53.4554C137.166 53.6909 137.153 53.9176 137.122 54.0833H132.533C132.616 55.5529 133.498 56.4731 134.799 56.4731C135.445 56.4731 135.991 56.2638 136.493 55.9411L136.9 56.6955C136.31 57.0705 135.585 57.3932 134.664 57.3932C132.843 57.3932 131.402 56.0675 131.402 53.8435C131.402 51.6194 132.9 50.2676 134.454 50.2676M136.153 53.3245C136.153 51.9421 135.537 51.1703 134.476 51.1703C133.524 51.1703 132.655 51.9552 132.515 53.3245H136.153Z" fill="#006FB8"/>
<path d="M138.843 50.4333H139.795L139.891 51.663H139.93C140.393 50.8083 141.092 50.2632 141.86 50.2632C142.153 50.2632 142.367 50.3068 142.589 50.4027L142.367 51.4101C142.144 51.3403 141.987 51.2967 141.707 51.2967C141.135 51.2967 140.45 51.7154 139.987 52.8623V57.2188H138.838V50.4289L138.843 50.4333Z" fill="#006FB8"/>
<path d="M143.376 55.6881C143.965 56.1634 144.568 56.4992 145.38 56.4992C146.275 56.4992 146.72 56.0239 146.72 55.4352C146.72 54.7374 145.908 54.4322 145.166 54.1487C144.205 53.7998 143.14 53.3376 143.14 52.1907C143.14 51.0438 144.009 50.2632 145.476 50.2632C146.332 50.2632 147.07 50.6121 147.59 51.0307L147.044 51.759C146.581 51.4101 146.092 51.1572 145.489 51.1572C144.638 51.1572 144.245 51.6194 144.245 52.134C144.245 52.775 144.987 53.0149 145.755 53.3071C146.734 53.669 147.825 54.0746 147.825 55.361C147.825 56.4643 146.943 57.3845 145.336 57.3845C144.371 57.3845 143.45 56.9789 142.803 56.4512L143.376 55.6837V55.6881Z" fill="#006FB8"/>
<path d="M149.214 48.2965C149.214 47.8474 149.563 47.5552 150.013 47.5552C150.463 47.5552 150.808 47.8474 150.808 48.2965C150.808 48.7457 150.459 49.0379 150.013 49.0379C149.568 49.0379 149.214 48.7326 149.214 48.2965ZM149.424 50.4333H150.572V57.2232H149.424V50.4333Z" fill="#006FB8"/>
<path d="M153.061 51.3711H152.052V50.5033L153.118 50.4336L153.258 48.5322H154.223V50.4336H156.057V51.3711H154.223V55.1433C154.223 55.9806 154.489 56.4559 155.271 56.4559C155.507 56.4559 155.817 56.36 156.039 56.2728L156.266 57.1406C155.891 57.267 155.428 57.3935 155.009 57.3935C153.555 57.3935 153.065 56.4734 153.065 55.1302V51.3711H153.061Z" fill="#006FB8"/>
<path d="M157.651 59.1941C158.419 59.1941 158.908 58.5792 159.188 57.7419L159.341 57.2404L156.611 50.4375H157.803L159.188 54.1966C159.397 54.7853 159.633 55.483 159.847 56.111H159.904C160.1 55.4961 160.297 54.7984 160.476 54.1966L161.694 50.4375H162.812L160.253 57.7855C159.782 59.1243 159.079 60.1491 157.707 60.1491C157.402 60.1491 157.131 60.0924 156.913 60.0096L157.135 59.1025C157.279 59.1461 157.485 59.1985 157.655 59.1985" fill="#006FB8"/>
<path d="M169.603 50.2676C171.266 50.2676 172.751 51.5671 172.751 53.8435C172.751 56.1199 171.266 57.3932 169.603 57.3932C167.939 57.3932 166.454 56.0937 166.454 53.8435C166.454 51.5933 167.934 50.2676 169.603 50.2676ZM169.603 56.4426C170.777 56.4426 171.559 55.396 171.559 53.8435C171.559 52.291 170.777 51.2182 169.603 51.2182C168.428 51.2182 167.642 52.2779 167.642 53.8435C167.642 55.409 168.437 56.4426 169.603 56.4426Z" fill="#006FB8"/>
<path d="M177.607 48.2136C177.354 48.1002 177.087 48.0435 176.838 48.0435C176.197 48.0435 175.887 48.4884 175.887 49.3562V50.4333H177.328V51.3709H175.887V57.2232H174.738V51.3709H173.817V50.5031L174.738 50.4333V49.3562C174.738 47.9738 175.371 47.106 176.725 47.106C177.144 47.106 177.55 47.2063 177.86 47.3327L177.607 48.2136Z" fill="#006FB8"/>
<path d="M181.568 48.0566H183.86C186.69 48.0566 188.197 49.692 188.197 52.5963C188.197 55.5006 186.686 57.2232 183.913 57.2232H181.563V48.0566H181.568ZM183.777 56.2725C185.917 56.2725 186.996 54.9163 186.996 52.5963C186.996 50.2763 185.917 49.0073 183.777 49.0073H182.729V56.2725H183.777Z" fill="#006FB8"/>
<path d="M189.965 50.4336H191.127V54.5851C191.127 55.8585 191.507 56.4036 192.402 56.4036C193.1 56.4036 193.59 56.0547 194.231 55.2567V50.4336H195.38V57.2235H194.428L194.332 56.1638H194.293C193.664 56.9051 192.991 57.3935 192.052 57.3935C190.611 57.3935 189.969 56.4734 189.969 54.7378V50.4336H189.965Z" fill="#006FB8"/>
<path d="M197.677 47.2759H198.825V49.9883L198.795 51.2181C199.411 50.673 200.166 50.2674 200.926 50.2674C202.686 50.2674 203.624 51.6237 203.624 53.7169C203.624 56.0368 202.24 57.3931 200.686 57.3931C200.057 57.3931 199.345 57.0878 198.742 56.5558H198.703L198.603 57.2274H197.677V47.2802V47.2759ZM200.489 56.4293C201.607 56.4293 202.432 55.4089 202.432 53.7343C202.432 52.2385 201.93 51.2312 200.642 51.2312C200.066 51.2312 199.467 51.5539 198.821 52.1557V55.7185C199.424 56.2331 200.039 56.4293 200.485 56.4293" fill="#006FB8"/>
<path d="M205.441 47.2759H206.59V55.9409C206.59 56.3029 206.742 56.4468 206.913 56.4468C206.983 56.4468 207.039 56.4468 207.166 56.4162L207.319 57.2797C207.166 57.3495 206.969 57.3931 206.659 57.3931C205.795 57.3931 205.441 56.848 205.441 55.8581V47.2802V47.2759Z" fill="#006FB8"/>
<path d="M208.799 48.2965C208.799 47.8474 209.148 47.5552 209.598 47.5552C210.048 47.5552 210.397 47.8474 210.397 48.2965C210.397 48.7457 210.048 49.0379 209.598 49.0379C209.148 49.0379 208.799 48.7326 208.799 48.2965ZM209.013 50.4333H210.157V57.2232H209.013V50.4333Z" fill="#006FB8"/>
<path d="M212.454 50.4333H213.406L213.502 51.4101H213.542C214.183 50.769 214.886 50.2632 215.821 50.2632C217.249 50.2632 217.891 51.1833 217.891 52.9189V57.2231H216.742V53.0759C216.742 51.8069 216.349 51.2575 215.454 51.2575C214.755 51.2575 214.279 51.6194 213.594 52.3041V57.2231H212.445V50.4333H212.454Z" fill="#006FB8"/>
<path d="M62.3537 1.65277V48.8198C62.3537 74.828 31.1791 80 31.1791 80C31.1791 80 0.00439453 74.8324 0.00439453 48.8198V1.65277C0.00439453 1.65277 12.9738 0 31.1747 0C49.3756 0 62.3494 1.65277 62.3494 1.65277" fill="#006FB8"/>
<path d="M8.39738 7.78398C8.67686 8.25495 9.00874 8.78698 9.78603 8.78698C10.5633 8.78698 11.131 8.46427 11.4629 7.95841C10.7336 8.2157 10.0699 7.63135 9.79913 7.27812C9.46725 6.85075 9.09607 6.3667 8.37118 6.3667C8.15721 6.3667 7.65066 6.3667 7.18341 6.67196C7.84717 6.84203 8.19214 7.45255 8.39738 7.78834M10.3188 8.24187C9.13538 8.62126 8.7904 7.08188 8.28821 6.83767C9.0131 6.68068 9.49345 8.1939 10.3188 8.24187Z" fill="white"/>
<path d="M22.3144 6.23594C23.1397 6.83338 24.9388 6.88135 25.6506 6.13128C26.179 6.67203 27.6856 6.74616 28.4891 6.16181C29.0873 6.40602 30.3013 7.02526 31.5153 5.62542C30.8471 5.61234 30.2707 5.25911 29.917 5.01926C29.3624 4.64423 28.8297 4.291 27.7991 4.86663C26.9083 4.31716 25.9869 4.27356 24.9432 4.80122C23.8471 3.99882 22.4148 4.46979 21.9869 4.73581C21.1397 4.33461 19.655 4.29536 18.6768 5.17189C18.0349 5.74753 17.5546 6.66331 17.5546 7.53112C17.5546 9.12283 18.5415 10.5052 20.4148 10.6317C21.3755 10.6971 22.9039 10.3962 24.4672 10.261C25.9519 10.1389 27.4672 10.1694 28.393 10.5488C29.8297 11.1506 29.8777 12.6202 28.7729 12.9691C27.8078 13.2831 25.2533 12.2801 24.0699 13.0869C22.8733 11.5911 19.3406 13.1305 17.7467 12.8426C17.5982 13.3005 17.2314 13.7759 16.5851 13.6887C17.2314 14.478 16.9301 16.3008 15.4629 16.388C15.0873 17.3343 14.1921 17.6919 13.5677 17.2602C13.393 18.1455 12.0393 18.7429 11.4367 18.1542C11.0786 18.5249 10.8253 19.2226 10.9607 19.5933C10.4803 19.7284 10.3493 20.2474 9.81221 20.3651C9.89954 19.9552 9.87771 19.5497 9.57203 19.3447C9.35806 19.2051 9.03928 19.1833 8.77291 19.3491L7.99998 19.3185L8.51526 19.6151C8.47596 19.6761 8.43666 19.7503 8.40609 19.8375C8.6288 19.7328 8.99125 19.7982 9.15282 19.9378L9.10042 20.0293C8.39736 19.9116 7.94758 20.2212 7.89081 20.6399L7.36243 21.2286L8.00435 21.0672C8.08732 21.1763 8.21396 21.2722 8.34933 21.3202C8.6419 21.4161 8.87771 21.2984 8.91701 21.2111C8.96505 21.0934 8.80784 21.0803 8.80784 21.0803C8.94321 21.0105 9.08295 20.9931 9.13535 21.0542C9.20522 21.1457 9.21396 21.3812 8.95631 21.499C8.65937 21.6429 8.36679 21.5818 8.20085 21.4772C7.80784 22.1182 8.20522 22.6153 8.655 22.72L8.90391 23.4265L9.03928 22.72C9.4847 22.6371 9.62443 22.358 9.69867 22.0746C9.79911 22.1269 9.93011 22.1749 10.0655 22.2011L10.3493 22.8116L10.4934 22.1923C10.5284 22.1793 10.5677 22.1618 10.6026 22.1444C11.0131 21.8958 10.8995 21.4684 10.8035 21.2809C11.2489 21.2417 11.6419 21.1326 11.7773 20.6093C12.2882 20.9626 13.0436 20.7445 13.5633 20.4611L13.1572 20.1384C13.1572 20.1384 14.0567 20.0555 14.5895 19.7721L14.2052 19.4755C14.2052 19.4755 15.4148 19.1136 15.6463 18.9304C15.6244 18.9086 15.2445 18.7036 15.2445 18.7036C15.2445 18.7036 16.1092 18.2894 16.5109 17.2384C18.2052 17.1468 19.5895 14.9795 21.4891 14.7832C21.2402 14.5477 20.9083 14.3908 20.8078 14.3646L20.9345 14.0462C22.1572 14.1771 22.4454 14.7614 22.834 15.6685C23.2227 16.5712 23.917 17.234 24.738 17.4303C25.5589 17.6265 26.2227 17.5131 26.4541 17.5131C27.4192 17.5131 27.9912 18.0626 27.9912 19.0264C27.9912 19.3839 27.8035 19.7677 27.703 19.9378C27.393 20.0293 26.7336 19.2967 26.1703 19.602C26.0742 19.65 26 19.7197 25.9388 19.7939L25.2576 19.9465L25.8122 20.1209C25.7947 20.2736 25.8122 20.4305 25.8821 20.5745C26.3755 20.3782 26.6463 20.4218 26.8864 20.4567L26.8035 20.7184C26.4891 20.7009 25.3974 20.7489 25.5022 21.6821C25.524 21.8566 25.6026 22.0092 25.7161 22.1313L25.5502 22.8944L26.1572 22.3799C26.4367 22.4453 26.7729 22.3886 27.0917 22.1618C27.345 22.5194 27.7554 22.8029 28.2227 22.7418L28.7685 23.3436L28.6725 22.5805C28.9738 22.3929 29.1747 22.0746 28.8646 21.2678C29.0305 21.3332 29.1965 21.3245 29.3319 21.2591L29.7554 21.6516L29.6201 20.9975C29.7685 20.7445 29.7816 20.3826 29.5808 20.0512C29.8821 19.7721 30.0873 19.4799 30.2533 19.2182C30.048 19.2008 29.7467 19.1179 29.7467 19.1179C29.7467 19.1179 30.2576 18.5772 30.3799 18.3766C30.0306 18.1585 29.655 17.9623 29.6681 17.6396H29.6594C29.9563 17.6396 30.2926 17.4477 30.2926 17.1119C30.2926 16.8154 30.048 16.5537 29.6681 16.5537C29.6681 16.1613 29.4323 15.9781 29.1354 15.9781C28.8384 15.9781 28.6288 16.1874 28.6288 16.5494H27.9519C28.345 15.8996 27.6244 13.7366 25.1485 14.5216L24.9214 14.1814C26.0786 13.4837 27.5196 14.055 28.572 14.0244C29.7642 13.9939 30.572 13.2482 30.572 12.0533C30.572 11.6347 30.4629 10.6099 29.3231 9.80749C29.9214 8.8481 29.0218 8.25938 28.476 8.0239C28.4061 8.71727 28.1048 9.11411 27.5939 9.35396C27.6157 8.96148 27.0786 8.22886 26.4454 7.97157C26.393 8.49923 26.0087 9.15336 25.572 9.36268C25.572 9.12283 25.1834 8.41637 24.4847 8.11548C24.4672 8.65622 24.0699 9.2711 23.6594 9.51531C23.6594 9.08795 23.1266 8.46434 22.5022 8.21141C22.2795 8.8481 21.6725 9.64614 20.6725 9.64614C19.4978 9.64614 18.572 8.72163 18.572 7.5442C18.572 7.06887 18.7292 6.62406 19.0174 6.25775C18.9694 6.21414 18.834 6.05715 18.7904 6.00918L19.2445 5.82602C19.9738 6.69819 21.1528 6.85083 22.31 6.24467" fill="white"/>
<path d="M23.0393 17.0334C22.7118 16.7587 22.131 16.0174 21.8864 15.2193C21.6637 15.2106 21.2314 15.3022 20.9913 15.4286C20.738 15.6641 20.31 16.5494 20.31 16.5494C20.31 16.5494 19.607 16.641 19.3668 17.7879L19.6681 17.6788C19.4498 18.5292 19.7205 19.2313 19.9694 19.6761C19.5895 19.7808 19.1616 20.025 18.9083 20.2561C18.7161 20.2081 18.703 19.759 18.4105 19.5017C18.2271 19.3403 17.9388 19.2052 17.6463 19.4886L16.9607 19.4668L17.4585 19.7503C17.4279 19.7982 17.4017 19.8506 17.3755 19.9116C17.5677 19.9901 17.9039 20.1645 17.965 20.2256L17.8646 20.4393C17.0917 20.0294 16.3974 20.2169 16.3406 20.7358C16.3406 20.7751 16.3319 20.8187 16.3319 20.8666L15.786 21.4292L16.4105 21.2504C16.4847 21.3681 16.6244 21.4597 16.8646 21.4772C16.2358 22.0353 16.7205 22.7374 17.2052 22.8247L17.5502 23.5311L17.5589 22.8247C18.0699 22.7418 18.1921 22.3101 18.3144 22.1008C18.4148 22.188 18.5502 22.2403 18.6943 22.2665L18.9345 22.8944L19.1135 22.2316C19.1616 22.2098 19.2096 22.1836 19.2489 22.1575C19.6681 21.8653 19.476 21.4117 19.476 21.4117C19.476 21.4117 20.1354 21.499 20.4236 21.0629C20.8733 21.1588 21.2969 21.1414 21.7947 21.0062C21.786 20.9844 21.4367 20.5745 21.4367 20.5745C21.4367 20.5745 22.1223 20.6137 22.4236 20.3477C22.31 20.0294 22.2838 19.8375 22.2795 19.5802H22.3886C22.6856 19.5802 22.9869 19.4319 23 19.0394C23.0087 18.7734 22.7642 18.5292 22.4978 18.5292H22.2707C22.2183 18.0016 22.524 17.3474 23.0393 17.0422" fill="white"/>
<path d="M9.131 14.6916C8.91266 14.0767 8.90393 13.161 9.13537 12.4501H8.32314C8.35371 11.5998 6.9345 11.5082 6.89956 11.155C7.17904 10.6883 7.53712 10.8802 7.90393 10.5314C8.16594 10.2871 8.16594 9.947 7.95196 9.70279L8.19651 9.14024L7.0524 9.92956L6.89956 9.8467C7.0131 9.62866 7.60699 9.21437 7.37991 8.78265C7.30568 8.65618 7.20524 8.55152 7.0655 8.49047L6.73362 7.76221L6.60699 8.46431C6.47162 8.51228 6.33188 8.61258 6.21397 8.78701C6.45851 8.90911 6.53275 9.40189 6.44978 9.68971C6.40175 9.86414 6.18341 10.0386 6.1572 10.165C6.18777 10.1868 6.30568 10.213 6.30568 10.213C6.29694 10.37 6.19651 10.4921 6.04367 10.4398C5.88646 10.3918 5.869 10.1214 5.99127 9.90775C6.1179 9.69407 6.27511 9.3452 6.0262 9.03122C5.86026 8.8219 5.55022 8.76957 5.31004 8.94836L4.77729 8.6213L5.0393 9.38881C4.87773 10.0211 5.13537 10.4223 5.13537 10.4223C5.0524 10.4572 4.93886 10.527 4.83843 10.6273L4.04803 10.3177L4.60699 11.0721C4.60262 11.1419 4.60699 11.2204 4.63319 11.3032C4.74236 11.7001 5.20961 11.8222 5.34061 11.8396C5.17904 12.2234 5.41921 12.8121 5.86026 12.8121C5.86026 13.2046 5.97817 13.7715 6.44978 14.2381L6.56769 13.6319C6.68559 13.7409 7.16157 14.539 7.27511 14.6306C7.28384 14.6218 7.42358 14.0811 7.42358 14.0811C7.42358 14.0811 7.9345 15.0012 9.131 14.696" fill="white"/>
<path d="M10.6375 6.07036C10.5502 5.86976 10.7074 5.72585 10.738 5.70404C10.8515 5.61683 11.0131 5.63427 11.1179 5.74329C11.2227 5.85667 11.2227 6.02675 11.1179 6.15757C10.9432 6.36253 10.4498 6.47592 10.1747 6.45411C10.2533 7.27395 10.9694 7.37425 11.2314 7.36553C11.7904 7.33501 12.262 7.12132 12.607 6.89892C12.7729 6.7899 12.9476 6.67652 13.1354 6.59802C13.4061 6.47592 13.7948 6.55877 13.7162 6.95125L13.5633 7.67951C13.4367 8.25515 13.2227 8.19846 12.7948 8.29003C12.1092 8.42958 10.4541 8.56913 10.8122 9.82506C10.9869 9.76837 11.4541 9.58957 11.703 9.39333L12.31 9.66807C12.8122 8.78281 13.8996 9.36281 14.3493 8.16793L14.6594 8.22898C14.5546 10.2219 11 10.0562 9.84715 11.8485C9.16156 12.9082 9.27947 14.9665 10.4279 16.1352C10.3668 16.1396 10.3013 16.1527 10.2358 16.1658C9.98689 16.2442 9.68122 16.4667 9.68122 16.8242C9.68122 17.1818 9.96943 17.4784 10.3319 17.4784C10.5546 17.4784 10.7598 17.365 10.8821 17.1818C10.8952 16.8678 11.1747 16.5015 11.6288 16.4536C11.4105 15.7515 9.93449 14.7616 10.5851 12.9562L10.8384 13.0565C10.4891 14.7049 12.2707 15.8169 12.1135 16.846C12.083 17.0292 11.9869 17.0946 11.8428 17.0946C11.7336 17.0946 11.7118 16.9987 11.8122 16.9245L11.7729 16.7588C11.5895 16.7937 11.4847 16.9202 11.4323 16.9943C11.3493 17.1251 11.3231 17.2778 11.3537 17.4042C11.393 17.5263 11.4803 17.6354 11.6113 17.7008C11.8079 17.8011 12.0611 17.8098 12.3144 17.7226C12.7642 17.5656 13.179 17.1077 13.1135 16.5495C13.1135 16.5495 13.0524 16.1309 13.1441 15.9303C12.1878 15.1409 11.3406 13.5449 12.0524 11.8398L12.3188 11.9314C11.917 13.087 12.5022 15.0973 13.9476 15.9782C14.0524 16.0436 14.1004 16.2486 13.9825 16.3445C13.8952 16.3969 13.7904 16.4274 13.8166 16.2791C13.8166 16.2791 13.6375 16.1963 13.5633 16.1527C13.524 16.3358 13.5851 16.5626 13.6943 16.6542C13.7904 16.7501 13.9301 16.8024 14.0961 16.8024C14.5327 16.8024 14.917 16.4012 15.0218 15.8518C15.2664 14.6089 12.8472 13.5754 13.7424 11.3601L14.0699 11.4299C13.5065 13.8065 15.5808 13.8327 15.572 15.7166C16.1397 15.6817 16.5415 15.093 16.3537 14.3778C16.1092 13.4271 14.738 13.1044 15.2489 11.6261L15.5633 11.6784C15.3799 12.1145 15.4279 12.6553 15.8559 13.0172C16.1965 13.3094 16.6201 13.305 16.9694 13.1001C17.3537 12.8646 17.4192 12.3849 17.2489 11.9619C16.3886 11.927 16.2227 11.1726 16.1659 10.3876C16.1354 9.89047 16.2096 9.35408 15.869 8.94416C16.655 8.64763 16.4891 7.84959 16.2707 7.60102C16.7467 7.29576 16.4192 6.65471 16.2052 6.49772C16.4454 6.31893 16.7424 6.07908 16.7555 5.33337C16.5065 5.34209 16.2795 5.3857 16.0262 5.28104C16.2183 5.063 16.1878 4.80135 16.1572 4.64872C16.1266 4.51353 16.0044 4.19519 15.5415 4.1821C15.0786 4.16902 14.8908 4.43503 14.8603 4.74029C14.8603 4.74029 14.3013 4.64435 13.9214 4.55714C13.2926 4.40451 12.3581 4.19083 12.048 4.50917L11.4716 5.11533C11.4716 5.11533 10.6332 5.063 9.89956 5.40751C9.84279 5.73893 9.92576 6.28404 10.6463 6.066M12.31 5.18074L12.4017 5.29848C12.4017 5.29848 12.4454 5.26796 12.4716 5.25051C12.6201 5.15021 12.8472 5.01503 13.2183 5.01503C13.5939 5.01067 13.9432 5.25924 13.9956 5.27232L13.7773 5.56014C13.7293 5.54705 13.6768 5.53397 13.6288 5.51653C13.6113 5.60374 13.5808 5.68224 13.5153 5.75201C13.4279 5.83923 13.31 5.8872 13.1965 5.8872C13.0917 5.8872 12.9913 5.84795 12.9083 5.77382C12.8428 5.7084 12.8035 5.62119 12.7904 5.53833C12.7598 5.56014 12.7336 5.57322 12.7074 5.59502C12.6594 5.62991 12.6157 5.65607 12.5677 5.68224C12.5284 5.70404 12.4847 5.71277 12.4498 5.71277C12.3581 5.71277 12.2751 5.6648 12.2227 5.58194C12.1616 5.47728 12.1572 5.30285 12.31 5.1851" fill="white"/>
<path d="M45.9214 24.4777C45.8166 25.0184 46.3494 25.3978 46.8123 25.3978C47.3232 25.3978 48.2751 25.1754 48.9214 23.6404C49.2577 22.8467 49.2795 21.9266 48.8516 21.3815C48.4935 20.9236 47.7206 20.6706 47.3537 21.0893C48.0786 21.2245 48.1834 22.3583 47.8385 23.213C47.4935 24.0765 46.7686 24.7132 45.9127 24.4777" fill="white"/>
<path d="M47.0524 21.2985C43.7162 19.3405 40.1179 14.5435 41.1092 7.72314C40.7511 7.82344 40.2227 7.84089 39.8952 7.83217C38.8297 13.6234 39.5415 19.9336 45.7817 24.0371C47.083 24.3991 48.0873 22.2056 47.0524 21.3029" fill="white"/>
<path d="M54.2926 4.50497C54.1921 4.49625 54.0786 4.48752 53.965 4.48752C53.083 4.48752 52.0349 4.81459 50.9301 5.15474C49.6332 5.5603 48.1572 6.01819 46.6637 6.01819C45.3319 6.01819 44.1703 5.65187 43.1223 4.88872C43.0305 4.82331 42.9345 4.7579 42.834 4.69248C41.965 4.09069 41.3886 3.69385 40.3755 3.69385C39.3624 3.69385 38.4585 4.51805 38.4585 5.52977C38.4585 6.54149 39.2664 7.13021 40.2489 7.13021C41.0043 7.13021 41.4629 6.72029 41.4978 6.17954C41.524 5.81759 41.4279 5.45127 40.8166 5.27248L40.9607 4.74482C41.9257 4.90181 42.5589 5.91789 41.9563 6.92525C42.7205 7.64915 44.572 8.25531 45.9956 8.25531C47.6899 8.25531 49.2271 7.65351 50.5808 7.12585C51.6899 6.69412 52.6463 6.31909 53.5284 6.31909C53.6637 6.31909 53.7947 6.32781 53.9214 6.34525H53.9301L53.7205 6.89908L55.8122 7.64043L56.0436 7.01682C56.1179 6.81186 56.1616 6.58074 56.1616 6.36269C56.1616 5.37714 55.3886 4.60527 54.2926 4.49189" fill="white"/>
<path d="M49.2183 27.7527L49.31 27.2904L45.4672 25.8862L45.2533 26.3092C45.2052 26.2962 45.1703 26.2874 45.1266 26.2874C44.8995 26.2874 44.7118 26.427 44.6332 26.6276C44.5458 26.8805 44.6594 27.1552 44.8995 27.2686L44.7685 27.7876L48.6113 29.1918L48.8646 28.7121C48.9039 28.7251 48.9389 28.7252 48.9738 28.7252C49.1921 28.7252 49.393 28.59 49.4672 28.3894C49.5546 28.1452 49.4454 27.8661 49.214 27.7483" fill="white"/>
<path d="M53.3581 7.40479L53.1528 7.94989L52.9782 7.88448L52.6725 8.5735L55.607 9.62446L55.8122 8.90928L55.6419 8.84387L55.8122 8.27696L53.3581 7.40479Z" fill="white"/>
<path d="M49.4934 20.976L49.1572 20.4047L53.476 9.41095L52.7642 9.14494L52.5109 9.73801L51.3013 7.67969C51.1572 7.73202 51.0131 7.78871 50.8646 7.85412C50.8428 7.85412 50.821 7.86284 50.8035 7.87156L52.2533 10.3398L51.7511 11.5172L49.8253 8.24224C49.6594 8.29893 49.4934 8.36434 49.3188 8.42103L51.4934 12.119L50.9913 13.2921L48.3013 8.72193C48.1266 8.76554 47.9476 8.80479 47.7642 8.84404L50.738 13.8939C50.7162 13.9375 50.2445 15.0495 50.2314 15.0801L46.655 9.00539C46.4629 9.01847 46.2795 9.02719 46.0786 9.03155L49.9825 15.6644C49.8734 15.9174 49.476 16.8506 49.476 16.8506L44.8122 8.92689C44.5808 8.88765 44.345 8.84404 44.1179 8.78298L49.2227 17.448C49.2227 17.448 48.821 18.3987 48.7205 18.6298L42.6157 8.25532C42.2489 8.08525 41.9345 7.90209 41.6725 7.69713L48.4629 19.2272C48.4629 19.2272 47.9956 20.3393 47.9039 20.5399C49.1266 20.348 50.1659 21.9528 49.3974 23.8062C48.7991 25.254 47.9039 25.7816 47.2445 25.8601L49.1921 26.5622L54.9694 9.96478L53.9651 9.59411L49.4891 20.976H49.4934Z" fill="white"/>
<path d="M32.9345 62.9971V62.0115H33.6812C33.5895 61.8196 33.4803 61.6496 33.3581 61.4839H32.9345V61.0565C32.7729 60.9257 32.5939 60.8123 32.4105 60.7207V61.4795H31.4279V60.7251H30.8995V61.4795H29.9214V60.7512C29.7336 60.8559 29.5589 60.978 29.3974 61.1219V61.4795H29.0524C28.9301 61.6452 28.8209 61.8153 28.7249 62.0072H29.3974V62.9927H28.4672C28.4629 63.0538 28.4585 63.1192 28.4585 63.1802V63.5204H29.3974V64.4623H29.9214V63.5204H30.8995V64.4623H31.4279V63.5204H32.4105V64.4623H32.9345V63.5204H33.9476V63.1802C33.9476 63.1192 33.9432 63.0538 33.9388 62.9927H32.9345V62.9971ZM30.8952 62.9971H29.917V62.0115H30.8952V62.9971ZM32.4061 62.9971H31.4236V62.0115H32.4061V62.9971Z" fill="white"/>
<path d="M13.3057 48.9553C13.3537 48.9465 13.3974 48.9334 13.4454 48.9247L14.0044 48.807L14.6288 50.3725C14.786 50.3594 14.952 50.3464 15.1266 50.3333V48.6631H17.9039V50.3333C18.0742 50.342 18.2358 50.3594 18.4061 50.3725L18.9956 48.8244L19.5327 48.9116L19.7118 48.9334C19.5327 47.3243 18.1659 46.0684 16.5109 46.0684C14.8559 46.0684 13.4716 47.333 13.31 48.9553" fill="white"/>
<path d="M42.048 55.78C42.083 55.4311 42.3013 55.1302 42.5546 54.947L42.6026 53.085H41.1528V55.3657H38.3101V53.085H35.4673V55.3657H32.6201V53.085H29.7729V55.3657H26.9345V53.085H24.0917V55.3657H21.2445V53.085H19.7991L19.8428 54.947C20.1004 55.1302 20.3232 55.4311 20.3537 55.78C20.3843 56.1332 20.2227 56.4646 19.9476 56.6609L19.9694 57.0097H42.4323L42.4498 56.6609C42.179 56.4646 42.0131 56.1332 42.0437 55.7843" fill="white"/>
<path d="M29.7292 58.3699L29.6768 57.6504H19.9956L20.4934 67.8461H26.179V63.1582C26.179 60.9036 27.6768 58.9979 29.7292 58.3656M24.0567 60.8818V62.9445H22.4541V60.8861V59.5823C22.4541 59.2508 22.9126 58.8496 23.1091 58.6926L23.2532 58.5793L23.4017 58.6926C23.6026 58.8496 24.0567 59.2552 24.0567 59.5823V60.8818Z" fill="white"/>
<path d="M26.7292 63.1801V63.8167H27.8559V63.1931C27.8559 63.0056 27.8734 62.8225 27.9083 62.6393L26.8122 62.3428C26.7554 62.6219 26.7292 62.8966 26.7292 63.1757" fill="white"/>
<path d="M27.8559 66.4902H26.7292V67.8683H27.8559V66.4902Z" fill="white"/>
<path d="M27.8559 64.4668H26.7292V65.8361H27.8559V64.4668Z" fill="white"/>
<path d="M34.4978 62.6437C34.5284 62.8269 34.5458 63.0101 34.5458 63.1976V63.8212H35.6768V63.1845C35.6768 62.9054 35.6463 62.6307 35.5939 62.3516L34.4978 62.6481V62.6437Z" fill="white"/>
<path d="M27.8253 60.2627C27.4498 60.6857 27.1572 61.1872 26.9738 61.7236L28.0743 62.0201C28.2009 61.68 28.3887 61.3616 28.6201 61.0738L27.8253 60.2627Z" fill="white"/>
<path d="M35.6768 66.4902H34.5458V67.8683H35.6768V66.4902Z" fill="white"/>
<path d="M34.5851 60.2627L33.7773 61.0738C34.0175 61.3616 34.2052 61.68 34.3319 62.0201L35.4323 61.7236C35.2489 61.1872 34.9607 60.6901 34.5851 60.2627Z" fill="white"/>
<path d="M35.6768 64.4668H34.5458V65.8361H35.6768V64.4668Z" fill="white"/>
<path d="M32.0873 57.668H30.3144L30.4978 60.3019H31.9126L32.0873 57.668Z" fill="white"/>
<path d="M29.8471 60.1451L29.7642 58.9546C29.2227 59.1421 28.7118 59.4299 28.2838 59.805L29.0873 60.6161C29.3144 60.4286 29.572 60.2716 29.8471 60.1495" fill="white"/>
<path d="M34.1222 59.805C33.6899 59.4299 33.179 59.1377 32.6375 58.9546L32.5546 60.1451C32.834 60.2672 33.0873 60.4286 33.3188 60.6161L34.1222 59.805Z" fill="white"/>
<path d="M13.8341 55.3743C13.1703 55.5007 13.166 56.2552 13.7511 56.2115C15.0874 55.9935 17.9345 55.9673 19.2533 56.2115C19.8734 56.2813 19.8821 55.492 19.1791 55.3786L19.1179 52.8101L20.5852 49.7793C20.2751 49.7008 20.0349 49.6703 19.6856 49.6179C19.607 49.6048 19.524 49.5918 19.428 49.5787L18.8428 51.0963L18.6638 51.0745C18.2751 51.0352 17.869 51.0003 17.4498 50.9785H17.2227V49.3345H15.7991V50.9785H15.5633C15.1267 51.0003 14.738 51.0352 14.3625 51.0701L14.1791 51.0875L13.5808 49.5787C13.2184 49.6615 12.7948 49.7618 12.5022 49.8578L13.8777 52.8014L13.8253 55.3655L13.8341 55.3743ZM14.2664 53.2374L14.2926 52.749L14.3319 52.7403C14.3319 52.7403 14.4367 52.7272 14.476 52.7185C15.131 52.6138 15.8777 52.5615 16.6157 52.5615C17.1005 52.5615 17.5721 52.5877 18.0175 52.6313L17.9869 53.159C17.5502 53.111 17.0961 53.0935 16.6201 53.0935C16.3537 53.0935 16.0743 53.1066 15.7686 53.1197L15.7293 54.96L15.2009 55.0036L15.2402 53.159C14.9694 53.1851 14.7555 53.2069 14.5546 53.2418C14.4847 53.2505 14.4367 53.2592 14.3668 53.2636L14.2664 53.2854V53.2374Z" fill="white"/>
<path d="M18.0568 56.6303L18.1048 58.4575C18.441 58.4663 18.7293 58.4837 18.9782 58.5055L19 59.0332H18.9913C18.4279 58.9852 17.6332 58.9677 16.5459 58.9677C16.1703 58.9677 15.8384 58.9677 15.5328 58.9677L15.4236 61.9462C15.7729 61.9549 16.1528 61.9593 16.5459 61.9593C17.6638 61.9593 18.559 61.9288 19.1397 61.8721L19.1659 62.3997C18.9039 62.4215 18.5895 62.4434 18.214 62.4564L18.3013 65.4218C18.7686 65.3608 19.0873 65.2866 19.3013 65.2212L19.3275 65.762C18.6376 65.9408 17.6638 66.0454 16.5546 66.0454C16.0961 66.0454 15.655 66.028 15.2358 65.9975L15.1485 68.9105C14.952 68.8931 14.786 68.8713 14.6245 68.8451L14.7074 65.9408C14.2838 65.8928 13.9083 65.8187 13.6026 65.7314L13.6376 65.1907H13.655C14.3144 65.4044 15.3668 65.5221 16.5546 65.5221C16.9869 65.5221 17.393 65.509 17.7729 65.4785L17.6856 62.4739C17.3362 62.4826 16.9563 62.487 16.5459 62.487C15.3537 62.487 14.4323 62.4521 13.7948 62.391L13.8253 61.8634H13.8297C14.1179 61.8939 14.4716 61.9113 14.8952 61.9288L14.9956 58.9852C14.6026 58.9983 14.2664 59.0157 13.9825 59.0375L14.0131 58.5099C14.6114 58.4619 15.4105 58.4401 16.5415 58.4401C16.917 58.4401 17.2664 58.4401 17.5677 58.4444L17.5197 56.6085C16.1572 56.5693 14.5284 56.6434 13.7205 56.796L13.048 68.6968C13.1441 68.9018 14.2358 69.364 16.5022 69.364C18.7686 69.364 19.786 68.8756 19.8515 68.7056L19.2751 56.7786C18.9694 56.7132 18.5371 56.6696 18.048 56.6347" fill="white"/>
<path d="M43.4061 48.8244L44 50.3725C44.1616 50.3594 44.3319 50.342 44.5065 50.3333V48.6631H47.2751V50.3333C47.4498 50.342 47.6157 50.3594 47.7816 50.3725L48.4061 48.807L48.965 48.9247C49.0131 48.9334 49.0567 48.9465 49.1048 48.9553C48.9432 47.333 47.572 46.0684 45.9039 46.0684C44.2358 46.0684 42.8777 47.3243 42.6987 48.9334L42.8777 48.9116L43.4148 48.8244H43.4061Z" fill="white"/>
<path d="M48.2096 51.0919L48.0306 51.0745C47.6638 51.0352 47.262 51.0047 46.8341 50.9785H46.5939V49.3345H45.1747V50.9742L44.9433 50.9785C44.5284 51.0003 44.1179 51.0352 43.7337 51.0745L43.5502 51.0963L42.9651 49.5787C42.8734 49.5918 42.7904 49.6048 42.7075 49.6179C42.3625 49.6659 42.1179 49.7008 41.8123 49.7793L43.2795 52.8101L43.2271 55.3786C42.524 55.492 42.5328 56.2813 43.1485 56.2115C44.4629 55.9673 47.3188 55.9979 48.6463 56.2115C49.2358 56.2595 49.2315 55.5051 48.5721 55.3786L48.5153 52.8144L49.8952 49.8709C49.5983 49.7749 49.1747 49.6703 48.8166 49.5874L48.2096 51.0963V51.0919ZM48.035 53.2636C47.9738 53.2549 47.9171 53.2462 47.8559 53.2418C47.655 53.2069 47.4236 53.1851 47.166 53.159L47.2096 54.9992L46.6813 54.96L46.6376 53.1153C46.3319 53.1023 46.0568 53.0935 45.7948 53.0935C45.3188 53.0935 44.8603 53.1153 44.4192 53.159L44.3887 52.6313C44.8341 52.5877 45.3057 52.5615 45.7948 52.5615C46.5328 52.5615 47.2664 52.6138 47.9345 52.7185C47.9782 52.7272 48.0699 52.7403 48.0699 52.7403L48.1179 52.749L48.1398 53.2374V53.2854L48.035 53.2636Z" fill="white"/>
<path d="M44.8821 56.6084L44.8297 58.4443C45.1354 58.4443 45.4803 58.44 45.8515 58.44C46.9869 58.44 47.7948 58.4618 48.3886 58.5097L48.4192 59.0374C48.1354 59.0156 47.8035 58.9982 47.4061 58.9851L47.5065 61.9287C47.9258 61.9112 48.2882 61.8938 48.5721 61.8633H48.5764L48.607 62.3909C47.9825 62.452 47.0524 62.4869 45.8515 62.4869C45.4454 62.4869 45.0568 62.4869 44.7162 62.4738L44.6245 65.4784C45.0044 65.5089 45.4105 65.522 45.8384 65.522C47.0393 65.522 48.0873 65.4043 48.7467 65.195H48.7598L48.7904 65.7313C48.4891 65.8186 48.1135 65.8883 47.69 65.9407L47.7729 68.845C47.6157 68.8712 47.441 68.893 47.2445 68.9104L47.1659 65.9973C46.7424 66.0322 46.2926 66.0453 45.8341 66.0453C44.7293 66.0453 43.7555 65.9407 43.0655 65.7619L43.0917 65.2211C43.3057 65.2865 43.6288 65.3563 44.0961 65.4217L44.1747 62.4563C43.8079 62.4432 43.4934 62.4214 43.2271 62.3996L43.2489 61.872C43.8341 61.9287 44.7249 61.9592 45.8428 61.9592C46.2445 61.9592 46.6157 61.9548 46.9651 61.9461L46.8646 58.9676C46.5546 58.9676 46.2183 58.9676 45.8428 58.9676C44.7598 58.9676 43.9651 58.9894 43.3974 59.0331H43.3886L43.4105 58.5054C43.6638 58.4836 43.952 58.4661 44.2882 58.4574L44.3362 56.6302C43.8384 56.6651 43.4105 56.7044 43.1048 56.7741L42.5284 68.7011C42.5939 68.8755 43.524 69.3639 45.8821 69.3639C48.2402 69.3639 49.2402 68.9017 49.3275 68.6967L48.6638 56.8003C47.8515 56.6433 46.2227 56.5735 44.869 56.6128" fill="white"/>
<path d="M32.6769 58.3875C34.7249 59.0198 36.2183 60.9299 36.2183 63.1801V67.868H41.9083L42.3974 57.668H32.7249L32.6725 58.3875H32.6769ZM38.3057 60.8863V59.5824C38.3057 59.251 38.7598 58.8498 38.9607 58.6928L39.1048 58.5794L39.2489 58.6928C39.4498 58.8498 39.9039 59.2553 39.9039 59.5824V60.8819V62.9446H38.3057V60.8863Z" fill="white"/>
<path d="M16.2402 45.5666H16.7686V34.9784C17.0874 34.865 17.3275 34.5641 17.3275 34.2065C17.3275 33.753 16.9564 33.3823 16.5066 33.3823C16.0568 33.3823 15.6812 33.753 15.6812 34.2065C15.6812 34.5641 15.9127 34.8694 16.2402 34.9784V35.1703H10.5328V41.4194H16.2402V45.5666ZM16.1616 34.2022C16.1616 34.0146 16.3188 33.8577 16.5109 33.8577C16.7031 33.8577 16.8559 34.0103 16.8559 34.2022C16.8559 34.394 16.7031 34.5467 16.5109 34.5467C16.3188 34.5467 16.1616 34.394 16.1616 34.2022ZM14.2751 38.9075V40.8917H13.0524V38.9075H11.0699V37.6865H13.0524V35.6979H14.2751V37.6865H16.2402V38.9075H14.2751Z" fill="white"/>
<path d="M46.1572 35.1703V34.9784C46.4804 34.8694 46.7249 34.5641 46.7249 34.2065C46.7249 33.7486 46.3494 33.3823 45.8996 33.3823C45.4498 33.3823 45.0699 33.753 45.0699 34.2065C45.0699 34.5641 45.3101 34.865 45.6332 34.9784V45.5666H46.1529V41.4194H51.8603V35.1703H46.1529H46.1572ZM45.8996 34.551C45.7031 34.551 45.5502 34.3984 45.5502 34.2065C45.5502 34.0146 45.7074 33.862 45.8996 33.862C46.0917 33.862 46.2446 34.019 46.2446 34.2065C46.2446 34.394 46.0917 34.551 45.8996 34.551ZM51.3406 36.5788L49.6114 38.3057L51.3406 40.0326V40.8961H50.476L48.7511 39.1648L47.0175 40.8961H46.1572V40.0196L47.8821 38.3057L46.1572 36.5876V35.6979H46.9957L48.738 37.4423L50.4804 35.6979H51.3363V36.5788H51.3406Z" fill="white"/>
<path d="M25.1136 45.3441V27.9879H36.9127C37.8123 27.9879 38.69 28.1143 38.9826 29.0214C39.1354 29.4793 39.0786 29.9415 38.8297 30.2904C38.6027 30.6044 38.2533 30.7745 37.8341 30.7745H27.6856V31.9039C27.8123 31.8734 27.9476 31.856 28.0874 31.856C28.1616 31.856 28.2489 31.8603 28.3232 31.8778V31.4199H28.4978C28.4978 31.4199 37.4498 31.4199 38.1441 31.4199C38.7118 31.4199 39.2009 31.1495 39.524 30.6654L39.5502 30.6218C39.5502 30.6218 39.5721 30.5913 39.5852 30.5739L39.6245 30.5085C39.8734 30.116 39.9345 29.427 39.7686 28.908C39.4323 27.8876 38.559 27.3032 37.3581 27.3032H24.428V45.8936H26.0437C25.6114 45.5621 25.2751 45.4182 25.2664 45.4139L25.1223 45.3572L25.1136 45.3441Z" fill="white"/>
<path d="M27.6812 38.5371V39.9849C27.8079 39.9544 27.9432 39.9326 28.083 39.9326C28.1572 39.9326 28.2445 39.9413 28.3188 39.9544V38.572C28.2445 38.5851 28.1528 38.5938 28.083 38.5938C27.9432 38.5938 27.8079 38.572 27.6812 38.5415" fill="white"/>
<path d="M22.5633 41.1141L22.5808 40.9441C22.6245 40.2725 22.4149 39.7361 22.0699 39.662C22.0175 39.6533 21.9694 39.6445 21.9258 39.6445C21.821 39.6445 21.6026 39.6445 21.5633 40.1199L21.5197 40.5167L21.1922 40.2943C21.1266 40.2507 21.0699 40.2332 21.0131 40.2332C20.8559 40.2332 20.6987 40.4251 20.6419 40.6955C20.5459 41.1229 20.69 41.7334 21.3887 42.0648L21.5371 42.1302L21.5284 42.2916C21.4978 42.78 21.6856 43.1289 22.0262 43.2117C22.3144 43.2815 22.4367 42.9588 22.4454 42.8105L22.4716 42.4878L22.7686 42.6056C22.8996 42.6535 23.1834 42.7451 23.524 42.7451C23.6638 42.7451 23.7991 42.732 23.9301 42.7015V41.3409C23.5328 41.3889 23.0786 41.3235 22.7162 41.1752L22.559 41.1098L22.5633 41.1141Z" fill="white"/>
<path d="M22.5633 30.4779L22.5808 30.3122C22.6245 29.6363 22.4149 29.1043 22.0699 29.0301C22.0175 29.0171 21.9694 29.0127 21.9258 29.0127C21.821 29.0127 21.6026 29.0127 21.5633 29.488L21.5197 29.8849L21.1922 29.6581C21.1266 29.6189 21.0699 29.5927 21.0131 29.5927C20.8559 29.5927 20.6987 29.7889 20.6419 30.0593C20.5459 30.491 20.69 31.1015 21.3887 31.4286L21.5371 31.4984L21.5284 31.6597C21.4978 32.1438 21.6856 32.497 22.0262 32.5799C22.3144 32.654 22.4367 32.327 22.4454 32.1787L22.4716 31.856L22.7686 31.9737C22.8996 32.0217 23.1834 32.1133 23.524 32.1133C23.6638 32.1133 23.7991 32.0958 23.9301 32.0697V30.7134C23.5328 30.7527 23.0786 30.6916 22.7162 30.5434L22.559 30.4736L22.5633 30.4779Z" fill="white"/>
<path d="M38.2009 47.1409H28.3188V46.6351C28.2445 46.6482 28.1572 46.6569 28.083 46.6569C27.9432 46.6569 27.8122 46.6351 27.6812 46.6046V47.782H38.1616C38.7554 47.782 39.5196 47.5509 39.7511 47.1235C39.8472 46.9403 39.8428 46.7267 39.7336 46.4868C39.4367 46.9316 38.8166 47.1409 38.1965 47.1409" fill="white"/>
<path d="M27.6812 43.0288V43.5521C27.8122 43.5172 27.9432 43.4954 28.083 43.4954C28.1572 43.4954 28.2445 43.5041 28.3188 43.5172V43.0593C28.2445 43.0724 28.1528 43.0768 28.083 43.0768C27.9432 43.0768 27.8122 43.0637 27.6812 43.0288Z" fill="white"/>
<path d="M25.7773 28.8252V44.9211C25.9738 45.0258 26.2402 45.1871 26.5371 45.4226C26.5109 45.3136 26.4978 45.2002 26.4978 45.0825C26.4978 44.6202 26.6987 44.2103 27.0044 43.9225V42.6665C26.6943 42.3787 26.4978 41.9644 26.4978 41.5065C26.4978 41.0487 26.6943 40.63 27.0044 40.3422V38.1792C26.6943 37.8958 26.4978 37.4815 26.4978 37.0105C26.4978 36.5395 26.6987 36.1383 27.0044 35.8461V34.5946C26.6943 34.3024 26.4978 33.8968 26.4978 33.4346C26.4978 32.9723 26.6987 32.5624 27.0044 32.2702V30.1073H27.262C26.8166 29.4706 26.2227 29.0563 25.7773 28.8208" fill="white"/>
<path d="M37.8297 30.1118C38.0306 30.1118 38.1878 30.0333 38.2839 29.9025C38.4105 29.7324 38.428 29.4838 38.3406 29.2265C38.2271 28.869 37.9564 28.6553 36.9083 28.6553H26.8603C27.297 28.9911 27.7686 29.4751 28.1136 30.1074H37.8297V30.1118Z" fill="white"/>
<path d="M38.6201 46.6654C38.9258 46.6044 39.4323 46.4343 39.4847 45.9372V31.3501C39.2314 31.5681 38.9389 31.7164 38.6157 31.7949V46.6611L38.6201 46.6654Z" fill="white"/>
<path d="M28.083 35.0133C27.9432 35.0133 27.8122 34.9915 27.6812 34.9609V35.4799C27.8122 35.4494 27.9432 35.4275 28.083 35.4275C28.1572 35.4275 28.2445 35.4363 28.3188 35.4494V34.9915C28.2445 35.0045 28.1572 35.0133 28.083 35.0133Z" fill="white"/>
<path d="M29.4454 36.2214C29.6813 35.9379 29.8079 35.589 29.8079 35.2227C29.8079 34.8564 29.6813 34.5075 29.4498 34.2241C29.4498 34.2241 29.4498 34.2241 29.4454 34.2197C29.2882 34.4988 29.0481 34.7169 28.7642 34.8564V35.5934C29.0481 35.7286 29.2926 35.951 29.4498 36.2257" fill="white"/>
<path d="M29.4454 44.2888C29.6812 44.0053 29.8079 43.6565 29.8079 43.2901C29.8079 42.9238 29.6812 42.575 29.4454 42.2915C29.2882 42.5662 29.0437 42.793 28.7598 42.9282V43.6565C29.0437 43.7916 29.2882 44.014 29.4454 44.2931" fill="white"/>
<path d="M28.8821 37.0108C28.8821 36.5617 28.524 36.1997 28.083 36.1997C27.6419 36.1997 27.2708 36.5617 27.2708 37.0108C27.2708 37.46 27.6288 37.8219 28.083 37.8219C28.5371 37.8219 28.8821 37.4556 28.8821 37.0108Z" fill="white"/>
<path d="M28.8821 41.5065C28.8821 41.0617 28.524 40.7041 28.083 40.7041C27.6419 40.7041 27.2708 41.053 27.2708 41.5065C27.2708 41.96 27.6332 42.3133 28.083 42.3133C28.5328 42.3133 28.8821 41.9557 28.8821 41.5065Z" fill="white"/>
<path d="M28.083 32.6279C27.6332 32.6279 27.2708 32.9942 27.2708 33.4391C27.2708 33.8839 27.6332 34.2458 28.083 34.2458C28.5328 34.2458 28.8821 33.8839 28.8821 33.4391C28.8821 32.9942 28.524 32.6279 28.083 32.6279Z" fill="white"/>
<path d="M28.8821 45.0826C28.8821 44.6334 28.524 44.2715 28.083 44.2715C27.6419 44.2715 27.2708 44.6378 27.2708 45.0826C27.2708 45.5274 27.6332 45.885 28.083 45.885C28.5328 45.885 28.8821 45.5231 28.8821 45.0826Z" fill="white"/>
<path d="M36.8865 34.4336L34.4498 36.8015L36.6725 39.0692L38.083 37.7042V35.6372L36.8865 34.4336Z" fill="white"/>
<path d="M38.083 33.2778L37.2533 34.0802L38.083 34.9219V33.2778Z" fill="white"/>
<path d="M28.7555 46.7003H33.4061L31.5153 44.7597L30.7729 45.4923L30.4149 45.1304L31.1659 44.3978L30.8428 44.0707L31.2009 43.7175L31.5197 44.0445L33.5109 42.1214L31.297 39.8537L30.2708 40.8655L29.917 40.5035L30.9432 39.4874L29.9083 38.4495L30.2664 38.1007L31.3057 39.1386L33.7293 36.7881L31.4891 34.4986L31.1921 34.7777L30.8515 34.4114L31.1441 34.141L30.2271 33.2209L30.5852 32.8633L31.5066 33.7965L33.5983 31.8516H28.7511V32.0086C29.2838 32.2615 29.6507 32.8066 29.6507 33.4346C29.6507 33.4564 29.6507 33.4738 29.6507 33.4956C30.179 33.923 30.4804 34.5509 30.4804 35.2225C30.4804 35.8941 30.179 36.5264 29.6507 36.9494C29.6507 36.9669 29.6507 36.9843 29.6507 37.0105C29.6507 37.6341 29.2838 38.1792 28.7511 38.4321V40.0805C29.2838 40.3378 29.6507 40.8785 29.6507 41.5021C29.6507 41.524 29.6507 41.5414 29.6507 41.5588C30.179 41.9862 30.4804 42.6098 30.4804 43.2857C30.4804 43.9617 30.179 44.5853 29.6507 45.017C29.6507 45.0301 29.6507 45.0563 29.6507 45.0781C29.6507 45.7017 29.2838 46.2424 28.7511 46.4997V46.6959L28.7555 46.7003Z" fill="white"/>
<path d="M35.0393 31.8516L36.8996 33.7267L38.083 32.5798L38.0786 31.8516H35.0393Z" fill="white"/>
<path d="M38.083 38.4062L37.0262 39.4311L38.0873 40.5125L38.083 38.4062Z" fill="white"/>
<path d="M38.0874 42.8411V41.2276L36.6638 39.7798L34.2358 42.1347L36.4673 44.4154L38.0874 42.8411Z" fill="white"/>
<path d="M38.0874 43.5474L36.821 44.7728L38.0874 46.0679V43.5474Z" fill="white"/>
<path d="M31.8646 34.1585L34.1004 36.4393L36.5327 34.0757L34.3362 31.8604L31.8646 34.1585Z" fill="white"/>
<path d="M31.6594 39.5053L33.8821 41.7685L36.31 39.4224L34.0917 37.1504L31.6594 39.5053Z" fill="white"/>
<path d="M36.1092 44.7641L33.8733 42.4834L31.8821 44.4153L34.1135 46.7004L36.1092 44.7641Z" fill="white"/>
<path d="M36.4585 45.126L34.8384 46.7002H38.0087L36.4585 45.126Z" fill="white"/>
</g>
<defs>
<clipPath id="clip0_1712_2959">
<rect width="303" height="80" fill="white"/>
</clipPath>
</defs>
</svg>
