<svg width="100" height="100" viewBox="0 0 100 100" fill="none" xmlns="http://www.w3.org/2000/svg">
<g clip-path="url(#clip0_2005_1380)">
<path d="M100 0H0V100H100V0Z" fill="white"/>
<path d="M24.346 13.77L25.1809 13.6164C42.0993 12.9627 59.1831 12.9627 75.9713 13.7207C77.6869 13.7984 79.2214 14.5823 79.2164 16.5367C79.2398 29.3819 79.3258 43.041 79.4109 56.3153C79.3992 58.243 79.1855 60.0864 78.6946 61.858C78.7539 61.9223 78.6913 62.0567 78.6111 62.1084C78.5143 62.2587 78.4642 62.4315 78.4442 62.6094C77.8589 65.1732 76.4213 67.5008 75.0212 69.6222C73.177 72.0241 71.3412 74.1129 68.9267 75.9671C63.4517 80.3685 57.3238 84.3683 51.2494 87.5124C50.3002 88.0284 50.0405 87.9591 48.9936 87.4181C43.1512 84.3984 37.4291 80.7951 32.339 76.6851C26.3931 71.8847 21.9558 65.9655 21.1209 58.3699L21.09 58.2681C20.8964 52.3055 21.0959 46.1384 21.09 40.1516L21.1836 39.9713C21.3004 33.8893 21.3246 27.7464 21.2554 21.5434L21.3722 20.994C21.3522 19.2241 21.3689 17.4559 21.424 15.6893C21.3121 15.3671 21.7429 14.8962 21.9984 14.6491C22.2806 14.3761 22.8207 13.9553 23.1772 14.0196L24.346 13.7692V13.77Z" fill="black"/>
<path d="M78.7788 61.8582C78.7555 61.9308 78.7271 61.93 78.6954 61.8582C78.9717 60.6602 79.0677 59.3745 79.2831 58.1464C79.329 47.1546 79.1979 36.1478 79.1094 25.1694C79.0869 22.3601 79.3799 18.8578 79.1119 16.1504C78.9325 14.3329 77.2911 13.8746 75.7308 13.771C71.0806 13.463 66.4371 13.4955 61.7861 13.4396C49.4176 13.2902 36.6676 13.0447 24.3459 13.7702L23.1771 14.0207C22.3798 14.312 21.6527 14.8213 21.4239 15.6904C21.3613 17.4102 21.3479 19.1325 21.383 20.8573C21.3939 21.3173 21.2962 21.4877 21.09 21.3674C21.0958 19.9741 20.8696 17.219 21.1133 16.006C21.3237 14.959 22.6069 13.847 23.6413 13.6917C26.6777 13.2367 30.301 13.3578 33.4075 13.2726C46.8346 12.9061 60.6048 12.8143 73.9776 13.6041C75.1004 13.67 76.7142 13.5281 77.6843 13.9881C78.5543 14.4005 79.1003 15.1152 79.2856 16.0602C79.329 29.3955 79.3941 42.7315 79.5336 56.0526C79.5536 58.002 79.253 59.9756 78.7788 61.8582Z" fill="black"/>
<path d="M21.0901 40.1516C21.0842 33.8918 21.065 27.627 21.0901 21.3672C21.2863 21.2771 21.3205 21.0133 21.3405 20.8246C21.4991 19.331 21.0684 17.041 21.424 15.6902C21.4048 17.4568 21.4482 19.2275 21.4273 20.9949C21.3564 27.0343 21.5968 33.3659 21.3447 39.3618C21.3372 39.538 21.3722 40.1875 21.0901 40.1516Z" fill="black"/>
<path d="M24.3459 13.77C23.9677 13.8811 23.572 14.0171 23.1771 14.0205C23.6355 13.8527 23.855 13.7992 24.3459 13.77Z" fill="black"/>
<path d="M78.779 61.8582C78.0718 64.6658 76.7519 67.3691 75.0221 69.6224C75.159 69.0839 75.6332 68.6214 75.9254 68.1463C76.9849 66.429 77.8464 64.5214 78.445 62.6095C78.4642 62.4334 78.5143 62.2589 78.612 62.1086C78.637 61.9992 78.683 61.9141 78.6955 61.8582H78.779Z" fill="black"/>
<path d="M77.0835 15.717C77.2146 15.8288 77.4934 16.3072 77.521 16.4892C77.6487 17.3149 77.5009 18.5981 77.5226 19.493C77.6504 24.7151 77.5802 29.9547 77.6053 35.1893C77.6212 38.4644 77.8816 41.8431 77.6971 45.1241C77.6854 45.3353 77.6554 45.5349 77.6011 45.7377C76.8397 45.7402 76.0725 45.7653 75.3103 45.7502C59.6683 45.4439 43.9654 45.3236 28.3143 45.6668C26.435 45.7077 24.5541 45.7269 22.6748 45.7469C22.6915 45.0097 22.6548 44.2684 22.6715 43.5304C22.876 34.5873 22.7449 25.6034 22.8376 16.647C22.8685 15.9006 23.4554 15.4782 24.1408 15.3622C25.6461 15.1075 27.4393 15.1743 28.9813 15.11C40.2127 14.6475 51.6194 14.7611 62.87 14.943C66.9399 15.009 71.0157 14.9931 75.0631 15.3563C75.6809 15.4114 76.5575 15.2712 77.0818 15.7178L77.0835 15.717Z" fill="#DE352C"/>
<path d="M55.2727 28.346C55.6734 28.9522 56.8723 29.5274 57.4083 30.1744C57.9442 30.8214 57.9985 31.496 57.6904 32.2958C56.8998 34.352 55.1909 36.9727 53.0027 37.7098C51.8498 38.0981 50.4689 38.4612 49.2892 38.2091C45.8413 37.4719 44.594 36.1395 43.1004 33.0438C42.5903 31.9869 42.1887 31.3298 43.0111 30.2228C43.4594 29.6184 45.2635 28.5523 45.3729 27.9846C45.4422 27.6231 44.4988 25.8615 44.4036 25.313C44.1006 23.5757 45.7361 24.0607 46.9333 24.0432C47.0894 24.0407 47.2296 23.9664 47.3565 23.9639C47.6537 23.9572 47.9885 24.1275 48.3333 24.0231C48.588 23.9463 48.9177 22.8176 49.6232 22.5588C50.3829 22.2799 51.0374 22.5104 51.5141 23.1282C51.7345 23.4145 51.8673 23.9455 52.2071 24.0215C52.5469 24.0974 53.1505 24.0398 53.5287 24.0432C54.0972 24.0473 54.6883 23.973 55.2785 24.0398C57.0643 24.2427 55.3203 26.764 55.074 27.6782C55.0256 28.0288 55.1049 28.0914 55.2735 28.3469L55.2727 28.346Z" fill="black"/>
<path d="M53.5669 30.1344C53.4725 30.2245 53.915 30.8665 53.9993 30.9951C54.5637 31.8542 55.3485 32.6348 55.9471 33.478C56.0472 33.7092 55.5555 34.6134 55.3643 34.8121C55.2817 34.8981 55.2149 35.02 55.0671 34.9406C54.8935 34.8471 53.5068 32.4745 53.1828 32.062C53.0033 31.8341 52.7871 31.4793 52.4807 31.471C52.262 31.7081 54.0962 35.0901 54.3041 35.6186C54.3274 35.8707 52.9967 36.7882 52.651 36.7273C52.4882 36.6112 51.7293 33.4137 51.5181 32.8919C51.4864 32.8126 51.2025 32.1447 51.0615 32.3058L51.4831 37.0094C50.6624 37.3885 49.7908 37.3901 48.9701 37.0094L49.3901 33.0981C49.3892 32.9503 49.4493 32.2207 49.2657 32.224C48.9935 32.2282 47.9741 36.1963 47.8088 36.6964C47.5225 36.885 46.1834 35.8774 46.1433 35.7563C46.0281 35.4115 48.2229 31.7106 47.9708 31.4718C47.7913 31.3023 47.2896 32.0153 47.1852 32.1464C46.4747 33.0422 46.0089 34.1183 45.2575 34.9757C44.9353 34.7461 44.3442 33.741 44.5045 33.3936C44.7733 33.1524 47.0616 30.2946 46.8846 30.136C46.8421 30.0976 46.5257 30.1586 46.443 30.2195L44.0528 32.4394C43.961 32.4761 43.9401 32.517 43.8741 32.4227C42.9291 31.0761 44.1922 30.5952 44.9837 29.8822C46.9957 28.0672 48.0393 25.7814 49.6889 23.7986C49.8985 23.5465 50.0454 23.362 50.4153 23.4738C50.6373 23.5406 52.1501 25.8891 52.444 26.2882C53.1202 27.2073 54.0427 28.5581 54.825 29.3337C55.3668 29.8714 56.7544 30.6386 56.8237 31.4292C56.8462 31.6814 56.6759 32.5638 56.2944 32.4636C56.1007 32.4127 55.199 31.2923 54.9444 31.0519C54.7582 30.8757 53.7464 29.9624 53.5652 30.136L53.5669 30.1344Z" fill="#FEE600"/>
<path d="M55.027 24.8738C55.1372 24.9064 55.1506 25.0366 55.1381 25.1443C55.118 25.323 54.4652 27.1864 54.3575 27.2106C54.2498 27.2348 54.1738 27.1096 54.107 27.0445C53.9359 26.8783 52.7879 25.3681 52.7136 25.1827C52.6719 25.0775 52.6218 24.9932 52.6469 24.873C53.2488 24.9865 54.5136 24.7211 55.0262 24.873L55.027 24.8738Z" fill="#FEE600"/>
<path d="M45.3429 24.8738H47.6805C47.8558 24.8738 47.7523 25.0625 47.7064 25.1493C47.5511 25.444 46.5677 26.8006 46.3364 27.0361C46.2713 27.1029 46.2203 27.2398 46.0951 27.2114C45.9031 27.1671 45.3863 25.3505 45.2294 25.0658L45.3421 24.8738H45.3429Z" fill="#FEE600"/>
<path d="M38.9101 24.671C38.9301 24.7002 39.022 24.701 39.037 24.7653C39.2407 25.6644 37.7939 27.7199 37.9676 28.3193C38.0752 28.6908 39.4494 29.5824 39.8068 29.8888C40.6475 30.6093 41.0173 31.3039 40.6441 32.4477C40.4571 33.0196 39.4043 34.9973 39.0353 35.4949C38.6521 36.0117 37.2095 37.3408 36.6476 37.6347C35.9747 37.9878 33.4827 38.6298 32.7572 38.5438C31.2344 38.3627 29.578 37.709 28.4209 36.7222C27.2638 35.7354 26.3329 34.1675 25.7343 32.7107C25.3194 31.6996 25.3077 31.2054 26.0182 30.3447C26.4648 29.8028 28.183 28.7167 28.3199 28.2158C28.3742 28.0179 27.399 25.9241 27.3047 25.4641C27.0175 24.0715 27.9718 24.3445 28.8951 24.2886C29.6624 24.2418 30.4404 24.1124 31.2144 24.2777C32.01 23.4253 31.9549 22.5596 33.4084 22.6998C34.5279 22.8075 34.649 24.1433 35.0906 24.2727C35.5323 24.4021 36.2544 24.1959 36.7462 24.2018C36.9624 24.2043 37.1419 24.2811 37.3289 24.2894C37.9684 24.3178 38.5077 24.0907 38.9101 24.6718V24.671Z" fill="black"/>
<path d="M37.5718 29.3468C38.3248 30.1441 40.1632 31.0132 39.6405 32.2788C39.2824 33.1471 39.0803 32.4425 38.6654 32.0501C38.2597 31.6669 37.7855 31.196 37.3714 30.842C37.2378 30.7277 36.5925 30.17 36.4522 30.3011C36.4998 30.5699 36.6734 30.8345 36.817 31.0624C37.1552 31.5984 38.8983 33.5219 38.8725 33.926C38.8599 34.1164 38.263 35.3236 37.9541 35.1057C37.2061 34.1481 36.6534 32.9275 35.892 31.9933C35.7927 31.8714 35.5339 31.5801 35.3669 31.7212C35.1999 31.8622 37.0533 35.4054 37.2019 35.8554C37.1969 36.0875 36.1867 36.7787 35.9555 36.858C35.5155 37.0092 35.5447 36.8789 35.4295 36.5433C35.0572 35.4605 34.8418 34.26 34.4519 33.178C34.401 33.0352 34.2565 32.6019 34.2006 32.5176C33.9201 32.0927 33.9426 33.3976 33.9485 33.5144C33.9727 34.0204 34.4936 37.1728 34.3609 37.3097C33.9393 37.2997 33.4801 37.5769 33.0744 37.5668C32.8481 37.561 31.9314 37.3765 31.873 37.1703L32.3606 32.4717C32.1076 32.2254 31.7954 33.2339 31.7377 33.3934C31.3404 34.5054 31.0498 35.7443 30.7727 36.8948C30.5514 37.1068 29.2632 36.2352 29.1129 36.0082C29.0553 35.9205 29.0128 35.8337 29.0562 35.7268C29.2774 35.2326 31.074 31.9407 30.857 31.7212C30.6875 31.5492 30.1724 32.2605 30.0697 32.394C29.4243 33.2322 28.9209 34.2124 28.3557 35.1065C27.9942 35.3386 27.3021 34.0145 27.3631 33.7014C27.9433 32.93 28.7039 32.1887 29.2223 31.3797C29.4294 31.0574 29.7358 30.6868 29.6882 30.3019C29.6047 30.2059 28.6371 31.0733 28.5185 31.1768C28.0176 31.6151 27.5893 32.1344 27.0784 32.5577C26.9724 32.6462 27.0058 32.925 26.7286 32.5518C26.5357 32.293 26.474 31.8314 26.5215 31.5174C26.6267 30.8304 27.6227 30.3528 28.1036 29.927C29.9044 28.3308 31.0966 25.8913 32.5751 24.0463C32.8598 23.6915 33.1912 23.5245 33.5761 23.8685C34.1881 24.8553 34.8593 25.8053 35.5481 26.7387C36.155 27.561 36.8847 28.6213 37.5718 29.3485V29.3468Z" fill="#FEE600"/>
<path d="M30.4823 25.0407C30.6876 25.0749 30.7427 25.1843 30.6476 25.3721C30.4814 25.7002 29.5522 26.9083 29.2717 27.2531C29.2007 27.3399 29.1031 27.466 28.9803 27.4626C28.881 26.91 28.1413 25.6969 28.1154 25.2327C28.1112 25.1609 28.178 25.0407 28.2281 25.0407C28.8559 25.0407 29.9212 24.9464 30.4823 25.0407Z" fill="#FEE600"/>
<path d="M37.7457 25.0407C37.8109 25.049 37.9252 25.1426 38.0263 25.135C38.139 25.2619 37.3642 27.4342 37.2432 27.4618C37.1221 27.4893 37.0653 27.3583 37.0002 27.2881C36.7222 26.9876 35.8206 25.7562 35.6285 25.4039C35.5626 25.2828 35.51 25.1851 35.5325 25.0407C36.2255 25.1075 37.0728 24.9505 37.7449 25.0407H37.7457Z" fill="#FEE600"/>
<path d="M68.4618 23.3361C68.7214 23.6609 68.8107 24.0382 69.153 24.272C70.1824 24.3939 71.3863 24.1693 72.3931 24.2879C73.4976 24.4173 73.0059 25.6595 72.758 26.3099C72.7329 26.3767 72.6344 26.3767 72.6085 26.4435C72.5092 26.7015 72.0066 28.0097 72.03 28.1541C72.0608 28.3453 72.4056 28.7352 72.5559 28.8838C73.2814 29.6034 74.7207 30.2087 74.8443 31.3533C74.9428 32.2591 73.9401 34.1267 73.4492 34.9482C72.591 36.385 71.1175 37.5588 69.5287 38.0405C67.561 38.6375 66.8563 38.6675 64.8827 38.0606C62.2537 37.2524 60.872 35.1845 59.8377 32.7534C58.9009 30.5527 60.4296 30.1887 61.7178 29.019C62.1978 28.5832 62.4441 28.3503 62.2429 27.6766C62.0417 27.0028 61.1985 25.5301 61.3471 24.8506C61.3629 24.7763 61.5533 24.439 61.6042 24.3972C61.7244 24.2987 62.7037 24.2152 62.955 24.2027C63.7239 24.1626 64.4937 24.2528 65.2592 24.2536C65.7101 24.1025 65.8336 22.8544 66.8062 22.7117C67.6227 22.5914 67.9742 22.7258 68.4618 23.337V23.3361Z" fill="black"/>
<path d="M71.7956 29.5199C72.3341 30.065 73.7943 30.9191 73.8502 31.688C73.8677 31.9226 73.6206 32.7934 73.3251 32.7107C73.1506 32.6623 72.2289 31.5369 71.9759 31.3056C71.8332 31.1754 70.6969 30.1936 70.5984 30.3013C70.5675 30.6277 70.8071 30.9433 70.9816 31.2113C71.5268 32.0495 72.3341 32.8034 72.8918 33.6441C73.0237 33.9455 72.7757 34.3495 72.6163 34.6142C72.4994 34.8087 72.284 35.2737 72.0168 35.1043C71.4216 34.3078 70.9549 33.3636 70.3822 32.5629C70.2519 32.3809 69.9071 31.9001 69.7669 31.7773C69.2534 31.329 69.6851 32.4836 69.7635 32.6807C69.9848 33.2375 71.2797 35.5317 71.2621 35.8573C71.2446 36.1829 69.8345 37.0879 69.6033 36.8892C69.17 35.697 68.9746 34.2744 68.4912 33.1173C68.4578 33.0363 68.1598 32.3016 68.0103 32.4719L68.4319 37.2624C67.6238 37.5755 66.6687 37.684 65.9307 37.173L66.3389 32.4711C66.1787 32.2866 65.9282 33.0831 65.899 33.1574C65.4398 34.3387 65.1643 35.6628 64.8262 36.885C64.5131 37.057 63.2358 36.1896 63.179 36.0009C63.1381 35.8665 63.1706 35.7671 63.2049 35.6402C63.477 34.6284 64.6116 33.1858 64.8788 32.1372C64.9222 31.9669 64.9355 31.8091 64.9188 31.6354C64.817 31.4968 64.0063 32.5938 63.9337 32.694C63.3769 33.4588 62.9319 34.3103 62.4184 35.1043C62.0636 35.3339 61.3365 33.9997 61.4734 33.6633C62.1237 32.8084 62.9661 31.9485 63.5346 31.0427C63.6757 30.8181 63.8694 30.576 63.8344 30.2996C63.563 29.9991 61.2179 32.6782 61.0359 32.7199C60.8923 32.7525 60.6243 32.1213 60.5976 31.9927C60.3897 30.9959 61.5635 30.4825 62.1663 29.9248C63.3693 28.8111 64.4388 27.2374 65.4064 25.9016C65.8021 25.3539 66.3314 24.3462 66.758 23.9138C66.9659 23.7026 67.1421 23.6233 67.451 23.7201C67.658 23.7852 68.7375 25.5393 68.9763 25.8674C69.7869 26.9827 70.8539 28.5656 71.7948 29.519L71.7956 29.5199Z" fill="#FEE600"/>
<path d="M72.1836 25.1244L71.3897 27.4629C71.1935 27.4629 69.639 25.4091 69.5939 25.167C69.5621 24.9992 69.6164 25.0551 69.7191 25.0409C69.9846 25.0034 72.0934 25.0409 72.1836 25.1253V25.1244Z" fill="#FEE600"/>
<path d="M64.5449 25.041C64.7502 25.0753 64.8053 25.1846 64.7102 25.3725C64.6467 25.4969 63.4211 27.1758 63.336 27.2543C63.1698 27.407 63.0646 27.4646 62.9327 27.2367C62.8409 27.0781 62.234 25.3533 62.2456 25.2489C62.254 25.1754 62.3208 25.0402 62.3742 25.0402C62.9795 25.0402 64.0039 24.9492 64.5449 25.0402V25.041Z" fill="#FEE600"/>
<path d="M21.0901 58.2681C21.3063 58.2147 21.2888 58.4451 21.3155 58.5829C21.5376 59.7542 21.5793 60.6609 21.9024 61.8388C23.9637 69.3518 28.7741 74.022 34.9079 78.5544C39.6515 82.0592 44.6774 85.2024 49.9729 87.7863C50.1432 87.8598 50.2969 87.8155 50.463 87.7663C51.5834 87.4365 53.2573 86.2978 54.3276 85.7025C59.4327 82.8648 64.3083 79.5145 68.9276 75.9664C68.8015 76.1534 68.6371 76.3195 68.4659 76.4648C67.4608 77.3188 66.1166 78.253 65.0305 79.0395C61.1242 81.8688 56.6727 84.8251 52.3882 87.0182C52.0451 87.1936 50.4463 87.9825 50.2067 87.9683C50.1073 87.9625 49.9763 87.9116 49.8761 87.879C48.2364 87.338 45.8913 85.8369 44.3735 84.9495C37.8366 81.1275 29.1006 75.3577 24.933 68.9919C23.0295 66.0841 21.2028 61.7345 21.0901 58.2665V58.2681Z" fill="black"/>
<path d="M78.445 62.6093C78.4299 62.4181 78.4508 62.2311 78.6119 62.1084C78.5593 62.3397 78.5001 62.434 78.445 62.6093Z" fill="black"/>
<path d="M59.8268 56.2646C59.9219 58.1505 62.849 58.1681 62.9592 56.2646L63.5811 57.2288C64.3167 57.971 65.5865 57.8107 66.1283 56.93C66.2694 56.7012 66.2243 56.3756 66.5057 56.2654C66.696 58.219 69.3659 58.1238 69.6798 56.2654C69.9144 56.4992 69.891 56.7989 70.1365 57.1019C70.7968 57.9184 72.2453 57.8926 72.7571 56.9642C72.8965 56.7112 72.8915 55.9991 73.1896 56.5543C73.5928 57.3056 73.8424 57.7298 74.8167 57.6897C75.7234 57.6521 76.0239 57.1053 76.3503 56.3831C76.5323 55.9799 76.5991 56.788 76.7377 57.0143C76.9907 57.4275 77.6895 57.5327 77.7028 57.8926C77.717 58.295 77.4958 59.3268 77.4056 59.7752C76.8529 62.5244 75.6966 65.2418 74.2239 67.6137C74.067 67.8666 73.0059 69.4996 72.8798 69.533C72.6252 69.5998 72.3572 69.0622 72.0667 68.9495C71.443 68.7082 70.6324 68.8125 70.1807 69.3301C69.9403 69.6057 69.9194 69.9972 69.7232 70.2902C69.5587 70.0824 69.5638 69.8369 69.4177 69.5956C68.8474 68.6581 67.5317 68.6138 66.7987 69.3702L66.3854 70.2068C65.9338 69.2233 65.5598 68.7341 64.3809 68.8718C63.506 68.9745 63.4751 69.533 63.1069 70.0999C62.8815 70.4472 62.8882 69.8553 62.7855 69.6315C62.3597 68.6982 60.9472 68.5838 60.2442 69.2433C59.886 69.5789 60.0054 69.9146 59.7892 70.2894C59.5262 69.8369 59.239 69.1373 58.7081 68.9511C56.3371 68.1238 55.4738 71.6026 57.8273 72.0852C57.4766 72.3139 57.0191 72.4141 56.7411 72.7522C56.1859 73.4285 56.4205 74.8002 57.2111 75.2059C57.4508 75.3286 57.8365 75.2251 57.8273 75.549C56.4122 75.6183 55.9822 77.4692 56.9382 78.3592C57.1978 78.6004 57.6027 78.6313 57.8273 78.8885C56.5959 78.9511 56.0682 80.3578 56.6727 81.3388C56.7937 81.535 57.4825 82.0392 57.4098 82.1444C55.8704 83.0344 54.3651 83.9995 52.7914 84.8318C52.3898 85.0447 50.4621 86.0758 50.1875 86.0733C49.9696 86.0708 48.7565 85.4421 48.4601 85.2952C47.859 84.9963 47.2579 84.6557 46.6685 84.3318C46.2252 84.088 43.021 82.3131 42.9676 82.1044C42.9392 81.9942 43.6054 81.611 43.7549 81.3897C44.2616 80.6408 44.0362 79.3986 43.1955 79.0387C43.0052 78.9569 42.7764 79.0237 42.6353 78.8492C43.1688 78.5378 43.6906 78.3508 43.9252 77.7197C44.1765 77.0434 43.9586 76.1217 43.3057 75.7561C43.0836 75.6317 42.4909 75.5791 42.8248 75.3645C43.1362 75.1633 43.3441 75.1742 43.6338 74.8402C44.5555 73.7758 43.8367 72.4767 42.6353 72.0869C42.7555 71.9149 42.9726 71.9917 43.1296 71.9149C44.7817 71.1059 44.0679 68.3567 41.8798 68.9119C41.2528 69.0705 41.0023 69.6775 40.7552 70.2068C40.3361 69.2066 39.6448 68.4953 38.4827 68.9378C37.7923 69.2007 37.6821 69.6724 37.4158 70.2902C37.2037 69.9154 37.2129 69.5681 36.8756 69.2458C36.1735 68.5738 34.6207 68.7257 34.3243 69.705C34.2759 69.8645 34.3184 70.519 34.0287 70.1575C33.709 69.7584 33.7733 69.0864 32.9726 68.8927C31.6828 68.5804 31.191 69.2675 30.6534 70.2927C30.5307 68.628 28.5362 68.34 27.6479 69.624C25.6818 67.051 24.1047 64.0288 23.2883 60.8772C23.153 60.3537 22.6112 58.0403 22.8065 57.6872C22.8742 57.5645 23.4427 57.3365 23.6431 57.1044C23.8535 56.8607 23.8743 56.5935 24.0597 56.3514L24.5155 57.1454C25.1383 57.9861 26.4908 57.835 27.0585 57.0126C27.1687 56.8532 27.1912 56.7004 27.2689 56.5551C27.5527 56.0225 27.5093 56.606 27.6287 56.8707C28.239 58.2307 30.5983 57.8291 30.6133 56.2663C30.868 56.4282 30.9089 56.778 31.0767 57.0118C31.9766 58.2691 33.7891 57.7022 34.0363 56.2663C34.3151 56.5167 34.2149 56.8807 34.4904 57.1888C35.0264 57.789 36.0566 57.8483 36.7011 57.3875C37.1194 57.0886 37.1812 56.6778 37.4166 56.2663C37.6345 57.4793 38.9895 58.1455 40.0406 57.3875C40.524 57.0393 40.448 56.7571 40.6717 56.2671C40.9998 56.8264 41.11 57.41 41.8222 57.6196C43.2314 58.0336 44.2032 56.9692 43.9494 55.5758C43.8358 54.9522 43.2356 54.7359 42.7505 54.5206C42.3673 54.3502 43.122 54.2167 43.3291 54.0814C44.1013 53.5788 44.2174 52.2739 43.6063 51.6194C43.3483 51.3431 42.9367 51.2546 42.6353 51.0475C42.7722 50.8914 42.9826 50.9231 43.163 50.8263C44.1806 50.277 44.3084 48.7416 43.3433 48.0838C43.0686 47.8968 42.8657 47.9744 42.6353 47.7916C43.0394 47.4935 43.5654 47.36 43.8025 46.8732C46.368 46.8549 48.9544 46.7313 51.5283 46.7447C51.7253 46.7455 51.9081 46.8332 52.106 46.8348C53.38 46.8482 55.0789 46.6862 56.2853 46.8298C56.7386 46.8832 57.3055 47.6305 57.8264 47.7916C57.3598 47.9769 57.0592 48.0253 56.7436 48.4603C56.287 49.0898 56.3588 49.9255 56.8655 50.5082C57.1619 50.8488 57.465 50.8422 57.8264 51.0484C57.5184 51.2571 57.1552 51.3239 56.8772 51.6002C56.1926 52.2806 56.3287 53.6398 57.1844 54.1131C57.4065 54.2359 57.6444 54.2275 57.8264 54.3878C56.8021 54.786 56.1509 55.6009 56.5708 56.7304C56.9599 57.7757 58.4242 58.0161 59.2048 57.2672C59.522 56.9634 59.522 56.5376 59.8309 56.2663L59.8268 56.2646Z" fill="white"/>
<path d="M50.39 51.9246C50.4117 51.9388 50.481 52.322 50.5211 52.4213C50.6839 52.8287 50.865 53.2487 51.047 53.6486C51.1606 53.8999 51.7416 55.163 51.8543 55.2623C51.9478 55.3458 52.938 55.4218 53.2561 55.5303C54.0408 55.7983 55.036 56.5255 55.4701 57.2401C55.6271 57.4981 55.9268 58.4206 55.9894 58.4741C56.3175 58.7512 59.0851 58.8088 59.7037 58.8514C59.7947 58.8581 59.9817 58.8055 59.9107 58.9758C59.8222 59.1862 58.3729 60.2815 58.0732 60.562C57.8395 60.7816 57.1023 61.4428 57.0981 61.7142C57.0948 61.9354 57.2242 62.246 57.2375 62.4847C57.3227 63.9357 56.6322 65.6847 55.329 66.4219C55.4451 67.7126 55.8742 68.9482 56.1539 70.2055C56.0345 70.2189 55.936 70.2114 55.8241 70.1604C55.1963 69.8766 54.313 69.1336 53.6226 68.7721C53.4306 68.6719 52.938 68.3847 52.7643 68.3688C52.4822 68.3429 51.9078 68.7863 51.5463 68.8956C50.6171 69.1761 49.3748 69.0935 48.4748 68.7437C48.2461 68.6543 47.9539 68.3822 47.7585 68.3697C47.5632 68.3571 47.0405 68.6644 46.8318 68.7729C46.0771 69.1619 45.2815 69.8858 44.5977 70.2122C44.4967 70.2606 44.4257 70.3199 44.3005 70.2898C44.6011 69.0175 44.9876 67.7544 45.0995 66.4428C45.0661 66.2708 44.546 65.997 44.3798 65.8275C43.565 64.9985 43.1409 63.2945 43.2235 62.1591C43.2377 61.9638 43.3763 61.7384 43.3713 61.563C43.3613 61.2141 42.4672 60.4543 42.1691 60.1905C41.7283 59.7998 41.0704 59.4108 40.6705 59.0175C40.5896 58.9382 40.5119 58.9099 40.5436 58.7696C41.8268 58.6911 43.1133 58.5801 44.384 58.3939C44.5568 58.3071 44.7405 57.5983 44.8666 57.3737C45.3241 56.5614 46.4302 55.7374 47.3252 55.4911C47.6658 55.3976 48.5683 55.3542 48.6885 55.2682C48.8939 55.1196 49.2805 54.1904 49.4074 53.8999C49.6854 53.267 49.9099 52.5741 50.1454 51.9229C50.2163 51.9329 50.3549 51.9012 50.39 51.9246Z" fill="black"/>
<path d="M55.1514 68.7865C55.0746 68.8642 53.2471 67.9617 53.1853 67.8724C53.0351 67.6553 53.3156 67.1903 53.3072 66.9164C53.2872 66.2026 52.378 65.3219 51.9948 64.7216C51.7961 64.411 51.5131 63.8425 52.1518 64.3142C52.7303 64.7425 53.3314 66.0474 53.9033 66.403C54.198 66.5858 54.6029 66.4681 54.7432 66.6485C54.8834 66.8288 55.0103 68.4267 55.1514 68.7857V68.7865Z" fill="#089479"/>
<path d="M48.6393 64.1965C48.8755 64.4336 47.2142 66.0641 47.0789 66.434C46.8978 66.9299 47.1173 67.4533 47.2133 67.9417C46.952 67.9968 45.4685 68.9594 45.3842 68.8717C45.4376 68.5779 45.6288 66.6068 45.729 66.5458C45.8133 66.4949 46.1055 66.555 46.2558 66.53C46.6364 66.4682 47.2384 65.6809 47.5047 65.3578C47.6132 65.2259 48.3738 63.931 48.6393 64.1974V64.1965Z" fill="#089479"/>
<path d="M58.3246 59.3544C58.075 59.5848 57.0623 60.7895 56.846 60.8454C56.5839 60.9139 56.2383 60.4689 55.9911 60.3938C55.0369 60.1057 53.7262 61.2503 52.7319 61.2737C52.7135 61.1476 52.7344 61.0775 52.8095 60.9765C53.0049 60.7135 54.5151 60.3604 54.8991 60.2276C55.572 59.9939 55.6347 59.8085 55.9569 59.1982L58.3254 59.3552L58.3246 59.3544Z" fill="#089479"/>
<path d="M44.7488 59.7392C44.7605 59.7584 45.0335 60.0481 45.0527 60.0589C45.6112 60.3812 46.7592 60.5323 47.4212 60.8646C47.5573 60.933 47.7518 60.9932 47.7218 61.1893C46.6381 61.2995 45.4126 60.1057 44.3798 60.3946C44.0559 60.4856 43.9866 60.8086 43.57 60.6266C43.4707 60.5832 42.6508 59.8285 42.5039 59.6849C42.4647 59.6474 42.1457 59.3268 42.2125 59.27C42.2977 59.1982 44.2571 58.9753 44.4149 59.0304C44.5418 59.0746 44.6178 59.5321 44.7497 59.7392H44.7488Z" fill="#089479"/>
<path d="M50.1438 53.5926L50.4293 53.7646C50.4285 54.1929 51.1481 55.0753 51.1423 55.3893C51.1381 55.6247 50.7482 55.7541 50.6046 55.9327C50.0586 56.614 50.6873 58.1117 50.3884 58.9725C50.2657 59.3256 50.0119 59.2605 49.971 58.8973C49.8825 58.1009 50.2991 56.4921 49.8466 55.9327C49.703 55.7549 49.4116 55.7007 49.3883 55.4669C49.3532 55.1188 50.1196 54.0384 50.1438 53.5918V53.5926Z" fill="#089479"/>
<path d="M49.3598 56.2992C49.8858 56.6415 49.5627 57.544 49.5552 58.0558C49.5476 58.5675 49.5026 59.263 49.7271 59.7104C49.7397 59.7355 50.0928 60.0961 50.1195 60.1028C50.3107 60.1504 50.6764 59.8282 50.7331 59.647C50.8792 59.1811 50.8266 58.2444 50.815 57.721C50.7999 57.0472 50.471 56.2683 51.5263 56.1022C53.0015 55.8709 56.1673 58.0199 55.1896 59.5151C54.9417 59.8941 53.044 60.2306 52.4296 60.6396C51.7392 61.0997 51.9186 61.922 52.9355 61.7684C53.6268 61.6632 54.4224 61.0855 54.9659 60.9611C57.033 60.4877 56.5246 63.3688 56.0036 64.5034C55.6956 65.1738 54.9392 66.2115 54.0885 65.9235C53.9206 65.8667 52.7201 64.0475 52.175 63.7086C51.7341 63.4339 51.0888 63.3922 51.1481 64.0601C51.2073 64.728 52.2417 65.7148 52.5481 66.3409C53.0557 67.3778 52.3052 67.8737 51.3935 68.1592C50.3925 68.4723 48.7303 68.2669 47.9447 67.5214C47.6375 67.23 47.4304 66.917 47.5807 66.4711C47.5874 66.4528 47.8245 66.29 47.8829 66.2157C48.2177 65.7857 49.6946 64.1185 49.2045 63.6318C48.4966 62.9297 46.8861 65.2356 46.6106 65.7565C46.0604 66.204 45.4009 65.8375 45.0068 65.3666C44.4817 64.7397 44.03 63.3797 43.9766 62.5573C43.9232 61.735 44.2404 60.6655 45.2239 60.8918C45.9486 61.0579 46.669 61.6448 47.5189 61.7709C48.2928 61.8853 48.7579 61.3201 48.0983 60.7741C47.3102 60.122 45.6046 60.0861 45.1838 59.3473C44.8273 58.7211 45.4293 57.8888 45.8434 57.4329C46.563 56.6407 48.3513 55.6422 49.3615 56.3L49.3598 56.2992Z" fill="#DE352C"/>
<path d="M51.3618 62.746C50.3699 64.3039 47.6583 62.4722 49.1419 60.8985C50.3599 59.6061 52.3661 61.1698 51.3618 62.746Z" fill="#FEE600"/>
</g>
<defs>
<clipPath id="clip0_2005_1380">
<rect width="100" height="100" fill="white"/>
</clipPath>
</defs>
</svg>
